<svg preserveAspectRatio="none" overflow="visible" style="display: block;" width="90" height="16.0001" viewBox="0 0 90 16.0001" fill="none" xmlns="http://www.w3.org/2000/svg">
<g id="bloomberg">
<path id="Vector" d="M89.9997 12.1686C89.9469 12.4505 89.9118 12.7358 89.8415 13.0144C89.4301 14.6347 88.3366 15.5654 86.6631 15.861C85.429 16.0784 84.1879 16.0614 82.9854 15.664C81.7127 15.2427 80.8935 14.4139 80.6333 13.1129C80.6263 13.0789 80.6192 13.045 80.6157 13.0144C80.6157 12.9974 80.6192 12.9838 80.6263 12.9532C80.686 12.9532 80.7423 12.9532 80.7985 12.9532C81.7584 12.9532 82.7217 12.9532 83.6816 12.9532C83.7941 12.9532 83.8679 12.9702 83.9207 13.0891C84.0472 13.3609 84.2828 13.5307 84.5676 13.6258C84.9192 13.7447 85.2778 13.7549 85.6399 13.6836C86.1357 13.5851 86.4451 13.2929 86.5822 12.8276C86.7123 12.3792 86.6666 11.9206 86.6736 11.4348C86.6138 11.4688 86.5752 11.4824 86.5541 11.5062C85.538 12.5898 84.2898 12.7019 82.9538 12.2467C81.7513 11.8391 81.013 10.9593 80.6755 9.79415C80.2114 8.19083 80.3415 6.62147 81.1818 5.14723C81.6845 4.26404 82.4334 3.63901 83.4847 3.46577C84.7539 3.25517 85.8755 3.51333 86.6631 4.60033C86.6771 4.61731 86.6912 4.6377 86.7053 4.65128C86.7123 4.65808 86.7264 4.65808 86.765 4.66827C86.765 4.33877 86.765 4.01946 86.765 3.68997C86.8283 3.67978 86.867 3.66619 86.9057 3.66619C87.9147 3.66619 88.9203 3.66619 89.9293 3.66619C89.954 3.66619 89.9751 3.67298 89.9997 3.67638C89.9997 6.50598 89.9997 9.33897 89.9997 12.1686ZM86.8143 7.8919C86.8178 7.53863 86.7475 7.10383 86.5365 6.703C86.2763 6.20705 85.879 5.88775 85.2813 5.89114C84.6485 5.89454 84.2371 6.22743 83.9839 6.77093C83.8117 7.1378 83.7589 7.53183 83.7554 7.92927C83.7519 8.44899 83.8257 8.95512 84.1105 9.41031C84.6801 10.3207 85.8755 10.3241 86.4486 9.4137C86.7264 8.97551 86.8143 8.48975 86.8143 7.8919Z" fill="white"/>
<path id="Vector_2" d="M0 12.9158C0 8.60514 0 4.31488 0 0.0144367C0.0421908 0.00764297 0.0843817 0.000849219 0.123057 0.000849219C2.40839 0.0042461 4.69373 -0.00934141 6.97907 0.0144367C7.9143 0.0246274 8.8003 0.265806 9.54216 0.850068C10.1856 1.3562 10.5301 2.03218 10.6426 2.81686C10.7305 3.4249 10.6954 4.02615 10.4457 4.60022C10.2172 5.13013 9.80585 5.49699 9.29253 5.76535C9.23276 5.79592 9.16947 5.82989 9.08861 5.87065C9.13432 5.90122 9.15893 5.93179 9.19057 5.94538C10.4809 6.42094 11.1419 7.35169 11.2825 8.6493C11.381 9.56306 11.2017 10.4293 10.7024 11.2207C10.1223 12.1413 9.23979 12.6338 8.16041 12.8037C7.68928 12.8784 7.2076 12.909 6.72944 12.9124C4.56013 12.9226 2.39433 12.9158 0.225018 12.9158C0.1547 12.9158 0.0843817 12.9158 0 12.9158ZM3.66709 10.0964C4.21205 10.0964 4.73944 10.1032 5.26682 10.093C5.69225 10.0828 6.11767 10.0726 6.53958 10.025C6.9861 9.97408 7.32011 9.74309 7.51348 9.33886C7.63654 9.0773 7.6506 8.80215 7.61896 8.52361C7.55919 8.03106 7.2955 7.67779 6.79976 7.52493C6.62396 7.47058 6.4341 7.4468 6.24776 7.4468C5.4391 7.44001 4.63396 7.4434 3.8253 7.4434C3.77608 7.4434 3.72334 7.4502 3.66709 7.4536C3.66709 8.33339 3.66709 9.20299 3.66709 10.0964ZM3.63193 5.00445C3.71631 5.00445 3.7796 5.00445 3.84288 5.00445C4.47574 5.00445 5.10861 5.00445 5.74147 5.00445C5.79421 5.00445 5.84695 5.00105 5.89969 5.01124C6.38488 5.10296 6.90875 4.83121 7.05642 4.37603C7.12322 4.17561 7.13728 3.95481 7.12674 3.74421C7.10916 3.37395 6.9193 3.07502 6.55716 2.93575C6.33917 2.85083 6.09658 2.80327 5.86101 2.79988C5.17189 2.78289 4.47926 2.79308 3.79014 2.79308C3.74092 2.79308 3.68818 2.79988 3.63193 2.80327C3.63193 3.537 3.63193 4.26053 3.63193 5.00445Z" fill="white"/>
<path id="Vector_3" d="M45.7937 5.04859C45.8816 4.9263 45.9378 4.84478 45.9976 4.76325C46.6937 3.80533 47.6641 3.4079 48.8525 3.43168C49.7209 3.44866 50.4909 3.67965 51.0851 4.32166C51.5351 4.80741 51.7742 5.39847 51.8727 6.03368C51.9359 6.44471 51.9711 6.86592 51.9746 7.28373C51.9852 9.09087 51.9781 10.8946 51.9781 12.7018C51.9781 12.7697 51.9781 12.8342 51.9781 12.909C50.8495 12.909 49.7385 12.909 48.6134 12.909C48.6134 12.8342 48.6134 12.7663 48.6134 12.7018C48.6134 11.0475 48.6204 9.39659 48.6099 7.74231C48.6064 7.45018 48.5712 7.15465 48.4939 6.87271C48.3778 6.45829 48.0755 6.21372 47.6254 6.16956C47.1965 6.1254 46.8379 6.25108 46.5777 6.59417C46.3105 6.94744 46.2226 7.35507 46.2226 7.77968C46.2156 9.42037 46.2191 11.0645 46.2191 12.7051C46.2191 12.7663 46.2191 12.8274 46.2191 12.9056C45.101 12.9056 43.9935 12.9056 42.8544 12.9056C42.8544 12.8444 42.8544 12.7799 42.8544 12.7153C42.8544 11.0746 42.8614 9.43056 42.8509 7.78987C42.8473 7.48755 42.8122 7.17843 42.7383 6.8863C42.6293 6.47188 42.334 6.22391 41.8805 6.17296C41.4445 6.1254 41.0824 6.25108 40.8187 6.59757C40.5409 6.96443 40.4636 7.39583 40.46 7.83403C40.453 9.45774 40.4565 11.0848 40.4565 12.7085C40.4565 12.7697 40.4565 12.8308 40.4565 12.9056C39.3033 12.9056 38.1571 12.9056 37.0039 12.9056C37.0039 9.84498 37.0039 6.78439 37.0039 3.71362C38.0692 3.71362 39.1275 3.71362 40.2069 3.71362C40.2069 4.16201 40.2069 4.61039 40.2069 5.05878C40.221 5.06557 40.2385 5.07237 40.2526 5.07916C40.2948 5.02821 40.3405 4.97726 40.3757 4.92291C40.8187 4.22655 41.4164 3.72041 42.2602 3.53019C42.8227 3.4045 43.3853 3.38752 43.9478 3.5132C44.7424 3.69324 45.3155 4.15181 45.6882 4.85157C45.7163 4.90592 45.7444 4.95687 45.7937 5.04859Z" fill="white"/>
<path id="Vector_4" d="M52.9629 0.00756836C54.0774 0.00756836 55.1849 0.00756836 56.31 0.00756836C56.31 1.54635 56.31 3.08174 56.31 4.66469C56.3768 4.61034 56.4155 4.58995 56.4401 4.55938C57.1328 3.72035 58.0574 3.38067 59.1439 3.40105C60.7084 3.43162 61.7316 4.22989 62.3609 5.55806C62.8145 6.51259 62.934 7.53165 62.9024 8.57109C62.8742 9.47126 62.7195 10.3443 62.3257 11.1697C61.3378 13.2316 59.0278 13.5475 57.6285 12.9802C57.0554 12.7492 56.6054 12.3722 56.2854 11.8559C56.2608 11.8185 56.2362 11.7811 56.187 11.6996C56.187 12.1276 56.187 12.5081 56.187 12.9055C55.1006 12.9055 54.0388 12.9055 52.9629 12.9055C52.9629 8.61525 52.9629 4.3216 52.9629 0.00756836ZM59.4497 8.2382C59.4322 7.65054 59.3759 7.05609 59.0665 6.51259C58.7466 5.9521 58.2543 5.71092 57.6074 5.81623C57.0835 5.90115 56.7319 6.22385 56.5315 6.67564C56.0815 7.67771 56.092 8.69338 56.4929 9.70904C56.6194 10.025 56.8269 10.2899 57.1257 10.4801C57.6777 10.8334 58.6657 10.8368 59.1298 9.8687C59.3794 9.35917 59.4357 8.80887 59.4497 8.2382Z" fill="white"/>
<path id="Vector_5" d="M73.0598 9.18598C70.9151 9.18598 68.7915 9.18598 66.6679 9.18598C66.6187 10.3307 67.6418 11.1494 68.7669 10.881C69.1747 10.7825 69.4595 10.5447 69.6353 10.1779C69.6599 10.1303 69.7267 10.0692 69.7759 10.0692C70.8061 10.0624 71.8363 10.0658 72.8699 10.0658C72.8805 10.0658 72.891 10.0726 72.9227 10.0794C72.9051 10.1541 72.8875 10.2288 72.8629 10.3002C72.3425 11.8967 71.1964 12.807 69.5193 13.1128C68.3696 13.3234 67.2339 13.2656 66.144 12.8172C64.6533 12.2024 63.7708 11.0916 63.4297 9.58002C63.152 8.34355 63.2399 7.12407 63.8095 5.96914C64.4951 4.57642 65.6553 3.76117 67.2234 3.5098C68.345 3.32976 69.4419 3.42148 70.4721 3.93101C71.6429 4.51188 72.3496 5.463 72.7398 6.65531C72.993 7.42979 73.0738 8.22466 73.0774 9.02972C73.0703 9.07728 73.0633 9.12144 73.0598 9.18598ZM69.7021 7.32449C69.6775 6.27146 68.9884 5.58189 68.0567 5.65662C67.2375 5.72116 66.5554 6.53981 66.6749 7.32449C67.6769 7.32449 68.686 7.32449 69.7021 7.32449Z" fill="white"/>
<path id="Vector_6" d="M16.0255 8.34696C16.0501 7.41282 16.2365 6.52283 16.7146 5.70419C17.3299 4.64776 18.2651 3.97858 19.4641 3.66267C20.5927 3.36714 21.7248 3.37733 22.8393 3.72721C24.1648 4.14502 25.1141 4.98405 25.6063 6.24089C26.2181 7.79666 26.1865 9.35923 25.413 10.8606C24.766 12.1209 23.6585 12.8376 22.2486 13.106C21.106 13.3234 19.9739 13.2656 18.8874 12.824C17.3651 12.2092 16.5001 11.0713 16.1767 9.53247C16.0923 9.14862 16.0712 8.74439 16.0255 8.34696ZM22.551 8.34356C22.5334 8.0786 22.5264 7.81025 22.4948 7.54869C22.435 7.09691 22.326 6.65871 22.0553 6.27486C21.5173 5.51396 20.3923 5.53095 19.893 6.31562C19.791 6.47867 19.7067 6.65531 19.6504 6.83874C19.4148 7.58266 19.4078 8.34356 19.4922 9.10786C19.5414 9.56644 19.6469 10.0114 19.9035 10.4089C20.2586 10.9592 20.9302 11.1528 21.5279 10.8708C21.89 10.701 22.108 10.4055 22.2592 10.0556C22.4877 9.50869 22.5405 8.93122 22.551 8.34356Z" fill="white"/>
<path id="Vector_7" d="M31.3694 3.43848C32.1499 3.45886 32.8988 3.58454 33.6125 3.88686C34.6743 4.34205 35.4373 5.08936 35.8697 6.12541C36.4569 7.5419 36.4815 8.98557 35.9225 10.4123C35.3283 11.9205 34.1575 12.7969 32.5367 13.1128C31.4292 13.3268 30.3322 13.2724 29.2774 12.858C27.7304 12.2534 26.8374 11.112 26.5104 9.55285C26.2748 8.42849 26.3346 7.31091 26.7847 6.2375C27.4034 4.76326 28.5602 3.90385 30.1529 3.58115C30.5537 3.50302 30.9651 3.48264 31.3694 3.43848ZM32.8847 8.35715C32.8672 8.0922 32.8601 7.82384 32.8285 7.56228C32.7722 7.1105 32.6632 6.6723 32.3925 6.28846C32.0901 5.86385 31.6718 5.67702 31.1373 5.73816C30.5678 5.8027 30.2548 6.16277 30.0509 6.63833C29.8681 7.06634 29.8083 7.52152 29.7837 7.9801C29.7486 8.69005 29.7837 9.3966 30.0509 10.0692C30.2162 10.4802 30.4693 10.8165 30.9334 10.949C31.5557 11.129 32.178 10.8437 32.5015 10.222C32.8144 9.63438 32.8742 8.99916 32.8847 8.35715Z" fill="white"/>
<path id="Vector_8" d="M11.9043 0.0109863C13.0575 0.0109863 14.1967 0.0109863 15.3464 0.0109863C15.3464 4.32502 15.3464 8.62886 15.3464 12.9429C14.2002 12.9429 13.061 12.9429 11.9043 12.9429C11.9043 8.63566 11.9043 4.33181 11.9043 0.0109863Z" fill="white"/>
<path id="Vector_9" d="M77.0538 12.9428C75.9146 12.9428 74.7966 12.9428 73.668 12.9428C73.668 9.86866 73.668 6.79788 73.668 3.71352C74.7298 3.71352 75.7916 3.71352 76.878 3.71352C76.878 4.22984 76.878 4.74277 76.878 5.2591C76.8956 5.26589 76.9096 5.26929 76.9272 5.27608C76.9624 5.22513 77.001 5.17757 77.0292 5.12322C77.3104 4.65106 77.648 4.22984 78.1226 3.92412C78.6922 3.55726 79.3286 3.45196 80.0001 3.5097C80.2427 3.53009 80.2603 3.56405 80.2603 3.79165C80.2603 4.6001 80.2603 5.41196 80.2603 6.22041C80.2603 6.28156 80.2603 6.3427 80.2603 6.42422C80.0739 6.40384 79.9017 6.38006 79.7294 6.36648C78.9699 6.31213 78.2668 6.42762 77.7148 6.9949C77.328 7.39573 77.1628 7.89167 77.096 8.42498C77.0643 8.68315 77.0573 8.94471 77.0538 9.20287C77.0503 10.3748 77.0503 11.5467 77.0503 12.7186C77.0538 12.79 77.0538 12.8579 77.0538 12.9428Z" fill="white"/>
</g>
</svg>
