<svg width="100" height="22" viewBox="0 0 100 22" fill="none" xmlns="http://www.w3.org/2000/svg">
<g id="Clip path group">
<mask id="mask0_0_1" style="mask-type:luminance" maskUnits="userSpaceOnUse" x="0" y="0" width="100" height="22">
<g id="LogoFull_svg__a">
<path id="Vector" d="M0 0H100V22H0V0Z" fill="white"/>
</g>
</mask>
<g mask="url(#mask0_0_1)">
<g id="Group">
<path id="Vector_2" fill-rule="evenodd" clip-rule="evenodd" d="M41.3642 6.58255C42.1965 6.58255 42.9738 6.73428 43.696 7.03772C44.3986 7.32864 45.0386 7.75263 45.5808 8.28641C46.1141 8.81516 46.5419 9.44079 46.8414 10.1299C47.1475 10.8308 47.3005 11.5857 47.3005 12.3943C47.3042 13.1613 47.1538 13.9212 46.8584 14.6289C46.563 15.3365 46.1285 15.9775 45.5808 16.5137C45.0365 17.0422 44.3969 17.4623 43.696 17.7517C42.9738 18.0552 42.1965 18.2069 41.3642 18.2069C40.5318 18.2069 39.7543 18.0552 39.0316 17.7517C38.331 17.4627 37.6917 17.0431 37.1475 16.5152C36.5995 15.9789 36.1648 15.3377 35.8694 14.6298C35.574 13.9218 35.4238 13.1616 35.4278 12.3943C35.4278 11.5851 35.5808 10.8306 35.8869 10.1306C36.1863 9.44128 36.6141 8.81538 37.1475 8.28641C37.6895 7.75271 38.3292 7.32873 39.0316 7.03772C39.7538 6.73428 40.5313 6.58255 41.3642 6.58255ZM74.3839 6.58255C75.3733 6.58255 76.2096 6.75375 76.8929 7.09614C77.5758 7.43802 78.1371 7.88536 78.577 8.43814C79.0169 8.99092 79.3349 9.61349 79.5308 10.3059C79.7278 10.9977 79.826 11.7017 79.8255 12.4179V13.1651H70.8732C70.8732 13.6476 70.9793 14.0871 71.1914 14.4836C71.4036 14.8806 71.6823 15.2192 72.0278 15.4994C72.3733 15.7796 72.7738 15.9973 73.2293 16.1525C73.6842 16.3087 74.162 16.3877 74.6429 16.3862C75.302 16.3862 75.8753 16.2345 76.3626 15.931C76.8727 15.6064 77.3262 15.2002 77.7051 14.7286L79.3073 15.9424C78.1291 17.4521 76.4801 18.2069 74.3604 18.2069C73.4811 18.2069 72.6839 18.059 71.9687 17.7631C71.2536 17.4672 70.649 17.0588 70.1551 16.5379C69.655 16.0061 69.2665 15.3793 69.0126 14.6945C68.745 13.9859 68.6114 13.2192 68.6119 12.3943C68.6119 11.57 68.7571 10.8038 69.0475 10.0957C69.3243 9.4085 69.7324 8.78204 70.249 8.25152C70.7682 7.72303 71.3894 7.30592 72.0748 7.02559C72.7818 6.72972 73.5515 6.58205 74.3839 6.58255ZM84.9702 5.78145V6.86248H90.0854V5.78145H92.4058V6.86248H95.2445V8.68317H92.2051V13.7014C92.2051 14.0125 92.2129 14.32 92.2286 14.6239C92.2442 14.9274 92.3033 15.1997 92.4058 15.441C92.5073 15.6822 92.6644 15.8767 92.877 16.0243C93.0887 16.172 93.3988 16.2459 93.8073 16.2459C94.0589 16.2459 94.318 16.2226 94.5846 16.1761C94.8523 16.1295 95.0957 16.0441 95.3149 15.9197V17.8337C95.0634 17.9732 94.7376 18.0703 94.3376 18.125C94.0293 18.1714 93.7183 18.1988 93.4066 18.2069C92.5899 18.2069 91.9579 18.0941 91.5104 17.8686C91.0629 17.6425 90.7331 17.3507 90.521 16.9931C90.3089 16.635 90.1831 16.2342 90.1437 15.7907C90.1045 15.3444 90.085 14.8967 90.0854 14.4487V8.68317H84.7695V13.7014C84.7695 14.0125 84.7775 14.32 84.7937 14.6239C84.8089 14.9274 84.8677 15.1997 84.9702 15.441C85.0722 15.6822 85.2293 15.8767 85.4414 16.0243C85.6536 16.172 85.9637 16.2459 86.3717 16.2459C86.6233 16.2459 86.8823 16.2226 87.149 16.1761C87.4167 16.1295 87.6601 16.0441 87.8793 15.9197V17.8337C87.6283 17.9732 87.3025 18.0703 86.902 18.125C86.5937 18.1714 86.2827 18.1988 85.971 18.2069C85.1543 18.2069 84.5222 18.0941 84.0748 17.8686C83.6273 17.6425 83.2975 17.3507 83.0854 16.9931C82.8733 16.635 82.7475 16.2342 82.7081 15.7907C82.6689 15.3444 82.6494 14.8967 82.6498 14.4487V8.68317H80.1998V6.86248H82.6498V5.78145H84.9702ZM30.4596 6.60607C31.2763 6.60607 32.0576 6.74995 32.8036 7.03772C33.5495 7.326 34.1975 7.76549 34.7475 8.35621L33.1452 9.80365C32.7528 9.39906 32.3404 9.09181 31.9081 8.88193C31.4763 8.67154 30.9621 8.56634 30.3657 8.56634C29.7849 8.56634 29.2783 8.67154 28.846 8.88193C28.4246 9.08442 28.0543 9.37952 27.7626 9.74524C27.4667 10.121 27.243 10.5485 27.1028 11.0061C26.9531 11.4856 26.8775 11.9852 26.8786 12.4877C26.8786 13.001 26.9649 13.4875 27.1376 13.9472C27.3109 14.4065 27.5543 14.807 27.8679 15.1489C28.1826 15.4913 28.5596 15.7598 28.999 15.9546C29.4384 16.1488 29.9333 16.2459 30.4839 16.2459C31.0798 16.2459 31.5899 16.1409 32.0142 15.931C32.4384 15.7211 32.8311 15.4139 33.1922 15.0093L34.6998 16.503C34.1777 17.091 33.5181 17.5401 32.7801 17.8101C32.0354 18.0761 31.2502 18.2104 30.4596 18.2069C29.596 18.2069 28.8068 18.0668 28.0922 17.7866C27.4025 17.523 26.7733 17.122 26.2429 16.6077C25.7191 16.0921 25.3097 15.4717 25.0414 14.787C24.7586 14.079 24.6172 13.2971 24.6172 12.4414C24.6172 11.5857 24.7586 10.7997 25.0414 10.0836C25.3073 9.39387 25.7122 8.76637 26.2308 8.24014C26.7544 7.71707 27.38 7.30774 28.0687 7.03772C28.7828 6.74945 29.5798 6.60531 30.4596 6.60531M55.2604 6.58179C55.7845 6.58095 56.3055 6.66393 56.8036 6.82759C57.2853 6.98325 57.7273 7.24212 58.099 7.58621C58.4677 7.92809 58.7621 8.36759 58.9823 8.90469C59.2025 9.44179 59.3126 10.076 59.3126 10.8073V17.927H57.1914V11.3907C57.1914 10.8774 57.121 10.4379 56.9801 10.0722C56.8387 9.70655 56.6503 9.41069 56.4149 9.18462C56.1844 8.9619 55.9065 8.79435 55.602 8.69455C55.294 8.59316 54.9717 8.54194 54.6475 8.54283C54.2081 8.54283 53.7998 8.61287 53.4225 8.75296C53.0453 8.89423 52.7064 9.1221 52.4331 9.41827C52.1503 9.72172 51.9306 10.1068 51.774 10.5737C51.6169 11.041 51.5384 11.5935 51.5384 12.2312V17.927H49.4179V6.86248H51.5384V8.56634H51.5854C51.852 7.97462 52.3154 7.49618 52.9755 7.13103C53.6351 6.76538 54.3967 6.58255 55.2604 6.58255M66.6126 0C66.8485 0 67.096 0.00758621 67.3551 0.0227586C67.6142 0.0389425 67.8929 0.0857241 68.1914 0.163103L67.9558 2.03083C67.7656 1.95675 67.5684 1.9021 67.3672 1.86772C67.1643 1.8354 66.959 1.81967 66.7536 1.82069C66.3616 1.82069 66.0477 1.87885 65.8119 1.99517C65.5833 2.10607 65.3914 2.28038 65.2589 2.49738C65.125 2.71485 65.0384 2.97556 64.999 3.27952C64.9596 3.58297 64.9399 3.9294 64.9399 4.31883V6.86248H67.4611V8.68317H64.9164V17.927H62.796V8.68317H60.3929V6.86248H62.796V4.38862C62.796 2.90982 63.0826 1.8088 63.6558 1.08559C64.2291 0.362368 65.2147 0.000505747 66.6126 0ZM99.4967 6.86248V17.927H97.3763V6.86248H99.4967ZM41.3642 8.54359C40.7985 8.54359 40.2881 8.64069 39.8331 8.8349C39.3976 9.01655 39.0044 9.28675 38.6786 9.62841C38.3548 9.97874 38.1062 10.3919 37.9482 10.8422C37.771 11.3402 37.6833 11.8657 37.6892 12.3943C37.6892 12.9547 37.7755 13.4721 37.9482 13.9465C38.1215 14.4219 38.3649 14.8265 38.6786 15.1603C38.9927 15.4951 39.3775 15.7598 39.8331 15.9546C40.2887 16.1493 40.799 16.2464 41.3642 16.2459C41.9293 16.2454 42.4399 16.1483 42.896 15.9546C43.3312 15.7728 43.7241 15.5026 44.0498 15.161C44.3639 14.8262 44.6076 14.4216 44.7808 13.9472C44.9581 13.449 45.0459 12.9232 45.0399 12.3943C45.0399 11.8345 44.9536 11.3171 44.7808 10.8422C44.6226 10.3918 44.3738 9.97867 44.0498 9.62841C43.7241 9.28684 43.3312 9.01664 42.896 8.8349C42.4404 8.64069 41.9298 8.54333 41.3642 8.54283M74.3369 8.26214C73.8187 8.26214 73.3435 8.35949 72.9111 8.55421C72.4793 8.74841 72.1142 9.00129 71.8157 9.31283C71.5172 9.62386 71.2856 9.97005 71.121 10.3514C70.9563 10.7327 70.8738 11.11 70.8732 11.4832H77.5642C77.5537 11.0466 77.4784 10.614 77.3407 10.1997C77.2145 9.82251 77.0097 9.47652 76.7399 9.18462C76.46 8.88762 76.118 8.65627 75.7384 8.50717C75.3384 8.34381 74.8712 8.26214 74.3369 8.26214ZM98.4581 1.51724C98.8773 1.51724 99.2384 1.66644 99.5414 1.96483C99.8445 2.26524 99.996 2.62179 99.996 3.03448C99.996 3.44717 99.8447 3.80372 99.5422 4.10414C99.2392 4.40253 98.878 4.55172 98.4589 4.55172C98.0397 4.55172 97.6786 4.40253 97.3755 4.10414C97.2303 3.96686 97.115 3.80096 97.0368 3.61686C96.9588 3.43277 96.9196 3.23448 96.9217 3.03448C96.9217 2.62078 97.073 2.26423 97.3755 1.96483C97.6786 1.66644 98.0389 1.51724 98.4581 1.51724ZM83.8945 1.51724C84.3137 1.51724 84.6745 1.66644 84.977 1.96483C85.2801 2.26474 85.4316 2.62129 85.4316 3.03448C85.4316 3.44768 85.2801 3.80423 84.977 4.10414C84.6745 4.40253 84.3137 4.55172 83.8945 4.55172C83.4753 4.55172 83.1142 4.40253 82.8111 4.10414C82.6655 3.96715 82.5499 3.8013 82.4718 3.61714C82.3937 3.43298 82.3547 3.23455 82.3573 3.03448C82.3573 2.62078 82.5086 2.26423 82.8111 1.96483C83.1142 1.66644 83.4753 1.51724 83.8945 1.51724ZM91.196 1.51724C91.6152 1.51724 91.976 1.66644 92.2786 1.96483C92.5816 2.26474 92.7331 2.62129 92.7331 3.03448C92.7331 3.44768 92.5816 3.80423 92.2786 4.10414C91.976 4.40253 91.6152 4.55172 91.196 4.55172C90.7768 4.55172 90.4157 4.40253 90.1126 4.10414C89.967 3.96715 89.8515 3.8013 89.7733 3.61714C89.6952 3.43298 89.6562 3.23455 89.6589 3.03448C89.6589 2.62078 89.8101 2.26423 90.1126 1.96483C90.4157 1.66644 90.7768 1.51724 91.196 1.51724Z" fill="#181818"/>
<path id="Vector_3" fill-rule="evenodd" clip-rule="evenodd" d="M15.0125 9.09969C14.0085 9.06387 13.0599 8.63014 12.3752 7.8939C11.6906 7.15765 11.326 6.17921 11.3618 5.17382C11.3975 4.16843 11.8307 3.21845 12.5659 2.53286C13.3011 1.84726 14.2782 1.48222 15.2822 1.51803C16.2862 1.55385 17.2349 1.98758 17.9196 2.72382C18.6042 3.46007 18.9688 4.4385 18.933 5.44389C18.8972 6.44928 18.4641 7.39927 17.7289 8.08486C16.9936 8.77046 16.0165 9.1355 15.0125 9.09969Z" fill="#713DFF"/>
<path id="Vector_4" fill-rule="evenodd" clip-rule="evenodd" d="M14.9616 21.9969C14.2656 21.972 13.5814 21.8101 12.9478 21.5203C12.3143 21.2306 11.744 20.8188 11.2695 20.3083C10.311 19.2775 9.80081 17.9075 9.85104 16.5C9.90127 15.0924 10.5078 13.7624 11.5373 12.8027C12.5668 11.8429 13.9348 11.332 15.3404 11.3823C16.7461 11.4326 18.0742 12.04 19.0326 13.0709C19.9911 14.1018 20.5013 15.4717 20.451 16.8793C20.4008 18.2868 19.7942 19.6168 18.7648 20.5765C17.7353 21.5363 16.3673 22.0472 14.9616 21.9969Z" fill="#FF3D7E"/>
<path id="Vector_5" fill-rule="evenodd" clip-rule="evenodd" d="M4.38359 14.4103C3.78392 14.3935 3.1935 14.2581 2.64636 14.0117C2.09922 13.7654 1.60618 13.413 1.19568 12.975C0.785179 12.5369 0.465332 12.0218 0.254579 11.4594C0.0438271 10.897 -0.0536609 10.2983 -0.0322638 9.69797C-0.0108668 9.09762 0.128992 8.50746 0.379249 7.9615C0.629506 7.41554 0.98521 6.92459 1.42585 6.51695C1.8665 6.10931 2.38336 5.79304 2.94665 5.58639C3.50994 5.37974 4.1085 5.28679 4.70783 5.31289C5.90609 5.36509 7.03518 5.88942 7.84906 6.77162C8.66294 7.65382 9.09564 8.82239 9.05286 10.0227C9.01008 11.2229 8.49529 12.3577 7.62068 13.1795C6.74606 14.0014 5.58252 14.4438 4.38359 14.4103Z" fill="#FFAA00"/>
</g>
</g>
</g>
</svg>
