<svg width="138" height="22" viewBox="0 0 138 22" fill="none" xmlns="http://www.w3.org/2000/svg">
<path id="Vector" d="M32.0736 0C35.2807 0 37.323 1.77371 37.4098 4.63435H34.636C34.571 3.27162 33.5959 2.47129 32.0356 2.47129C30.3237 2.47129 29.2185 3.29323 29.2185 4.61269C29.2185 5.73749 29.8253 6.36476 31.1471 6.66759L33.6392 7.20836C36.3479 7.79238 37.6752 9.17674 37.6752 11.5399C37.6752 14.4816 35.3782 16.3906 31.8839 16.3906C28.3896 16.3906 26.2876 14.5952 26.2227 11.7562H28.9964C29.018 13.0973 30.1016 13.8976 31.8839 13.8976C33.6662 13.8976 34.8961 13.0973 34.8961 11.7778C34.8961 10.7179 34.3543 10.0906 33.0541 9.80942L30.5404 9.24704C27.8534 8.66302 26.4393 7.12726 26.4393 4.69924C26.4393 1.93053 28.7364 0 32.0789 0H32.0736Z" fill="#1B1B1B"/>
<path id="Vector_2" d="M41.0012 5.41211L42.4097 10.0032C42.6481 10.8468 42.8648 11.7769 43.0598 12.7719C43.2549 11.7337 43.4499 11.063 43.7966 10.0032L45.2701 5.41211H47.9572L49.3874 10.0032C49.5175 10.4358 49.9508 12.0364 50.0809 12.7503C50.2542 11.9499 50.601 10.6737 50.796 10.0032L52.2262 5.41211H55.0217L51.3106 16.1084H48.8403L47.3667 11.4741C46.9333 10.0681 46.695 9.05144 46.6083 8.51067C46.5 9.00817 46.3049 9.76524 45.7631 11.5173L44.2896 16.1084H41.7109L38.2383 5.41211H41.0012Z" fill="#1B1B1B"/>
<path id="Vector_3" d="M55.2031 13.0548C55.2031 11.0865 56.6333 9.84809 59.1742 9.65344L62.3867 9.41551V9.17757C62.3867 7.72832 61.52 7.14429 60.1764 7.14429C58.6161 7.14429 57.7493 7.79323 57.7493 8.91801H55.4957C55.4957 6.60354 57.4027 5.08398 60.3118 5.08398C63.221 5.08398 64.9763 6.64138 64.9763 9.61021V16.1047H62.6576L62.4626 14.5258C62.0075 15.6289 60.5556 16.3859 58.8816 16.3859C56.6063 16.3859 55.214 15.0665 55.214 13.0548H55.2031ZM62.403 11.7786V11.2163L60.171 11.3893C58.524 11.5408 57.8957 12.0815 57.8957 12.9467C57.8957 13.9201 58.5457 14.396 59.7376 14.396C61.3628 14.396 62.403 13.4225 62.403 11.7786Z" fill="#1B1B1B"/>
<path id="Vector_4" d="M71.6205 5.06641C73.2241 5.06641 74.4808 5.73695 75.1148 6.88337L75.2665 5.4125H77.7151V15.5681C77.7151 19.1425 75.5698 21.3704 72.0972 21.3704C69.0147 21.3704 66.9127 19.6184 66.5876 16.7577H69.2314C69.4047 18.1421 70.4666 18.964 72.0918 18.964C73.9121 18.964 75.0822 17.8176 75.0822 16.0439V14.2703C74.4105 15.2652 73.0886 15.8925 71.5446 15.8925C68.5108 15.8925 66.5117 13.6213 66.5117 10.5227C66.5117 7.42412 68.5488 5.06641 71.6097 5.06641H71.6205ZM72.081 13.5996C73.9012 13.5996 75.028 12.3234 75.028 10.4632C75.028 8.60299 73.9229 7.39169 72.081 7.39169C70.239 7.39169 69.1934 8.71115 69.1934 10.4632C69.1934 12.2153 70.3419 13.5996 72.081 13.5996Z" fill="#1B1B1B"/>
<path id="Vector_5" d="M80.0117 16.1086V5.41237H82.4387L82.6555 6.66692C83.1972 5.78006 84.2807 5.08789 85.8192 5.08789C87.4445 5.08789 88.5714 5.88823 89.1401 7.12117C89.6819 5.88823 90.9387 5.08789 92.564 5.08789C95.1644 5.08789 96.5996 6.6453 96.5996 9.11659V16.1086H93.978V9.80878C93.978 8.27301 93.1545 7.47268 91.8976 7.47268C90.6408 7.47268 89.6439 8.29461 89.6439 10.0467V16.1086H87.0003V9.78717C87.0003 8.29462 86.1984 7.4943 84.9416 7.4943C83.6847 7.4943 82.6662 8.31624 82.6662 10.0467V16.1086H80.0117Z" fill="#1B1B1B"/>
<path id="Vector_6" d="M98.2969 13.0548C98.2969 11.0865 99.7267 9.84809 102.267 9.65344L105.481 9.41551V9.17757C105.481 7.72832 104.613 7.14429 103.27 7.14429C101.71 7.14429 100.843 7.79323 100.843 8.91801H98.5892C98.5892 6.60354 100.496 5.08398 103.406 5.08398C106.314 5.08398 108.07 6.64138 108.07 9.61021V16.1047H105.751L105.556 14.5258C105.101 15.6289 103.649 16.3859 101.975 16.3859C99.6999 16.3859 98.3074 15.0665 98.3074 13.0548H98.2969ZM105.497 11.7786V11.2163L103.265 11.3893C101.617 11.5408 100.989 12.0815 100.989 12.9467C100.989 13.9201 101.64 14.396 102.831 14.396C104.456 14.396 105.497 13.4225 105.497 11.7786Z" fill="#1B1B1B"/>
<path id="Vector_7" d="M114.709 5.06641C116.314 5.06641 117.57 5.73695 118.205 6.88337L118.356 5.4125H120.804V15.5681C120.804 19.1425 118.66 21.3704 115.187 21.3704C112.104 21.3704 110.002 19.6184 109.677 16.7577H112.32C112.494 18.1421 113.556 18.964 115.181 18.964C117.002 18.964 118.172 17.8176 118.172 16.0439V14.2703C117.5 15.2652 116.178 15.8925 114.634 15.8925C111.601 15.8925 109.602 13.6213 109.602 10.5227C109.602 7.42412 111.638 5.06641 114.699 5.06641H114.709ZM115.165 13.5996C116.986 13.5996 118.113 12.3234 118.113 10.4632C118.113 8.60299 117.007 7.39169 115.165 7.39169C113.323 7.39169 112.277 8.71115 112.277 10.4632C112.277 12.2153 113.426 13.5996 115.165 13.5996Z" fill="#1B1B1B"/>
<path id="Vector_8" d="M123.098 5.41211H125.742V16.1084H123.098V5.41211Z" fill="#1B1B1B"/>
<path id="Vector_9" d="M132.772 5.08789C135.703 5.08789 137.696 6.71019 137.978 9.28963H135.335C135.031 8.07832 134.143 7.45103 132.886 7.45103C131.196 7.45103 130.069 8.72725 130.069 10.7443C130.069 12.7614 131.108 14.0159 132.799 14.0159C134.12 14.0159 135.053 13.367 135.335 12.1989H138C137.675 14.6865 135.594 16.4007 132.793 16.4007C129.543 16.4007 127.414 14.1511 127.414 10.7497C127.414 7.3483 129.603 5.09872 132.772 5.09872V5.08789Z" fill="#1B1B1B"/>
<path id="Vector_10" d="M125.742 0.302734H123.098V2.94166H125.742V0.302734Z" fill="#1B1B1B"/>
<path id="Vector_11" d="M8.31074 4.5108C8.31074 6.80141 6.45032 8.65832 4.15537 8.65832C1.86042 8.65832 0 6.80141 0 4.5108C0 2.22019 1.86042 0.363281 4.15537 0.363281C6.45032 0.363281 8.31074 2.22019 8.31074 4.5108Z" fill="#80DA59"/>
<path id="Vector_12" d="M8.31074 12.8057C8.31074 15.0963 6.45032 16.9532 4.15537 16.9532C1.86042 16.9532 0 15.0963 0 12.8057C0 10.5151 1.86043 8.6582 4.15538 8.6582C6.45033 8.6582 8.31074 10.5151 8.31074 12.8057Z" fill="#03BA4E"/>
<path id="Vector_13" d="M16.6232 4.51079C16.6232 6.80141 14.7628 8.65832 12.4678 8.65832C10.1729 8.65832 8.3125 6.80139 8.3125 4.51078C8.3125 2.22016 10.1729 0.363281 12.4678 0.363281C14.7628 0.363281 16.6232 2.22018 16.6232 4.51079Z" fill="#03BA4E"/>
<path id="Vector_14" d="M16.6232 12.8057C16.6232 15.0963 14.7628 16.9532 12.4679 16.9532C10.1729 16.9532 8.3125 15.0963 8.3125 12.8057C8.3125 10.515 10.1729 8.6582 12.4679 8.6582C14.7628 8.6582 16.6232 10.515 16.6232 12.8057Z" fill="#80DA59"/>
</svg>
