<svg width="135" height="22" viewBox="0 0 135 22" fill="none" xmlns="http://www.w3.org/2000/svg">
<path id="Vector" d="M10.8826 8.69372C10.9415 8.71135 11.008 8.72142 11.0695 8.734C11.5046 8.81961 11.9371 8.92787 12.3645 9.06383C13.204 9.3307 13.7415 9.89215 13.9924 10.7557C14.128 11.2114 14.2355 11.6722 14.3225 12.1405C14.3456 12.2638 14.3609 12.4074 14.5324 12.435C14.6808 12.3922 14.6962 12.2538 14.7192 12.1279C14.8011 11.6495 14.9189 11.1812 15.0571 10.718C15.313 9.86446 15.8556 9.32315 16.6849 9.06383C17.1277 8.92535 17.5781 8.81205 18.0337 8.72393C18.154 8.70127 18.3153 8.69372 18.3229 8.52503C18.3306 8.35131 18.1668 8.34628 18.0465 8.31858C17.9134 8.28585 17.7778 8.26823 17.6447 8.2355C17.0509 8.09702 16.452 7.96358 15.935 7.61362C15.3642 7.22841 15.1211 6.62668 14.9573 5.98466C14.8575 5.59693 14.7858 5.20417 14.6962 4.8114C14.6732 4.70818 14.6399 4.60495 14.5119 4.60747C14.3993 4.60998 14.366 4.71069 14.3456 4.80133C14.3046 4.96498 14.2816 5.12863 14.2457 5.29229C14.1101 5.92172 13.977 6.55618 13.6161 7.09749C13.2501 7.64887 12.6896 7.8805 12.0932 8.05674C11.6991 8.17507 11.2973 8.2506 10.898 8.33872C10.8084 8.35887 10.7163 8.39411 10.7111 8.50993C10.706 8.62826 10.7982 8.66351 10.8852 8.6912L10.8826 8.69372Z" fill="#FFB800"/>
<path id="Vector_2" d="M13.074 13.8543C13.3069 14.0482 13.3094 14.4057 13.074 14.5971C10.3558 16.8177 6.42196 17.0191 3.47347 15.0276C3.2508 14.8765 3.03068 14.7129 2.81825 14.5366C2.60581 14.3604 2.40618 14.1741 2.21934 13.9827C-0.258212 11.4449 -0.698437 7.5953 1.0855 4.59418C1.23907 4.33485 1.59739 4.27946 1.8303 4.47333L13.0765 13.8543H13.074Z" fill="#0B7AFC"/>
<path id="Vector_3" d="M11.1412 1.33047C8.41539 0.177351 5.21095 0.602845 2.88953 2.49869C2.65406 2.69003 2.65918 3.04755 2.88953 3.23889L7.88558 7.40572L8.46146 7.8866C8.66877 8.06032 8.98102 8.03515 9.16019 7.83121L13.1299 3.22631C13.3014 3.02741 13.2835 2.73032 13.0889 2.55408C12.9942 2.46847 12.8995 2.38539 12.7972 2.30986C12.2853 1.92213 11.735 1.58476 11.1412 1.33298V1.33047Z" fill="#0B7AFC"/>
</svg>
