<svg preserveAspectRatio="none" width="100%" height="100%" overflow="visible" style="display: block;" viewBox="0 0 15.3158 15.3158" fill="none" xmlns="http://www.w3.org/2000/svg">
<g id="instagram">
<path id="Vector" d="M10.3318 1.27632H4.98401C2.66112 1.27632 1.27632 2.66112 1.27632 4.98401V10.3254C1.27632 12.6547 2.66112 14.0395 4.98401 14.0395H10.3254C12.6483 14.0395 14.0331 12.6547 14.0331 10.3318V4.98401C14.0395 2.66112 12.6547 1.27632 10.3318 1.27632ZM7.65789 10.1339C6.29224 10.1339 5.18184 9.02355 5.18184 7.65789C5.18184 6.29224 6.29224 5.18184 7.65789 5.18184C9.02355 5.18184 10.1339 6.29224 10.1339 7.65789C10.1339 9.02355 9.02355 10.1339 7.65789 10.1339ZM11.4358 4.39053C11.4039 4.46711 11.3592 4.5373 11.3018 4.60112C11.238 4.65855 11.1678 4.70322 11.0912 4.73513C11.0146 4.76704 10.9316 4.78618 10.8487 4.78618C10.6764 4.78618 10.5168 4.72237 10.3956 4.60112C10.3382 4.5373 10.2935 4.46711 10.2616 4.39053C10.2297 4.31395 10.2105 4.23099 10.2105 4.14803C10.2105 4.06507 10.2297 3.98211 10.2616 3.90553C10.2935 3.82257 10.3382 3.75875 10.3956 3.69493C10.5424 3.54816 10.7657 3.47796 10.9699 3.52263C11.0146 3.52901 11.0529 3.54178 11.0912 3.56092C11.1295 3.57368 11.1678 3.59283 11.2061 3.61836C11.238 3.6375 11.2699 3.66941 11.3018 3.69493C11.3592 3.75875 11.4039 3.82257 11.4358 3.90553C11.4677 3.98211 11.4868 4.06507 11.4868 4.14803C11.4868 4.23099 11.4677 4.31395 11.4358 4.39053Z" fill="var(--fill-0, #181818)"/>
<g id="Vector_2" opacity="0">
</g>
</g>
</svg>
