<svg preserveAspectRatio="none" width="100%" height="100%" overflow="visible" style="display: block;" viewBox="0 0 203.675 36.2784" fill="none" xmlns="http://www.w3.org/2000/svg">
<g id="Frame 1801290387">
<path id="Vector" d="M20.5893 0V11.4269L17.8524 14.2055L15.1206 11.4269V0H20.5893Z" fill="var(--fill-0, #8D12E7)"/>
<path id="Vector_2" d="M17.8573 14.2066L16.7282 15.3529L15.1254 16.9801L13.9913 18.1315L3.30086 7.27277L7.16677 3.34793L17.8573 14.2066Z" fill="var(--fill-0, #0B7AFC)"/>
<path id="Vector_3" d="M20.5941 11.4245V19.2744L18.9913 20.9016L17.8573 22.053L7.16677 32.9069L3.30086 28.9818L13.9913 18.1281L15.1254 16.9768L16.7282 15.3493L20.5941 11.4245Z" fill="var(--fill-0, #FF5B77)"/>
<path id="Vector_4" d="M13.9919 18.1277L11.26 20.9012H0V15.3488H11.26L13.9919 18.1277Z" fill="var(--fill-0, #FFB800)"/>
<path id="Vector_5" d="M20.5893 19.2732V36.2576H15.1206V24.8256L17.8524 22.0521L18.9865 20.9007L20.5893 19.2732Z" fill="var(--fill-0, #00C036)"/>
<path id="Vector_6" d="M50.6289 0C57.1964 0 61.3901 4.15262 61.6621 10.2213H55.9162C55.7801 6.97141 53.5927 5.39641 50.4929 5.39641C47.0303 5.39641 44.9738 7.3074 44.9738 10.1259C44.9738 12.5133 46.4757 13.7571 48.8951 14.424L54.3186 15.9036C60.019 17.4786 62.7509 21.1095 62.7509 25.7889C62.7509 31.998 57.872 36.1557 50.6241 36.1557C43.3759 36.1557 39.001 32.1936 38.7742 25.9344H44.5202C44.5202 28.8933 46.9344 30.6639 50.7197 30.6639C54.505 30.6639 56.9648 28.8033 56.9648 25.9845C56.9648 23.7426 55.5533 22.4037 53.0887 21.6864L47.6604 20.1567C41.6421 18.4416 39.1826 14.8104 39.1826 10.3668C39.1826 4.2981 43.7439 0 50.6289 0Z" fill="var(--fill-0, white)"/>
<path id="Vector_7" d="M68.8044 36.2742V16.4785H64.5454V11.7392H68.8044V4.50692H74.2276V11.7392H78.4414V16.4785H74.2276V36.2742H68.8044Z" fill="var(--fill-0, white)"/>
<path id="Vector_8" d="M80.2278 29.04C80.2278 24.5311 83.4537 22.0936 88.4284 21.6673L94.749 21.1507V20.6343C94.749 17.4443 92.869 16.2205 90.1776 16.2205C87.1734 16.2205 85.4296 17.6751 85.4749 20.0723H80.8126C80.7671 15.0972 84.7138 11.762 90.4496 11.762C96.6794 11.762 100.087 15.4233 100.087 21.5719V35.6552H95.2934L94.8901 32.2297C93.9476 34.6218 91.3065 36.2669 87.8085 36.2669C83.0555 36.272 80.2278 33.3581 80.2278 29.04ZM94.7943 26.2713V25.0478L90.1776 25.469C86.9516 25.8 85.7874 26.9233 85.7874 28.8042C85.7874 30.8204 87.1332 31.9488 89.5978 31.9488C91.9264 31.9488 94.7943 30.5897 94.7943 26.2713Z" fill="var(--fill-0, white)"/>
<path id="Vector_9" d="M103.67 24.166C103.67 16.934 107.702 11.7731 114.38 11.7731C117.475 11.7731 120.298 13.1824 121.684 15.4794V0.739429H127.016V35.6662H122.132L121.774 32.0049C120.429 34.7283 117.385 36.278 114.068 36.278C107.657 36.278 103.665 31.3479 103.67 24.166ZM121.502 23.9755C121.502 19.7975 119.083 16.8887 115.273 16.8887C111.462 16.8887 109.134 19.8479 109.134 23.9755C109.134 28.1031 111.417 31.0169 115.273 31.0169C119.128 31.0169 121.502 28.1582 121.502 23.9755Z" fill="var(--fill-0, white)"/>
<path id="Vector_10" d="M132.788 12.216H138.257V36.2695H132.788V12.216Z" fill="var(--fill-0, white)"/>
<path id="Vector_11" d="M143.099 26.9819V12.4726H148.568V24.9609C148.568 29.7506 150.493 31.1598 153.275 31.1598C156.859 31.1598 158.386 28.8127 158.386 24.6347V12.4726H163.85V35.6636H158.739L158.381 32.6594C157.081 34.8208 154.213 36.2754 151.214 36.2754C145.967 36.2754 143.099 32.519 143.099 26.9819Z" fill="var(--fill-0, white)"/>
<path id="Vector_12" d="M169.573 36.266V13.075H174.593L174.86 15.703C176.16 13.6367 178.489 12.3678 181.09 12.3678C184.764 12.3678 187.183 14.0579 188.393 16.7813C189.467 14.0579 192.113 12.3678 195.475 12.3678C200.853 12.3678 203.675 15.7483 203.675 21.0997V36.261H198.388V22.4186C198.388 19.1335 196.684 17.3981 194.043 17.3981C191.397 17.3981 189.381 19.1836 189.381 22.9854V36.2711H184.048V22.4186C184.048 19.1335 182.345 17.3981 179.744 17.3981C177.143 17.3981 175.041 19.1836 175.041 22.9353V36.266H169.573Z" fill="var(--fill-0, white)"/>
<path id="Vector_13" d="M138.257 0.739429H132.788V6.18085H138.257V0.739429Z" fill="var(--fill-0, white)"/>
</g>
</svg>
