<svg preserveAspectRatio="none" width="100%" height="100%" overflow="visible" style="display: block;" viewBox="0 0 134.931 20.9352" fill="none" xmlns="http://www.w3.org/2000/svg">
<g id="Swagmaic Logog">
<g id="Swagmagic Typeface">
<path d="M31.3583 0C34.4942 0 36.4911 1.73755 36.5759 4.53986H33.8638C33.8002 3.20492 32.8468 2.42091 31.3213 2.42091C29.6474 2.42091 28.5668 3.22609 28.5668 4.51865C28.5668 5.62051 29.1601 6.235 30.4525 6.53165L32.8891 7.06139C35.5376 7.63351 36.8354 8.98964 36.8354 11.3046C36.8354 14.1864 34.5895 16.0564 31.1729 16.0564C27.7564 16.0564 25.7011 14.2976 25.6376 11.5165H28.3496C28.3708 12.8303 29.4302 13.6143 31.1729 13.6143C32.9156 13.6143 34.1181 12.8302 34.1181 11.5377C34.1181 10.4994 33.5884 9.88492 32.3171 9.60946L29.8593 9.05851C27.232 8.48639 25.8494 6.98195 25.8494 4.60343C25.8494 1.89117 28.0954 0 31.3636 0H31.3583Z" fill="var(--fill-0, white)"/>
<path d="M40.0877 5.30241L41.4649 9.79988C41.698 10.6263 41.9098 11.5374 42.1005 12.5121C42.2912 11.495 42.4819 10.8382 42.8209 9.79988L44.2617 5.30241H46.889L48.2874 9.79988C48.4146 10.2237 48.8383 11.7917 48.9655 12.4909C49.135 11.7069 49.474 10.4568 49.6647 9.79988L51.0631 5.30241H53.7963L50.1679 15.7806H47.7524L46.3117 11.2408C45.8879 9.86343 45.6548 8.86753 45.5701 8.3378C45.4641 8.82515 45.2734 9.56679 44.7437 11.2831L43.303 15.7806H40.7816L37.3862 5.30241H40.0877Z" fill="white"/>
<path d="M53.9766 12.7879C53.9766 10.8597 55.3751 9.64655 57.8593 9.45584L61.0005 9.22276V8.98967C61.0005 7.56997 60.153 6.99785 58.8393 6.99785C57.3138 6.99785 56.4662 7.63355 56.4662 8.73541H54.2627C54.2627 6.46813 56.1272 4.97955 58.9717 4.97955C61.8162 4.97955 63.5324 6.50519 63.5324 9.41346V15.7756H61.2653L61.0746 14.2288C60.6297 15.3095 59.2101 16.0511 57.5733 16.0511C55.3486 16.0511 53.9872 14.7585 53.9872 12.7879H53.9766ZM61.0164 11.5377V10.9868L58.834 11.1563C57.2237 11.3046 56.6093 11.8344 56.6093 12.682C56.6093 13.6355 57.2449 14.1017 58.4102 14.1017C59.9993 14.1017 61.0164 13.1481 61.0164 11.5377Z" fill="white"/>
<path d="M70.0265 4.96358C71.5945 4.96358 72.8233 5.62045 73.4431 6.74349L73.5914 5.30262H75.9857V15.2511C75.9857 18.7527 73.8881 20.9352 70.4927 20.9352C67.4787 20.9352 65.4234 19.2188 65.1056 16.4165H67.6905C67.86 17.7726 68.8983 18.5779 70.4874 18.5779C72.2672 18.5779 73.4113 17.4548 73.4113 15.7173V13.9797C72.7545 14.9545 71.462 15.5689 69.9524 15.5689C66.9861 15.5689 65.0314 13.344 65.0314 10.3086C65.0314 7.27322 67.0231 4.96358 70.0159 4.96358H70.0265ZM70.4768 13.3228C72.2566 13.3228 73.3583 12.0727 73.3583 10.2504C73.3583 8.42806 72.2778 7.24145 70.4768 7.24145C68.6758 7.24145 67.6535 8.534 67.6535 10.2504C67.6535 11.9667 68.7764 13.3228 70.4768 13.3228Z" fill="white"/>
<path d="M78.2317 15.7809V5.30274H80.6047L80.8166 6.5317C81.3463 5.66293 82.4057 4.98487 83.91 4.98487C85.4991 4.98487 86.6009 5.76889 87.1571 6.97669C87.6868 5.76889 88.9157 4.98487 90.5048 4.98487C93.0474 4.98487 94.4511 6.51053 94.4511 8.93143V15.7809H91.8873V9.60951C91.8873 8.10505 91.0822 7.32104 89.8533 7.32104C88.6244 7.32104 87.6497 8.12621 87.6497 9.84256V15.7809H85.0648V9.5883C85.0648 8.12622 84.2808 7.34222 83.0519 7.34222C81.823 7.34222 80.8272 8.1474 80.8272 9.84256V15.7809H78.2317Z" fill="white"/>
<path d="M96.109 12.7879C96.109 10.8597 97.5074 9.64655 99.9917 9.45584L103.133 9.22276V8.98967C103.133 7.56997 102.285 6.99785 100.972 6.99785C99.4461 6.99785 98.5986 7.63355 98.5986 8.73541H96.395C96.395 6.46813 98.2596 4.97955 101.104 4.97955C103.949 4.97955 105.665 6.50519 105.665 9.41346V15.7756H103.398L103.207 14.2288C102.762 15.3095 101.342 16.0511 99.7057 16.0511C97.4809 16.0511 96.1196 14.7585 96.1196 12.7879H96.109ZM103.149 11.5377V10.9868L100.966 11.1563C99.3561 11.3046 98.7416 11.8344 98.7416 12.682C98.7416 13.6355 99.3773 14.1017 100.543 14.1017C102.132 14.1017 103.149 13.1481 103.149 11.5377Z" fill="white"/>
<path d="M112.159 4.96358C113.727 4.96358 114.956 5.62045 115.575 6.74349L115.724 5.30262H118.118V15.2511C118.118 18.7527 116.02 20.9352 112.625 20.9352C109.611 20.9352 107.556 19.2188 107.238 16.4165H109.823C109.992 17.7726 111.031 18.5779 112.62 18.5779C114.4 18.5779 115.544 17.4548 115.544 15.7173V13.9797C114.887 14.9545 113.594 15.5689 112.085 15.5689C109.118 15.5689 107.164 13.344 107.164 10.3086C107.164 7.27322 109.155 4.96358 112.148 4.96358H112.159ZM112.604 13.3228C114.384 13.3228 115.485 12.0727 115.485 10.2504C115.485 8.42806 114.405 7.24145 112.604 7.24145C110.803 7.24145 109.781 8.534 109.781 10.2504C109.781 11.9667 110.904 13.3228 112.604 13.3228Z" fill="white"/>
<path d="M120.359 5.30241H122.943V15.7806H120.359V5.30241Z" fill="white"/>
<path d="M129.819 4.98487C132.685 4.98487 134.634 6.5741 134.91 9.10095H132.325C132.028 7.91434 131.159 7.29983 129.93 7.29983C128.278 7.29983 127.176 8.55002 127.176 10.5259C127.176 12.5019 128.193 13.7309 129.846 13.7309C131.138 13.7309 132.049 13.0952 132.325 11.9509H134.931C134.613 14.3877 132.579 16.067 129.84 16.067C126.662 16.067 124.581 13.8633 124.581 10.5313C124.581 7.1992 126.721 4.99548 129.819 4.99548V4.98487Z" fill="white"/>
<path d="M122.943 0.29666H120.359V2.88179H122.943V0.29666Z" fill="var(--fill-0, white)"/>
</g>
<g id="Swagmagic icon">
<path d="M8.12592 4.41923C8.12592 6.66314 6.30688 8.48219 4.06297 8.48219C1.81906 8.48219 8.55663e-06 6.66314 8.55663e-06 4.41923C8.55663e-06 2.17532 1.81906 0.356276 4.06297 0.356276C6.30688 0.356276 8.12592 2.17532 8.12592 4.41923Z" fill="var(--fill-0, #80DA59)"/>
<path d="M8.12592 12.5452C8.12592 14.7891 6.30687 16.6081 4.06296 16.6081C1.81905 16.6081 0 14.7891 0 12.5452C0 10.3012 1.81906 8.48219 4.06297 8.48219C6.30688 8.48219 8.12592 10.3012 8.12592 12.5452Z" fill="#03BA4F"/>
<path d="M16.2518 4.41926C16.2518 6.66317 14.4328 8.48221 12.1889 8.48221C9.94494 8.48221 8.12592 6.66314 8.12592 4.41923C8.12592 2.17532 9.94494 0.356298 12.1889 0.356298C14.4328 0.356298 16.2518 2.17535 16.2518 4.41926Z" fill="#03BA4F"/>
<path d="M16.2518 12.5452C16.2518 14.7891 14.4328 16.6081 12.1889 16.6081C9.94494 16.6081 8.12592 14.7891 8.12592 12.5452C8.12592 10.3012 9.94494 8.48221 12.1889 8.48221C14.4328 8.48221 16.2518 10.3012 16.2518 12.5452Z" fill="var(--fill-0, #80DA59)"/>
</g>
</g>
</svg>
