<svg preserveAspectRatio="none" width="100%" height="100%" overflow="visible" style="display: block;" viewBox="0 0 18.3236 15.7067" fill="none" xmlns="http://www.w3.org/2000/svg">
<g id="Group 2">
<path id="Vector" d="M10.8831 8.0013C10.9419 8.01892 11.0085 8.02899 11.0699 8.04158C11.505 8.12718 11.9376 8.23544 12.365 8.3714C13.2045 8.63828 13.742 9.19973 13.9928 10.0633C14.1284 10.519 14.2359 10.9798 14.323 11.4481C14.346 11.5714 14.3614 11.7149 14.5328 11.7426C14.6813 11.6998 14.6966 11.5613 14.7197 11.4355C14.8016 10.9571 14.9193 10.4888 15.0575 10.0255C15.3135 9.17203 15.8561 8.63073 16.6853 8.3714C17.1281 8.23293 17.5786 8.11963 18.0342 8.03151C18.1545 8.00885 18.3157 8.0013 18.3234 7.83261C18.3311 7.65889 18.1673 7.65385 18.047 7.62616C17.9139 7.59343 17.7782 7.5758 17.6451 7.54307C17.0513 7.4046 16.4524 7.27116 15.9354 6.9212C15.3647 6.53598 15.1215 5.93425 14.9577 5.29223C14.8579 4.9045 14.7862 4.51174 14.6966 4.11898C14.6736 4.01575 14.6403 3.91252 14.5124 3.91504C14.3997 3.91756 14.3665 4.01827 14.346 4.10891C14.305 4.27256 14.282 4.43621 14.2462 4.59986C14.1105 5.22929 13.9774 5.86375 13.6166 6.40506C13.2506 6.95644 12.69 7.18807 12.0937 7.36431C11.6995 7.48265 11.2977 7.55818 10.8984 7.6463C10.8088 7.66644 10.7167 7.70169 10.7116 7.8175C10.7065 7.93584 10.7986 7.97108 10.8856 7.99878L10.8831 8.0013Z" fill="var(--fill-0, #FFB800)"/>
<path id="Vector_2" d="M13.074 13.1603C13.3069 13.3541 13.3094 13.7117 13.074 13.903C10.3558 16.1236 6.42195 16.325 3.47347 14.3335C3.2508 14.1825 3.03068 14.0188 2.81825 13.8426C2.60581 13.6663 2.40618 13.48 2.21934 13.2887C-0.258212 10.7508 -0.698437 6.90123 1.0855 3.90011C1.23907 3.64079 1.59739 3.5854 1.8303 3.77926L13.0765 13.1603H13.074Z" fill="var(--fill-0, #0B7AFC)"/>
<path id="Vector_3" d="M11.1416 0.637106C8.41575 -0.516008 5.21132 -0.0905139 2.8899 1.80533C2.65443 1.99667 2.65955 2.35419 2.8899 2.54554L7.88594 6.71236L8.46182 7.19324C8.66914 7.36696 8.98139 7.34179 9.16055 7.13785L13.1303 2.53295C13.3017 2.33405 13.2838 2.03696 13.0893 1.86072C12.9946 1.77511 12.8999 1.69203 12.7975 1.6165C12.2856 1.22877 11.7354 0.891396 11.1416 0.639624V0.637106Z" fill="var(--fill-0, #0B7AFC)"/>
</g>
</svg>
