<svg preserveAspectRatio="none" width="100%" height="100%" overflow="visible" style="display: block;" viewBox="0 0 30.6316 30.6316" fill="none" xmlns="http://www.w3.org/2000/svg">
<g id="Youtube">
<rect width="30.6316" height="30.6316" rx="15.3158" fill="var(--fill-0, white)"/>
<path id="Vector" d="M13.5289 18.0508L18.1658 15.3158L13.5289 12.5808V18.0508ZM23.8569 10.9125C23.973 11.341 24.0534 11.9153 24.1071 12.6446C24.1696 13.374 24.1964 14.003 24.1964 14.55L24.25 15.3158C24.25 17.3123 24.1071 18.7801 23.8569 19.7191C23.6335 20.5396 23.1154 21.0683 22.3113 21.2962C21.8914 21.4148 21.123 21.4968 19.9437 21.5515C18.7823 21.6153 17.7191 21.6427 16.7363 21.6427L15.3158 21.6974C11.5724 21.6974 9.24053 21.5515 8.3203 21.2962C7.51622 21.0683 6.99804 20.5396 6.77468 19.7191C6.65854 19.2906 6.57813 18.7163 6.52453 17.9869C6.46199 17.2576 6.43518 16.6286 6.43518 16.0816L6.38158 15.3158C6.38158 13.3193 6.52453 11.8515 6.77468 10.9125C6.99804 10.092 7.51622 9.56325 8.3203 9.33534C8.74021 9.21682 9.50855 9.13477 10.6879 9.08007C11.8493 9.01626 12.9125 8.98891 13.8952 8.98891L15.3158 8.93421C19.0592 8.93421 21.3911 9.08007 22.3113 9.33534C23.1154 9.56325 23.6335 10.092 23.8569 10.9125Z" fill="var(--fill-0, #181818)"/>
</g>
</svg>
