<svg preserveAspectRatio="none" width="100%" height="100%" overflow="visible" style="display: block;" viewBox="0 0 112.692 20.6144" fill="none" xmlns="http://www.w3.org/2000/svg">
<g id="Group 1">
<g id="Snackmagic">
<path d="M0.208818 4.53225C0.208818 1.85885 2.42229 0 5.63809 0C8.72859 0 10.6915 1.71265 10.775 4.46959H8.10214C8.03949 3.15378 7.09981 2.381 5.59632 2.381C3.94666 2.381 2.88169 3.17467 2.88169 4.44871C2.88169 5.53478 3.46638 6.14047 4.74017 6.43287L7.14157 6.95502C9.7518 7.51894 11.0256 8.85565 11.0256 11.1322C11.0256 13.9727 8.81212 15.8107 5.45015 15.8107C2.19259 15.8107 0.0626454 14.0771 0 11.3411H2.67287C2.69375 12.636 3.73784 13.4088 5.45015 13.4088C7.2251 13.4088 8.35272 12.636 8.35272 11.362C8.35272 10.3385 7.83067 9.73286 6.57777 9.46134L4.15548 8.9183C1.56613 8.35438 0.208818 6.87148 0.208818 4.53225Z" fill="var(--fill-0, white)"/>
<path d="M15.1463 15.5392H12.5987V5.22149H14.9583L15.1672 6.55819C15.8145 5.51389 17.0674 4.9082 18.4665 4.9082C21.0558 4.9082 22.3923 6.51642 22.3923 9.18982V15.5392H19.8447V9.79551C19.8447 8.06198 18.9885 7.22654 17.673 7.22654C16.1068 7.22654 15.1463 8.31261 15.1463 9.98349V15.5392Z" fill="var(--fill-0, white)"/>
<path d="M27.3813 15.8107C25.1887 15.8107 23.8523 14.5366 23.8523 12.5942C23.8523 10.6936 25.2305 9.50311 27.6737 9.31514L30.7642 9.08539V8.85565C30.7642 7.45629 29.9289 6.89237 28.6342 6.89237C27.1307 6.89237 26.2955 7.51895 26.2955 8.60501H24.1238C24.1238 6.37022 25.9614 4.9082 28.7595 4.9082C31.5368 4.9082 33.2491 6.41199 33.2491 9.27336V15.5392H31.0148L30.8268 14.0145C30.3883 15.0797 28.9892 15.8107 27.3813 15.8107ZM28.2166 13.8892C29.7827 13.8892 30.7851 12.9493 30.7851 11.362V10.8189L28.6342 10.986C27.0472 11.1322 26.4416 11.6544 26.4416 12.4898C26.4416 13.4297 27.0681 13.8892 28.2166 13.8892Z" fill="var(--fill-0, white)"/>
<path d="M34.5627 10.3594C34.5627 7.16388 36.6717 4.9082 39.7205 4.9082C42.5395 4.9082 44.4606 6.47465 44.7321 8.96008H42.1845C41.8922 7.79046 41.036 7.18477 39.8249 7.18477C38.1961 7.18477 37.1102 8.41704 37.1102 10.3594C37.1102 12.3018 38.1126 13.5132 39.7413 13.5132C41.0151 13.5132 41.9131 12.8866 42.1845 11.7588H44.753C44.4398 14.1607 42.4351 15.8107 39.7413 15.8107C36.6091 15.8107 34.5627 13.6385 34.5627 10.3594Z" fill="var(--fill-0, white)"/>
<path d="M48.634 15.5392H46.1073L45.8783 0H48.405L48.634 9.54488L52.6433 5.22149H55.8382L51.9125 9.31514L55.7547 15.5392H52.8312L50.1375 11.1949L48.634 12.7613V15.5392Z" fill="var(--fill-0, white)"/>
<path d="M59.6093 15.5392H57.0617V5.22149H59.4005L59.6093 6.43287C60.1314 5.57655 61.1754 4.9082 62.6581 4.9082C64.2242 4.9082 65.31 5.68098 65.853 6.87148C66.375 5.68098 67.5862 4.9082 69.1523 4.9082C71.6581 4.9082 73.0363 6.41199 73.0363 8.79299V15.5392H70.5096V9.46134C70.5096 7.97844 69.7161 7.20565 68.505 7.20565C67.2729 7.20565 66.3332 7.99932 66.3332 9.69108V15.5392H63.7857V9.44045C63.7857 7.99932 63.013 7.22654 61.8019 7.22654C60.5908 7.22654 59.6093 8.02021 59.6093 9.69108V15.5392Z" fill="var(--fill-0, white)"/>
<path d="M77.9087 15.8107C75.7161 15.8107 74.3797 14.5366 74.3797 12.5942C74.3797 10.6936 75.7579 9.50311 78.2011 9.31514L81.2916 9.08539V8.85565C81.2916 7.45629 80.4563 6.89237 79.1616 6.89237C77.6582 6.89237 76.8229 7.51895 76.8229 8.60501H74.6512C74.6512 6.37022 76.4888 4.9082 79.2869 4.9082C82.0642 4.9082 83.7765 6.41199 83.7765 9.27336V15.5392H81.5422L81.3542 14.0145C80.9157 15.0797 79.5166 15.8107 77.9087 15.8107ZM78.744 13.8892C80.3101 13.8892 81.3125 12.9493 81.3125 11.362V10.8189L79.1616 10.986C77.5746 11.1322 76.969 11.6544 76.969 12.4898C76.969 13.4297 77.5955 13.8892 78.744 13.8892Z" fill="var(--fill-0, white)"/>
<path d="M85.2255 10.1506C85.2255 7.143 87.1884 4.88731 90.1327 4.88731C91.6779 4.88731 92.8891 5.53478 93.4947 6.64173L93.6408 5.22149H96.0005V15.017C96.0005 18.4632 93.9332 20.6144 90.5921 20.6144C87.6269 20.6144 85.6013 18.9227 85.2881 16.1657H87.8357C88.0027 17.5024 89.026 18.2961 90.5921 18.2961C92.3462 18.2961 93.4738 17.1891 93.4738 15.4765V13.7638C92.8264 14.7246 91.5527 15.3303 90.07 15.3303C87.1466 15.3303 85.2255 13.1373 85.2255 10.1506ZM87.7939 10.0879C87.7939 11.8215 88.9007 13.1164 90.5712 13.1164C92.3253 13.1164 93.4111 11.8841 93.4111 10.0879C93.4111 8.3335 92.3462 7.12211 90.5712 7.12211C88.8798 7.12211 87.7939 8.39615 87.7939 10.0879Z" fill="var(--fill-0, white)"/>
<path d="M102.502 10.3594C102.502 7.16388 104.611 4.9082 107.66 4.9082C110.479 4.9082 112.4 6.47465 112.671 8.96008H110.124C109.831 7.79046 108.975 7.18477 107.764 7.18477C106.135 7.18477 105.05 8.41704 105.05 10.3594C105.05 12.3018 106.052 13.5132 107.681 13.5132C108.954 13.5132 109.852 12.8866 110.124 11.7588H112.692C112.379 14.1607 110.374 15.8107 107.681 15.8107C104.548 15.8107 102.502 13.6385 102.502 10.3594Z" fill="var(--fill-0, white)"/>
<path d="M98.1472 5.22149H100.817V15.5391H98.1472V5.22149Z" fill="white"/>
<path d="M100.817 0.338047H98.1472V3.00863H100.817V0.338047Z" fill="var(--fill-0, white)"/>
</g>
</g>
</svg>
