<svg preserveAspectRatio="none" width="100%" height="100%" overflow="visible" style="display: block;" viewBox="0 0 12.7632 12.2064" fill="none" xmlns="http://www.w3.org/2000/svg">
<path id="Vector" d="M2.89734 12.2064V3.97075H0.161418V12.2064H2.89734ZM1.52973 2.84565C2.48379 2.84565 3.07765 2.21325 3.07765 1.42296C3.05988 0.614847 2.48383 0 1.54784 0C0.611988 0 0 0.614859 0 1.42296C0 2.21328 0.593712 2.84565 1.51187 2.84565H1.52965H1.52973ZM4.41166 12.2064H7.14758V7.6072C7.14758 7.36106 7.16535 7.11517 7.2376 6.93922C7.43539 6.44744 7.88556 5.93809 8.64133 5.93809C9.63135 5.93809 10.0274 6.69332 10.0274 7.80044V12.2063H12.7632V7.48409C12.7632 4.95443 11.4134 3.77741 9.61333 3.77741C8.13741 3.77741 7.48939 4.60282 7.12938 5.16501H7.14764V3.97058H4.41172C4.44763 4.74337 4.41172 12.2062 4.41172 12.2062L4.41166 12.2064Z" fill="var(--fill-0, #181818)"/>
</svg>
