<svg width="32" height="32" viewBox="0 0 32 32" fill="none" xmlns="http://www.w3.org/2000/svg">
<path fill-rule="evenodd" clip-rule="evenodd" d="M32 16C32 24.8365 24.8365 32 16 32C7.16352 32 0 24.8365 0 16C0 7.16352 7.16352 0 16 0C24.8365 0 32 7.16352 32 16Z" fill="#FF492C"/>
<path fill-rule="evenodd" clip-rule="evenodd" d="M22.9337 12.253H20.1993C20.2736 11.8245 20.5379 11.5854 21.075 11.3134L21.5789 11.0579C22.4794 10.5965 22.9585 10.0772 22.9585 9.22817C22.9585 8.69242 22.752 8.27194 22.3389 7.96718C21.9342 7.66215 21.4384 7.51367 20.8684 7.51367C20.4141 7.51367 20.0009 7.62913 19.621 7.8681C19.2493 8.09902 18.9683 8.39572 18.7949 8.76654L19.5881 9.5579C19.8936 8.93972 20.3398 8.6347 20.9263 8.6347C21.422 8.6347 21.7277 8.89031 21.7277 9.24455C21.7277 9.54145 21.5789 9.78855 21.0089 10.0772L20.6867 10.2337C19.9846 10.5882 19.4971 10.992 19.2162 11.4536C18.9354 11.9069 18.7949 12.492 18.7949 13.1928V13.3823H22.9337V12.253Z" fill="white"/>
<path fill-rule="evenodd" clip-rule="evenodd" d="M22.5639 14.6914H18.0434L15.7832 18.6071H20.3038L22.5639 22.5229L24.8241 18.6071L22.5639 14.6914Z" fill="white"/>
<path fill-rule="evenodd" clip-rule="evenodd" d="M16.1658 21.2223C13.2839 21.2223 10.9393 18.8794 10.9393 15.9994C10.9393 13.1197 13.2839 10.7767 16.1658 10.7767L17.9551 7.03467C17.3765 6.91992 16.7783 6.85938 16.1658 6.85938C11.1145 6.85938 7.01953 10.9516 7.01953 15.9994C7.01953 21.0475 11.1145 25.1394 16.1658 25.1394C18.1798 25.1394 20.0414 24.4886 21.5524 23.3864L19.5708 19.9568C18.6555 20.7444 17.4657 21.2223 16.1658 21.2223Z" fill="white"/>
</svg>
