<svg width="640" height="640" viewBox="0 0 640 640" xmlns="http://www.w3.org/2000/svg"><defs><radialGradient id="g" cx="38%" cy="38%" r="62%"><stop offset="0" stop-color="rgb(128,148,178)" stop-opacity="0.10"/><stop offset="0.75" stop-color="rgb(128,148,178)" stop-opacity="0.05"/><stop offset="1" stop-color="rgb(128,148,178)" stop-opacity="0.02"/></radialGradient><radialGradient id="glow" cx="50%" cy="50%" r="50%"><stop offset="0" stop-color="#78A5EB" stop-opacity="0.22"/><stop offset="46%" stop-color="#96B9F0" stop-opacity="0.10"/><stop offset="72%" stop-color="#96B9F0" stop-opacity="0"/></radialGradient></defs><circle cx="320" cy="320" r="337" fill="url(#glow)"/><ellipse cx="320" cy="320" rx="299.5" ry="114.8" transform="rotate(-19.5 320 320)" fill="none" stroke="rgb(11,122,252)" stroke-opacity="0.28" stroke-width="1.2" stroke-dasharray="3 6"/><circle cx="47.5" cy="365.4" r="3" fill="rgb(11,122,252)"/><ellipse cx="320" cy="320" rx="279.6" ry="129.8" transform="rotate(31.5 320 320)" fill="none" stroke="rgb(11,122,252)" stroke-opacity="0.28" stroke-width="1.2" stroke-dasharray="3 6"/><circle cx="387.2" cy="208.9" r="3" fill="rgb(11,122,252)"/><circle cx="320" cy="320" r="249.6" fill="url(#g)"/><path d="M205 498L210 493L217 489L225 484L234 480L244 477L255 474L266 471L278 469L291 468L304 467L317 467L330 467L343 467L355 469L368 470L380 473L391 475L401 479L411 482L419 486L426 491L433 495L438 500L441 505L444 511L445 516L444 521L443 527L440 532L435 537L430 542L423 546L415 550L406 554M239 556L229 552L221 548L214 544L207 539L202 534L199 529L196 524L195 519L196 513L197 508L200 503L205 498M120 400L130 392L142 384L156 377L171 370L188 364L207 359L227 354L248 351L270 348L292 347L314 346L337 346L359 347L381 349L403 353L423 356L442 361L460 367L477 373L491 380L504 388L515 396L524 405L530 413L534 422L536 432L535 441L533 450M110 455L106 445L104 436L105 427L107 418L113 409L120 400M89 281L101 271L114 262L130 254L148 246L168 239L190 233L213 228L237 224L262 221L287 219L313 218L340 219L365 220L391 222L416 226L439 231L461 236L482 243L501 250L518 258L533 267L545 276L555 286L563 296L567 307L570 317M71 312L75 301L81 291L89 281M120 172L130 164L142 156L156 149L171 142L188 136L207 131L227 126L248 123L270 120L292 119L314 118L337 118L359 119L381 122L403 125L423 129L442 133L460 139L477 145L491 152L504 160L515 168L524 177M113 181L120 172M244 82L255 79L266 77L278 75L291 73L304 72L317 72L330 72L343 73L355 74L368 76L380 78L391 81M320 548L296 543L272 535L249 525L226 512L205 498L184 481L166 463L149 444L133 422L120 400L109 377L101 353L94 329L91 305L89 281L91 257L94 235L101 213L109 192L120 172L133 155M320 548L304 538L288 526L273 512L258 495L244 477L231 457L218 435L207 412L197 389L188 364L181 339L175 314L171 288L169 264L168 239L169 216L171 194L175 173L181 154L188 136L197 121L207 107L218 97L231 88L244 82M320 548L317 536L313 522L310 506L307 487L304 467L301 445L298 422L296 398L294 372L292 347L290 321L289 294L288 269L288 243L287 219L288 196L288 174L289 154L290 135L292 119L294 104L296 93L298 83L301 76L304 72M320 548L330 537L340 523L350 508L359 490L368 470L376 449L384 426L391 403L397 378L403 353L407 327L411 301L413 275L415 250L416 226L415 203L413 181L411 160L407 141L403 125L397 110L391 98L384 88L376 80L368 76M320 548L341 540L361 530L381 518L401 503L419 486L436 468L453 448L467 426L480 404L491 380L501 356L508 332L514 307L517 282L518 258L517 235L514 212L508 191L501 171L491 152L480 136L467 121L453 109M320 548L346 545L371 540L396 533L421 523L444 511L465 497L486 480L504 463L520 443L534 422L546 401L555 378L562 354L566 331L567 307L566 283L562 260M320 548L344 551L368 551L391 549L414 544L435 537L456 527L474 515L491 501M320 548L336 555L352 560L367 562L382 561M320 548L323 557L327 564L330 568L333 569M320 548L310 556L300 562L290 566L281 566M320 548L299 553L279 556L259 556L239 553L221 548L204 541M320 548L294 548L269 546L244 541L219 534L196 524L175 512L154 498L136 482L120 465L106 445L94 425L85 403" fill="none" stroke="rgb(128,148,178)" stroke-opacity="0.09" stroke-width="0.8"/><path d="M287 563h4v4h-4zM290 563h4v4h-4zM294 564h4v4h-4zM297 564h4v4h-4zM283 563h4v4h-4zM286 564h4v4h-4zM290 564h4v4h-4zM294 565h4v4h-4zM253 557h4v4h-4zM274 563h4v4h-4zM278 564h4v4h-4zM282 564h4v4h-4zM287 565h4v4h-4zM291 565h4v4h-4zM273 563h4v4h-4zM73 351h4v4h-4zM72 336h4v4h-4zM71 340h4v4h-4zM71 345h4v4h-4zM71 324h4v4h-4zM70 329h4v4h-4zM69 333h4v4h-4zM559 381h4v4h-4zM560 372h4v4h-4zM72 309h4v4h-4zM70 313h4v4h-4zM69 318h4v4h-4zM69 322h4v4h-4zM561 373h4v4h-4zM562 368h4v4h-4zM562 363h4v4h-4zM562 359h4v4h-4zM562 354h4v4h-4zM72 298h4v4h-4zM70 302h4v4h-4zM69 306h4v4h-4zM564 360h4v4h-4zM564 355h4v4h-4zM564 350h4v4h-4zM564 345h4v4h-4zM563 341h4v4h-4zM72 286h4v4h-4zM71 290h4v4h-4zM70 295h4v4h-4zM566 341h4v4h-4zM565 337h4v4h-4zM565 332h4v4h-4zM564 327h4v4h-4zM73 275h4v4h-4zM72 279h4v4h-4zM567 328h4v4h-4zM566 323h4v4h-4zM565 318h4v4h-4zM74 268h4v4h-4zM264 561h4v4h-4zM269 562h4v4h-4zM567 319h4v4h-4zM567 314h4v4h-4zM566 310h4v4h-4zM565 305h4v4h-4zM84 241h4v4h-4zM565 296h4v4h-4zM563 291h4v4h-4zM87 231h4v4h-4zM84 235h4v4h-4zM80 242h4v4h-4zM93 217h4v4h-4zM90 221h4v4h-4zM88 224h4v4h-4zM86 228h4v4h-4zM100 204h4v4h-4zM97 207h4v4h-4zM94 211h4v4h-4zM92 214h4v4h-4zM104 194h4v4h-4zM101 198h4v4h-4zM98 201h4v4h-4zM96 205h4v4h-4zM109 185h4v4h-4zM106 188h4v4h-4zM103 192h4v4h-4zM117 173h4v4h-4zM129 159h4v4h-4zM125 162h4v4h-4zM538 205h4v4h-4zM141 146h4v4h-4zM134 152h4v4h-4zM128 157h4v4h-4zM535 198h4v4h-4zM529 190h4v4h-4zM140 144h4v4h-4zM137 147h4v4h-4zM519 175h4v4h-4zM164 126h4v4h-4zM146 138h4v4h-4zM527 182h4v4h-4zM514 168h4v4h-4zM511 164h4v4h-4zM173 118h4v4h-4zM169 120h4v4h-4zM520 172h4v4h-4zM516 168h4v4h-4zM513 164h4v4h-4zM510 161h4v4h-4zM506 158h4v4h-4zM186 109h4v4h-4zM182 111h4v4h-4zM179 113h4v4h-4zM175 115h4v4h-4zM512 161h4v4h-4zM508 158h4v4h-4zM505 154h4v4h-4zM502 151h4v4h-4zM498 148h4v4h-4zM495 145h4v4h-4zM490 142h4v4h-4zM203 100h4v4h-4zM195 103h4v4h-4zM191 105h4v4h-4zM188 107h4v4h-4zM184 108h4v4h-4zM181 110h4v4h-4zM178 112h4v4h-4zM503 151h4v4h-4zM500 148h4v4h-4zM497 145h4v4h-4zM493 142h4v4h-4zM490 139h4v4h-4zM486 136h4v4h-4zM482 133h4v4h-4zM478 130h4v4h-4zM216 94h4v4h-4zM212 95h4v4h-4zM200 99h4v4h-4zM197 101h4v4h-4zM194 102h4v4h-4zM190 104h4v4h-4zM491 139h4v4h-4zM488 136h4v4h-4zM484 133h4v4h-4zM481 130h4v4h-4zM477 127h4v4h-4zM473 125h4v4h-4zM469 122h4v4h-4zM465 120h4v4h-4zM460 117h4v4h-4zM236 86h4v4h-4zM232 87h4v4h-4zM228 88h4v4h-4zM224 89h4v4h-4zM220 90h4v4h-4zM216 92h4v4h-4zM206 96h4v4h-4zM203 97h4v4h-4zM150 137h4v4h-4zM147 139h4v4h-4zM143 142h4v4h-4zM160 128h4v4h-4zM156 130h4v4h-4zM153 133h4v4h-4zM149 135h4v4h-4zM166 122h4v4h-4zM162 125h4v4h-4zM159 127h4v4h-4zM155 129h4v4h-4zM171 117h4v4h-4zM168 119h4v4h-4zM165 121h4v4h-4zM482 130h4v4h-4zM479 128h4v4h-4zM475 125h4v4h-4zM471 122h4v4h-4zM468 120h4v4h-4zM464 117h4v4h-4zM460 115h4v4h-4zM456 112h4v4h-4zM452 110h4v4h-4zM447 108h4v4h-4zM443 106h4v4h-4zM255 80h4v4h-4zM251 81h4v4h-4zM247 81h4v4h-4zM243 82h4v4h-4zM239 83h4v4h-4zM236 84h4v4h-4zM232 85h4v4h-4zM228 86h4v4h-4zM225 87h4v4h-4zM74 282h4v4h-4zM75 271h4v4h-4zM79 256h4v4h-4zM77 260h4v4h-4zM75 264h4v4h-4zM81 245h4v4h-4zM79 249h4v4h-4zM77 253h4v4h-4zM82 239h4v4h-4zM199 102h4v4h-4zM208 96h4v4h-4zM204 98h4v4h-4zM213 93h4v4h-4zM210 94h4v4h-4zM221 89h4v4h-4zM218 90h4v4h-4zM215 91h4v4h-4zM469 120h4v4h-4zM466 117h4v4h-4zM462 115h4v4h-4zM458 113h4v4h-4zM455 110h4v4h-4zM451 108h4v4h-4zM446 106h4v4h-4zM442 104h4v4h-4zM438 102h4v4h-4zM434 100h4v4h-4zM429 98h4v4h-4zM425 96h4v4h-4zM421 94h4v4h-4zM278 75h4v4h-4zM273 76h4v4h-4zM270 76h4v4h-4zM266 77h4v4h-4zM262 77h4v4h-4zM258 78h4v4h-4zM254 79h4v4h-4zM250 79h4v4h-4zM246 80h4v4h-4zM243 81h4v4h-4zM239 82h4v4h-4zM236 83h4v4h-4zM233 84h4v4h-4zM229 85h4v4h-4zM453 108h4v4h-4zM449 106h4v4h-4zM445 104h4v4h-4zM441 102h4v4h-4zM437 100h4v4h-4zM433 98h4v4h-4zM429 96h4v4h-4zM425 94h4v4h-4zM421 93h4v4h-4zM416 91h4v4h-4zM412 89h4v4h-4zM408 88h4v4h-4zM404 86h4v4h-4zM399 85h4v4h-4zM395 84h4v4h-4zM391 83h4v4h-4zM386 81h4v4h-4zM311 72h4v4h-4zM307 72h4v4h-4zM302 72h4v4h-4zM298 72h4v4h-4zM294 72h4v4h-4zM290 72h4v4h-4zM286 73h4v4h-4zM282 73h4v4h-4zM278 73h4v4h-4zM275 74h4v4h-4zM271 74h4v4h-4zM267 75h4v4h-4zM264 75h4v4h-4zM260 76h4v4h-4zM257 77h4v4h-4zM253 78h4v4h-4zM250 78h4v4h-4zM247 79h4v4h-4zM436 98h4v4h-4zM428 95h4v4h-4zM424 93h4v4h-4zM420 91h4v4h-4zM416 90h4v4h-4zM412 88h4v4h-4zM408 87h4v4h-4zM404 85h4v4h-4zM400 84h4v4h-4zM396 83h4v4h-4zM392 81h4v4h-4zM387 80h4v4h-4zM383 79h4v4h-4zM379 78h4v4h-4zM375 77h4v4h-4zM371 76h4v4h-4zM366 76h4v4h-4zM362 75h4v4h-4zM358 74h4v4h-4zM354 74h4v4h-4zM350 73h4v4h-4zM345 72h4v4h-4zM341 72h4v4h-4zM337 72h4v4h-4zM333 71h4v4h-4zM329 71h4v4h-4zM325 71h4v4h-4zM321 71h4v4h-4zM317 70h4v4h-4zM313 70h4v4h-4zM309 70h4v4h-4zM305 70h4v4h-4zM301 71h4v4h-4zM298 71h4v4h-4zM294 71h4v4h-4zM290 71h4v4h-4zM287 71h4v4h-4zM283 72h4v4h-4zM280 72h4v4h-4zM276 73h4v4h-4zM273 73h4v4h-4zM269 74h4v4h-4zM266 74h4v4h-4zM263 75h4v4h-4zM396 82h4v4h-4zM392 81h4v4h-4zM369 75h4v4h-4zM365 74h4v4h-4zM361 73h4v4h-4zM357 73h4v4h-4zM349 72h4v4h-4zM345 71h4v4h-4zM341 71h4v4h-4zM337 70h4v4h-4zM334 70h4v4h-4zM330 70h4v4h-4zM326 70h4v4h-4zM322 69h4v4h-4zM319 69h4v4h-4zM315 69h4v4h-4zM311 69h4v4h-4zM308 69h4v4h-4zM304 69h4v4h-4zM301 70h4v4h-4zM297 70h4v4h-4zM294 70h4v4h-4zM291 70h4v4h-4zM287 71h4v4h-4zM284 71h4v4h-4zM348 71h4v4h-4zM344 70h4v4h-4zM341 70h4v4h-4zM337 70h4v4h-4zM334 69h4v4h-4zM330 69h4v4h-4zM327 69h4v4h-4zM323 69h4v4h-4zM320 69h4v4h-4zM317 69h4v4h-4zM313 69h4v4h-4z" fill="rgb(128,148,178)" opacity="0.14"/><path d="M306 556h4v4h-4zM307 556h4v4h-4zM293 558h4v4h-4zM304 559h4v4h-4zM306 559h4v4h-4zM298 560h4v4h-4zM301 561h4v4h-4zM303 561h4v4h-4zM291 562h4v4h-4zM294 562h4v4h-4zM297 562h4v4h-4zM300 563h4v4h-4zM430 526h4v4h-4zM440 520h4v4h-4zM492 486h4v4h-4zM495 475h4v4h-4zM503 469h4v4h-4zM510 460h4v4h-4zM517 449h4v4h-4zM545 400h4v4h-4zM545 396h4v4h-4zM544 391h4v4h-4zM550 397h4v4h-4zM550 392h4v4h-4zM549 388h4v4h-4zM548 383h4v4h-4zM547 379h4v4h-4zM77 338h4v4h-4zM75 342h4v4h-4zM553 379h4v4h-4zM552 375h4v4h-4zM550 366h4v4h-4zM80 318h4v4h-4zM78 322h4v4h-4zM75 327h4v4h-4zM73 331h4v4h-4zM556 367h4v4h-4zM555 362h4v4h-4zM554 357h4v4h-4zM552 352h4v4h-4zM82 303h4v4h-4zM79 307h4v4h-4zM76 311h4v4h-4zM74 315h4v4h-4zM72 320h4v4h-4zM82 291h4v4h-4zM79 295h4v4h-4zM76 300h4v4h-4zM74 304h4v4h-4zM558 336h4v4h-4zM556 331h4v4h-4zM85 276h4v4h-4zM82 280h4v4h-4zM563 336h4v4h-4zM561 331h4v4h-4zM560 327h4v4h-4zM90 261h4v4h-4zM86 265h4v4h-4zM82 269h4v4h-4zM563 323h4v4h-4zM562 318h4v4h-4zM560 313h4v4h-4zM558 308h4v4h-4zM556 304h4v4h-4zM553 299h4v4h-4zM90 251h4v4h-4zM87 254h4v4h-4zM83 258h4v4h-4zM80 263h4v4h-4zM78 267h4v4h-4zM564 314h4v4h-4zM563 309h4v4h-4zM561 304h4v4h-4zM559 300h4v4h-4zM557 295h4v4h-4zM554 290h4v4h-4zM551 286h4v4h-4zM96 236h4v4h-4zM92 240h4v4h-4zM88 244h4v4h-4zM85 248h4v4h-4zM82 252h4v4h-4zM268 556h4v4h-4zM270 557h4v4h-4zM273 558h4v4h-4zM263 557h4v4h-4zM267 558h4v4h-4zM270 559h4v4h-4zM563 300h4v4h-4zM555 282h4v4h-4zM552 277h4v4h-4zM549 273h4v4h-4zM102 223h4v4h-4zM98 226h4v4h-4zM94 230h4v4h-4zM90 233h4v4h-4zM87 237h4v4h-4zM552 268h4v4h-4zM549 264h4v4h-4zM546 260h4v4h-4zM109 209h4v4h-4zM105 213h4v4h-4zM100 216h4v4h-4zM97 220h4v4h-4zM93 223h4v4h-4zM90 227h4v4h-4zM549 255h4v4h-4zM546 251h4v4h-4zM543 247h4v4h-4zM108 203h4v4h-4zM103 206h4v4h-4zM100 210h4v4h-4zM96 213h4v4h-4zM549 247h4v4h-4zM546 242h4v4h-4zM542 238h4v4h-4zM538 234h4v4h-4zM107 197h4v4h-4zM103 200h4v4h-4zM553 247h4v4h-4zM532 213h4v4h-4zM534 209h4v4h-4zM530 205h4v4h-4zM150 151h4v4h-4zM535 205h4v4h-4zM164 139h4v4h-4zM159 141h4v4h-4zM154 144h4v4h-4zM149 146h4v4h-4zM145 149h4v4h-4zM504 171h4v4h-4zM499 168h4v4h-4zM179 128h4v4h-4zM173 130h4v4h-4zM168 132h4v4h-4zM163 134h4v4h-4zM158 137h4v4h-4zM154 139h4v4h-4zM149 141h4v4h-4zM136 164h4v4h-4zM136 159h4v4h-4zM131 161h4v4h-4zM140 151h4v4h-4zM136 154h4v4h-4zM145 144h4v4h-4zM525 186h4v4h-4zM522 182h4v4h-4zM492 158h4v4h-4zM193 119h4v4h-4zM172 126h4v4h-4zM167 128h4v4h-4zM163 130h4v4h-4zM159 132h4v4h-4zM154 135h4v4h-4zM515 171h4v4h-4zM511 168h4v4h-4zM484 148h4v4h-4zM479 145h4v4h-4zM207 110h4v4h-4zM201 111h4v4h-4zM196 113h4v4h-4zM177 120h4v4h-4zM172 122h4v4h-4zM168 124h4v4h-4zM507 161h4v4h-4zM461 131h4v4h-4zM226 101h4v4h-4zM220 102h4v4h-4zM215 104h4v4h-4zM209 105h4v4h-4zM204 106h4v4h-4zM200 108h4v4h-4zM181 115h4v4h-4zM177 116h4v4h-4zM495 148h4v4h-4zM487 142h4v4h-4zM458 125h4v4h-4zM453 123h4v4h-4zM447 120h4v4h-4zM442 118h4v4h-4zM244 94h4v4h-4zM238 95h4v4h-4zM233 96h4v4h-4zM228 97h4v4h-4zM223 98h4v4h-4zM218 99h4v4h-4zM212 100h4v4h-4zM208 102h4v4h-4zM203 103h4v4h-4zM199 105h4v4h-4zM195 106h4v4h-4zM190 108h4v4h-4zM487 139h4v4h-4zM482 136h4v4h-4zM478 133h4v4h-4zM474 130h4v4h-4zM469 127h4v4h-4zM464 125h4v4h-4zM459 122h4v4h-4zM455 120h4v4h-4zM449 117h4v4h-4zM444 115h4v4h-4zM439 113h4v4h-4zM434 111h4v4h-4zM429 109h4v4h-4zM423 107h4v4h-4zM418 105h4v4h-4zM272 87h4v4h-4zM266 87h4v4h-4zM261 88h4v4h-4zM256 88h4v4h-4zM250 89h4v4h-4zM245 90h4v4h-4zM240 91h4v4h-4zM235 92h4v4h-4zM230 93h4v4h-4zM225 94h4v4h-4zM221 95h4v4h-4zM216 96h4v4h-4zM212 97h4v4h-4zM207 99h4v4h-4zM474 127h4v4h-4zM469 125h4v4h-4zM465 122h4v4h-4zM461 120h4v4h-4zM456 117h4v4h-4zM451 115h4v4h-4zM446 112h4v4h-4zM441 110h4v4h-4zM436 108h4v4h-4zM431 106h4v4h-4zM426 104h4v4h-4zM421 102h4v4h-4zM416 100h4v4h-4zM410 99h4v4h-4zM405 97h4v4h-4zM399 95h4v4h-4zM394 94h4v4h-4zM388 93h4v4h-4zM383 91h4v4h-4zM377 90h4v4h-4zM315 82h4v4h-4zM309 82h4v4h-4zM304 82h4v4h-4zM298 82h4v4h-4zM293 82h4v4h-4zM288 82h4v4h-4zM282 83h4v4h-4zM277 83h4v4h-4zM272 83h4v4h-4zM267 84h4v4h-4zM262 84h4v4h-4zM257 85h4v4h-4zM252 86h4v4h-4zM247 86h4v4h-4zM242 87h4v4h-4zM238 88h4v4h-4zM233 89h4v4h-4zM229 90h4v4h-4zM224 91h4v4h-4zM220 92h4v4h-4zM456 115h4v4h-4zM451 112h4v4h-4zM447 110h4v4h-4zM442 108h4v4h-4zM438 106h4v4h-4zM433 104h4v4h-4zM428 102h4v4h-4zM423 100h4v4h-4zM418 98h4v4h-4zM413 96h4v4h-4zM408 95h4v4h-4zM403 93h4v4h-4zM397 92h4v4h-4zM392 90h4v4h-4zM387 89h4v4h-4zM382 88h4v4h-4zM376 87h4v4h-4zM371 85h4v4h-4zM366 85h4v4h-4zM360 84h4v4h-4zM355 83h4v4h-4zM350 82h4v4h-4zM344 81h4v4h-4zM339 81h4v4h-4zM334 80h4v4h-4zM328 80h4v4h-4zM323 80h4v4h-4zM318 79h4v4h-4zM312 79h4v4h-4zM307 79h4v4h-4zM302 79h4v4h-4zM297 79h4v4h-4zM292 79h4v4h-4zM287 79h4v4h-4zM282 79h4v4h-4zM277 80h4v4h-4zM272 80h4v4h-4zM267 81h4v4h-4zM263 81h4v4h-4zM258 82h4v4h-4zM253 83h4v4h-4zM249 83h4v4h-4zM245 84h4v4h-4zM240 85h4v4h-4zM438 104h4v4h-4zM434 102h4v4h-4zM429 100h4v4h-4zM424 98h4v4h-4zM420 96h4v4h-4zM415 94h4v4h-4zM410 93h4v4h-4zM405 91h4v4h-4zM400 90h4v4h-4zM395 88h4v4h-4zM391 87h4v4h-4zM386 86h4v4h-4zM380 84h4v4h-4zM375 83h4v4h-4zM371 83h4v4h-4zM365 81h4v4h-4zM360 81h4v4h-4zM355 80h4v4h-4zM350 79h4v4h-4zM345 79h4v4h-4zM340 78h4v4h-4zM335 77h4v4h-4zM330 77h4v4h-4zM325 77h4v4h-4zM320 76h4v4h-4zM315 76h4v4h-4zM310 76h4v4h-4zM305 76h4v4h-4zM300 76h4v4h-4zM296 76h4v4h-4zM291 76h4v4h-4zM286 77h4v4h-4zM282 77h4v4h-4zM277 77h4v4h-4zM273 78h4v4h-4zM268 78h4v4h-4zM264 79h4v4h-4zM259 79h4v4h-4zM78 284h4v4h-4zM76 289h4v4h-4zM73 293h4v4h-4zM79 274h4v4h-4zM76 278h4v4h-4zM112 199h4v4h-4zM120 187h4v4h-4zM187 120h4v4h-4zM182 122h4v4h-4zM177 124h4v4h-4zM191 115h4v4h-4zM186 116h4v4h-4zM181 118h4v4h-4zM195 109h4v4h-4zM190 111h4v4h-4zM186 113h4v4h-4zM416 93h4v4h-4zM412 91h4v4h-4zM407 89h4v4h-4zM402 88h4v4h-4zM398 87h4v4h-4zM393 85h4v4h-4zM388 84h4v4h-4zM384 83h4v4h-4zM379 82h4v4h-4zM374 81h4v4h-4zM369 80h4v4h-4zM365 79h4v4h-4zM360 78h4v4h-4zM355 77h4v4h-4zM350 77h4v4h-4zM346 76h4v4h-4zM341 76h4v4h-4zM336 75h4v4h-4zM331 75h4v4h-4zM327 74h4v4h-4zM322 74h4v4h-4zM317 74h4v4h-4zM313 74h4v4h-4zM308 74h4v4h-4zM304 74h4v4h-4zM299 74h4v4h-4zM295 74h4v4h-4zM291 74h4v4h-4zM286 74h4v4h-4zM282 75h4v4h-4zM382 80h4v4h-4zM377 79h4v4h-4zM373 78h4v4h-4zM368 77h4v4h-4zM363 77h4v4h-4zM359 76h4v4h-4zM354 75h4v4h-4zM350 75h4v4h-4zM346 74h4v4h-4zM341 74h4v4h-4zM337 73h4v4h-4zM332 73h4v4h-4zM328 72h4v4h-4zM324 72h4v4h-4zM319 72h4v4h-4zM315 72h4v4h-4z" fill="rgb(128,148,178)" opacity="0.23"/><path d="M380 541h4v4h-4zM382 539h4v4h-4zM383 538h4v4h-4zM384 536h4v4h-4zM385 535h4v4h-4zM389 540h4v4h-4zM391 538h4v4h-4zM392 536h4v4h-4zM393 534h4v4h-4zM395 533h4v4h-4zM396 531h4v4h-4zM397 529h4v4h-4zM398 538h4v4h-4zM400 536h4v4h-4zM401 534h4v4h-4zM403 533h4v4h-4zM404 531h4v4h-4zM405 528h4v4h-4zM406 526h4v4h-4zM407 524h4v4h-4zM409 535h4v4h-4zM410 533h4v4h-4zM412 530h4v4h-4zM413 528h4v4h-4zM414 526h4v4h-4zM415 524h4v4h-4zM416 522h4v4h-4zM416 519h4v4h-4zM416 517h4v4h-4zM416 515h4v4h-4zM419 530h4v4h-4zM421 528h4v4h-4zM422 526h4v4h-4zM423 523h4v4h-4zM424 521h4v4h-4zM425 519h4v4h-4zM426 516h4v4h-4zM426 514h4v4h-4zM426 511h4v4h-4zM426 508h4v4h-4zM426 506h4v4h-4zM431 523h4v4h-4zM432 521h4v4h-4zM434 518h4v4h-4zM434 515h4v4h-4zM435 513h4v4h-4zM435 510h4v4h-4zM435 507h4v4h-4zM435 504h4v4h-4zM435 502h4v4h-4zM442 515h4v4h-4zM443 512h4v4h-4zM444 509h4v4h-4zM444 506h4v4h-4zM445 503h4v4h-4zM445 501h4v4h-4zM444 498h4v4h-4zM443 495h4v4h-4zM452 508h4v4h-4zM453 505h4v4h-4zM453 502h4v4h-4zM454 499h4v4h-4zM454 496h4v4h-4zM453 493h4v4h-4zM453 490h4v4h-4zM461 504h4v4h-4zM462 501h4v4h-4zM462 498h4v4h-4zM463 495h4v4h-4zM463 492h4v4h-4zM463 488h4v4h-4zM462 485h4v4h-4zM461 482h4v4h-4zM471 491h4v4h-4zM471 487h4v4h-4zM471 484h4v4h-4zM471 480h4v4h-4zM470 477h4v4h-4zM469 473h4v4h-4zM480 482h4v4h-4zM480 479h4v4h-4zM479 471h4v4h-4zM478 468h4v4h-4zM488 470h4v4h-4zM486 462h4v4h-4zM485 459h4v4h-4zM496 464h4v4h-4zM495 460h4v4h-4zM503 462h4v4h-4zM503 458h4v4h-4zM503 454h4v4h-4zM502 450h4v4h-4zM501 446h4v4h-4zM500 442h4v4h-4zM510 448h4v4h-4zM510 444h4v4h-4zM509 440h4v4h-4zM507 435h4v4h-4zM506 431h4v4h-4zM513 424h4v4h-4zM511 420h4v4h-4zM105 361h4v4h-4zM101 350h4v4h-4zM97 354h4v4h-4zM102 335h4v4h-4zM98 339h4v4h-4zM532 364h4v4h-4zM99 324h4v4h-4zM95 328h4v4h-4zM91 332h4v4h-4zM546 374h4v4h-4zM542 365h4v4h-4zM97 313h4v4h-4zM93 317h4v4h-4zM89 321h4v4h-4zM85 325h4v4h-4zM100 298h4v4h-4zM96 302h4v4h-4zM91 306h4v4h-4zM87 310h4v4h-4zM83 314h4v4h-4zM104 283h4v4h-4zM99 287h4v4h-4zM94 291h4v4h-4zM90 294h4v4h-4zM86 299h4v4h-4zM103 272h4v4h-4zM98 276h4v4h-4zM94 280h4v4h-4zM89 283h4v4h-4zM85 287h4v4h-4zM552 321h4v4h-4zM549 317h4v4h-4zM103 261h4v4h-4zM98 265h4v4h-4zM93 269h4v4h-4zM89 272h4v4h-4zM551 308h4v4h-4zM115 244h4v4h-4zM103 250h4v4h-4zM98 254h4v4h-4zM94 258h4v4h-4zM547 290h4v4h-4zM104 240h4v4h-4zM99 243h4v4h-4zM95 247h4v4h-4zM548 282h4v4h-4zM541 273h4v4h-4zM116 223h4v4h-4zM110 226h4v4h-4zM105 229h4v4h-4zM101 233h4v4h-4zM546 268h4v4h-4zM542 264h4v4h-4zM538 259h4v4h-4zM118 212h4v4h-4zM112 216h4v4h-4zM107 219h4v4h-4zM542 255h4v4h-4zM539 251h4v4h-4zM534 246h4v4h-4zM137 194h4v4h-4zM539 242h4v4h-4zM535 238h4v4h-4zM530 234h4v4h-4zM526 230h4v4h-4zM521 225h4v4h-4zM516 222h4v4h-4zM510 218h4v4h-4zM133 187h4v4h-4zM530 225h4v4h-4zM521 218h4v4h-4zM516 214h4v4h-4zM505 206h4v4h-4zM135 179h4v4h-4zM520 209h4v4h-4zM174 156h4v4h-4zM168 158h4v4h-4zM162 160h4v4h-4zM519 201h4v4h-4zM481 176h4v4h-4zM183 146h4v4h-4zM176 148h4v4h-4zM170 150h4v4h-4zM164 152h4v4h-4zM158 154h4v4h-4zM147 159h4v4h-4zM513 190h4v4h-4zM492 176h4v4h-4zM475 166h4v4h-4zM469 163h4v4h-4zM185 138h4v4h-4zM179 140h4v4h-4zM172 142h4v4h-4zM167 144h4v4h-4zM161 146h4v4h-4zM156 149h4v4h-4zM491 168h4v4h-4zM486 165h4v4h-4zM480 162h4v4h-4zM474 159h4v4h-4zM468 156h4v4h-4zM462 153h4v4h-4zM456 150h4v4h-4zM219 124h4v4h-4zM213 125h4v4h-4zM206 127h4v4h-4zM199 128h4v4h-4zM193 130h4v4h-4zM187 131h4v4h-4zM181 133h4v4h-4zM175 135h4v4h-4zM170 137h4v4h-4zM494 165h4v4h-4zM489 161h4v4h-4zM484 158h4v4h-4zM478 155h4v4h-4zM473 152h4v4h-4zM467 149h4v4h-4zM461 146h4v4h-4zM455 144h4v4h-4zM448 141h4v4h-4zM442 138h4v4h-4zM436 136h4v4h-4zM241 115h4v4h-4zM234 116h4v4h-4zM227 117h4v4h-4zM220 118h4v4h-4zM214 119h4v4h-4zM208 120h4v4h-4zM202 122h4v4h-4zM196 123h4v4h-4zM190 125h4v4h-4zM184 127h4v4h-4zM487 155h4v4h-4zM482 152h4v4h-4zM477 149h4v4h-4zM471 146h4v4h-4zM465 143h4v4h-4zM460 140h4v4h-4zM454 137h4v4h-4zM448 135h4v4h-4zM441 132h4v4h-4zM435 130h4v4h-4zM429 128h4v4h-4zM422 125h4v4h-4zM415 123h4v4h-4zM409 121h4v4h-4zM274 106h4v4h-4zM267 106h4v4h-4zM261 107h4v4h-4zM254 107h4v4h-4zM248 108h4v4h-4zM241 109h4v4h-4zM234 110h4v4h-4zM228 111h4v4h-4zM222 112h4v4h-4zM216 113h4v4h-4zM210 114h4v4h-4zM204 116h4v4h-4zM198 117h4v4h-4zM474 142h4v4h-4zM469 139h4v4h-4zM463 137h4v4h-4zM458 134h4v4h-4zM452 131h4v4h-4zM446 129h4v4h-4zM440 126h4v4h-4zM434 124h4v4h-4zM428 122h4v4h-4zM421 120h4v4h-4zM415 118h4v4h-4zM409 116h4v4h-4zM402 114h4v4h-4zM396 112h4v4h-4zM389 111h4v4h-4zM382 109h4v4h-4zM376 108h4v4h-4zM369 107h4v4h-4zM362 105h4v4h-4zM355 104h4v4h-4zM348 103h4v4h-4zM341 103h4v4h-4zM335 102h4v4h-4zM327 101h4v4h-4zM321 101h4v4h-4zM314 100h4v4h-4zM307 100h4v4h-4zM300 100h4v4h-4zM293 100h4v4h-4zM287 100h4v4h-4zM280 100h4v4h-4zM273 101h4v4h-4zM267 101h4v4h-4zM260 101h4v4h-4zM254 102h4v4h-4zM248 103h4v4h-4zM241 103h4v4h-4zM235 104h4v4h-4zM229 105h4v4h-4zM223 106h4v4h-4zM218 107h4v4h-4zM212 109h4v4h-4zM455 128h4v4h-4zM450 126h4v4h-4zM444 123h4v4h-4zM438 121h4v4h-4zM433 119h4v4h-4zM427 116h4v4h-4zM421 114h4v4h-4zM414 112h4v4h-4zM409 111h4v4h-4zM402 109h4v4h-4zM396 107h4v4h-4zM389 106h4v4h-4zM383 104h4v4h-4zM377 103h4v4h-4zM370 102h4v4h-4zM363 100h4v4h-4zM357 99h4v4h-4zM350 99h4v4h-4zM344 98h4v4h-4zM337 97h4v4h-4zM331 96h4v4h-4zM324 96h4v4h-4zM317 95h4v4h-4zM311 95h4v4h-4zM305 95h4v4h-4zM298 95h4v4h-4zM292 95h4v4h-4zM285 95h4v4h-4zM279 95h4v4h-4zM273 95h4v4h-4zM266 96h4v4h-4zM260 96h4v4h-4zM254 97h4v4h-4zM248 98h4v4h-4zM242 98h4v4h-4zM237 99h4v4h-4zM231 100h4v4h-4zM436 115h4v4h-4zM431 113h4v4h-4zM425 111h4v4h-4zM419 109h4v4h-4zM414 108h4v4h-4zM408 106h4v4h-4zM401 104h4v4h-4zM396 102h4v4h-4zM389 101h4v4h-4zM383 100h4v4h-4zM377 98h4v4h-4zM371 97h4v4h-4zM365 96h4v4h-4zM358 95h4v4h-4zM352 94h4v4h-4zM346 93h4v4h-4zM340 92h4v4h-4zM333 92h4v4h-4zM327 91h4v4h-4zM321 91h4v4h-4zM314 91h4v4h-4zM308 90h4v4h-4zM302 90h4v4h-4zM296 90h4v4h-4zM290 90h4v4h-4zM284 90h4v4h-4zM278 91h4v4h-4zM272 91h4v4h-4zM266 91h4v4h-4zM260 92h4v4h-4zM255 92h4v4h-4zM249 93h4v4h-4zM412 103h4v4h-4zM406 101h4v4h-4zM401 100h4v4h-4zM395 98h4v4h-4zM389 96h4v4h-4zM383 95h4v4h-4zM377 94h4v4h-4zM371 93h4v4h-4zM365 92h4v4h-4zM359 91h4v4h-4zM354 90h4v4h-4zM348 89h4v4h-4zM341 88h4v4h-4zM335 88h4v4h-4zM330 87h4v4h-4zM324 87h4v4h-4zM318 86h4v4h-4zM312 86h4v4h-4zM306 86h4v4h-4zM300 86h4v4h-4zM294 86h4v4h-4zM289 86h4v4h-4zM283 86h4v4h-4zM277 87h4v4h-4zM372 89h4v4h-4zM366 88h4v4h-4zM360 87h4v4h-4zM354 86h4v4h-4zM349 85h4v4h-4zM343 85h4v4h-4zM337 84h4v4h-4zM332 83h4v4h-4zM326 83h4v4h-4zM320 83h4v4h-4zM109 257h4v4h-4zM109 247h4v4h-4zM115 233h4v4h-4zM109 236h4v4h-4zM122 219h4v4h-4zM129 207h4v4h-4zM123 209h4v4h-4zM131 197h4v4h-4zM125 200h4v4h-4zM119 203h4v4h-4zM114 206h4v4h-4zM151 180h4v4h-4zM145 182h4v4h-4zM139 185h4v4h-4zM127 190h4v4h-4zM122 193h4v4h-4zM117 196h4v4h-4zM159 168h4v4h-4zM153 171h4v4h-4zM147 173h4v4h-4zM130 181h4v4h-4zM125 184h4v4h-4zM190 144h4v4h-4zM205 134h4v4h-4zM198 135h4v4h-4zM191 137h4v4h-4z" fill="rgb(128,148,178)" opacity="0.31"/><path d="M403 507h4v4h-4zM416 510h4v4h-4zM415 507h4v4h-4zM414 505h4v4h-4zM413 502h4v4h-4zM411 500h4v4h-4zM425 503h4v4h-4zM424 501h4v4h-4zM422 498h4v4h-4zM421 496h4v4h-4zM419 493h4v4h-4zM207 470h4v4h-4zM434 499h4v4h-4zM433 496h4v4h-4zM432 494h4v4h-4zM430 491h4v4h-4zM428 488h4v4h-4zM427 485h4v4h-4zM424 483h4v4h-4zM200 463h4v4h-4zM196 465h4v4h-4zM192 467h4v4h-4zM443 492h4v4h-4zM441 489h4v4h-4zM440 486h4v4h-4zM438 483h4v4h-4zM436 480h4v4h-4zM433 477h4v4h-4zM431 474h4v4h-4zM428 472h4v4h-4zM188 456h4v4h-4zM452 487h4v4h-4zM451 484h4v4h-4zM443 472h4v4h-4zM440 468h4v4h-4zM437 466h4v4h-4zM181 448h4v4h-4zM177 450h4v4h-4zM173 453h4v4h-4zM460 479h4v4h-4zM450 463h4v4h-4zM447 459h4v4h-4zM174 439h4v4h-4zM170 442h4v4h-4zM165 445h4v4h-4zM468 470h4v4h-4zM168 430h4v4h-4zM163 433h4v4h-4zM159 435h4v4h-4zM476 464h4v4h-4zM475 461h4v4h-4zM161 420h4v4h-4zM156 423h4v4h-4zM152 426h4v4h-4zM147 429h4v4h-4zM483 455h4v4h-4zM482 451h4v4h-4zM155 410h4v4h-4zM150 413h4v4h-4zM145 416h4v4h-4zM141 420h4v4h-4zM149 400h4v4h-4zM135 410h4v4h-4zM481 415h4v4h-4zM496 384h4v4h-4zM114 368h4v4h-4zM503 376h4v4h-4zM109 357h4v4h-4zM128 332h4v4h-4zM122 336h4v4h-4zM116 339h4v4h-4zM106 346h4v4h-4zM131 317h4v4h-4zM124 321h4v4h-4zM118 324h4v4h-4zM112 328h4v4h-4zM107 332h4v4h-4zM128 306h4v4h-4zM122 309h4v4h-4zM115 313h4v4h-4zM110 317h4v4h-4zM104 320h4v4h-4zM527 342h4v4h-4zM523 338h4v4h-4zM126 295h4v4h-4zM119 298h4v4h-4zM113 302h4v4h-4zM107 305h4v4h-4zM102 309h4v4h-4zM523 325h4v4h-4zM518 321h4v4h-4zM508 312h4v4h-4zM124 284h4v4h-4zM117 287h4v4h-4zM111 291h4v4h-4zM106 294h4v4h-4zM518 308h4v4h-4zM507 299h4v4h-4zM129 270h4v4h-4zM122 273h4v4h-4zM116 276h4v4h-4zM110 279h4v4h-4zM142 253h4v4h-4zM135 255h4v4h-4zM128 259h4v4h-4zM121 262h4v4h-4zM115 265h4v4h-4zM109 268h4v4h-4zM510 278h4v4h-4zM148 239h4v4h-4zM141 242h4v4h-4zM134 245h4v4h-4zM127 248h4v4h-4zM121 251h4v4h-4zM115 254h4v4h-4zM148 228h4v4h-4zM141 231h4v4h-4zM134 234h4v4h-4zM127 237h4v4h-4zM510 256h4v4h-4zM504 252h4v4h-4zM498 248h4v4h-4zM491 244h4v4h-4zM148 218h4v4h-4zM141 221h4v4h-4zM134 224h4v4h-4zM127 226h4v4h-4zM487 232h4v4h-4zM171 201h4v4h-4zM163 203h4v4h-4zM155 205h4v4h-4zM148 208h4v4h-4zM141 211h4v4h-4zM134 213h4v4h-4zM128 216h4v4h-4zM483 220h4v4h-4zM476 217h4v4h-4zM178 189h4v4h-4zM171 191h4v4h-4zM163 193h4v4h-4zM156 196h4v4h-4zM142 201h4v4h-4zM509 226h4v4h-4zM478 208h4v4h-4zM471 205h4v4h-4zM464 202h4v4h-4zM194 176h4v4h-4zM186 178h4v4h-4zM178 180h4v4h-4zM171 182h4v4h-4zM164 184h4v4h-4zM505 214h4v4h-4zM473 196h4v4h-4zM466 194h4v4h-4zM459 190h4v4h-4zM452 188h4v4h-4zM449 481h4v4h-4zM448 478h4v4h-4zM445 475h4v4h-4zM459 475h4v4h-4zM457 472h4v4h-4zM455 469h4v4h-4zM453 466h4v4h-4zM466 467h4v4h-4zM464 463h4v4h-4zM462 460h4v4h-4zM459 457h4v4h-4zM473 457h4v4h-4zM471 454h4v4h-4zM504 408h4v4h-4zM500 404h4v4h-4zM511 400h4v4h-4zM507 351h4v4h-4zM508 338h4v4h-4zM518 334h4v4h-4zM513 330h4v4h-4zM508 325h4v4h-4zM527 316h4v4h-4zM531 308h4v4h-4zM527 303h4v4h-4zM522 299h4v4h-4zM530 294h4v4h-4zM525 290h4v4h-4zM523 277h4v4h-4zM210 164h4v4h-4zM195 167h4v4h-4zM187 169h4v4h-4zM179 171h4v4h-4zM172 173h4v4h-4zM165 175h4v4h-4zM493 199h4v4h-4zM487 195h4v4h-4zM474 189h4v4h-4zM468 186h4v4h-4zM461 182h4v4h-4zM454 180h4v4h-4zM446 177h4v4h-4zM439 174h4v4h-4zM226 153h4v4h-4zM218 154h4v4h-4zM210 156h4v4h-4zM203 157h4v4h-4zM195 159h4v4h-4zM187 160h4v4h-4zM180 162h4v4h-4zM173 164h4v4h-4zM166 166h4v4h-4zM481 184h4v4h-4zM462 175h4v4h-4zM455 172h4v4h-4zM448 169h4v4h-4zM440 166h4v4h-4zM433 164h4v4h-4zM425 161h4v4h-4zM417 159h4v4h-4zM258 142h4v4h-4zM250 142h4v4h-4zM242 143h4v4h-4zM234 144h4v4h-4zM226 145h4v4h-4zM218 146h4v4h-4zM181 154h4v4h-4zM475 173h4v4h-4zM469 170h4v4h-4zM462 167h4v4h-4zM455 164h4v4h-4zM448 161h4v4h-4zM441 159h4v4h-4zM434 156h4v4h-4zM427 154h4v4h-4zM419 152h4v4h-4zM412 150h4v4h-4zM404 147h4v4h-4zM396 146h4v4h-4zM388 144h4v4h-4zM380 142h4v4h-4zM289 133h4v4h-4zM281 133h4v4h-4zM273 133h4v4h-4zM265 134h4v4h-4zM257 134h4v4h-4zM249 135h4v4h-4zM241 135h4v4h-4zM233 136h4v4h-4zM226 137h4v4h-4zM218 138h4v4h-4zM462 160h4v4h-4zM456 157h4v4h-4zM449 155h4v4h-4zM442 152h4v4h-4zM435 149h4v4h-4zM428 147h4v4h-4zM421 145h4v4h-4zM413 143h4v4h-4zM406 140h4v4h-4zM398 139h4v4h-4zM391 137h4v4h-4zM383 135h4v4h-4zM375 134h4v4h-4zM367 132h4v4h-4zM359 131h4v4h-4zM351 130h4v4h-4zM343 129h4v4h-4zM335 128h4v4h-4zM327 127h4v4h-4zM319 127h4v4h-4zM311 126h4v4h-4zM303 126h4v4h-4zM295 126h4v4h-4zM287 126h4v4h-4zM279 126h4v4h-4zM271 126h4v4h-4zM263 126h4v4h-4zM256 127h4v4h-4zM248 127h4v4h-4zM241 128h4v4h-4zM233 129h4v4h-4zM226 130h4v4h-4zM219 131h4v4h-4zM449 148h4v4h-4zM442 145h4v4h-4zM436 143h4v4h-4zM429 140h4v4h-4zM422 138h4v4h-4zM415 136h4v4h-4zM407 134h4v4h-4zM400 132h4v4h-4zM392 130h4v4h-4zM385 128h4v4h-4zM378 127h4v4h-4zM370 126h4v4h-4zM363 124h4v4h-4zM354 123h4v4h-4zM347 122h4v4h-4zM339 121h4v4h-4zM331 121h4v4h-4zM324 120h4v4h-4zM316 119h4v4h-4zM308 119h4v4h-4zM301 119h4v4h-4zM293 119h4v4h-4zM285 118h4v4h-4zM277 119h4v4h-4zM270 119h4v4h-4zM262 119h4v4h-4zM255 120h4v4h-4zM248 120h4v4h-4zM240 121h4v4h-4zM233 122h4v4h-4zM226 123h4v4h-4zM429 134h4v4h-4zM422 132h4v4h-4zM415 129h4v4h-4zM408 127h4v4h-4zM401 125h4v4h-4zM394 124h4v4h-4zM387 122h4v4h-4zM380 121h4v4h-4zM372 119h4v4h-4zM365 118h4v4h-4zM358 117h4v4h-4zM350 116h4v4h-4zM343 115h4v4h-4zM335 114h4v4h-4zM328 113h4v4h-4zM320 113h4v4h-4zM313 112h4v4h-4zM305 112h4v4h-4zM298 112h4v4h-4zM290 112h4v4h-4zM283 112h4v4h-4zM276 112h4v4h-4zM268 112h4v4h-4zM261 113h4v4h-4zM254 113h4v4h-4zM247 114h4v4h-4zM402 120h4v4h-4zM395 118h4v4h-4zM388 116h4v4h-4zM381 115h4v4h-4zM374 113h4v4h-4zM367 112h4v4h-4zM360 111h4v4h-4zM353 110h4v4h-4zM346 109h4v4h-4zM338 108h4v4h-4zM331 108h4v4h-4zM324 107h4v4h-4zM317 106h4v4h-4zM310 106h4v4h-4zM303 106h4v4h-4zM295 106h4v4h-4zM288 106h4v4h-4zM281 106h4v4h-4zM144 403h4v4h-4zM139 407h4v4h-4zM144 390h4v4h-4zM138 393h4v4h-4zM133 397h4v4h-4zM139 379h4v4h-4zM133 383h4v4h-4zM128 386h4v4h-4zM134 368h4v4h-4zM128 372h4v4h-4zM123 375h4v4h-4zM135 354h4v4h-4zM129 358h4v4h-4zM124 361h4v4h-4zM118 365h4v4h-4zM131 343h4v4h-4zM125 346h4v4h-4zM119 350h4v4h-4zM114 354h4v4h-4zM110 342h4v4h-4zM132 292h4v4h-4zM131 281h4v4h-4zM136 266h4v4h-4zM156 226h4v4h-4zM121 240h4v4h-4zM163 213h4v4h-4zM155 216h4v4h-4zM121 230h4v4h-4zM149 198h4v4h-4zM135 204h4v4h-4zM157 186h4v4h-4zM150 189h4v4h-4zM143 191h4v4h-4zM158 177h4v4h-4zM210 147h4v4h-4zM203 149h4v4h-4zM195 150h4v4h-4zM188 152h4v4h-4zM211 140h4v4h-4zM204 141h4v4h-4zM197 142h4v4h-4zM211 132h4v4h-4z" fill="rgb(128,148,178)" opacity="0.39"/><path d="M215 456h4v4h-4zM209 458h4v4h-4zM205 460h4v4h-4zM208 447h4v4h-4zM203 450h4v4h-4zM198 452h4v4h-4zM193 454h4v4h-4zM408 447h4v4h-4zM208 436h4v4h-4zM202 438h4v4h-4zM197 441h4v4h-4zM191 443h4v4h-4zM186 445h4v4h-4zM412 437h4v4h-4zM202 427h4v4h-4zM196 429h4v4h-4zM190 431h4v4h-4zM185 434h4v4h-4zM179 436h4v4h-4zM421 429h4v4h-4zM415 426h4v4h-4zM409 424h4v4h-4zM203 415h4v4h-4zM197 417h4v4h-4zM190 419h4v4h-4zM184 422h4v4h-4zM179 424h4v4h-4zM173 427h4v4h-4zM458 440h4v4h-4zM446 430h4v4h-4zM441 427h4v4h-4zM435 425h4v4h-4zM430 421h4v4h-4zM424 419h4v4h-4zM205 403h4v4h-4zM198 405h4v4h-4zM191 407h4v4h-4zM185 410h4v4h-4zM178 412h4v4h-4zM172 414h4v4h-4zM167 417h4v4h-4zM463 430h4v4h-4zM445 417h4v4h-4zM439 414h4v4h-4zM433 411h4v4h-4zM427 408h4v4h-4zM200 393h4v4h-4zM193 395h4v4h-4zM186 397h4v4h-4zM179 399h4v4h-4zM173 402h4v4h-4zM166 404h4v4h-4zM161 407h4v4h-4zM468 419h4v4h-4zM196 382h4v4h-4zM188 384h4v4h-4zM181 386h4v4h-4zM174 389h4v4h-4zM167 391h4v4h-4zM161 394h4v4h-4zM155 397h4v4h-4zM457 398h4v4h-4zM451 394h4v4h-4zM183 373h4v4h-4zM176 376h4v4h-4zM169 378h4v4h-4zM162 381h4v4h-4zM155 384h4v4h-4zM149 387h4v4h-4zM465 389h4v4h-4zM460 386h4v4h-4zM447 379h4v4h-4zM186 360h4v4h-4zM179 362h4v4h-4zM171 365h4v4h-4zM164 367h4v4h-4zM157 370h4v4h-4zM151 373h4v4h-4zM488 392h4v4h-4zM478 384h4v4h-4zM182 349h4v4h-4zM174 351h4v4h-4zM167 354h4v4h-4zM160 356h4v4h-4zM152 359h4v4h-4zM146 362h4v4h-4zM491 380h4v4h-4zM486 376h4v4h-4zM481 373h4v4h-4zM171 340h4v4h-4zM163 343h4v4h-4zM155 345h4v4h-4zM148 348h4v4h-4zM142 351h4v4h-4zM488 364h4v4h-4zM483 360h4v4h-4zM167 329h4v4h-4zM159 331h4v4h-4zM151 334h4v4h-4zM144 337h4v4h-4zM138 340h4v4h-4zM490 351h4v4h-4zM484 348h4v4h-4zM163 317h4v4h-4zM155 320h4v4h-4zM148 323h4v4h-4zM141 325h4v4h-4zM134 329h4v4h-4zM491 339h4v4h-4zM485 335h4v4h-4zM176 301h4v4h-4zM168 304h4v4h-4zM160 306h4v4h-4zM152 308h4v4h-4zM145 311h4v4h-4zM138 314h4v4h-4zM491 326h4v4h-4zM182 287h4v4h-4zM174 289h4v4h-4zM165 292h4v4h-4zM157 294h4v4h-4zM150 297h4v4h-4zM142 300h4v4h-4zM135 303h4v4h-4zM180 276h4v4h-4zM171 278h4v4h-4zM163 281h4v4h-4zM502 309h4v4h-4zM462 287h4v4h-4zM454 283h4v4h-4zM186 263h4v4h-4zM161 269h4v4h-4zM153 272h4v4h-4zM501 296h4v4h-4zM460 274h4v4h-4zM452 270h4v4h-4zM193 250h4v4h-4zM184 252h4v4h-4zM151 261h4v4h-4zM500 283h4v4h-4zM457 261h4v4h-4zM449 258h4v4h-4zM441 255h4v4h-4zM149 250h4v4h-4zM497 270h4v4h-4zM446 246h4v4h-4zM438 243h4v4h-4zM217 223h4v4h-4zM208 225h4v4h-4zM466 243h4v4h-4zM459 240h4v4h-4zM443 234h4v4h-4zM434 231h4v4h-4zM426 228h4v4h-4zM225 211h4v4h-4zM215 213h4v4h-4zM206 214h4v4h-4zM470 234h4v4h-4zM463 231h4v4h-4zM455 228h4v4h-4zM447 225h4v4h-4zM439 222h4v4h-4zM430 219h4v4h-4zM422 216h4v4h-4zM413 214h4v4h-4zM214 202h4v4h-4zM205 204h4v4h-4zM196 205h4v4h-4zM481 229h4v4h-4zM473 225h4v4h-4zM466 222h4v4h-4zM459 219h4v4h-4zM451 216h4v4h-4zM443 213h4v4h-4zM435 210h4v4h-4zM418 205h4v4h-4zM409 203h4v4h-4zM400 201h4v4h-4zM391 199h4v4h-4zM213 192h4v4h-4zM204 194h4v4h-4zM195 195h4v4h-4zM187 197h4v4h-4zM178 199h4v4h-4zM469 213h4v4h-4zM462 210h4v4h-4zM454 207h4v4h-4zM446 204h4v4h-4zM438 202h4v4h-4zM387 188h4v4h-4zM378 186h4v4h-4zM369 184h4v4h-4zM360 183h4v4h-4zM350 182h4v4h-4zM341 180h4v4h-4zM331 179h4v4h-4zM322 179h4v4h-4zM312 178h4v4h-4zM303 178h4v4h-4zM212 182h4v4h-4zM203 184h4v4h-4zM195 186h4v4h-4zM186 187h4v4h-4zM457 199h4v4h-4zM449 196h4v4h-4zM441 193h4v4h-4zM433 190h4v4h-4zM383 177h4v4h-4zM373 175h4v4h-4zM365 174h4v4h-4zM355 173h4v4h-4zM346 171h4v4h-4zM337 170h4v4h-4zM328 169h4v4h-4zM319 169h4v4h-4zM310 168h4v4h-4zM300 168h4v4h-4zM254 169h4v4h-4zM246 169h4v4h-4zM237 170h4v4h-4zM228 171h4v4h-4zM203 175h4v4h-4zM444 185h4v4h-4zM436 182h4v4h-4zM428 179h4v4h-4zM420 177h4v4h-4zM412 175h4v4h-4zM404 173h4v4h-4zM378 167h4v4h-4zM369 165h4v4h-4zM360 164h4v4h-4zM352 163h4v4h-4zM342 162h4v4h-4zM334 161h4v4h-4zM324 160h4v4h-4zM315 159h4v4h-4zM306 159h4v4h-4zM297 158h4v4h-4zM288 158h4v4h-4zM475 369h4v4h-4zM469 365h4v4h-4zM463 362h4v4h-4zM457 358h4v4h-4zM477 357h4v4h-4zM471 353h4v4h-4zM464 349h4v4h-4zM478 344h4v4h-4zM472 341h4v4h-4zM465 337h4v4h-4zM503 334h4v4h-4zM426 208h4v4h-4zM430 199h4v4h-4zM422 196h4v4h-4zM413 194h4v4h-4zM405 192h4v4h-4zM396 190h4v4h-4zM294 178h4v4h-4zM284 177h4v4h-4zM275 177h4v4h-4zM425 188h4v4h-4zM417 185h4v4h-4zM409 183h4v4h-4zM400 181h4v4h-4zM391 179h4v4h-4zM291 168h4v4h-4zM282 168h4v4h-4zM273 168h4v4h-4zM263 168h4v4h-4zM395 171h4v4h-4zM387 169h4v4h-4zM279 158h4v4h-4zM270 159h4v4h-4zM262 159h4v4h-4zM253 159h4v4h-4zM244 160h4v4h-4zM235 161h4v4h-4zM227 162h4v4h-4zM219 163h4v4h-4zM431 171h4v4h-4zM423 169h4v4h-4zM415 167h4v4h-4zM407 165h4v4h-4zM399 162h4v4h-4zM390 161h4v4h-4zM382 159h4v4h-4zM373 157h4v4h-4zM365 156h4v4h-4zM356 155h4v4h-4zM347 153h4v4h-4zM339 152h4v4h-4zM330 152h4v4h-4zM321 151h4v4h-4zM312 150h4v4h-4zM304 150h4v4h-4zM294 150h4v4h-4zM286 149h4v4h-4zM277 150h4v4h-4zM269 150h4v4h-4zM260 150h4v4h-4zM251 151h4v4h-4zM243 151h4v4h-4zM234 152h4v4h-4zM409 157h4v4h-4zM402 155h4v4h-4zM393 153h4v4h-4zM385 151h4v4h-4zM377 149h4v4h-4zM368 148h4v4h-4zM360 147h4v4h-4zM352 145h4v4h-4zM343 144h4v4h-4zM335 143h4v4h-4zM326 143h4v4h-4zM318 142h4v4h-4zM309 142h4v4h-4zM301 141h4v4h-4zM292 141h4v4h-4zM283 141h4v4h-4zM275 141h4v4h-4zM267 142h4v4h-4zM372 141h4v4h-4zM364 139h4v4h-4zM356 138h4v4h-4zM348 137h4v4h-4zM339 136h4v4h-4zM331 135h4v4h-4zM322 134h4v4h-4zM314 134h4v4h-4zM306 134h4v4h-4zM298 133h4v4h-4zM144 376h4v4h-4zM139 365h4v4h-4zM178 338h4v4h-4zM175 326h4v4h-4zM180 312h4v4h-4zM171 315h4v4h-4zM155 283h4v4h-4zM147 286h4v4h-4zM139 289h4v4h-4zM177 265h4v4h-4zM169 267h4v4h-4zM145 275h4v4h-4zM137 277h4v4h-4zM175 254h4v4h-4zM167 256h4v4h-4zM159 258h4v4h-4zM143 264h4v4h-4zM191 239h4v4h-4zM183 241h4v4h-4zM174 243h4v4h-4zM165 245h4v4h-4zM157 247h4v4h-4zM199 226h4v4h-4zM190 228h4v4h-4zM181 230h4v4h-4zM173 232h4v4h-4zM164 234h4v4h-4zM156 237h4v4h-4zM197 216h4v4h-4zM189 217h4v4h-4zM180 219h4v4h-4zM172 221h4v4h-4zM164 224h4v4h-4zM242 199h4v4h-4zM232 200h4v4h-4zM223 201h4v4h-4zM188 207h4v4h-4zM179 209h4v4h-4zM171 211h4v4h-4zM240 189h4v4h-4zM230 190h4v4h-4zM222 191h4v4h-4zM229 180h4v4h-4zM220 182h4v4h-4z" fill="rgb(128,148,178)" opacity="0.47"/><path d="M243 417h6v6h-6zM247 405h6v6h-6zM239 406h6v6h-6zM243 395h6v6h-6zM235 396h6v6h-6zM420 404h6v6h-6zM406 399h6v6h-6zM239 384h6v6h-6zM231 385h6v6h-6zM422 393h6v6h-6zM235 373h6v6h-6zM227 374h6v6h-6zM210 377h6v6h-6zM202 379h6v6h-6zM240 361h6v6h-6zM198 368h6v6h-6zM190 370h6v6h-6zM432 372h6v6h-6zM202 355h6v6h-6zM193 357h6v6h-6zM189 346h6v6h-6zM449 354h6v6h-6zM434 348h6v6h-6zM449 342h6v6h-6zM442 339h6v6h-6zM434 336h6v6h-6zM442 326h6v6h-6zM434 324h6v6h-6zM426 320h6v6h-6zM441 314h6v6h-6zM433 311h6v6h-6zM193 296h6v6h-6zM184 298h6v6h-6zM440 301h6v6h-6zM432 298h6v6h-6zM424 296h6v6h-6zM190 285h6v6h-6zM439 288h6v6h-6zM430 286h6v6h-6zM188 273h6v6h-6zM445 279h6v6h-6zM428 273h6v6h-6zM353 257h6v6h-6zM443 267h6v6h-6zM426 261h6v6h-6zM340 244h6v6h-6zM330 243h6v6h-6zM220 244h6v6h-6zM211 246h6v6h-6zM201 247h6v6h-6zM432 251h6v6h-6zM423 249h6v6h-6zM337 232h6v6h-6zM327 231h6v6h-6zM317 230h6v6h-6zM429 239h6v6h-6zM420 237h6v6h-6zM411 234h6v6h-6zM402 232h6v6h-6zM324 220h6v6h-6zM416 225h6v6h-6zM407 223h6v6h-6zM398 220h6v6h-6zM321 209h6v6h-6zM311 208h6v6h-6zM403 211h6v6h-6zM394 208h6v6h-6zM385 206h6v6h-6zM376 205h6v6h-6zM357 202h6v6h-6zM328 199h6v6h-6zM318 198h6v6h-6zM308 197h6v6h-6zM298 197h6v6h-6zM381 196h6v6h-6zM372 194h6v6h-6zM363 193h6v6h-6zM353 191h6v6h-6zM343 190h6v6h-6zM334 189h6v6h-6zM324 188h6v6h-6zM315 187h6v6h-6zM305 187h6v6h-6zM295 186h6v6h-6zM334 221h6v6h-6zM351 212h6v6h-6zM341 211h6v6h-6zM331 209h6v6h-6zM347 201h6v6h-6zM337 200h6v6h-6zM186 334h6v6h-6zM182 323h6v6h-6zM187 309h6v6h-6zM209 281h6v6h-6zM199 283h6v6h-6zM206 270h6v6h-6zM197 271h6v6h-6zM204 258h6v6h-6zM194 260h6v6h-6zM233 209h6v6h-6z" fill="rgb(128,148,178)" opacity="0.56"/><circle cx="320" cy="320" r="249.6" fill="none" stroke="rgb(128,148,178)" stroke-opacity="0.18" stroke-width="1.1"/><circle cx="468" cy="233" r="11.2" fill="rgb(11,122,252)" opacity="0.16"/><circle cx="468" cy="233" r="4.5" fill="none" stroke="rgb(11,122,252)" stroke-width="1.6"/><circle cx="468" cy="233" r="2" fill="rgb(11,122,252)"/><circle cx="342" cy="150" r="11.2" fill="rgb(11,122,252)" opacity="0.16"/><circle cx="342" cy="150" r="4.5" fill="none" stroke="rgb(11,122,252)" stroke-width="1.6"/><circle cx="342" cy="150" r="2" fill="rgb(11,122,252)"/><circle cx="272" cy="133" r="11.2" fill="rgb(255,91,119)" opacity="0.16"/><circle cx="272" cy="133" r="4.5" fill="none" stroke="rgb(255,91,119)" stroke-width="1.6"/><circle cx="272" cy="133" r="2" fill="rgb(255,91,119)"/><circle cx="97" cy="250" r="11.2" fill="rgb(11,122,252)" opacity="0.16"/><circle cx="97" cy="250" r="4.5" fill="none" stroke="rgb(11,122,252)" stroke-width="1.6"/><circle cx="97" cy="250" r="2" fill="rgb(11,122,252)"/><circle cx="526" cy="438" r="11.2" fill="rgb(11,122,252)" opacity="0.16"/><circle cx="526" cy="438" r="4.5" fill="none" stroke="rgb(11,122,252)" stroke-width="1.6"/><circle cx="526" cy="438" r="2" fill="rgb(11,122,252)"/><circle cx="493" cy="151" r="11.2" fill="rgb(11,122,252)" opacity="0.16"/><circle cx="493" cy="151" r="4.5" fill="none" stroke="rgb(11,122,252)" stroke-width="1.6"/><circle cx="493" cy="151" r="2" fill="rgb(11,122,252)"/><g><rect x="421" y="187" width="95" height="30" rx="9" fill="#fff" stroke="#eff0f2" stroke-opacity="1"/><g transform="translate(433 194)" fill="none" stroke="rgb(11,122,252)" stroke-width="1.5" stroke-linecap="round" stroke-linejoin="round"><path d="m5.5 5.5-2.5 2.5 2.5 2.5"/><path d="m10.5 5.5 2.5 2.5-2.5 2.5"/></g><text x="455" y="206" font-family="Overpass, sans-serif" font-size="13" font-weight="500" fill="#2c2d2e">HS codes</text></g><g><rect x="272" y="104" width="140" height="30" rx="9" fill="#fff" stroke="#eff0f2" stroke-opacity="1"/><g transform="translate(284 111)" fill="none" stroke="rgb(11,122,252)" stroke-width="1.5" stroke-linecap="round" stroke-linejoin="round"><path d="M8 14.4s4.4-4.6 4.4-7.9A4.4 4.4 0 0 0 3.6 6.5c0 3.3 4.4 7.9 4.4 7.9Z"/><circle cx="8" cy="6.3" r="1.5"/></g><text x="306" y="123" font-family="Overpass, sans-serif" font-size="13" font-weight="500" fill="#2c2d2e">Address formats</text></g><g><rect x="202" y="87" width="140" height="30" rx="9" fill="#fff" stroke="rgb(255,91,119)" stroke-opacity="0.4"/><g transform="translate(214 94)" fill="none" stroke="rgb(255,91,119)" stroke-width="1.5" stroke-linecap="round" stroke-linejoin="round"><path d="M8 2.6 14.6 14H1.4L8 2.6Z"/><path d="M8 6.6v3.1"/><circle cx="8" cy="11.9" r=".6"/></g><text x="236" y="106" font-family="Overpass, sans-serif" font-size="13" font-weight="500" fill="rgb(255,91,119)">Failed delivery</text></g><g><rect x="30" y="204" width="134" height="30" rx="9" fill="#fff" stroke="#eff0f2" stroke-opacity="1"/><g transform="translate(42 211)" fill="none" stroke="rgb(11,122,252)" stroke-width="1.5" stroke-linecap="round" stroke-linejoin="round"><path d="M8 1.9 13.5 5v6L8 14.1 2.5 11V5L8 1.9Z"/><path d="M2.6 5 8 8.1 13.4 5"/><path d="M8 8.1v6"/></g><text x="64" y="223" font-family="Overpass, sans-serif" font-size="13" font-weight="500" fill="#2c2d2e">Local sourcing</text></g><g><rect x="475" y="392" width="102" height="30" rx="9" fill="#fff" stroke="#eff0f2" stroke-opacity="1"/><g transform="translate(487 399)" fill="none" stroke="rgb(11,122,252)" stroke-width="1.5" stroke-linecap="round" stroke-linejoin="round"><path d="M8.2 2.5H2.5V8.2L9.3 15l5.7-5.7L8.2 2.5Z"/><circle cx="5.3" cy="5.3" r="1"/></g><text x="509" y="411" font-family="Overpass, sans-serif" font-size="13" font-weight="500" fill="#2c2d2e">VAT &amp; GST</text></g><g><rect x="420" y="105" width="146" height="30" rx="9" fill="#fff" stroke="#eff0f2" stroke-opacity="1"/><g transform="translate(432 112)" fill="none" stroke="rgb(11,122,252)" stroke-width="1.5" stroke-linecap="round" stroke-linejoin="round"><circle cx="8" cy="8" r="5.8"/><path d="m4 4 8 8"/></g><text x="454" y="124" font-family="Overpass, sans-serif" font-size="13" font-weight="500" fill="#2c2d2e">Restricted items</text></g></svg>