<svg preserveAspectRatio="none" width="100%" height="100%" overflow="visible" style="display: block;" viewBox="0 0 12.6212 22.3328" fill="none" xmlns="http://www.w3.org/2000/svg">
<g id="Group 1801290367">
<path id="Vector" d="M12.6212 0V7.03767L10.9439 8.74903L9.26976 7.03767V0H12.6212Z" fill="var(--fill-0, #8D12E7)"/>
<path id="Vector_2" d="M10.9439 8.74891L10.252 9.45488L9.26972 10.4571L8.57472 11.1662L2.02318 4.4784L4.39236 2.06107L10.9439 8.74891Z" fill="var(--fill-0, #0B7AFC)"/>
<path id="Vector_3" d="M12.6212 7.03749V11.8721L11.6389 12.8744L10.9439 13.5835L4.39236 20.2682L2.02318 17.8509L8.57472 11.1662L9.26972 10.457L10.252 9.45481L12.6212 7.03749Z" fill="var(--fill-0, #FF5B77)"/>
<path id="Vector_4" d="M8.57477 11.1665L6.90059 12.8747H0V9.45515H6.90059L8.57477 11.1665Z" fill="var(--fill-0, #FFB800)"/>
<path id="Vector_5" d="M12.6212 11.8724V22.3328H9.26976V15.292L10.9439 13.5838L11.6389 12.8747L12.6212 11.8724Z" fill="var(--fill-0, #00C036)"/>
</g>
</svg>
