<svg preserveAspectRatio="none" width="100%" height="100%" overflow="visible" style="display: block;" viewBox="0 0 101.062 22.3421" fill="none" xmlns="http://www.w3.org/2000/svg">
<g id="Group 1801290366">
<path id="Vector" d="M7.26508 0C11.2899 0 13.8599 2.5576 14.0267 6.29517H10.5053C10.4219 4.29356 9.08135 3.32365 7.18168 3.32365C5.05961 3.32365 3.79934 4.50052 3.79934 6.23648C3.79934 7.70679 4.71983 8.47284 6.2025 8.88366L9.52615 9.79488C13.0197 10.7648 14.6939 13.0012 14.6939 15.8831C14.6939 19.7071 11.7038 22.2678 7.26199 22.2678C2.82016 22.2678 0.139 19.8276 0 15.9727H3.52134C3.52134 17.7951 5.00092 18.8855 7.32068 18.8855C9.64044 18.8855 11.1478 17.7395 11.1478 16.0036C11.1478 14.6228 10.2829 13.7981 8.77246 13.3564L5.44572 12.4143C1.75758 11.3579 0.2502 9.1215 0.2502 6.38474C0.2502 2.64718 3.04565 0 7.26508 0Z" fill="var(--fill-0, #181818)"/>
<path id="Vector_2" d="M18.4036 22.342V10.1502H15.7935V7.23117H18.4036V2.77698H21.7273V7.23117H24.3096V10.1502H21.7273V22.342H18.4036Z" fill="var(--fill-0, #181818)"/>
<path id="Vector_3" d="M25.4061 17.8878C25.4061 15.1109 27.383 13.6097 30.4318 13.3472L34.3052 13.029V12.7108C34.3052 10.7463 33.1531 9.99261 31.5036 9.99261C29.6626 9.99261 28.5939 10.8884 28.6217 12.3649H25.7645C25.7367 9.3007 28.1553 7.24659 31.6704 7.24659C35.4883 7.24659 37.5764 9.50148 37.5764 13.2885V21.9621H34.6389L34.3917 19.8524C33.8141 21.3258 32.1955 22.3389 30.0518 22.3389C27.139 22.342 25.4061 20.5474 25.4061 17.8878ZM34.333 16.1828V15.4291L31.5036 15.6885C29.5267 15.8924 28.8132 16.5843 28.8132 17.7426C28.8132 18.9844 29.6379 19.6794 31.1484 19.6794C32.5755 19.6794 34.333 18.8423 34.333 16.1828Z" fill="var(--fill-0, #181818)"/>
<path id="Vector_4" d="M39.7695 14.8824C39.7695 10.4282 42.2406 7.24972 46.3334 7.24972C48.23 7.24972 49.9598 8.1177 50.8092 9.53241V0.45415H54.0773V21.9652H51.0841L50.8648 19.7103C50.0401 21.3876 48.1744 22.3421 46.1419 22.3421C42.2128 22.3421 39.7664 19.3057 39.7695 14.8824ZM50.698 14.765C50.698 12.1919 49.2153 10.4004 46.8801 10.4004C44.5449 10.4004 43.1179 12.2228 43.1179 14.765C43.1179 17.3072 44.5171 19.1018 46.8801 19.1018C49.2431 19.1018 50.698 17.3411 50.698 14.765Z" fill="var(--fill-0, #181818)"/>
<path id="Vector_5" d="M57.6172 7.52448H60.9686V22.3388H57.6172V7.52448Z" fill="var(--fill-0, #181818)"/>
<path id="Vector_6" d="M63.934 16.6182V7.68208H67.2854V15.3734C67.2854 18.3233 68.4654 19.1913 70.1704 19.1913C72.3667 19.1913 73.3026 17.7457 73.3026 15.1726V7.68208H76.6509V21.9651H73.5188L73.2995 20.1149C72.5026 21.4462 70.745 22.342 68.9071 22.342C65.6916 22.342 63.934 20.0284 63.934 16.6182Z" fill="var(--fill-0, #181818)"/>
<path id="Vector_7" d="M80.1629 22.3387V8.05562H83.2394L83.4032 9.6742C84.2001 8.40158 85.6272 7.62009 87.221 7.62009C89.4728 7.62009 90.9555 8.66105 91.6968 10.3383C92.3548 8.66105 93.9764 7.62009 96.0367 7.62009C99.3326 7.62009 101.062 9.702 101.062 12.9979V22.3356H97.8221V13.8102C97.8221 11.787 96.7781 10.7182 95.1595 10.7182C93.5378 10.7182 92.3023 11.8179 92.3023 14.1593V22.3418H89.0342V13.8102C89.0342 11.787 87.9902 10.7182 86.3963 10.7182C84.8024 10.7182 83.5144 11.8179 83.5144 14.1284V22.3387H80.1629Z" fill="var(--fill-0, #181818)"/>
<path id="Vector_8" d="M60.9686 0.45415H57.6172V3.8056H60.9686V0.45415Z" fill="var(--fill-0, #181818)"/>
</g>
</svg>
