<svg preserveAspectRatio="none" width="100%" height="100%" overflow="visible" style="display: block;" viewBox="0 0 24.32 24.32" fill="none" xmlns="http://www.w3.org/2000/svg">
<g id="Frame" clip-path="url(#clip0_0_35941)">
<path id="Vector" d="M12.6459 11.0656V14.3893H20.5904C20.3472 16.2539 19.726 17.6188 18.7796 18.5774C17.6173 19.7397 15.8075 21.0094 12.6459 21.0094C7.75449 21.0094 3.93119 17.0645 3.93119 12.1732C3.93119 7.28181 7.75449 3.33691 12.6459 3.33691C15.2805 3.33691 17.2129 4.3776 18.6316 5.7152L20.9694 3.37744C18.9964 1.4592 16.3476 0 12.6459 0C5.94468 0 0.310547 5.45883 0.310547 12.16C0.310547 18.8612 5.94468 24.32 12.6459 24.32C16.2665 24.32 18.9964 23.1314 21.1305 20.9152C23.3193 18.7264 24.0084 15.6327 24.0084 13.146C24.0084 12.3758 23.9547 11.6594 23.8331 11.0656H12.6459Z" fill="var(--fill-0, #4285F4)"/>
</g>
<defs>
<clipPath id="clip0_0_35941">
<rect width="24.32" height="24.32" fill="white"/>
</clipPath>
</defs>
</svg>
