<svg preserveAspectRatio="none" width="100%" height="100%" overflow="visible" style="display: block;" viewBox="0 0 24.32 24.32" fill="none" xmlns="http://www.w3.org/2000/svg">
<g id="Frame" clip-path="url(#clip0_0_35932)">
<path id="Vector" d="M18.4061 8.03571V5.15176C18.7877 4.97331 19.111 4.69025 19.3382 4.33547C19.5655 3.98068 19.6875 3.56871 19.69 3.14739V3.07949C19.6884 2.49052 19.4538 1.92611 19.0374 1.50955C18.621 1.09298 18.0567 0.858113 17.4677 0.856241H17.3998C16.811 0.858111 16.2469 1.09284 15.8305 1.50919C15.4142 1.92553 15.1795 2.48968 15.1776 3.07848V3.14637C15.1795 3.56525 15.2995 3.9751 15.5239 4.32878C15.7484 4.68246 16.0681 4.96562 16.4463 5.14568L16.4595 5.15176V8.04179C15.3568 8.21026 14.3186 8.66834 13.4509 9.36925L13.463 9.35912L5.53066 3.18285C5.68168 2.61707 5.63179 2.01641 5.38947 1.4833C5.14716 0.950188 4.72744 0.517627 4.20187 0.259366C3.6763 0.00110582 3.07742 -0.0668628 2.50734 0.0670488C1.93726 0.20096 1.43128 0.528461 1.07566 0.993712C0.720043 1.45896 0.536809 2.03316 0.557199 2.6184C0.57759 3.20364 0.800343 3.76369 1.18748 4.20307C1.57462 4.64244 2.10216 4.93393 2.68018 5.02784C3.2582 5.12175 3.8509 5.01227 4.35722 4.71805L4.34506 4.72413L12.1447 10.795C11.4552 11.8288 11.089 13.0444 11.0928 14.287C11.0928 15.6479 11.5235 16.9095 12.2551 17.9421L12.242 17.9218L9.86874 20.296C9.67875 20.2347 9.48063 20.2022 9.281 20.1998H9.27898C8.87153 20.1998 8.47323 20.3206 8.13444 20.5469C7.79566 20.7733 7.53161 21.0951 7.37569 21.4715C7.21976 21.8479 7.17897 22.2622 7.25846 22.6618C7.33795 23.0614 7.53415 23.4285 7.82226 23.7166C8.11037 24.0047 8.47745 24.2009 8.87707 24.2804C9.27669 24.3599 9.69091 24.3191 10.0673 24.1632C10.4438 24.0072 10.7655 23.7432 10.9919 23.4044C11.2183 23.0656 11.3391 22.6673 11.3391 22.2599C11.3363 22.0549 11.3022 21.8515 11.2378 21.6569L11.2428 21.6711L13.5907 19.3232C14.356 19.9072 15.2443 20.3089 16.1882 20.4978C17.1321 20.6868 18.1067 20.658 19.0377 20.4136C19.9688 20.1692 20.8319 19.7157 21.5613 19.0876C22.2908 18.4595 22.8674 17.6733 23.2473 16.7888C23.6271 15.9043 23.8003 14.9449 23.7536 13.9834C23.7069 13.0219 23.4415 12.0838 22.9776 11.2403C22.5138 10.3968 21.8637 9.67022 21.0768 9.11579C20.2898 8.56137 19.3869 8.19371 18.4365 8.04077L18.4 8.03571H18.4061ZM17.4292 17.5387C16.7871 17.5369 16.1599 17.3449 15.6269 16.9869C15.0939 16.6288 14.6789 16.1209 14.4344 15.5272C14.1899 14.9334 14.1268 14.2806 14.2531 13.651C14.3794 13.0214 14.6894 12.4434 15.144 11.9899C15.5986 11.5365 16.1774 11.2279 16.8073 11.1031C17.4371 10.9784 18.0899 11.0431 18.683 11.2891C19.2761 11.5351 19.783 11.9514 20.1397 12.4853C20.4964 13.0192 20.6869 13.6469 20.6871 14.289V14.291C20.6872 14.7178 20.6033 15.1405 20.44 15.5348C20.2767 15.9291 20.0373 16.2874 19.7355 16.5892C19.4338 16.891 19.0755 17.1304 18.6811 17.2937C18.2868 17.4569 17.8641 17.5409 17.4373 17.5408L17.4292 17.5387Z" fill="var(--fill-0, #FF7A59)"/>
</g>
<defs>
<clipPath id="clip0_0_35932">
<rect width="24.32" height="24.32" fill="white"/>
</clipPath>
</defs>
</svg>
