<svg preserveAspectRatio="none" width="100%" height="100%" overflow="visible" style="display: block;" viewBox="0 0 43.1056 20.3809" fill="none" xmlns="http://www.w3.org/2000/svg">
<g id="Workday HRIS 1" clip-path="url(#clip0_0_10796)">
<path id="Vector" fill-rule="evenodd" clip-rule="evenodd" d="M30.2073 10.0332H29.3737C29.2056 10.0332 29.1139 10.1259 29.1139 10.2961V13.2035C28.7898 12.7306 28.2691 12.4687 27.6301 12.4687C26.1586 12.4687 25.2812 13.5306 25.2812 15.3649C25.2812 17.1981 26.1536 18.2589 27.6251 18.2589C28.2772 18.2589 28.8102 17.9838 29.1363 17.513L29.228 17.9308C29.2555 18.0877 29.3584 18.1662 29.5154 18.1662H30.2063C30.3744 18.1662 30.4661 18.0755 30.4661 17.9053V10.2961C30.4672 10.1249 30.3775 10.0332 30.2073 10.0332ZM27.9002 17.2481C27.1726 17.2481 26.6896 16.6336 26.6896 15.5208V15.2069C26.6896 14.0962 27.1695 13.4796 27.9002 13.4796C28.7195 13.4796 29.1373 14.0686 29.1373 15.3659C29.1373 16.6631 28.7205 17.2481 27.9002 17.2481Z" fill="var(--fill-0, white)"/>
<path id="Vector_2" fill-rule="evenodd" clip-rule="evenodd" d="M31.8723 14.041C32.0812 13.073 32.9657 12.4707 34.1254 12.4707C35.6101 12.4707 36.352 13.2442 36.353 14.5913V17.9053C36.353 18.0734 36.2633 18.1661 36.0932 18.1661H35.4023C35.2453 18.1661 35.1404 18.0877 35.1149 17.9307L35.0364 17.5129C34.7124 17.9837 34.1774 18.2589 33.514 18.2589C32.4073 18.2589 31.6797 17.6016 31.6797 16.5805C31.6797 15.3892 32.5133 14.7748 34.2721 14.7748H34.9997V14.5648C34.9997 13.8444 34.6991 13.4775 34.1274 13.4775C33.6709 13.4775 33.411 13.6742 33.2806 14.094C33.2276 14.2652 33.1359 14.3294 32.9932 14.3294H32.1067C31.9253 14.3294 31.8336 14.2122 31.8723 14.041ZM33.8931 17.25C34.5564 17.25 34.9997 16.8465 34.9997 15.8763V15.6929H34.3221C33.5007 15.6929 33.086 15.9681 33.0849 16.5306C33.086 16.9759 33.411 17.25 33.8931 17.25Z" fill="var(--fill-0, white)"/>
<path id="Vector_3" d="M1.67772 18.1653C1.52181 18.1653 1.43009 18.1001 1.37914 17.9431C0.765675 16.2413 0.349905 14.5507 -0.000647046 12.8489C-0.0403898 12.6788 0.0380768 12.5605 0.219467 12.5605H1.0663C1.22323 12.5605 1.32615 12.639 1.35367 12.7827C1.57378 13.9882 1.83567 15.2315 2.18724 16.4502L3.20221 12.7827C3.24094 12.639 3.34488 12.5605 3.50079 12.5605H4.64722C4.80313 12.5605 4.90707 12.639 4.9458 12.7827L5.96077 16.4502C6.31234 15.2325 6.57423 13.9882 6.79435 12.7827C6.81983 12.639 6.92581 12.5605 7.08172 12.5605H7.92855C8.10994 12.5605 8.18739 12.6777 8.14866 12.8489C7.79811 14.5507 7.38234 16.2413 6.76888 17.9431C6.71588 18.1001 6.62621 18.1653 6.4703 18.1653H5.51646C5.3738 18.1653 5.25661 18.1001 5.21788 17.9431L4.07248 13.9087L2.92707 17.9431C2.88835 18.1001 2.77116 18.1653 2.62849 18.1653H1.67772Z" fill="var(--fill-0, white)"/>
<path id="Vector_4" fill-rule="evenodd" clip-rule="evenodd" d="M11.5333 12.4727C9.94457 12.4727 8.83789 13.6252 8.83789 15.3667C8.83789 17.1083 9.94457 18.2608 11.5333 18.2608C13.122 18.2608 14.2287 17.095 14.2287 15.3667C14.2287 13.6384 13.122 12.4727 11.5333 12.4727ZM12.8214 15.5227C12.8214 16.6752 12.3139 17.3304 11.5333 17.3304C10.7527 17.3304 10.2452 16.6752 10.2452 15.5227V15.2088C10.2452 14.0563 10.7527 13.401 11.5333 13.401C12.3139 13.401 12.8214 14.0563 12.8214 15.2088V15.5227Z" fill="var(--fill-0, white)"/>
<path id="Vector_5" d="M39.2749 18.0479C38.4413 16.6212 37.7209 14.789 37.2664 12.8518C37.2277 12.6673 37.3194 12.5634 37.5018 12.5644H38.3486C38.5045 12.5644 38.6095 12.6428 38.635 12.7998C38.9081 14.1622 39.3381 15.485 39.8843 16.5845C40.3663 15.379 40.8096 14.1225 41.044 12.7998C41.0705 12.6428 41.1744 12.5644 41.3303 12.5644H42.2026C42.384 12.5644 42.4757 12.6826 42.4227 12.865C41.8235 15.2618 40.9645 17.3427 40.2226 18.9405C39.7406 19.9749 39.1801 20.3815 38.1652 20.3815C37.9705 20.3815 37.7637 20.3417 37.5935 20.303C37.4376 20.2643 37.3734 20.1583 37.3734 20.0146V19.3859C37.3734 19.2024 37.4794 19.1362 37.6607 19.1892C37.8167 19.2279 37.9726 19.2534 38.1152 19.2534C38.7144 19.2534 38.9233 18.8611 39.2749 18.0479Z" fill="var(--fill-0, white)"/>
<path id="Vector_6" d="M16.7302 13.2715C17.0166 12.8119 17.5241 12.498 18.11 12.498C18.3312 12.498 18.5258 12.551 18.6827 12.6692C18.7357 12.709 18.7744 12.762 18.7744 12.8404V13.6139C18.7744 13.7963 18.697 13.8493 18.5013 13.7708C18.3424 13.7036 18.1865 13.6781 18.0051 13.6781C17.2123 13.6781 16.7557 14.2416 16.7557 15.0548L16.7567 17.9102C16.7567 18.0783 16.6671 18.169 16.4969 18.169H15.6613C15.4931 18.169 15.4014 18.0794 15.4014 17.9082L15.4004 12.8262C15.4004 12.658 15.4901 12.5653 15.6602 12.5653H16.3512C16.5213 12.5653 16.6131 12.657 16.6385 12.8007L16.7302 13.2715Z" fill="var(--fill-0, white)"/>
<path id="Vector_7" d="M24.5435 17.8534C23.9718 16.6754 23.4245 15.8632 22.6562 15.1162L24.4538 12.8896C24.5842 12.7052 24.52 12.5615 24.3111 12.5615H23.3746C23.2442 12.5615 23.127 12.6124 23.0485 12.7052L21.2254 15.0357V10.2962C21.2254 10.1249 21.1337 10.0332 20.9636 10.0332H20.13C19.9618 10.0332 19.8701 10.1259 19.8701 10.2962V17.9054C19.8701 18.0745 19.9598 18.1662 20.13 18.1662H20.9636C21.1317 18.1662 21.2234 18.0755 21.2234 17.9054L21.2254 15.3394C22.0325 16.1241 22.592 16.9617 23.0597 18.0093C23.1127 18.102 23.2411 18.1662 23.3716 18.1662H24.3998C24.6077 18.1673 24.6474 18.0633 24.5435 17.8534Z" fill="var(--fill-0, white)"/>
<path id="Vector_8" d="M11.9507 5.31873C14.5044 2.76093 17.9019 1.35261 21.5175 1.35261C25.1259 1.35261 28.5193 2.75787 31.071 5.30956C32.5303 6.76883 33.6135 8.50221 34.2749 10.3946C34.3034 10.4761 34.3788 10.5301 34.4655 10.5301H35.4682C35.6048 10.5301 35.7036 10.3976 35.6608 10.2672C34.9465 8.06096 33.7144 6.04021 32.0279 4.35267C29.2215 1.54521 25.4887 0 21.5195 0C17.5432 0 13.8033 1.54928 10.9938 4.36286C9.31037 6.04836 8.08241 8.06606 7.37009 10.2672C7.32831 10.3976 7.42614 10.5301 7.56371 10.5301H8.56646C8.65308 10.5301 8.72849 10.4751 8.75702 10.3946C9.41533 8.50731 10.4955 6.77596 11.9507 5.31873Z" fill="var(--fill-0, #FC5B05)"/>
</g>
<defs>
<clipPath id="clip0_0_10796">
<rect width="43.1056" height="20.3809" fill="white"/>
</clipPath>
</defs>
</svg>
