<svg preserveAspectRatio="none" width="100%" height="100%" overflow="visible" style="display: block;" viewBox="0 0 24.32 24.32" fill="none" xmlns="http://www.w3.org/2000/svg">
<g id="Frame" clip-path="url(#clip0_0_10819)">
<path id="Vector" d="M15.287 12.1589C15.2842 12.9966 14.9503 13.7992 14.3579 14.3915C13.7656 14.9838 12.963 15.3178 12.1254 15.3206H10.9094V13.9308H12.1254C12.3584 13.9314 12.5893 13.886 12.8047 13.7972C13.0202 13.7084 13.216 13.5779 13.381 13.4134C13.546 13.2488 13.6769 13.0532 13.7662 12.838C13.8555 12.6227 13.9015 12.392 13.9015 12.1589C13.9015 11.9259 13.8555 11.6951 13.7662 11.4799C13.6769 11.2646 13.546 11.0691 13.381 10.9045C13.216 10.7399 13.0202 10.6095 12.8047 10.5207C12.5893 10.4319 12.3584 10.3865 12.1254 10.387H10.9094V8.9973H12.1254C12.963 9.00005 13.7656 9.33403 14.3579 9.92635C14.9503 10.5187 15.2842 11.3213 15.287 12.1589ZM8.54682 8.9973V11.5683H6.358L5.5589 12.958H9.93654V8.9973H8.54682ZM24.3202 10.9777C24.3202 12.1295 23.8626 13.2341 23.0482 14.0485C22.2337 14.863 21.1291 15.3206 19.9773 15.3206V17.6831H16.225V15.8417C15.7087 16.4277 15.0721 16.8956 14.3587 17.2133C13.6452 17.5311 12.8716 17.6913 12.0906 17.6831H8.54682V15.3205H5.76737L4.37764 17.6831H0L6.42748 6.63477H12.1254C12.904 6.64135 13.6729 6.80825 14.3843 7.12505C15.0956 7.44186 15.734 7.90178 16.2598 8.47615V6.63477H20.0121C21.1584 6.64212 22.2552 7.10313 23.0625 7.91699C23.8699 8.73084 24.3221 9.83129 24.3202 10.9777ZM12.1254 16.2934C12.9103 16.2953 13.6797 16.0743 14.344 15.656C15.0082 15.2378 15.5401 14.6395 15.8776 13.9308H17.6495V16.2934H18.6223V13.9308H20.0121C20.4 13.9313 20.7842 13.8552 21.1427 13.707C21.5012 13.5587 21.827 13.3412 22.1013 13.0669C22.3756 12.7926 22.5931 12.4668 22.7413 12.1083C22.8896 11.7498 22.9657 11.3656 22.9652 10.9777C22.9579 10.1907 22.6396 9.43854 22.0799 8.8853C21.5201 8.33206 20.7643 8.02262 19.9773 8.02449H17.6148V11.5683H16.225C16.076 10.586 15.5811 9.68921 14.8295 9.03948C14.0778 8.38976 13.1189 8.02981 12.1254 8.02449H7.26131L2.43202 16.2934H3.57855L4.96827 13.9308H9.93654V16.2934H12.1254ZM19.9773 8.9973H18.5876V10.387H19.9773C20.055 10.3866 20.132 10.4015 20.2039 10.431C20.2757 10.4606 20.341 10.5041 20.396 10.559C20.4509 10.6139 20.4944 10.6792 20.5239 10.7511C20.5534 10.823 20.5684 10.9 20.5679 10.9777C20.5636 11.1329 20.4999 11.2806 20.3901 11.3905C20.2803 11.5003 20.1326 11.5639 19.9773 11.5683H18.5876V12.958H19.9773C20.5025 12.958 21.0062 12.7494 21.3776 12.378C21.749 12.0066 21.9577 11.5029 21.9577 10.9777C21.9522 10.4541 21.7419 9.95355 21.3716 9.58333C21.0014 9.21311 20.5009 9.00273 19.9773 8.9973ZM21.9229 16.9882C21.9229 17.0982 21.8903 17.2056 21.8292 17.2971C21.7682 17.3885 21.6813 17.4597 21.5798 17.5018C21.4782 17.5439 21.3664 17.5549 21.2586 17.5334C21.1508 17.512 21.0517 17.459 20.974 17.3813C20.8962 17.3036 20.8433 17.2045 20.8218 17.0967C20.8004 16.9888 20.8114 16.8771 20.8535 16.7755C20.8955 16.6739 20.9668 16.5871 21.0582 16.526C21.1496 16.4649 21.2571 16.4323 21.367 16.4323C21.4403 16.4314 21.513 16.4451 21.5809 16.4727C21.6487 16.5003 21.7104 16.5413 21.7622 16.5931C21.814 16.6449 21.8549 16.7065 21.8825 16.7744C21.9101 16.8423 21.9239 16.915 21.9229 16.9882ZM22.0619 16.9882C22.0619 16.8508 22.0211 16.7165 21.9448 16.6022C21.8684 16.4879 21.7599 16.3988 21.6329 16.3463C21.506 16.2937 21.3663 16.2799 21.2315 16.3067C21.0967 16.3335 20.9729 16.3997 20.8757 16.4969C20.7785 16.5941 20.7123 16.7179 20.6855 16.8527C20.6587 16.9875 20.6725 17.1272 20.7251 17.2541C20.7777 17.3811 20.8667 17.4896 20.981 17.566C21.0953 17.6423 21.2296 17.6831 21.367 17.6831C21.5513 17.6831 21.7281 17.6099 21.8584 17.4796C21.9887 17.3493 22.0619 17.1725 22.0619 16.9882ZM21.4018 16.6755C21.4386 16.6755 21.474 16.6902 21.5001 16.7162C21.5261 16.7423 21.5408 16.7777 21.5408 16.8145C21.5408 16.8514 21.5261 16.8867 21.5001 16.9128C21.474 16.9388 21.4386 16.9535 21.4018 16.9535H21.2628V16.6755H21.4018ZM21.5755 16.6408C21.528 16.5972 21.4662 16.5725 21.4018 16.5713H21.1238V17.4051H21.2281V17.0925H21.367L21.5408 17.4051H21.6797L21.4713 17.0577C21.506 17.0577 21.5408 17.023 21.5755 16.9882C21.6031 16.9475 21.6154 16.8982 21.6102 16.8492C21.6251 16.8148 21.6298 16.7769 21.6236 16.7399C21.6175 16.7029 21.6008 16.6685 21.5755 16.6408Z" fill="var(--fill-0, #D0271D)"/>
</g>
<defs>
<clipPath id="clip0_0_10819">
<rect width="24.32" height="24.32" fill="white"/>
</clipPath>
</defs>
</svg>
