<svg preserveAspectRatio="none" width="100%" height="100%" overflow="visible" style="display: block;" viewBox="0 0 30.4 24.32" fill="none" xmlns="http://www.w3.org/2000/svg">
<g id="Frame" clip-path="url(#clip0_0_25159)">
<path id="Vector" d="M11.8472 11.6664H10.5932C10.6264 11.4194 10.7499 10.9966 11.2392 10.9966C11.5622 10.9966 11.8092 11.1771 11.8424 11.6664H11.8472ZM18.3357 11.0109C18.3119 11.0109 17.6659 10.9254 17.6659 11.9609C17.6659 12.9964 18.3119 12.9109 18.3357 12.9109C18.9532 12.9109 19.0054 12.2696 19.0054 11.9609C19.0054 10.9254 18.3547 11.0109 18.3357 11.0109ZM6.78368 12.1366C6.73143 12.1794 6.68868 12.2316 6.66493 12.2886C6.64118 12.3456 6.62693 12.4169 6.63168 12.4786C6.63168 12.7066 6.73142 12.7684 6.78842 12.8111C7.01167 12.9869 7.50568 12.9109 7.78118 12.8586V12.0559C7.52943 12.0036 6.98792 11.9609 6.78842 12.1319L6.78368 12.1366ZM30.4244 11.0204C30.4244 15.1814 26.6244 18.3544 22.5679 17.4994C21.6939 19.0669 19.2097 20.8624 16.2884 19.4754C14.3314 24.0354 7.83818 23.8549 6.13293 19.2284C0.447174 20.3636 -2.36008 12.6544 2.55617 9.76163C0.903174 5.99013 3.62967 1.51562 7.98543 1.51562C8.89268 1.51562 9.78568 1.72462 10.5979 2.12838C11.4102 2.53213 12.1179 3.11162 12.6689 3.82888C13.6522 2.81237 15.0154 2.17588 16.5212 2.17588C18.5304 2.17588 20.2737 3.29213 21.2142 4.95938C25.6222 3.02613 30.4197 6.29888 30.4197 11.0156L30.4244 11.0204ZM5.74343 12.5309C5.74343 11.9704 5.18768 11.8089 4.89318 11.7139C4.64142 11.6141 4.25667 11.5476 4.25667 11.2911C4.25667 10.8399 5.06418 10.9729 5.45368 11.1914C5.45368 11.1914 5.51068 11.2246 5.52968 11.1676C5.53918 11.1344 5.64368 10.8541 5.65318 10.8209C5.65793 10.8066 5.65793 10.7924 5.64843 10.7829C5.63893 10.7734 5.62943 10.7591 5.61993 10.7544C5.03568 10.3934 3.68667 10.3506 3.68667 11.3576C3.68667 11.9514 4.23292 12.0891 4.53692 12.1746C4.76017 12.2506 5.16392 12.3171 5.16392 12.5879C5.16392 12.7779 4.99768 12.9251 4.72692 12.9251C4.39917 12.9251 4.08567 12.8206 3.82442 12.6259C3.80067 12.6164 3.75792 12.5926 3.74842 12.6591L3.63442 13.0154C3.61067 13.0581 3.64392 13.0724 3.64392 13.0819C3.72942 13.1484 4.13317 13.3954 4.72692 13.3954C5.35393 13.3954 5.74343 13.0581 5.74343 12.5356V12.5309ZM7.26342 10.5074C6.78367 10.5074 6.37517 10.6594 6.24692 10.7544C6.24217 10.7591 6.23742 10.7639 6.23267 10.7686C6.22792 10.7734 6.22793 10.7781 6.22793 10.7876C6.22793 10.7971 6.22793 10.8019 6.22793 10.8066C6.22793 10.8114 6.23267 10.8209 6.23742 10.8256L6.36092 11.1629C6.36567 11.1724 6.37042 11.1866 6.38467 11.1914C6.39892 11.1961 6.40843 11.2009 6.41793 11.1961C6.44643 11.1961 6.74092 11.0061 7.22067 11.0061C7.41068 11.0061 7.55792 11.0394 7.65767 11.1201C7.82867 11.2531 7.80493 11.5144 7.80493 11.6236C7.57693 11.6094 6.89767 11.4621 6.40842 11.8041C6.29917 11.8801 6.20417 11.9846 6.14717 12.1034C6.09017 12.2221 6.05693 12.3599 6.06168 12.4929C6.06168 12.7731 6.13292 12.9869 6.37517 13.1769C6.95467 13.5664 8.09943 13.2719 8.18493 13.2434C8.26093 13.2291 8.35118 13.2101 8.35118 13.1531V11.5429C8.35118 11.3244 8.36543 10.5169 7.26817 10.5169V10.5216L7.26342 10.5074ZM9.47693 9.50988C9.47693 9.50038 9.47693 9.49563 9.47218 9.48613C9.46743 9.47663 9.46743 9.47188 9.45793 9.46713C9.44843 9.46238 9.44843 9.45763 9.43893 9.45288C9.42943 9.44813 9.42468 9.44813 9.41518 9.44813H8.94967C8.94017 9.44813 8.93542 9.44813 8.92592 9.45288C8.91642 9.45763 8.91168 9.45763 8.90693 9.46713C8.90218 9.47663 8.89743 9.47663 8.89268 9.48613C8.88793 9.49563 8.88793 9.50038 8.88793 9.50988V13.2624C8.88793 13.2719 8.88793 13.2766 8.89268 13.2861C8.89743 13.2956 8.89743 13.3004 8.90693 13.3051C8.91643 13.3099 8.91642 13.3146 8.92592 13.3194C8.93542 13.3241 8.94017 13.3241 8.94967 13.3241H9.41993C9.42943 13.3241 9.43418 13.3241 9.44368 13.3194C9.45318 13.3146 9.45793 13.3146 9.46268 13.3051C9.46743 13.2956 9.47218 13.2956 9.47693 13.2861C9.48168 13.2766 9.48168 13.2719 9.48168 13.2624L9.47693 9.50988ZM12.1227 10.8826C12.0229 10.7734 11.7997 10.5264 11.2867 10.5264C11.1204 10.5264 10.6122 10.5359 10.3034 10.9491C9.99943 11.3101 9.98993 11.8089 9.98993 11.9656C9.98993 12.1129 9.99943 12.6449 10.3272 12.9726C10.4507 13.1104 10.7594 13.3621 11.4102 13.3621C11.9232 13.3621 12.1939 13.2529 12.2937 13.1816C12.3174 13.1721 12.3269 13.1484 12.3032 13.0914L12.1939 12.7684C12.1892 12.7541 12.1797 12.7446 12.1654 12.7399C12.1512 12.7351 12.1417 12.7304 12.1274 12.7351C12.0039 12.7779 11.8282 12.8681 11.4007 12.8681C10.5742 12.8681 10.6027 12.1699 10.5979 12.0749H12.3649C12.3792 12.0749 12.3887 12.0701 12.3982 12.0606C12.4077 12.0511 12.4172 12.0416 12.4172 12.0274C12.4029 12.0274 12.5169 11.3291 12.1274 10.8779L12.1227 10.8826ZM13.8659 13.3859C14.4929 13.3859 14.8824 13.0486 14.8824 12.5261C14.8824 11.9656 14.3267 11.8041 14.0322 11.7091C13.8374 11.6284 13.3957 11.5476 13.3957 11.2864C13.3957 11.1059 13.5524 10.9824 13.7994 10.9824C14.0749 10.9871 14.3457 11.0584 14.5927 11.1819C14.5927 11.1819 14.6497 11.2151 14.6687 11.1581C14.6782 11.1249 14.7827 10.8446 14.7922 10.8114C14.7969 10.7971 14.7969 10.7829 14.7874 10.7734C14.7779 10.7639 14.7684 10.7496 14.7589 10.7449C14.3837 10.5121 13.9657 10.5121 13.7994 10.5121C13.2294 10.5121 12.8257 10.8589 12.8257 11.3481C12.8257 11.9419 13.3719 12.0796 13.6759 12.1651C13.9657 12.2601 14.3029 12.3219 14.3029 12.5784C14.3029 12.7684 14.1367 12.9156 13.8659 12.9156C13.5382 12.9156 13.2247 12.8111 12.9634 12.6116C12.9587 12.6069 12.9492 12.6021 12.9397 12.6021C12.9302 12.6021 12.9207 12.6021 12.9159 12.6069C12.9112 12.6116 12.9017 12.6164 12.8969 12.6211C12.8922 12.6259 12.8874 12.6354 12.8874 12.6449L12.7782 13.0011C12.7544 13.0439 12.7877 13.0581 12.7877 13.0676C12.8684 13.1341 13.2769 13.3811 13.8707 13.3811L13.8659 13.3859ZM16.9867 10.6404C16.9867 10.6071 16.9772 10.5834 16.9297 10.5834H16.3692C16.3692 10.5786 16.4119 10.1606 16.5829 9.98963C16.7824 9.79013 17.1434 9.91363 17.1529 9.91363C17.2099 9.93738 17.2194 9.91363 17.2289 9.88988L17.3619 9.51938C17.3952 9.47663 17.3619 9.46238 17.3524 9.45288C17.1102 9.35788 16.5259 9.31513 16.1887 9.65238C15.9274 9.91363 15.8562 10.3126 15.8087 10.5786H15.4049C15.3907 10.5786 15.3764 10.5881 15.3669 10.5976C15.3574 10.6071 15.3527 10.6214 15.3479 10.6356L15.2814 11.0061C15.2814 11.0394 15.2909 11.0631 15.3384 11.0631H15.7279C15.3242 13.3384 15.3147 13.4476 15.2387 13.6994C15.1864 13.8704 15.0819 14.0271 14.9584 14.0699C14.9537 14.0699 14.7732 14.1506 14.5024 14.0604C14.5024 14.0604 14.4597 14.0366 14.4359 14.0936C14.4264 14.1269 14.3124 14.4166 14.3029 14.4499C14.2934 14.4831 14.3029 14.5164 14.3267 14.5164C14.5689 14.6114 14.9442 14.6019 15.1769 14.5164C15.4762 14.4071 15.6377 14.1411 15.7232 13.9036C15.8562 13.5379 15.8562 13.4381 16.2837 11.0679H16.8632C16.8774 11.0679 16.8917 11.0584 16.9012 11.0489C16.9107 11.0394 16.9154 11.0251 16.9202 11.0109L16.9867 10.6404ZM19.5232 11.4004C19.4947 11.3196 19.2809 10.5406 18.3262 10.5406C17.6042 10.5406 17.2337 11.0156 17.1292 11.4004C17.0817 11.5429 16.9772 12.0654 17.1292 12.5166C17.1339 12.5309 17.3382 13.3764 18.3262 13.3764C19.0387 13.3764 19.4139 12.9204 19.5232 12.5166C19.6752 12.0606 19.5707 11.5429 19.5232 11.4004ZM21.6797 10.6071C21.4422 10.5264 20.8912 10.5169 20.6299 10.8636V10.6499C20.6299 10.6404 20.6299 10.6356 20.6252 10.6261C20.6204 10.6166 20.6204 10.6119 20.6109 10.6071C20.6014 10.6024 20.6014 10.5976 20.5919 10.5929C20.5824 10.5881 20.5777 10.5881 20.5682 10.5881H20.1217C20.1122 10.5881 20.1074 10.5881 20.0979 10.5929C20.0884 10.5976 20.0837 10.5976 20.0789 10.6071C20.0742 10.6166 20.0694 10.6166 20.0647 10.6261C20.0599 10.6356 20.0599 10.6404 20.0599 10.6499V13.2766C20.0599 13.2861 20.0599 13.2909 20.0647 13.3004C20.0694 13.3099 20.0694 13.3146 20.0789 13.3194C20.0884 13.3241 20.0884 13.3289 20.0979 13.3336C20.1074 13.3384 20.1122 13.3384 20.1217 13.3384H20.5777C20.5872 13.3384 20.5919 13.3384 20.6014 13.3336C20.6109 13.3289 20.6157 13.3289 20.6204 13.3194C20.6252 13.3099 20.6299 13.3099 20.6347 13.3004C20.6394 13.2909 20.6394 13.2861 20.6394 13.2766V11.9561C20.6394 11.8184 20.6442 11.4146 20.8532 11.2389C21.0859 11.0061 21.4232 11.0774 21.4897 11.0916C21.5039 11.0916 21.5182 11.0869 21.5277 11.0774C21.5372 11.0679 21.5467 11.0584 21.5562 11.0441C21.6132 10.9206 21.6607 10.7924 21.7034 10.6641C21.7082 10.6499 21.7082 10.6404 21.7034 10.6261C21.6987 10.6119 21.6892 10.6024 21.6797 10.5976V10.6071ZM23.9027 13.1769L23.8029 12.8301C23.7792 12.7731 23.7364 12.7969 23.7364 12.7969C23.5369 12.8824 23.2567 12.8871 23.1997 12.8871C22.9812 12.8871 22.3827 12.8349 22.3827 11.9466C22.3827 11.6521 22.4682 11.0061 23.1664 11.0061C23.3517 11.0014 23.5369 11.0299 23.7127 11.0821C23.7127 11.0821 23.7554 11.1059 23.7697 11.0489C23.8124 10.9254 23.8457 10.8351 23.8932 10.6926C23.9027 10.6499 23.8694 10.6356 23.8599 10.6356C23.3089 10.4504 22.8007 10.5169 22.5394 10.6356C22.4634 10.6689 21.7699 10.9444 21.7699 11.9419C21.7699 12.0796 21.7414 13.3716 23.1427 13.3716C23.3944 13.3716 23.6462 13.3241 23.8789 13.2386C23.8884 13.2291 23.8979 13.2196 23.9027 13.2101C23.9074 13.2006 23.9074 13.1864 23.9027 13.1721V13.1769ZM26.4629 11.3006C26.4249 11.1581 26.2064 10.5311 25.4037 10.5311C24.6437 10.5311 24.2874 11.0109 24.1877 11.4146C24.1307 11.5951 24.1069 11.7851 24.1069 11.9751C24.1069 13.2054 24.9999 13.3716 25.5272 13.3716C26.0402 13.3716 26.3109 13.2624 26.4107 13.1911C26.4344 13.1816 26.4439 13.1579 26.4202 13.1009L26.3062 12.7779C26.3014 12.7636 26.2919 12.7541 26.2777 12.7494C26.2634 12.7446 26.2492 12.7399 26.2397 12.7446C26.1162 12.7874 25.9404 12.8776 25.5129 12.8776C24.6864 12.8776 24.7102 12.1794 24.7102 12.0844H26.4772C26.4914 12.0844 26.5009 12.0796 26.5104 12.0701C26.5199 12.0606 26.5294 12.0511 26.5294 12.0369C26.5199 12.0369 26.5722 11.6996 26.4629 11.3006ZM25.3562 10.9966C24.8669 10.9966 24.7387 11.4241 24.7102 11.6664H25.9642C25.9214 11.1011 25.6032 10.9966 25.3609 10.9966H25.3562Z" fill="var(--fill-0, #181818)"/>
</g>
<defs>
<clipPath id="clip0_0_25159">
<rect width="30.4" height="24.32" fill="white"/>
</clipPath>
</defs>
</svg>
