<svg preserveAspectRatio="none" width="100%" height="100%" overflow="visible" style="display: block;" viewBox="0 0 42.1495 20.8432" fill="none" xmlns="http://www.w3.org/2000/svg">
<g id="Group">
<path id="Vector" fill-rule="evenodd" clip-rule="evenodd" d="M0 20.8432H21.3064L42.1495 0H0V20.8432Z" fill="url(#paint0_linear_0_32344)"/>
<path id="Vector_2" fill-rule="evenodd" clip-rule="evenodd" d="M25.0126 4.16853H20.844V13.9417L17.2312 4.16853H13.6184L10.515 12.3668C10.1908 10.2825 8.01386 9.58776 6.34641 9.03194C5.23477 8.6614 4.0305 8.1519 4.07682 7.54976C4.07682 7.08658 4.72527 6.6234 5.97586 6.66971C6.80959 6.71603 7.55068 6.76235 9.03286 7.50344L10.4687 5.00226C9.1255 4.30749 7.27277 3.89062 5.79059 3.89062C4.0305 3.89062 2.54832 4.44644 1.62196 5.41912C0.973504 6.06758 0.649277 6.90131 0.649277 7.82767C0.649277 9.07826 1.11246 10.0046 2.08514 10.7457C2.91887 11.3478 3.98418 11.7647 4.91055 12.0426C6.0685 12.4132 6.99486 12.6911 6.99486 13.3858C6.99486 13.6174 6.90223 13.849 6.71695 14.0343C6.43905 14.3122 5.97586 14.4512 5.37373 14.4512C4.12314 14.4048 3.24309 14.2196 1.85355 13.4322L0.556641 15.9797C1.94619 16.7671 3.42837 17.1839 5.09582 17.1839H5.46636C6.90223 17.1376 8.1065 16.8134 9.03286 16.0723C9.07918 16.026 9.1255 15.9797 9.17182 15.9333L9.07918 16.6744H12.5994L13.2478 15.0533C13.8963 15.2849 14.6837 15.4238 15.4711 15.4238C16.2585 15.4238 16.9996 15.2849 17.648 15.0996L18.0649 16.6744H24.3642V13.0153H25.7074C28.9497 13.0153 30.8487 11.3478 30.8487 8.61508C30.8487 5.51176 28.9497 4.16853 25.0126 4.16853ZM15.4248 12.5521C14.9616 12.5521 14.4984 12.4595 14.0815 12.3205L15.3784 8.1519H15.4248L16.7217 12.3205C16.3511 12.4595 15.8879 12.5521 15.4248 12.5521ZM25.2442 10.1436H24.3179V6.80867H25.2442C26.4485 6.80867 27.4212 7.22553 27.4212 8.47612C27.4212 9.72671 26.4485 10.1436 25.2442 10.1436Z" fill="var(--fill-0, white)"/>
</g>
<defs>
<linearGradient id="paint0_linear_0_32344" x1="21.0669" y1="0" x2="21.0669" y2="20.8432" gradientUnits="userSpaceOnUse">
<stop stop-color="#00AEEF"/>
<stop offset="0.212" stop-color="#0097DC"/>
<stop offset="0.519" stop-color="#007CC5"/>
<stop offset="0.792" stop-color="#006CB8"/>
<stop offset="1" stop-color="#0066B3"/>
</linearGradient>
</defs>
</svg>
