<svg preserveAspectRatio="none" width="100%" height="100%" overflow="visible" style="display: block;" viewBox="0 0 44.6373 44.6373" fill="none" xmlns="http://www.w3.org/2000/svg">
<g id="Frame 2087329850">
<circle id="Ellipse" cx="22.3187" cy="22.3187" r="22.3187" fill="var(--fill-0, #EAF2FF)"/>
<g id="Vector">
<mask id="path-2-outside-1_0_4" maskUnits="userSpaceOnUse" x="11.6233" y="11.8174" width="22" height="22" fill="black">
<rect fill="white" x="11.6233" y="11.8174" width="22" height="22"/>
<path d="M31.7484 26.3236C31.855 26.1641 31.9176 25.9704 31.9176 25.764C31.9176 25.2043 31.4631 24.751 30.9053 24.751H30.8269V24.6821C30.8269 24.2039 30.9178 23.6942 31.0996 23.1314C31.2815 22.5686 31.4727 21.4899 31.3379 19.5547V15.928C31.3379 15.3715 30.8833 14.9181 30.3255 14.9181C30.1218 14.9181 29.9306 14.9776 29.7707 15.0838V15.0371C29.7707 14.4807 29.3162 14.0273 28.7583 14.0273C28.5514 14.0273 28.3602 14.0898 28.2005 14.193L28.2003 13.8272C28.2003 13.2708 27.7458 12.8174 27.188 12.8174C26.674 12.8174 26.2478 13.202 26.1818 13.699C26.022 13.5926 25.8277 13.5302 25.6208 13.5302C25.0629 13.5302 24.6084 13.9836 24.6084 14.54V14.6651H24.5239C24.0349 14.6651 23.5241 14.5776 22.9662 14.3931C22.3989 14.2117 21.3113 14.0241 19.3807 14.1586H15.7417C15.1807 14.1586 14.7262 14.612 14.7262 15.1653C14.7262 15.3685 14.7888 15.5592 14.8923 15.7187H14.8486C14.2875 15.7187 13.833 16.1721 13.833 16.7317C13.833 16.935 13.8926 17.1225 13.9961 17.282H13.6325C13.0746 17.282 12.6233 17.7354 12.6233 18.295C12.6233 18.8109 13.0089 19.2392 13.5071 19.2987C13.4005 19.4613 13.3378 19.6519 13.3378 19.8615C13.3378 20.4179 13.7924 20.8681 14.347 20.8681H14.4285V20.9556C14.4285 21.4403 14.3376 21.9623 14.1558 22.5094C13.974 23.0691 13.7828 24.1477 13.9176 26.0829V29.7127C13.9176 30.2692 14.3752 30.7226 14.9331 30.7226C15.1369 30.7226 15.3281 30.6631 15.488 30.5569V30.6006C15.488 31.1571 15.9425 31.6105 16.5003 31.6105C16.7041 31.6105 16.8952 31.551 17.0551 31.4448V31.8075C17.0551 32.364 17.5097 32.8174 18.0675 32.8174C18.5815 32.8174 19.0077 32.4328 19.0736 31.9358C19.2335 32.0421 19.4277 32.1046 19.6347 32.1046C20.1925 32.1046 20.647 31.6512 20.647 31.0948V30.9541H20.7316C21.2206 30.9541 21.7282 31.0416 22.2862 31.223C22.7188 31.3636 23.4521 31.5076 24.6337 31.5076C25.0036 31.5076 25.4142 31.495 25.875 31.4606H29.5107C30.0686 31.4606 30.5231 31.0072 30.5231 30.4508C30.5231 30.2476 30.4635 30.0569 30.357 29.8973H30.4009C30.9587 29.8973 31.4132 29.4439 31.4132 28.8875C31.4132 28.6843 31.3536 28.4936 31.2472 28.3341H31.6108C32.1686 28.3341 32.6231 27.8806 32.6231 27.3242C32.6322 26.8145 32.2437 26.3893 31.7484 26.3236L31.7484 26.3236ZM25.0598 14.5368C25.0598 14.2303 25.3074 13.9833 25.6146 13.9833C25.9218 13.9833 26.1695 14.2303 26.1695 14.5368V14.5399V17.9009C26.1695 18.0259 26.2729 18.1291 26.3983 18.1291C26.5237 18.1291 26.6272 18.0259 26.6272 17.9009L26.6269 14.5368V14.5336V13.827C26.6269 13.5206 26.8745 13.2736 27.1817 13.2736C27.4889 13.2736 27.7365 13.5206 27.7365 13.827V15.037V15.0431V17.9039C27.7365 18.029 27.84 18.1322 27.9654 18.1322C28.0908 18.1322 28.1942 18.029 28.1942 17.9039L28.1941 15.0338V15.0306C28.1972 14.7273 28.4449 14.4835 28.7519 14.4835C29.0591 14.4835 29.3068 14.7305 29.3068 15.037V15.9217V15.9249V17.9071C29.3068 18.0321 29.4102 18.1353 29.5356 18.1353C29.661 18.1353 29.7645 18.0321 29.7645 17.9071V15.9311V15.9279C29.7645 15.6215 30.0121 15.3745 30.3193 15.3745C30.6265 15.3745 30.8741 15.6215 30.8741 15.9279V19.5702C31.0027 21.4492 30.8271 22.4685 30.6578 22.9906C30.4572 23.6003 30.3632 24.1536 30.3632 24.682V24.7508L25.8374 24.7509C25.7558 23.3909 25.01 22.7562 24.9785 22.7281C24.9692 22.7219 24.9598 22.7124 24.9504 22.7062C24.4301 22.3997 23.8535 21.6338 23.2735 20.4958C23.5463 20.3238 23.9851 20.1425 24.6025 20.1018C24.6057 20.1143 24.6087 20.1237 24.6151 20.1362C24.6464 20.2456 24.753 20.3144 24.8689 20.2989C24.9817 20.2832 25.0663 20.1863 25.0663 20.0706V14.5368L25.0598 14.5368ZM22.3393 24.8291C21.75 23.691 21.164 22.9313 20.5935 22.5717C21.7687 21.9652 22.5492 21.368 22.9065 20.7928C23.4926 21.9278 24.0787 22.6906 24.6429 23.0532C23.4769 23.6536 22.6998 24.2506 22.3393 24.8291ZM13.7953 19.8613C13.7953 19.5548 14.0429 19.3078 14.3469 19.3078H14.3501H17.7257C17.8511 19.3078 17.9546 19.2046 17.9546 19.0795C17.9546 18.9545 17.8511 18.8513 17.7257 18.8513L14.3499 18.8514H14.3468H13.6322C13.3282 18.8514 13.0806 18.6012 13.0806 18.2979C13.0806 17.9915 13.3282 17.7445 13.6322 17.7445H14.8326C14.8358 17.7445 14.842 17.7477 14.8452 17.7477H17.7224C17.8478 17.7477 17.9512 17.6445 17.9512 17.5194C17.9512 17.3943 17.8478 17.2911 17.7224 17.2911L14.8609 17.2912C14.8577 17.2912 14.8515 17.2881 14.8483 17.2881C14.5411 17.2881 14.2935 17.0411 14.2935 16.7378C14.2935 16.4313 14.5443 16.1843 14.8483 16.1843H17.7256C17.851 16.1843 17.9544 16.0811 17.9544 15.9561C17.9544 15.831 17.851 15.7278 17.7256 15.7278H15.7415C15.4343 15.7278 15.1867 15.4776 15.1867 15.1743C15.1867 14.871 15.4375 14.624 15.7415 14.624H19.3929C21.2671 14.4928 22.2952 14.6678 22.8217 14.8366C23.4266 15.0335 23.9814 15.1305 24.5205 15.1305H24.602V19.6484C23.226 19.7234 22.5867 20.4707 22.5616 20.502C22.5522 20.5113 22.5458 20.5207 22.5396 20.5332C22.2324 21.0553 21.4583 21.6369 20.2956 22.2246C20.2423 22.1402 20.1827 22.0401 20.1295 21.9213C20.1169 21.8933 20.1044 21.8682 20.0918 21.837C20.0761 21.7994 20.0605 21.762 20.048 21.7212C20.0229 21.6524 20.0009 21.5806 19.979 21.5025C19.9696 21.4712 19.9633 21.4337 19.9539 21.3993C19.932 21.3117 19.9162 21.2179 19.9006 21.1179C19.8944 21.0835 19.8944 21.0459 19.8913 21.0085C19.8881 20.9709 19.8881 20.9303 19.8851 20.8928C19.9132 20.8834 19.9415 20.874 19.9696 20.8677C20.0793 20.8333 20.1451 20.7271 20.1295 20.6145C20.1138 20.502 20.0167 20.4206 19.9038 20.4206L14.3471 20.4209C14.043 20.4084 13.7954 20.1646 13.7954 19.8613L13.7953 19.8613ZM20.1924 31.1009C20.1924 31.4073 19.9448 31.6544 19.6376 31.6544C19.3335 31.6544 19.0827 31.4074 19.0827 31.1009V27.7306C19.0827 27.6056 18.9793 27.5024 18.8539 27.5024C18.7285 27.5024 18.625 27.6056 18.625 27.7306V31.8108C18.625 32.1172 18.3774 32.3642 18.0702 32.3642C17.763 32.3642 17.5154 32.1172 17.5154 31.8108V27.7306C17.5154 27.6056 17.4119 27.5024 17.2865 27.5024C17.1612 27.5024 17.0577 27.6056 17.0577 27.7306V30.6007C17.0577 30.904 16.8101 31.1542 16.5029 31.1542C16.1957 31.1542 15.948 30.9072 15.948 30.6007V29.7128V29.7066V27.7306C15.948 27.6056 15.8446 27.5024 15.7192 27.5024C15.5938 27.5024 15.4903 27.6056 15.4903 27.7306V29.7128V29.716C15.4872 30.0192 15.2396 30.2662 14.9355 30.2662C14.6283 30.2662 14.3777 30.0192 14.3777 29.7128V26.0673C14.2461 24.1884 14.4247 23.1722 14.594 22.6501C14.7914 22.0561 14.8918 21.4871 14.8918 20.9524V20.8742H19.4176C19.4207 20.9118 19.427 20.9399 19.4301 20.9774C19.4395 21.0838 19.4521 21.1869 19.4678 21.2839C19.4772 21.3308 19.4835 21.3777 19.4929 21.4215C19.5148 21.5279 19.5399 21.6247 19.5681 21.7186C19.5806 21.7561 19.59 21.7905 19.6026 21.828C19.6307 21.9093 19.659 21.9843 19.6903 22.0531C19.709 22.0968 19.7279 22.1374 19.7467 22.175C19.7686 22.2156 19.7874 22.2532 19.8093 22.2907C20.0287 22.6878 20.2575 22.8909 20.2763 22.9066C20.2857 22.916 20.295 22.9223 20.3076 22.9285C20.8247 23.2318 21.3983 23.9883 21.9751 25.1202C21.7023 25.2922 21.2635 25.4766 20.6493 25.5141C20.6493 25.508 20.6461 25.5048 20.6431 25.4985C20.6149 25.3859 20.5021 25.3171 20.3923 25.3296C20.2794 25.3453 20.1917 25.4422 20.1917 25.5579L20.1924 31.1009ZM31.6166 27.8808H27.5296C27.4042 27.8808 27.3008 27.984 27.3008 28.109C27.3008 28.2341 27.4042 28.3373 27.5296 28.3373H30.4037C30.7109 28.3373 30.9585 28.5843 30.9585 28.8908C30.9585 29.1972 30.7109 29.4442 30.4037 29.4442H29.5135H29.5103H27.5263C27.4009 29.4442 27.2975 29.5474 27.2975 29.6725C27.2975 29.7976 27.4009 29.9008 27.5263 29.9008H29.5134C29.8174 29.9008 30.065 30.1478 30.065 30.4542C30.065 30.7607 29.8174 31.0077 29.5102 31.0077H25.8588C23.9846 31.139 22.9597 30.9639 22.43 30.7919C21.8251 30.595 21.2703 30.5012 20.7312 30.5012H20.6497L20.65 25.9829C22.0228 25.9048 22.6622 25.1576 22.6904 25.1232C22.6967 25.1138 22.7062 25.1045 22.7092 25.0951C23.0226 24.5699 23.7967 23.9914 24.9533 23.4099C25.1257 23.6756 25.3199 24.1134 25.3669 24.7293C25.3388 24.7386 25.3137 24.748 25.2854 24.7573C25.1758 24.7886 25.1068 24.898 25.1224 25.0105C25.1381 25.1231 25.2352 25.2074 25.3512 25.2074H25.5518C25.5705 25.2136 25.5894 25.2199 25.6114 25.2199H30.5915C30.6134 25.2199 30.6322 25.2138 30.6511 25.2074H30.8987C31.2059 25.2074 31.4535 25.4576 31.4535 25.7639C31.4535 26.0672 31.2059 26.3142 30.9019 26.3173H30.8987L27.5263 26.3175C27.4009 26.3175 27.2974 26.4207 27.2974 26.5458C27.2974 26.6709 27.4009 26.7741 27.5263 26.7741H30.8955H30.9017H31.6163C31.9235 26.7741 32.1711 27.021 32.1711 27.3275C32.1713 27.6338 31.9237 27.8808 31.6164 27.8808L31.6166 27.8808Z"/>
</mask>
<path d="M31.7484 26.3236C31.855 26.1641 31.9176 25.9704 31.9176 25.764C31.9176 25.2043 31.4631 24.751 30.9053 24.751H30.8269V24.6821C30.8269 24.2039 30.9178 23.6942 31.0996 23.1314C31.2815 22.5686 31.4727 21.4899 31.3379 19.5547V15.928C31.3379 15.3715 30.8833 14.9181 30.3255 14.9181C30.1218 14.9181 29.9306 14.9776 29.7707 15.0838V15.0371C29.7707 14.4807 29.3162 14.0273 28.7583 14.0273C28.5514 14.0273 28.3602 14.0898 28.2005 14.193L28.2003 13.8272C28.2003 13.2708 27.7458 12.8174 27.188 12.8174C26.674 12.8174 26.2478 13.202 26.1818 13.699C26.022 13.5926 25.8277 13.5302 25.6208 13.5302C25.0629 13.5302 24.6084 13.9836 24.6084 14.54V14.6651H24.5239C24.0349 14.6651 23.5241 14.5776 22.9662 14.3931C22.3989 14.2117 21.3113 14.0241 19.3807 14.1586H15.7417C15.1807 14.1586 14.7262 14.612 14.7262 15.1653C14.7262 15.3685 14.7888 15.5592 14.8923 15.7187H14.8486C14.2875 15.7187 13.833 16.1721 13.833 16.7317C13.833 16.935 13.8926 17.1225 13.9961 17.282H13.6325C13.0746 17.282 12.6233 17.7354 12.6233 18.295C12.6233 18.8109 13.0089 19.2392 13.5071 19.2987C13.4005 19.4613 13.3378 19.6519 13.3378 19.8615C13.3378 20.4179 13.7924 20.8681 14.347 20.8681H14.4285V20.9556C14.4285 21.4403 14.3376 21.9623 14.1558 22.5094C13.974 23.0691 13.7828 24.1477 13.9176 26.0829V29.7127C13.9176 30.2692 14.3752 30.7226 14.9331 30.7226C15.1369 30.7226 15.3281 30.6631 15.488 30.5569V30.6006C15.488 31.1571 15.9425 31.6105 16.5003 31.6105C16.7041 31.6105 16.8952 31.551 17.0551 31.4448V31.8075C17.0551 32.364 17.5097 32.8174 18.0675 32.8174C18.5815 32.8174 19.0077 32.4328 19.0736 31.9358C19.2335 32.0421 19.4277 32.1046 19.6347 32.1046C20.1925 32.1046 20.647 31.6512 20.647 31.0948V30.9541H20.7316C21.2206 30.9541 21.7282 31.0416 22.2862 31.223C22.7188 31.3636 23.4521 31.5076 24.6337 31.5076C25.0036 31.5076 25.4142 31.495 25.875 31.4606H29.5107C30.0686 31.4606 30.5231 31.0072 30.5231 30.4508C30.5231 30.2476 30.4635 30.0569 30.357 29.8973H30.4009C30.9587 29.8973 31.4132 29.4439 31.4132 28.8875C31.4132 28.6843 31.3536 28.4936 31.2472 28.3341H31.6108C32.1686 28.3341 32.6231 27.8806 32.6231 27.3242C32.6322 26.8145 32.2437 26.3893 31.7484 26.3236L31.7484 26.3236ZM25.0598 14.5368C25.0598 14.2303 25.3074 13.9833 25.6146 13.9833C25.9218 13.9833 26.1695 14.2303 26.1695 14.5368V14.5399V17.9009C26.1695 18.0259 26.2729 18.1291 26.3983 18.1291C26.5237 18.1291 26.6272 18.0259 26.6272 17.9009L26.6269 14.5368V14.5336V13.827C26.6269 13.5206 26.8745 13.2736 27.1817 13.2736C27.4889 13.2736 27.7365 13.5206 27.7365 13.827V15.037V15.0431V17.9039C27.7365 18.029 27.84 18.1322 27.9654 18.1322C28.0908 18.1322 28.1942 18.029 28.1942 17.9039L28.1941 15.0338V15.0306C28.1972 14.7273 28.4449 14.4835 28.7519 14.4835C29.0591 14.4835 29.3068 14.7305 29.3068 15.037V15.9217V15.9249V17.9071C29.3068 18.0321 29.4102 18.1353 29.5356 18.1353C29.661 18.1353 29.7645 18.0321 29.7645 17.9071V15.9311V15.9279C29.7645 15.6215 30.0121 15.3745 30.3193 15.3745C30.6265 15.3745 30.8741 15.6215 30.8741 15.9279V19.5702C31.0027 21.4492 30.8271 22.4685 30.6578 22.9906C30.4572 23.6003 30.3632 24.1536 30.3632 24.682V24.7508L25.8374 24.7509C25.7558 23.3909 25.01 22.7562 24.9785 22.7281C24.9692 22.7219 24.9598 22.7124 24.9504 22.7062C24.4301 22.3997 23.8535 21.6338 23.2735 20.4958C23.5463 20.3238 23.9851 20.1425 24.6025 20.1018C24.6057 20.1143 24.6087 20.1237 24.6151 20.1362C24.6464 20.2456 24.753 20.3144 24.8689 20.2989C24.9817 20.2832 25.0663 20.1863 25.0663 20.0706V14.5368L25.0598 14.5368ZM22.3393 24.8291C21.75 23.691 21.164 22.9313 20.5935 22.5717C21.7687 21.9652 22.5492 21.368 22.9065 20.7928C23.4926 21.9278 24.0787 22.6906 24.6429 23.0532C23.4769 23.6536 22.6998 24.2506 22.3393 24.8291ZM13.7953 19.8613C13.7953 19.5548 14.0429 19.3078 14.3469 19.3078H14.3501H17.7257C17.8511 19.3078 17.9546 19.2046 17.9546 19.0795C17.9546 18.9545 17.8511 18.8513 17.7257 18.8513L14.3499 18.8514H14.3468H13.6322C13.3282 18.8514 13.0806 18.6012 13.0806 18.2979C13.0806 17.9915 13.3282 17.7445 13.6322 17.7445H14.8326C14.8358 17.7445 14.842 17.7477 14.8452 17.7477H17.7224C17.8478 17.7477 17.9512 17.6445 17.9512 17.5194C17.9512 17.3943 17.8478 17.2911 17.7224 17.2911L14.8609 17.2912C14.8577 17.2912 14.8515 17.2881 14.8483 17.2881C14.5411 17.2881 14.2935 17.0411 14.2935 16.7378C14.2935 16.4313 14.5443 16.1843 14.8483 16.1843H17.7256C17.851 16.1843 17.9544 16.0811 17.9544 15.9561C17.9544 15.831 17.851 15.7278 17.7256 15.7278H15.7415C15.4343 15.7278 15.1867 15.4776 15.1867 15.1743C15.1867 14.871 15.4375 14.624 15.7415 14.624H19.3929C21.2671 14.4928 22.2952 14.6678 22.8217 14.8366C23.4266 15.0335 23.9814 15.1305 24.5205 15.1305H24.602V19.6484C23.226 19.7234 22.5867 20.4707 22.5616 20.502C22.5522 20.5113 22.5458 20.5207 22.5396 20.5332C22.2324 21.0553 21.4583 21.6369 20.2956 22.2246C20.2423 22.1402 20.1827 22.0401 20.1295 21.9213C20.1169 21.8933 20.1044 21.8682 20.0918 21.837C20.0761 21.7994 20.0605 21.762 20.048 21.7212C20.0229 21.6524 20.0009 21.5806 19.979 21.5025C19.9696 21.4712 19.9633 21.4337 19.9539 21.3993C19.932 21.3117 19.9162 21.2179 19.9006 21.1179C19.8944 21.0835 19.8944 21.0459 19.8913 21.0085C19.8881 20.9709 19.8881 20.9303 19.8851 20.8928C19.9132 20.8834 19.9415 20.874 19.9696 20.8677C20.0793 20.8333 20.1451 20.7271 20.1295 20.6145C20.1138 20.502 20.0167 20.4206 19.9038 20.4206L14.3471 20.4209C14.043 20.4084 13.7954 20.1646 13.7954 19.8613L13.7953 19.8613ZM20.1924 31.1009C20.1924 31.4073 19.9448 31.6544 19.6376 31.6544C19.3335 31.6544 19.0827 31.4074 19.0827 31.1009V27.7306C19.0827 27.6056 18.9793 27.5024 18.8539 27.5024C18.7285 27.5024 18.625 27.6056 18.625 27.7306V31.8108C18.625 32.1172 18.3774 32.3642 18.0702 32.3642C17.763 32.3642 17.5154 32.1172 17.5154 31.8108V27.7306C17.5154 27.6056 17.4119 27.5024 17.2865 27.5024C17.1612 27.5024 17.0577 27.6056 17.0577 27.7306V30.6007C17.0577 30.904 16.8101 31.1542 16.5029 31.1542C16.1957 31.1542 15.948 30.9072 15.948 30.6007V29.7128V29.7066V27.7306C15.948 27.6056 15.8446 27.5024 15.7192 27.5024C15.5938 27.5024 15.4903 27.6056 15.4903 27.7306V29.7128V29.716C15.4872 30.0192 15.2396 30.2662 14.9355 30.2662C14.6283 30.2662 14.3777 30.0192 14.3777 29.7128V26.0673C14.2461 24.1884 14.4247 23.1722 14.594 22.6501C14.7914 22.0561 14.8918 21.4871 14.8918 20.9524V20.8742H19.4176C19.4207 20.9118 19.427 20.9399 19.4301 20.9774C19.4395 21.0838 19.4521 21.1869 19.4678 21.2839C19.4772 21.3308 19.4835 21.3777 19.4929 21.4215C19.5148 21.5279 19.5399 21.6247 19.5681 21.7186C19.5806 21.7561 19.59 21.7905 19.6026 21.828C19.6307 21.9093 19.659 21.9843 19.6903 22.0531C19.709 22.0968 19.7279 22.1374 19.7467 22.175C19.7686 22.2156 19.7874 22.2532 19.8093 22.2907C20.0287 22.6878 20.2575 22.8909 20.2763 22.9066C20.2857 22.916 20.295 22.9223 20.3076 22.9285C20.8247 23.2318 21.3983 23.9883 21.9751 25.1202C21.7023 25.2922 21.2635 25.4766 20.6493 25.5141C20.6493 25.508 20.6461 25.5048 20.6431 25.4985C20.6149 25.3859 20.5021 25.3171 20.3923 25.3296C20.2794 25.3453 20.1917 25.4422 20.1917 25.5579L20.1924 31.1009ZM31.6166 27.8808H27.5296C27.4042 27.8808 27.3008 27.984 27.3008 28.109C27.3008 28.2341 27.4042 28.3373 27.5296 28.3373H30.4037C30.7109 28.3373 30.9585 28.5843 30.9585 28.8908C30.9585 29.1972 30.7109 29.4442 30.4037 29.4442H29.5135H29.5103H27.5263C27.4009 29.4442 27.2975 29.5474 27.2975 29.6725C27.2975 29.7976 27.4009 29.9008 27.5263 29.9008H29.5134C29.8174 29.9008 30.065 30.1478 30.065 30.4542C30.065 30.7607 29.8174 31.0077 29.5102 31.0077H25.8588C23.9846 31.139 22.9597 30.9639 22.43 30.7919C21.8251 30.595 21.2703 30.5012 20.7312 30.5012H20.6497L20.65 25.9829C22.0228 25.9048 22.6622 25.1576 22.6904 25.1232C22.6967 25.1138 22.7062 25.1045 22.7092 25.0951C23.0226 24.5699 23.7967 23.9914 24.9533 23.4099C25.1257 23.6756 25.3199 24.1134 25.3669 24.7293C25.3388 24.7386 25.3137 24.748 25.2854 24.7573C25.1758 24.7886 25.1068 24.898 25.1224 25.0105C25.1381 25.1231 25.2352 25.2074 25.3512 25.2074H25.5518C25.5705 25.2136 25.5894 25.2199 25.6114 25.2199H30.5915C30.6134 25.2199 30.6322 25.2138 30.6511 25.2074H30.8987C31.2059 25.2074 31.4535 25.4576 31.4535 25.7639C31.4535 26.0672 31.2059 26.3142 30.9019 26.3173H30.8987L27.5263 26.3175C27.4009 26.3175 27.2974 26.4207 27.2974 26.5458C27.2974 26.6709 27.4009 26.7741 27.5263 26.7741H30.8955H30.9017H31.6163C31.9235 26.7741 32.1711 27.021 32.1711 27.3275C32.1713 27.6338 31.9237 27.8808 31.6164 27.8808L31.6166 27.8808Z" fill="var(--fill-0, #0B7AFC)"/>
<path d="M31.7484 26.3236C31.855 26.1641 31.9176 25.9704 31.9176 25.764C31.9176 25.2043 31.4631 24.751 30.9053 24.751H30.8269V24.6821C30.8269 24.2039 30.9178 23.6942 31.0996 23.1314C31.2815 22.5686 31.4727 21.4899 31.3379 19.5547V15.928C31.3379 15.3715 30.8833 14.9181 30.3255 14.9181C30.1218 14.9181 29.9306 14.9776 29.7707 15.0838V15.0371C29.7707 14.4807 29.3162 14.0273 28.7583 14.0273C28.5514 14.0273 28.3602 14.0898 28.2005 14.193L28.2003 13.8272C28.2003 13.2708 27.7458 12.8174 27.188 12.8174C26.674 12.8174 26.2478 13.202 26.1818 13.699C26.022 13.5926 25.8277 13.5302 25.6208 13.5302C25.0629 13.5302 24.6084 13.9836 24.6084 14.54V14.6651H24.5239C24.0349 14.6651 23.5241 14.5776 22.9662 14.3931C22.3989 14.2117 21.3113 14.0241 19.3807 14.1586H15.7417C15.1807 14.1586 14.7262 14.612 14.7262 15.1653C14.7262 15.3685 14.7888 15.5592 14.8923 15.7187H14.8486C14.2875 15.7187 13.833 16.1721 13.833 16.7317C13.833 16.935 13.8926 17.1225 13.9961 17.282H13.6325C13.0746 17.282 12.6233 17.7354 12.6233 18.295C12.6233 18.8109 13.0089 19.2392 13.5071 19.2987C13.4005 19.4613 13.3378 19.6519 13.3378 19.8615C13.3378 20.4179 13.7924 20.8681 14.347 20.8681H14.4285V20.9556C14.4285 21.4403 14.3376 21.9623 14.1558 22.5094C13.974 23.0691 13.7828 24.1477 13.9176 26.0829V29.7127C13.9176 30.2692 14.3752 30.7226 14.9331 30.7226C15.1369 30.7226 15.3281 30.6631 15.488 30.5569V30.6006C15.488 31.1571 15.9425 31.6105 16.5003 31.6105C16.7041 31.6105 16.8952 31.551 17.0551 31.4448V31.8075C17.0551 32.364 17.5097 32.8174 18.0675 32.8174C18.5815 32.8174 19.0077 32.4328 19.0736 31.9358C19.2335 32.0421 19.4277 32.1046 19.6347 32.1046C20.1925 32.1046 20.647 31.6512 20.647 31.0948V30.9541H20.7316C21.2206 30.9541 21.7282 31.0416 22.2862 31.223C22.7188 31.3636 23.4521 31.5076 24.6337 31.5076C25.0036 31.5076 25.4142 31.495 25.875 31.4606H29.5107C30.0686 31.4606 30.5231 31.0072 30.5231 30.4508C30.5231 30.2476 30.4635 30.0569 30.357 29.8973H30.4009C30.9587 29.8973 31.4132 29.4439 31.4132 28.8875C31.4132 28.6843 31.3536 28.4936 31.2472 28.3341H31.6108C32.1686 28.3341 32.6231 27.8806 32.6231 27.3242C32.6322 26.8145 32.2437 26.3893 31.7484 26.3236L31.7484 26.3236ZM25.0598 14.5368C25.0598 14.2303 25.3074 13.9833 25.6146 13.9833C25.9218 13.9833 26.1695 14.2303 26.1695 14.5368V14.5399V17.9009C26.1695 18.0259 26.2729 18.1291 26.3983 18.1291C26.5237 18.1291 26.6272 18.0259 26.6272 17.9009L26.6269 14.5368V14.5336V13.827C26.6269 13.5206 26.8745 13.2736 27.1817 13.2736C27.4889 13.2736 27.7365 13.5206 27.7365 13.827V15.037V15.0431V17.9039C27.7365 18.029 27.84 18.1322 27.9654 18.1322C28.0908 18.1322 28.1942 18.029 28.1942 17.9039L28.1941 15.0338V15.0306C28.1972 14.7273 28.4449 14.4835 28.7519 14.4835C29.0591 14.4835 29.3068 14.7305 29.3068 15.037V15.9217V15.9249V17.9071C29.3068 18.0321 29.4102 18.1353 29.5356 18.1353C29.661 18.1353 29.7645 18.0321 29.7645 17.9071V15.9311V15.9279C29.7645 15.6215 30.0121 15.3745 30.3193 15.3745C30.6265 15.3745 30.8741 15.6215 30.8741 15.9279V19.5702C31.0027 21.4492 30.8271 22.4685 30.6578 22.9906C30.4572 23.6003 30.3632 24.1536 30.3632 24.682V24.7508L25.8374 24.7509C25.7558 23.3909 25.01 22.7562 24.9785 22.7281C24.9692 22.7219 24.9598 22.7124 24.9504 22.7062C24.4301 22.3997 23.8535 21.6338 23.2735 20.4958C23.5463 20.3238 23.9851 20.1425 24.6025 20.1018C24.6057 20.1143 24.6087 20.1237 24.6151 20.1362C24.6464 20.2456 24.753 20.3144 24.8689 20.2989C24.9817 20.2832 25.0663 20.1863 25.0663 20.0706V14.5368L25.0598 14.5368ZM22.3393 24.8291C21.75 23.691 21.164 22.9313 20.5935 22.5717C21.7687 21.9652 22.5492 21.368 22.9065 20.7928C23.4926 21.9278 24.0787 22.6906 24.6429 23.0532C23.4769 23.6536 22.6998 24.2506 22.3393 24.8291ZM13.7953 19.8613C13.7953 19.5548 14.0429 19.3078 14.3469 19.3078H14.3501H17.7257C17.8511 19.3078 17.9546 19.2046 17.9546 19.0795C17.9546 18.9545 17.8511 18.8513 17.7257 18.8513L14.3499 18.8514H14.3468H13.6322C13.3282 18.8514 13.0806 18.6012 13.0806 18.2979C13.0806 17.9915 13.3282 17.7445 13.6322 17.7445H14.8326C14.8358 17.7445 14.842 17.7477 14.8452 17.7477H17.7224C17.8478 17.7477 17.9512 17.6445 17.9512 17.5194C17.9512 17.3943 17.8478 17.2911 17.7224 17.2911L14.8609 17.2912C14.8577 17.2912 14.8515 17.2881 14.8483 17.2881C14.5411 17.2881 14.2935 17.0411 14.2935 16.7378C14.2935 16.4313 14.5443 16.1843 14.8483 16.1843H17.7256C17.851 16.1843 17.9544 16.0811 17.9544 15.9561C17.9544 15.831 17.851 15.7278 17.7256 15.7278H15.7415C15.4343 15.7278 15.1867 15.4776 15.1867 15.1743C15.1867 14.871 15.4375 14.624 15.7415 14.624H19.3929C21.2671 14.4928 22.2952 14.6678 22.8217 14.8366C23.4266 15.0335 23.9814 15.1305 24.5205 15.1305H24.602V19.6484C23.226 19.7234 22.5867 20.4707 22.5616 20.502C22.5522 20.5113 22.5458 20.5207 22.5396 20.5332C22.2324 21.0553 21.4583 21.6369 20.2956 22.2246C20.2423 22.1402 20.1827 22.0401 20.1295 21.9213C20.1169 21.8933 20.1044 21.8682 20.0918 21.837C20.0761 21.7994 20.0605 21.762 20.048 21.7212C20.0229 21.6524 20.0009 21.5806 19.979 21.5025C19.9696 21.4712 19.9633 21.4337 19.9539 21.3993C19.932 21.3117 19.9162 21.2179 19.9006 21.1179C19.8944 21.0835 19.8944 21.0459 19.8913 21.0085C19.8881 20.9709 19.8881 20.9303 19.8851 20.8928C19.9132 20.8834 19.9415 20.874 19.9696 20.8677C20.0793 20.8333 20.1451 20.7271 20.1295 20.6145C20.1138 20.502 20.0167 20.4206 19.9038 20.4206L14.3471 20.4209C14.043 20.4084 13.7954 20.1646 13.7954 19.8613L13.7953 19.8613ZM20.1924 31.1009C20.1924 31.4073 19.9448 31.6544 19.6376 31.6544C19.3335 31.6544 19.0827 31.4074 19.0827 31.1009V27.7306C19.0827 27.6056 18.9793 27.5024 18.8539 27.5024C18.7285 27.5024 18.625 27.6056 18.625 27.7306V31.8108C18.625 32.1172 18.3774 32.3642 18.0702 32.3642C17.763 32.3642 17.5154 32.1172 17.5154 31.8108V27.7306C17.5154 27.6056 17.4119 27.5024 17.2865 27.5024C17.1612 27.5024 17.0577 27.6056 17.0577 27.7306V30.6007C17.0577 30.904 16.8101 31.1542 16.5029 31.1542C16.1957 31.1542 15.948 30.9072 15.948 30.6007V29.7128V29.7066V27.7306C15.948 27.6056 15.8446 27.5024 15.7192 27.5024C15.5938 27.5024 15.4903 27.6056 15.4903 27.7306V29.7128V29.716C15.4872 30.0192 15.2396 30.2662 14.9355 30.2662C14.6283 30.2662 14.3777 30.0192 14.3777 29.7128V26.0673C14.2461 24.1884 14.4247 23.1722 14.594 22.6501C14.7914 22.0561 14.8918 21.4871 14.8918 20.9524V20.8742H19.4176C19.4207 20.9118 19.427 20.9399 19.4301 20.9774C19.4395 21.0838 19.4521 21.1869 19.4678 21.2839C19.4772 21.3308 19.4835 21.3777 19.4929 21.4215C19.5148 21.5279 19.5399 21.6247 19.5681 21.7186C19.5806 21.7561 19.59 21.7905 19.6026 21.828C19.6307 21.9093 19.659 21.9843 19.6903 22.0531C19.709 22.0968 19.7279 22.1374 19.7467 22.175C19.7686 22.2156 19.7874 22.2532 19.8093 22.2907C20.0287 22.6878 20.2575 22.8909 20.2763 22.9066C20.2857 22.916 20.295 22.9223 20.3076 22.9285C20.8247 23.2318 21.3983 23.9883 21.9751 25.1202C21.7023 25.2922 21.2635 25.4766 20.6493 25.5141C20.6493 25.508 20.6461 25.5048 20.6431 25.4985C20.6149 25.3859 20.5021 25.3171 20.3923 25.3296C20.2794 25.3453 20.1917 25.4422 20.1917 25.5579L20.1924 31.1009ZM31.6166 27.8808H27.5296C27.4042 27.8808 27.3008 27.984 27.3008 28.109C27.3008 28.2341 27.4042 28.3373 27.5296 28.3373H30.4037C30.7109 28.3373 30.9585 28.5843 30.9585 28.8908C30.9585 29.1972 30.7109 29.4442 30.4037 29.4442H29.5135H29.5103H27.5263C27.4009 29.4442 27.2975 29.5474 27.2975 29.6725C27.2975 29.7976 27.4009 29.9008 27.5263 29.9008H29.5134C29.8174 29.9008 30.065 30.1478 30.065 30.4542C30.065 30.7607 29.8174 31.0077 29.5102 31.0077H25.8588C23.9846 31.139 22.9597 30.9639 22.43 30.7919C21.8251 30.595 21.2703 30.5012 20.7312 30.5012H20.6497L20.65 25.9829C22.0228 25.9048 22.6622 25.1576 22.6904 25.1232C22.6967 25.1138 22.7062 25.1045 22.7092 25.0951C23.0226 24.5699 23.7967 23.9914 24.9533 23.4099C25.1257 23.6756 25.3199 24.1134 25.3669 24.7293C25.3388 24.7386 25.3137 24.748 25.2854 24.7573C25.1758 24.7886 25.1068 24.898 25.1224 25.0105C25.1381 25.1231 25.2352 25.2074 25.3512 25.2074H25.5518C25.5705 25.2136 25.5894 25.2199 25.6114 25.2199H30.5915C30.6134 25.2199 30.6322 25.2138 30.6511 25.2074H30.8987C31.2059 25.2074 31.4535 25.4576 31.4535 25.7639C31.4535 26.0672 31.2059 26.3142 30.9019 26.3173H30.8987L27.5263 26.3175C27.4009 26.3175 27.2974 26.4207 27.2974 26.5458C27.2974 26.6709 27.4009 26.7741 27.5263 26.7741H30.8955H30.9017H31.6163C31.9235 26.7741 32.1711 27.021 32.1711 27.3275C32.1713 27.6338 31.9237 27.8808 31.6164 27.8808L31.6166 27.8808Z" stroke="var(--stroke-0, #0B7AFC)" stroke-width="0.6" mask="url(#path-2-outside-1_0_4)"/>
</g>
</g>
</svg>
