<svg preserveAspectRatio="none" width="100%" height="100%" overflow="visible" style="display: block;" viewBox="0 0 44.6373 44.6373" fill="none" xmlns="http://www.w3.org/2000/svg">
<g id="Frame 2087329838">
<circle id="Ellipse" cx="22.3187" cy="22.3187" r="22.3187" fill="var(--fill-0, #EAF2FF)"/>
<path id="Vector" d="M16.6614 12.7656C18.8917 12.326 21.289 12.7247 23.3274 14.0596L23.6692 14.2939C27.1031 16.7673 28.2483 21.2928 26.4485 25.0498L28.8245 26.6055C29.0214 26.5134 29.2276 26.4429 29.4436 26.3994L29.6829 26.3633C30.2446 26.305 30.8321 26.431 31.3381 26.7627L33.5959 28.2393C34.1742 28.6184 34.5435 29.1978 34.6721 29.8193C34.8008 30.4413 34.6881 31.117 34.302 31.6865C33.9643 32.1844 33.4752 32.5248 32.9319 32.6865L32.6965 32.7441C32.1444 32.8546 31.5509 32.7842 31.0237 32.5107L30.802 32.3809L28.5452 30.9043C27.8071 30.4204 27.4021 29.6042 27.4192 28.7705L25.0051 27.1875C23.6964 28.6141 21.9895 29.5346 20.1604 29.8975C18.0743 30.3096 15.832 29.9896 13.8801 28.8438L13.4944 28.6035C11.4459 27.2638 10.1448 25.243 9.69751 23.0479C9.25024 20.8581 9.65628 18.4945 11.0139 16.4893C12.3716 14.484 14.4308 13.2055 16.6614 12.7656ZM30.7766 27.6074C30.2657 27.2759 29.6094 27.2838 29.1125 27.6006L29.1135 27.6016C28.9405 27.7183 28.8115 27.8316 28.6975 28V28.001C28.2309 28.6729 28.4085 29.6098 29.1018 30.0645L31.3586 31.541C32.049 31.992 32.991 31.8061 33.4485 31.1338L33.5266 31.0059C33.8559 30.3966 33.7 29.6181 33.1565 29.1738L33.0334 29.084L30.7766 27.6074ZM22.7708 14.8994C20.9631 13.716 18.8402 13.3662 16.8645 13.7559C14.899 14.1456 13.0612 15.2791 11.8684 17.0508V17.0518C10.6656 18.8184 10.3047 20.9092 10.7004 22.8457V22.8467C11.0965 24.7882 12.2436 26.5752 14.051 27.7588C15.8586 28.9423 17.9816 29.292 19.9573 28.9023L20.2786 28.833C21.8788 28.4524 23.3668 27.5708 24.4709 26.251C24.8319 25.8109 25.096 25.4218 25.3704 24.9219C26.2327 23.3101 26.4606 21.5033 26.1155 19.8115C25.7194 17.875 24.5729 16.0829 22.7708 14.8994ZM25.6379 26.3975L27.679 27.7344C27.7818 27.5448 27.8454 27.4274 27.9827 27.2627L25.9524 25.9355L25.6379 26.3975ZM19.5188 15.7832C20.1409 15.7832 20.7249 16.2342 20.7249 16.874V17.3203H23.3342C23.891 17.3203 24.2978 17.8027 24.2981 18.335V20.8486C24.2981 21.1841 24.1404 21.5113 23.8606 21.7041V24.5654C23.8606 25.1182 23.4024 25.5654 22.8401 25.5654H14.135C13.5774 25.5654 13.1194 25.1178 13.1194 24.5654V21.7041C12.8393 21.5143 12.6829 21.1826 12.6829 20.8486V18.3359C12.6829 17.8035 13.09 17.3203 13.6467 17.3203H16.2512V16.874C16.2512 16.2344 16.8349 15.7832 17.4573 15.7832H19.5188ZM14.1428 24.5566H22.8381V21.9316L20.2405 22.2393C19.8929 23.5488 18.2064 24.0267 17.2122 23.0439C16.9844 22.82 16.818 22.5434 16.7385 22.2236L14.1428 21.9268V24.5566ZM19.0461 21.2314C18.568 20.7642 17.7153 21.0535 17.7014 21.791C17.6977 22.4439 18.5387 22.828 19.0461 22.3311C19.1846 22.1904 19.2728 22.0083 19.2737 21.8076L19.2444 21.5801C19.213 21.4467 19.143 21.3323 19.0461 21.2324V21.2314ZM13.7004 20.8535C13.7004 20.8587 13.7012 20.8634 13.7014 20.8672L16.7708 21.2197C17.0147 20.5021 17.6998 20 18.4905 20C19.2865 20 19.9711 20.5075 20.2102 21.2305L23.2786 20.8672C23.2788 20.8634 23.2805 20.8586 23.2805 20.8535V18.3408C23.2805 18.3384 23.2796 18.336 23.2795 18.334H13.7004V20.8535ZM17.4622 16.792C17.4123 16.792 17.3591 16.8067 17.3215 16.8291C17.2817 16.853 17.2795 16.8718 17.2795 16.874V17.3203H19.7073V16.874C19.7073 16.8731 19.7052 16.8539 19.6633 16.8291C19.6245 16.8062 19.5705 16.792 19.5237 16.792H17.4622Z" fill="var(--fill-0, #0B7AFC)" stroke="var(--stroke-0, #0B7AFC)" stroke-width="0.2"/>
</g>
</svg>
