<svg preserveAspectRatio="none" width="100%" height="100%" overflow="visible" style="display: block;" viewBox="0 0 44.6373 44.6373" fill="none" xmlns="http://www.w3.org/2000/svg">
<g id="Frame 2087329832">
<circle id="Ellipse" cx="22.3187" cy="22.3187" r="22.3187" fill="var(--fill-0, #EAF2FF)"/>
<path id="Vector" d="M23.8684 12.499C24.0705 12.4065 24.3038 12.475 24.4299 12.6543L25.5637 14.2686L27.4563 14.4971C27.6759 14.5235 27.8392 14.7032 27.8625 14.918L28.0784 16.918L29.6145 18.1152C29.7859 18.2491 29.8432 18.4853 29.761 18.6846L28.9983 20.5322L29.761 22.3809C29.8432 22.58 29.7861 22.8155 29.6145 22.9492L28.0784 24.1455L27.8625 26.1465C27.8393 26.3614 27.6759 26.542 27.4563 26.5684L25.7444 26.7734V32.3301C25.7441 32.7042 25.3259 32.9578 25.0071 32.7139L22.1233 30.5039L19.2395 32.7139C18.9207 32.9577 18.5024 32.7042 18.5022 32.3301V26.7734L16.7903 26.5684C16.5707 26.542 16.4073 26.3614 16.384 26.1465L16.1672 24.1455L14.6321 22.9492C14.4605 22.8155 14.4034 22.58 14.4856 22.3809L15.2473 20.5322L14.4856 18.6846L14.4612 18.6084C14.4192 18.4279 14.482 18.2324 14.6321 18.1152L16.1672 16.918L16.384 14.918C16.4073 14.7032 16.5707 14.5235 16.7903 14.4971L18.6819 14.2686L19.8167 12.6543C19.9428 12.475 20.1761 12.4065 20.3782 12.499L22.1233 13.2969L23.8684 12.499ZM24.8196 24.6689C24.0385 25.2327 23.1052 25.5478 22.1233 25.5479C21.1412 25.5479 20.2072 25.2329 19.426 24.6689V31.3809L21.8479 29.5264L21.9114 29.4854C22.066 29.4032 22.2555 29.4169 22.3987 29.5264L24.8196 31.3799V24.6689ZM22.3108 14.2568C22.1916 14.3113 22.055 14.3113 21.9358 14.2568L20.345 13.5273L19.3108 15C19.2361 15.1065 19.1206 15.1777 18.9905 15.1934L17.261 15.4004L17.0637 17.2295C17.0498 17.3581 16.9848 17.4767 16.8821 17.5566L16.8831 17.5576L15.4768 18.6523L16.176 20.3447C16.213 20.4346 16.2219 20.5337 16.2034 20.6279L16.176 20.7197L15.4768 22.4121L16.8821 23.5068H16.8831C16.9856 23.5868 17.0497 23.7064 17.0637 23.835L17.261 25.6631L18.5022 25.8115V23.7959C17.7857 22.9181 17.3528 21.7776 17.3528 20.5322C17.3529 17.7712 19.4803 15.5176 22.1233 15.5176C24.7662 15.5177 26.8937 17.7712 26.8938 20.5322C26.8938 21.7773 26.4605 22.9172 25.7444 23.7949V25.8115L26.9846 25.6631L27.1829 23.835C27.1969 23.7064 27.261 23.5868 27.3635 23.5068L28.7688 22.4121L28.0706 20.7197C28.0213 20.6001 28.0213 20.4643 28.0706 20.3447L28.7688 18.6523L27.3635 17.5576C27.2608 17.4777 27.1968 17.3581 27.1829 17.2295L26.9846 15.4004L25.2561 15.1934C25.1259 15.1777 25.0105 15.1064 24.9358 15L23.9006 13.5273L22.3108 14.2568ZM22.1233 16.4717C20.0076 16.4717 18.2766 18.2811 18.2766 20.5322C18.2766 22.7833 20.0076 24.5928 22.1233 24.5928C24.2387 24.5926 25.969 22.7832 25.969 20.5322C25.969 18.2812 24.2388 16.4718 22.1233 16.4717ZM23.5159 19.291C23.697 19.1002 23.9949 19.1 24.176 19.291C24.3523 19.4766 24.3521 19.7733 24.176 19.959L22.1663 22.0771C21.9852 22.2679 21.6873 22.2676 21.5061 22.0771L20.3567 20.8672C20.1806 20.6815 20.1807 20.3839 20.3567 20.1982C20.5378 20.0075 20.8357 20.0073 21.0168 20.1982L21.8352 21.0605L23.5159 19.291Z" fill="var(--fill-0, #0B7AFC)" stroke="var(--stroke-0, #0B7AFC)" stroke-width="0.35"/>
</g>
</svg>
