<svg preserveAspectRatio="none" width="100%" height="100%" overflow="visible" style="display: block;" viewBox="0 0 44.6373 44.6373" fill="none" xmlns="http://www.w3.org/2000/svg">
<g id="Frame 2087329847">
<circle id="Ellipse" cx="22.3187" cy="22.3187" r="22.3187" fill="var(--fill-0, #EAF2FF)"/>
<g id="Vector">
<mask id="path-2-outside-1_0_61" maskUnits="userSpaceOnUse" x="13.6232" y="11.7871" width="17" height="22" fill="black">
<rect fill="white" x="13.6232" y="11.7871" width="17" height="22"/>
<path d="M27.8979 28.2456C28.2783 27.9554 28.5756 27.5695 28.7595 27.1269C28.9434 26.6844 29.0074 26.2009 28.945 25.7256L28.8785 25.2162C28.5339 22.5676 26.5435 20.4777 24.0266 19.9292C25.0043 19.3647 25.6827 18.3949 25.8796 17.2808C26.0764 16.1665 25.7714 15.0221 25.0464 14.1551C24.3216 13.288 23.2513 12.7871 22.123 12.7871C20.9947 12.7871 19.9243 13.288 19.1995 14.1551C18.4745 15.0221 18.1696 16.1665 18.3664 17.2808C18.5632 18.3949 19.2417 19.3647 20.2194 19.9292C17.7023 20.4792 15.712 22.5699 15.3675 25.2162L15.301 25.7256C15.2387 26.201 15.303 26.6846 15.4871 27.1271C15.6712 27.5696 15.9688 27.9555 16.3495 28.2456C15.8567 28.3699 15.4195 28.6554 15.1067 29.0569C14.7941 29.4585 14.624 29.953 14.6232 30.4625V30.5018C14.6238 31.1077 14.8641 31.6886 15.2914 32.117C15.7185 32.5454 16.2976 32.7863 16.9018 32.7871H27.3445C27.9488 32.7863 28.5278 32.5454 28.955 32.117C29.3822 31.6886 29.6226 31.1077 29.6232 30.5018V30.4625C29.6225 29.9532 29.4525 29.4588 29.1401 29.0572C28.8276 28.6557 28.3906 28.3702 27.8983 28.2457L27.8979 28.2456ZM20.5889 29.0125H18.7804C18.6925 29.0121 18.6213 28.9409 18.621 28.8526V24.0031C18.6213 23.9148 18.6925 23.8435 18.7804 23.8432H25.4653C25.5531 23.8435 25.6243 23.9148 25.6247 24.0031V28.8522C25.6243 28.9403 25.5531 29.0117 25.4653 29.0119L20.5889 29.0125ZM18.9603 16.6159C18.9603 15.774 19.2937 14.9668 19.8873 14.3717C20.4808 13.7766 21.2858 13.4422 22.1251 13.4424C22.9643 13.4425 23.7691 13.7772 24.3626 14.3725C24.9558 14.968 25.2889 15.7753 25.2886 16.617C25.2883 17.4587 24.9546 18.2658 24.3608 18.8609C23.7671 19.4557 22.962 19.7898 22.1227 19.7893C21.2839 19.788 20.4799 19.4532 19.8868 18.8584C19.2936 18.2635 18.9599 17.4571 18.9586 16.6159L18.9603 16.6159ZM15.9444 25.812L16.0123 25.3044C16.19 23.9612 16.8473 22.7282 17.8624 21.834C18.8775 20.94 20.1816 20.4454 21.5325 20.4421H22.713C24.0639 20.4454 25.368 20.94 26.3832 21.834C27.3982 22.7282 28.0556 23.9612 28.2332 25.3044L28.3009 25.813H28.3011C28.363 26.2861 28.2596 26.7663 28.0084 27.1718C27.757 27.5771 27.3735 27.8826 26.923 28.0363L26.5044 28.1781C26.4382 28.1796 26.3739 28.2016 26.3205 28.2408L26.2764 28.2558V24.0032C26.2761 23.7877 26.1908 23.5812 26.0388 23.4287C25.8869 23.2764 25.6808 23.1907 25.4661 23.1905H18.7804C18.5655 23.1907 18.3596 23.2764 18.2076 23.4287C18.0558 23.5812 17.9703 23.7877 17.9701 24.0032V28.255L17.3226 28.0343V28.0341C16.8723 27.8804 16.489 27.5752 16.2377 27.17C15.9865 26.7649 15.8829 26.2851 15.9445 25.812L15.9444 25.812ZM25.0044 32.1342H16.9014C16.4694 32.1342 16.0552 31.962 15.7498 31.6557C15.4444 31.3494 15.2728 30.934 15.2728 30.501V30.4615C15.2728 30.0285 15.4443 29.6131 15.7498 29.3068C16.0552 29.0005 16.4694 28.8283 16.9014 28.8283H17.5369C17.561 28.8285 17.585 28.8258 17.6086 28.8204L17.9756 28.945C17.9987 29.1428 18.0934 29.3252 18.2418 29.4578C18.39 29.5904 18.5816 29.6637 18.7803 29.664H20.5448L24.4278 30.8117C24.9508 30.9681 25.3791 31.3467 25.5998 31.8473C25.628 31.9103 25.6225 31.9832 25.5852 32.0411C25.5478 32.0991 25.4838 32.1341 25.415 32.1343L25.0044 32.1342ZM28.9718 30.5009C28.9718 30.934 28.8001 31.3494 28.4947 31.6557C28.1895 31.962 27.7751 32.1342 27.3433 32.1342H26.2429C26.2885 31.9417 26.2679 31.7394 26.1843 31.5603C25.8844 30.8935 25.3091 30.391 24.6091 30.1848L22.8463 29.6639H25.4625C25.6611 29.6636 25.8528 29.5903 26.0012 29.4577C26.1494 29.3251 26.244 29.1427 26.2671 28.9449L26.61 28.8284H27.3416V28.8282C27.7734 28.8282 28.1876 29.0004 28.493 29.3067C28.7984 29.613 28.9701 30.0284 28.9701 30.4615L28.9718 30.5009Z"/>
</mask>
<path d="M27.8979 28.2456C28.2783 27.9554 28.5756 27.5695 28.7595 27.1269C28.9434 26.6844 29.0074 26.2009 28.945 25.7256L28.8785 25.2162C28.5339 22.5676 26.5435 20.4777 24.0266 19.9292C25.0043 19.3647 25.6827 18.3949 25.8796 17.2808C26.0764 16.1665 25.7714 15.0221 25.0464 14.1551C24.3216 13.288 23.2513 12.7871 22.123 12.7871C20.9947 12.7871 19.9243 13.288 19.1995 14.1551C18.4745 15.0221 18.1696 16.1665 18.3664 17.2808C18.5632 18.3949 19.2417 19.3647 20.2194 19.9292C17.7023 20.4792 15.712 22.5699 15.3675 25.2162L15.301 25.7256C15.2387 26.201 15.303 26.6846 15.4871 27.1271C15.6712 27.5696 15.9688 27.9555 16.3495 28.2456C15.8567 28.3699 15.4195 28.6554 15.1067 29.0569C14.7941 29.4585 14.624 29.953 14.6232 30.4625V30.5018C14.6238 31.1077 14.8641 31.6886 15.2914 32.117C15.7185 32.5454 16.2976 32.7863 16.9018 32.7871H27.3445C27.9488 32.7863 28.5278 32.5454 28.955 32.117C29.3822 31.6886 29.6226 31.1077 29.6232 30.5018V30.4625C29.6225 29.9532 29.4525 29.4588 29.1401 29.0572C28.8276 28.6557 28.3906 28.3702 27.8983 28.2457L27.8979 28.2456ZM20.5889 29.0125H18.7804C18.6925 29.0121 18.6213 28.9409 18.621 28.8526V24.0031C18.6213 23.9148 18.6925 23.8435 18.7804 23.8432H25.4653C25.5531 23.8435 25.6243 23.9148 25.6247 24.0031V28.8522C25.6243 28.9403 25.5531 29.0117 25.4653 29.0119L20.5889 29.0125ZM18.9603 16.6159C18.9603 15.774 19.2937 14.9668 19.8873 14.3717C20.4808 13.7766 21.2858 13.4422 22.1251 13.4424C22.9643 13.4425 23.7691 13.7772 24.3626 14.3725C24.9558 14.968 25.2889 15.7753 25.2886 16.617C25.2883 17.4587 24.9546 18.2658 24.3608 18.8609C23.7671 19.4557 22.962 19.7898 22.1227 19.7893C21.2839 19.788 20.4799 19.4532 19.8868 18.8584C19.2936 18.2635 18.9599 17.4571 18.9586 16.6159L18.9603 16.6159ZM15.9444 25.812L16.0123 25.3044C16.19 23.9612 16.8473 22.7282 17.8624 21.834C18.8775 20.94 20.1816 20.4454 21.5325 20.4421H22.713C24.0639 20.4454 25.368 20.94 26.3832 21.834C27.3982 22.7282 28.0556 23.9612 28.2332 25.3044L28.3009 25.813H28.3011C28.363 26.2861 28.2596 26.7663 28.0084 27.1718C27.757 27.5771 27.3735 27.8826 26.923 28.0363L26.5044 28.1781C26.4382 28.1796 26.3739 28.2016 26.3205 28.2408L26.2764 28.2558V24.0032C26.2761 23.7877 26.1908 23.5812 26.0388 23.4287C25.8869 23.2764 25.6808 23.1907 25.4661 23.1905H18.7804C18.5655 23.1907 18.3596 23.2764 18.2076 23.4287C18.0558 23.5812 17.9703 23.7877 17.9701 24.0032V28.255L17.3226 28.0343V28.0341C16.8723 27.8804 16.489 27.5752 16.2377 27.17C15.9865 26.7649 15.8829 26.2851 15.9445 25.812L15.9444 25.812ZM25.0044 32.1342H16.9014C16.4694 32.1342 16.0552 31.962 15.7498 31.6557C15.4444 31.3494 15.2728 30.934 15.2728 30.501V30.4615C15.2728 30.0285 15.4443 29.6131 15.7498 29.3068C16.0552 29.0005 16.4694 28.8283 16.9014 28.8283H17.5369C17.561 28.8285 17.585 28.8258 17.6086 28.8204L17.9756 28.945C17.9987 29.1428 18.0934 29.3252 18.2418 29.4578C18.39 29.5904 18.5816 29.6637 18.7803 29.664H20.5448L24.4278 30.8117C24.9508 30.9681 25.3791 31.3467 25.5998 31.8473C25.628 31.9103 25.6225 31.9832 25.5852 32.0411C25.5478 32.0991 25.4838 32.1341 25.415 32.1343L25.0044 32.1342ZM28.9718 30.5009C28.9718 30.934 28.8001 31.3494 28.4947 31.6557C28.1895 31.962 27.7751 32.1342 27.3433 32.1342H26.2429C26.2885 31.9417 26.2679 31.7394 26.1843 31.5603C25.8844 30.8935 25.3091 30.391 24.6091 30.1848L22.8463 29.6639H25.4625C25.6611 29.6636 25.8528 29.5903 26.0012 29.4577C26.1494 29.3251 26.244 29.1427 26.2671 28.9449L26.61 28.8284H27.3416V28.8282C27.7734 28.8282 28.1876 29.0004 28.493 29.3067C28.7984 29.613 28.9701 30.0284 28.9701 30.4615L28.9718 30.5009Z" fill="var(--fill-0, #0B7AFC)"/>
<path d="M27.8979 28.2456C28.2783 27.9554 28.5756 27.5695 28.7595 27.1269C28.9434 26.6844 29.0074 26.2009 28.945 25.7256L28.8785 25.2162C28.5339 22.5676 26.5435 20.4777 24.0266 19.9292C25.0043 19.3647 25.6827 18.3949 25.8796 17.2808C26.0764 16.1665 25.7714 15.0221 25.0464 14.1551C24.3216 13.288 23.2513 12.7871 22.123 12.7871C20.9947 12.7871 19.9243 13.288 19.1995 14.1551C18.4745 15.0221 18.1696 16.1665 18.3664 17.2808C18.5632 18.3949 19.2417 19.3647 20.2194 19.9292C17.7023 20.4792 15.712 22.5699 15.3675 25.2162L15.301 25.7256C15.2387 26.201 15.303 26.6846 15.4871 27.1271C15.6712 27.5696 15.9688 27.9555 16.3495 28.2456C15.8567 28.3699 15.4195 28.6554 15.1067 29.0569C14.7941 29.4585 14.624 29.953 14.6232 30.4625V30.5018C14.6238 31.1077 14.8641 31.6886 15.2914 32.117C15.7185 32.5454 16.2976 32.7863 16.9018 32.7871H27.3445C27.9488 32.7863 28.5278 32.5454 28.955 32.117C29.3822 31.6886 29.6226 31.1077 29.6232 30.5018V30.4625C29.6225 29.9532 29.4525 29.4588 29.1401 29.0572C28.8276 28.6557 28.3906 28.3702 27.8983 28.2457L27.8979 28.2456ZM20.5889 29.0125H18.7804C18.6925 29.0121 18.6213 28.9409 18.621 28.8526V24.0031C18.6213 23.9148 18.6925 23.8435 18.7804 23.8432H25.4653C25.5531 23.8435 25.6243 23.9148 25.6247 24.0031V28.8522C25.6243 28.9403 25.5531 29.0117 25.4653 29.0119L20.5889 29.0125ZM18.9603 16.6159C18.9603 15.774 19.2937 14.9668 19.8873 14.3717C20.4808 13.7766 21.2858 13.4422 22.1251 13.4424C22.9643 13.4425 23.7691 13.7772 24.3626 14.3725C24.9558 14.968 25.2889 15.7753 25.2886 16.617C25.2883 17.4587 24.9546 18.2658 24.3608 18.8609C23.7671 19.4557 22.962 19.7898 22.1227 19.7893C21.2839 19.788 20.4799 19.4532 19.8868 18.8584C19.2936 18.2635 18.9599 17.4571 18.9586 16.6159L18.9603 16.6159ZM15.9444 25.812L16.0123 25.3044C16.19 23.9612 16.8473 22.7282 17.8624 21.834C18.8775 20.94 20.1816 20.4454 21.5325 20.4421H22.713C24.0639 20.4454 25.368 20.94 26.3832 21.834C27.3982 22.7282 28.0556 23.9612 28.2332 25.3044L28.3009 25.813H28.3011C28.363 26.2861 28.2596 26.7663 28.0084 27.1718C27.757 27.5771 27.3735 27.8826 26.923 28.0363L26.5044 28.1781C26.4382 28.1796 26.3739 28.2016 26.3205 28.2408L26.2764 28.2558V24.0032C26.2761 23.7877 26.1908 23.5812 26.0388 23.4287C25.8869 23.2764 25.6808 23.1907 25.4661 23.1905H18.7804C18.5655 23.1907 18.3596 23.2764 18.2076 23.4287C18.0558 23.5812 17.9703 23.7877 17.9701 24.0032V28.255L17.3226 28.0343V28.0341C16.8723 27.8804 16.489 27.5752 16.2377 27.17C15.9865 26.7649 15.8829 26.2851 15.9445 25.812L15.9444 25.812ZM25.0044 32.1342H16.9014C16.4694 32.1342 16.0552 31.962 15.7498 31.6557C15.4444 31.3494 15.2728 30.934 15.2728 30.501V30.4615C15.2728 30.0285 15.4443 29.6131 15.7498 29.3068C16.0552 29.0005 16.4694 28.8283 16.9014 28.8283H17.5369C17.561 28.8285 17.585 28.8258 17.6086 28.8204L17.9756 28.945C17.9987 29.1428 18.0934 29.3252 18.2418 29.4578C18.39 29.5904 18.5816 29.6637 18.7803 29.664H20.5448L24.4278 30.8117C24.9508 30.9681 25.3791 31.3467 25.5998 31.8473C25.628 31.9103 25.6225 31.9832 25.5852 32.0411C25.5478 32.0991 25.4838 32.1341 25.415 32.1343L25.0044 32.1342ZM28.9718 30.5009C28.9718 30.934 28.8001 31.3494 28.4947 31.6557C28.1895 31.962 27.7751 32.1342 27.3433 32.1342H26.2429C26.2885 31.9417 26.2679 31.7394 26.1843 31.5603C25.8844 30.8935 25.3091 30.391 24.6091 30.1848L22.8463 29.6639H25.4625C25.6611 29.6636 25.8528 29.5903 26.0012 29.4577C26.1494 29.3251 26.244 29.1427 26.2671 28.9449L26.61 28.8284H27.3416V28.8282C27.7734 28.8282 28.1876 29.0004 28.493 29.3067C28.7984 29.613 28.9701 30.0284 28.9701 30.4615L28.9718 30.5009Z" stroke="var(--stroke-0, #0B7AFC)" stroke-width="0.5" mask="url(#path-2-outside-1_0_61)"/>
</g>
</g>
</svg>
