<svg preserveAspectRatio="none" width="100%" height="100%" overflow="visible" style="display: block;" viewBox="0 0 44.6373 44.6373" fill="none" xmlns="http://www.w3.org/2000/svg">
<g id="Frame 2087329844">
<circle id="Ellipse" cx="22.3187" cy="22.3187" r="22.3187" fill="var(--fill-0, #EAF2FF)"/>
<path id="Vector" d="M29.5428 32.1923L26.5416 28.6468C26.7024 28.2105 26.8096 27.8287 26.9168 27.3923C26.9704 27.3378 26.9704 27.2287 26.9704 27.1196C27.2919 25.8651 27.5063 24.556 27.5063 23.3015C27.5063 17.847 25.4162 13.4834 22.683 12.9922V11.3013C22.683 10.974 22.4687 10.7559 22.1471 10.7559C21.8256 10.7559 21.6112 10.974 21.6112 11.3013V12.9922C18.878 13.4831 16.7879 17.8467 16.7879 23.3015C16.7879 25.1014 17.2167 27.0105 17.7526 28.6468L14.7515 32.1923C14.5907 32.3559 14.5907 32.5741 14.6979 32.7922C14.8051 33.0104 14.9658 33.1195 15.1802 33.1195H19.4675V33.665C19.4675 34.5922 20.0035 34.7559 20.2714 34.7559H23.9692C24.2908 34.7559 24.7731 34.5922 24.7731 33.665V33.1195H29.0605C29.2748 33.1195 29.4356 33.0104 29.5428 32.7922C29.65 32.5741 29.65 32.3559 29.5428 32.1923ZM22.1471 14.0285C24.4516 14.0285 26.4345 18.283 26.4345 23.3012C26.4345 24.392 26.2737 25.4829 26.0057 26.5738H18.3957H18.2885C18.0206 25.4829 17.8598 24.392 17.8598 23.3012C17.8598 18.283 19.8427 14.0285 22.1471 14.0285ZM18.1813 29.8465C18.5029 30.7738 18.878 31.5374 19.0924 32.0283H16.3056L18.1813 29.8465ZM23.7549 33.6647H20.5394V32.5738V32.5192V32.4647C20.5394 32.4101 20.5394 32.3556 20.4858 32.3556L20.4322 32.301C20.4322 32.2465 20.3786 32.1919 20.3786 32.1374C20.325 32.0829 20.325 31.9738 20.2714 31.8647C19.8963 31.101 19.1996 29.5193 18.6637 27.7193H25.7378C24.9875 30.2829 23.8621 32.3556 23.8621 32.3556C23.8621 32.4101 23.8085 32.4647 23.8085 32.4647V32.5192V32.6283V33.6647H23.7549ZM25.1483 32.0283C25.4162 31.4829 25.7378 30.7192 26.1129 29.8465L27.935 32.0283H25.1483Z" fill="var(--fill-0, #0B7AFC)"/>
</g>
</svg>
