<svg preserveAspectRatio="none" width="100%" height="100%" overflow="visible" style="display: block;" viewBox="0 0 44.6373 44.6373" fill="none" xmlns="http://www.w3.org/2000/svg">
<g id="Frame 2087329846">
<circle id="Ellipse" cx="22.3187" cy="22.3187" r="22.3187" fill="var(--fill-0, #EAF2FF)"/>
<g id="Vector">
<path fill-rule="evenodd" clip-rule="evenodd" d="M29.2916 18.7393H21.7917C20.9291 18.7527 20.1063 19.1025 19.4981 19.7143C18.8763 20.3413 18.5262 21.1875 18.5232 22.0705V23.7705L16.2733 25.4454C16.2733 24.1955 16.2733 23.8267 15.6045 23.8267C15.1751 23.8267 14.7634 23.6561 14.4599 23.3526C14.1563 23.049 13.9858 22.6374 13.9858 22.208V16.1082C13.9874 15.5782 14.1986 15.0705 14.5734 14.6959C14.948 14.3211 15.4557 14.1099 15.9857 14.1083H23.4856C24.0156 14.1099 24.5232 14.3211 24.8979 14.6959C25.2726 15.0705 25.4838 15.5782 25.4855 16.1082C25.4673 16.2959 25.5292 16.4825 25.656 16.6222C25.7826 16.7619 25.9625 16.8415 26.1511 16.8415C26.3396 16.8415 26.5195 16.7619 26.6463 16.6222C26.7729 16.4825 26.8349 16.2959 26.8167 16.1082C26.8169 15.2138 26.4573 14.3569 25.819 13.7304C25.1807 13.1037 24.3172 12.7603 23.423 12.7769H15.9231C15.045 12.7853 14.2058 13.1398 13.5879 13.7637C12.9699 14.3875 12.6232 15.2302 12.6232 16.1082V22.208C12.6243 22.875 12.8509 23.5221 13.2662 24.0439C13.6814 24.5659 14.261 24.932 14.9106 25.0829V25.4454C14.9089 25.6927 14.9765 25.9357 15.1057 26.1468C15.235 26.3577 15.4207 26.5283 15.642 26.6391C15.836 26.7358 16.0502 26.7851 16.267 26.7829C16.5438 26.7807 16.8128 26.6911 17.0357 26.5266L19.5356 24.6516C19.7004 24.5238 19.7991 24.3289 19.8043 24.1205V22.0705C19.8085 21.5411 20.0195 21.0343 20.3917 20.658C20.7665 20.2834 21.2744 20.0721 21.8042 20.0706H29.3041C29.834 20.0721 30.3418 20.2834 30.7164 20.6582C31.0912 21.0328 31.3025 21.5407 31.304 22.0705V28.1702C31.3025 28.599 31.1314 29.0098 30.8282 29.3129C30.5249 29.6161 30.1141 29.7872 29.6853 29.789C29.5086 29.7872 29.3385 29.8563 29.2129 29.9807C29.0872 30.105 29.0166 30.2745 29.0166 30.4514V31.4452L26.8729 29.9077C26.7582 29.8312 26.6234 29.7897 26.4854 29.7889H21.8232C21.2933 29.7872 20.7855 29.576 20.4109 29.2013C20.0362 28.8266 19.8249 28.3188 19.8233 27.7889V27.4451C19.8415 27.2574 19.7796 27.0708 19.6529 26.9312C19.5261 26.7915 19.3462 26.7119 19.1578 26.7119C18.9691 26.7119 18.7893 26.7915 18.6624 26.9312C18.5358 27.0708 18.4738 27.2574 18.4922 27.4451V27.7765C18.4922 28.6599 18.8431 29.5072 19.4677 30.1319C20.0925 30.7567 20.9397 31.1076 21.8233 31.1076H26.2609L28.2482 32.5263C28.4731 32.6905 28.7448 32.7781 29.0232 32.7763C29.2406 32.7776 29.4551 32.7261 29.6482 32.6263C29.8651 32.5147 30.0471 32.3452 30.1739 32.1368C30.3007 31.9283 30.3674 31.689 30.367 31.445V31.0449C31.0109 30.888 31.5833 30.5193 31.9924 29.998C32.4016 29.4766 32.6238 28.8328 32.6232 28.1702V22.0704C32.6232 21.187 32.2721 20.3397 31.6475 19.715C31.0227 19.0902 30.1752 18.7393 29.2916 18.7393Z" fill="var(--fill-0, #0B7AFC)"/>
<path fill-rule="evenodd" clip-rule="evenodd" d="M23.29 25.6122H25.2899V27.6122L27.9523 24.2748H25.9523V22.2749L23.29 25.6122Z" fill="var(--fill-0, #0B7AFC)"/>
</g>
</g>
</svg>
