<svg preserveAspectRatio="none" width="100%" height="100%" overflow="visible" style="display: block;" viewBox="0 0 44.6373 44.6373" fill="none" xmlns="http://www.w3.org/2000/svg">
<g id="Frame 2087329849">
<circle id="Ellipse" cx="22.3187" cy="22.3187" r="22.3187" fill="var(--fill-0, #EAF2FF)"/>
<path id="Vector" d="M22.6554 26.5244C22.4061 26.5245 22.1897 26.7419 22.1896 26.9912V29.248H19.9425C19.8109 29.248 19.6926 29.2946 19.6075 29.3799C19.5225 29.4653 19.4767 29.5838 19.4767 29.7158C19.4767 29.8283 19.5299 29.9621 19.6134 30.0459C19.6969 30.1296 19.8302 30.1836 19.9425 30.1836H22.1896V32.4404C22.1897 32.5529 22.2429 32.6868 22.3263 32.7705C22.4098 32.8542 22.5431 32.9071 22.6554 32.9072C22.7871 32.9072 22.9053 32.8608 22.9904 32.7754C23.0753 32.6901 23.1221 32.5722 23.1222 32.4404V30.1836H25.3693C25.5008 30.1835 25.6182 30.1361 25.7032 30.0508C25.7882 29.9654 25.8351 29.8477 25.8351 29.7158C25.8351 29.584 25.7882 29.4662 25.7032 29.3809C25.6183 29.2955 25.5009 29.2481 25.3693 29.248H23.1212V26.9912C23.1212 26.8595 23.0752 26.7416 22.9904 26.6562C22.9053 26.5708 22.7872 26.5244 22.6554 26.5244ZM22.2892 12.708C20.4674 12.7082 19.0021 14.2022 19.0021 16.0078V19.1641C19.0021 19.7163 19.2387 20.2255 19.6271 20.5693V23.1895C18.9872 23.5056 17.2755 24.4403 15.5948 25.752L15.2491 26.0273L15.2472 26.0293C14.7959 26.4146 14.5236 26.9606 14.5236 27.5752V29.7373C14.5236 29.9867 14.74 30.2051 14.9894 30.2051C15.2387 30.205 15.4552 29.9867 15.4552 29.7373V27.5752C15.4552 27.2979 15.5612 27.0366 15.7452 26.8438L15.8282 26.7656C17.7358 25.1947 19.8163 24.1391 20.2023 23.9453C20.4466 23.8226 20.5802 23.6183 20.5802 23.3809V20.332C20.5802 20.1659 20.4961 20.0256 20.3595 19.9434C20.0895 19.7677 19.9347 19.4763 19.9347 19.1426V16.0088C19.9555 14.7001 21.0102 13.6427 22.3107 13.6426H22.9786C24.3017 13.6427 25.3546 14.7011 25.3546 16.0078V19.1641C25.3546 19.4754 25.2001 19.7708 24.923 19.9697H24.924C24.7909 20.0524 24.7092 20.1899 24.7091 20.3535V23.4023C24.7091 23.6349 24.8382 23.8428 25.0441 23.9463C25.4308 24.1404 27.5108 25.196 29.4181 26.7666L29.4191 26.7656C29.6537 26.9625 29.7911 27.2587 29.7911 27.5752V29.7373C29.7911 29.9867 30.0076 30.205 30.257 30.2051C30.5063 30.2051 30.7228 29.9867 30.7228 29.7373V27.5752C30.7227 26.9828 30.4511 26.415 29.9991 26.0293L29.9982 26.0283C28.2114 24.551 26.3026 23.526 25.6193 23.1895V20.5684C26.0279 20.2041 26.2443 19.6951 26.2443 19.1641V16.0078C26.2443 14.1795 24.7566 12.708 22.9572 12.708H22.2892Z" fill="var(--fill-0, #0B7AFC)" stroke="var(--stroke-0, #0B7AFC)" stroke-width="0.2"/>
</g>
</svg>
