<svg preserveAspectRatio="none" width="100%" height="100%" overflow="visible" style="display: block;" viewBox="0 0 44.6373 44.6373" fill="none" xmlns="http://www.w3.org/2000/svg">
<g id="Frame 2087329841">
<circle id="Ellipse" cx="22.3187" cy="22.3187" r="22.3187" fill="var(--fill-0, #EAF2FF)"/>
<g id="Vector">
<mask id="path-2-outside-1_0_22" maskUnits="userSpaceOnUse" x="12.6232" y="11.7256" width="19" height="22" fill="black">
<rect fill="white" x="12.6232" y="11.7256" width="19" height="22"/>
<path fill-rule="evenodd" clip-rule="evenodd" d="M16.8621 13.739H17.1564V13.2452C17.1564 12.9583 17.3745 12.7256 17.6445 12.7256C17.9142 12.7256 18.1322 12.9583 18.1322 13.2452V13.739H23.6649V13.2452C23.6649 12.9583 23.8829 12.7256 24.1525 12.7256C24.4226 12.7256 24.6413 12.9583 24.6413 13.2452V13.739H24.935C26.7208 13.739 28.1741 15.2859 28.1741 17.1869V25.8452C28.1741 25.8744 28.1666 25.9012 28.166 25.9309C29.527 25.9743 30.6232 27.1599 30.6232 28.6193C30.6232 30.106 29.4867 31.3159 28.0892 31.3159H27.2455L25.1719 32.7256V31.3159H24.4709C23.2937 31.3159 22.3098 30.4524 22.0268 29.2926H16.8623C15.0765 29.2926 13.6232 27.7458 13.6232 25.8452V17.1869C13.6232 15.2859 15.0766 13.739 16.8623 13.739L16.8621 13.739ZM29.8098 28.6191C29.8098 27.6096 29.0381 26.7877 28.089 26.7877H28.0348C27.6943 28.0532 26.7001 29.0186 25.46 29.2358L27.2459 30.45H28.089C29.0381 30.45 29.8098 29.6286 29.8098 28.6191ZM27.1874 26.7877H24.4708C23.5841 26.7877 22.8607 27.5085 22.7688 28.4265H24.9349C25.959 28.4265 26.8318 27.745 27.1874 26.7877ZM24.4708 30.45H25.1718V29.2672C25.0922 29.273 25.016 29.2925 24.9349 29.2925H22.8746C23.1275 29.9686 23.7463 30.45 24.4708 30.45ZM16.8621 28.4265H21.9553C21.9983 27.7954 22.2393 27.225 22.6217 26.7877H22.0255V25.9223H23.0256V26.4092C23.4365 26.104 23.9332 25.9223 24.4708 25.9223H27.3533C27.3539 25.8959 27.3604 25.8713 27.3604 25.8451V19.1745H14.4366V25.8451C14.4366 27.2684 15.5247 28.4265 16.862 28.4265L16.8621 28.4265ZM14.4366 18.3091H27.3605V17.187C27.3605 15.7632 26.2723 14.6056 24.935 14.6056H24.6412V15.2579C24.6412 15.5448 24.4226 15.7768 24.1525 15.7768C23.8829 15.7768 23.6648 15.5448 23.6648 15.2579V14.6056H18.1322V15.2579C18.1322 15.5448 17.9142 15.7768 17.6445 15.7768C17.3744 15.7768 17.1564 15.5448 17.1564 15.2579V14.6056H16.862C15.5247 14.6056 14.4365 15.7632 14.4365 17.187L14.4366 18.3091ZM26.2798 20.2583H25.2798V21.1242H26.2798V20.2583ZM24.6531 20.2583H23.653V21.1242H24.6531V20.2583ZM23.0257 20.2583H22.0256V21.1242H23.0257V20.2583ZM21.3989 20.2583H20.3983V21.1242H21.3989V20.2583ZM19.7715 20.2583H18.7715V21.1242H19.7715V20.2583ZM18.1447 20.2583H17.1447V21.1242H18.1447V20.2583ZM16.5174 20.2583H15.5173V21.1242H16.5174V20.2583ZM26.2799 22.1463H25.2799V23.0122H26.2799V22.1463ZM24.6533 22.1463H23.6532V23.0122H24.6533V22.1463ZM23.0258 22.1463H22.0258V23.0122H23.0258V22.1463ZM21.399 22.1463H20.3985V23.0122H21.399V22.1463ZM19.7716 22.1463H18.7716V23.0122H19.7716V22.1463ZM18.1448 22.1463H17.1448V23.0122H18.1448V22.1463ZM16.5175 22.1463H15.5175V23.0122H16.5175V22.1463ZM26.2801 24.0337H25.2801V24.8997H26.2801V24.0337ZM24.6534 24.0337H23.6533V24.8997H24.6534V24.0337ZM23.026 24.0337H22.0259V24.8997H23.026V24.0337ZM21.3992 24.0337H20.3986V24.8997H21.3992V24.0337ZM19.7718 24.0337H18.7718V24.8997H19.7718V24.0337ZM18.145 24.0337H17.145V24.8997H18.145V24.0337ZM16.5177 24.0337H15.5176V24.8997H16.5177V24.0337ZM21.3991 25.9223H20.3986V26.7882H21.3991V25.9223ZM19.7717 25.9223H18.7718V26.7882H19.7717V25.9223ZM18.1449 25.9223H17.1449V26.7882H18.1449V25.9223ZM16.5177 25.9223H15.5176V26.7882H16.5177V25.9223Z"/>
</mask>
<path fill-rule="evenodd" clip-rule="evenodd" d="M16.8621 13.739H17.1564V13.2452C17.1564 12.9583 17.3745 12.7256 17.6445 12.7256C17.9142 12.7256 18.1322 12.9583 18.1322 13.2452V13.739H23.6649V13.2452C23.6649 12.9583 23.8829 12.7256 24.1525 12.7256C24.4226 12.7256 24.6413 12.9583 24.6413 13.2452V13.739H24.935C26.7208 13.739 28.1741 15.2859 28.1741 17.1869V25.8452C28.1741 25.8744 28.1666 25.9012 28.166 25.9309C29.527 25.9743 30.6232 27.1599 30.6232 28.6193C30.6232 30.106 29.4867 31.3159 28.0892 31.3159H27.2455L25.1719 32.7256V31.3159H24.4709C23.2937 31.3159 22.3098 30.4524 22.0268 29.2926H16.8623C15.0765 29.2926 13.6232 27.7458 13.6232 25.8452V17.1869C13.6232 15.2859 15.0766 13.739 16.8623 13.739L16.8621 13.739ZM29.8098 28.6191C29.8098 27.6096 29.0381 26.7877 28.089 26.7877H28.0348C27.6943 28.0532 26.7001 29.0186 25.46 29.2358L27.2459 30.45H28.089C29.0381 30.45 29.8098 29.6286 29.8098 28.6191ZM27.1874 26.7877H24.4708C23.5841 26.7877 22.8607 27.5085 22.7688 28.4265H24.9349C25.959 28.4265 26.8318 27.745 27.1874 26.7877ZM24.4708 30.45H25.1718V29.2672C25.0922 29.273 25.016 29.2925 24.9349 29.2925H22.8746C23.1275 29.9686 23.7463 30.45 24.4708 30.45ZM16.8621 28.4265H21.9553C21.9983 27.7954 22.2393 27.225 22.6217 26.7877H22.0255V25.9223H23.0256V26.4092C23.4365 26.104 23.9332 25.9223 24.4708 25.9223H27.3533C27.3539 25.8959 27.3604 25.8713 27.3604 25.8451V19.1745H14.4366V25.8451C14.4366 27.2684 15.5247 28.4265 16.862 28.4265L16.8621 28.4265ZM14.4366 18.3091H27.3605V17.187C27.3605 15.7632 26.2723 14.6056 24.935 14.6056H24.6412V15.2579C24.6412 15.5448 24.4226 15.7768 24.1525 15.7768C23.8829 15.7768 23.6648 15.5448 23.6648 15.2579V14.6056H18.1322V15.2579C18.1322 15.5448 17.9142 15.7768 17.6445 15.7768C17.3744 15.7768 17.1564 15.5448 17.1564 15.2579V14.6056H16.862C15.5247 14.6056 14.4365 15.7632 14.4365 17.187L14.4366 18.3091ZM26.2798 20.2583H25.2798V21.1242H26.2798V20.2583ZM24.6531 20.2583H23.653V21.1242H24.6531V20.2583ZM23.0257 20.2583H22.0256V21.1242H23.0257V20.2583ZM21.3989 20.2583H20.3983V21.1242H21.3989V20.2583ZM19.7715 20.2583H18.7715V21.1242H19.7715V20.2583ZM18.1447 20.2583H17.1447V21.1242H18.1447V20.2583ZM16.5174 20.2583H15.5173V21.1242H16.5174V20.2583ZM26.2799 22.1463H25.2799V23.0122H26.2799V22.1463ZM24.6533 22.1463H23.6532V23.0122H24.6533V22.1463ZM23.0258 22.1463H22.0258V23.0122H23.0258V22.1463ZM21.399 22.1463H20.3985V23.0122H21.399V22.1463ZM19.7716 22.1463H18.7716V23.0122H19.7716V22.1463ZM18.1448 22.1463H17.1448V23.0122H18.1448V22.1463ZM16.5175 22.1463H15.5175V23.0122H16.5175V22.1463ZM26.2801 24.0337H25.2801V24.8997H26.2801V24.0337ZM24.6534 24.0337H23.6533V24.8997H24.6534V24.0337ZM23.026 24.0337H22.0259V24.8997H23.026V24.0337ZM21.3992 24.0337H20.3986V24.8997H21.3992V24.0337ZM19.7718 24.0337H18.7718V24.8997H19.7718V24.0337ZM18.145 24.0337H17.145V24.8997H18.145V24.0337ZM16.5177 24.0337H15.5176V24.8997H16.5177V24.0337ZM21.3991 25.9223H20.3986V26.7882H21.3991V25.9223ZM19.7717 25.9223H18.7718V26.7882H19.7717V25.9223ZM18.1449 25.9223H17.1449V26.7882H18.1449V25.9223ZM16.5177 25.9223H15.5176V26.7882H16.5177V25.9223Z" fill="var(--fill-0, #0B7AFC)"/>
<path fill-rule="evenodd" clip-rule="evenodd" d="M16.8621 13.739H17.1564V13.2452C17.1564 12.9583 17.3745 12.7256 17.6445 12.7256C17.9142 12.7256 18.1322 12.9583 18.1322 13.2452V13.739H23.6649V13.2452C23.6649 12.9583 23.8829 12.7256 24.1525 12.7256C24.4226 12.7256 24.6413 12.9583 24.6413 13.2452V13.739H24.935C26.7208 13.739 28.1741 15.2859 28.1741 17.1869V25.8452C28.1741 25.8744 28.1666 25.9012 28.166 25.9309C29.527 25.9743 30.6232 27.1599 30.6232 28.6193C30.6232 30.106 29.4867 31.3159 28.0892 31.3159H27.2455L25.1719 32.7256V31.3159H24.4709C23.2937 31.3159 22.3098 30.4524 22.0268 29.2926H16.8623C15.0765 29.2926 13.6232 27.7458 13.6232 25.8452V17.1869C13.6232 15.2859 15.0766 13.739 16.8623 13.739L16.8621 13.739ZM29.8098 28.6191C29.8098 27.6096 29.0381 26.7877 28.089 26.7877H28.0348C27.6943 28.0532 26.7001 29.0186 25.46 29.2358L27.2459 30.45H28.089C29.0381 30.45 29.8098 29.6286 29.8098 28.6191ZM27.1874 26.7877H24.4708C23.5841 26.7877 22.8607 27.5085 22.7688 28.4265H24.9349C25.959 28.4265 26.8318 27.745 27.1874 26.7877ZM24.4708 30.45H25.1718V29.2672C25.0922 29.273 25.016 29.2925 24.9349 29.2925H22.8746C23.1275 29.9686 23.7463 30.45 24.4708 30.45ZM16.8621 28.4265H21.9553C21.9983 27.7954 22.2393 27.225 22.6217 26.7877H22.0255V25.9223H23.0256V26.4092C23.4365 26.104 23.9332 25.9223 24.4708 25.9223H27.3533C27.3539 25.8959 27.3604 25.8713 27.3604 25.8451V19.1745H14.4366V25.8451C14.4366 27.2684 15.5247 28.4265 16.862 28.4265L16.8621 28.4265ZM14.4366 18.3091H27.3605V17.187C27.3605 15.7632 26.2723 14.6056 24.935 14.6056H24.6412V15.2579C24.6412 15.5448 24.4226 15.7768 24.1525 15.7768C23.8829 15.7768 23.6648 15.5448 23.6648 15.2579V14.6056H18.1322V15.2579C18.1322 15.5448 17.9142 15.7768 17.6445 15.7768C17.3744 15.7768 17.1564 15.5448 17.1564 15.2579V14.6056H16.862C15.5247 14.6056 14.4365 15.7632 14.4365 17.187L14.4366 18.3091ZM26.2798 20.2583H25.2798V21.1242H26.2798V20.2583ZM24.6531 20.2583H23.653V21.1242H24.6531V20.2583ZM23.0257 20.2583H22.0256V21.1242H23.0257V20.2583ZM21.3989 20.2583H20.3983V21.1242H21.3989V20.2583ZM19.7715 20.2583H18.7715V21.1242H19.7715V20.2583ZM18.1447 20.2583H17.1447V21.1242H18.1447V20.2583ZM16.5174 20.2583H15.5173V21.1242H16.5174V20.2583ZM26.2799 22.1463H25.2799V23.0122H26.2799V22.1463ZM24.6533 22.1463H23.6532V23.0122H24.6533V22.1463ZM23.0258 22.1463H22.0258V23.0122H23.0258V22.1463ZM21.399 22.1463H20.3985V23.0122H21.399V22.1463ZM19.7716 22.1463H18.7716V23.0122H19.7716V22.1463ZM18.1448 22.1463H17.1448V23.0122H18.1448V22.1463ZM16.5175 22.1463H15.5175V23.0122H16.5175V22.1463ZM26.2801 24.0337H25.2801V24.8997H26.2801V24.0337ZM24.6534 24.0337H23.6533V24.8997H24.6534V24.0337ZM23.026 24.0337H22.0259V24.8997H23.026V24.0337ZM21.3992 24.0337H20.3986V24.8997H21.3992V24.0337ZM19.7718 24.0337H18.7718V24.8997H19.7718V24.0337ZM18.145 24.0337H17.145V24.8997H18.145V24.0337ZM16.5177 24.0337H15.5176V24.8997H16.5177V24.0337ZM21.3991 25.9223H20.3986V26.7882H21.3991V25.9223ZM19.7717 25.9223H18.7718V26.7882H19.7717V25.9223ZM18.1449 25.9223H17.1449V26.7882H18.1449V25.9223ZM16.5177 25.9223H15.5176V26.7882H16.5177V25.9223Z" stroke="var(--stroke-0, #0B7AFC)" stroke-width="0.4" mask="url(#path-2-outside-1_0_22)"/>
</g>
</g>
</svg>
