<svg preserveAspectRatio="none" width="100%" height="100%" overflow="visible" style="display: block;" viewBox="0 0 44.6373 44.6373" fill="none" xmlns="http://www.w3.org/2000/svg">
<g id="Frame 2087329836">
<circle id="Ellipse" cx="22.3187" cy="22.3187" r="22.3187" fill="var(--fill-0, #EAF2FF)"/>
<path id="Vector" d="M23.9684 17.0202V14.6031M19.9327 17.0202L19.9327 14.6031M30.6232 29.1033C30.5944 29.132 30.5944 29.132 30.6232 29.1033ZM30.6232 29.1033C30.1621 29.5637 29.7012 29.7939 29.1249 29.6788C28.5776 29.5638 28.203 29.0169 27.8861 28.499C27.2523 27.4631 26.2149 26.7148 25.2066 27.3191C24.1982 27.9521 23.7948 29.6788 22.527 29.6788C21.4898 29.6788 20.7406 28.614 20.0779 27.722C19.6745 27.1753 19.0982 26.8875 18.4932 27.0601C17.3983 27.3766 17.1389 29.2471 16.1305 29.5636C15.9001 29.6499 15.6695 29.6787 15.4103 29.6787C14.4306 29.6787 13.6239 29.0743 13.6239 28.2974M27.7996 20.9331C27.7132 20.7893 27.598 20.6453 27.5115 20.5015C26.8777 19.4657 25.8403 18.7174 24.8319 19.3217C23.8235 19.9547 23.4202 21.6814 22.1524 21.6814C21.1152 21.6814 20.366 20.6166 19.7033 19.7245C19.2999 19.1779 18.7236 18.8901 18.1186 19.0626C17.2254 19.3217 16.8797 20.5877 16.2458 21.2496M13.6233 32.6738L30.5936 32.6738V25.5948C30.5936 25.1056 30.219 24.7315 29.7292 24.7315L14.4876 24.7315C13.9978 24.7315 13.6232 25.1056 13.6232 25.5948L13.6233 32.6738ZM16.246 24.7324L27.7996 24.7324V17.9124C27.7996 17.4232 27.425 17.049 26.9352 17.049L17.1103 17.049C16.6205 17.049 16.2459 17.4232 16.2459 17.9124L16.246 24.7324ZM23.881 14.602C24.2843 14.6307 24.486 14.2278 24.3995 13.825C24.3131 13.4221 23.9385 12.6738 23.9385 12.6738C23.9385 12.6738 23.4487 13.7386 23.4774 13.9111C23.5064 14.4005 23.6793 14.602 23.881 14.602ZM19.8477 14.602C20.2511 14.6307 20.4528 14.2278 20.3663 13.825C20.2798 13.4221 19.9052 12.6738 19.9052 12.6738C19.9052 12.6738 19.4154 13.7386 19.4442 13.9111C19.4731 14.4005 19.646 14.602 19.8477 14.602Z" stroke="var(--stroke-0, #0B7AFC)" stroke-width="1.18645" stroke-miterlimit="10" stroke-linecap="round" stroke-linejoin="round"/>
</g>
</svg>
