<svg preserveAspectRatio="none" width="100%" height="100%" overflow="visible" style="display: block;" viewBox="0 0 44.6373 44.6373" fill="none" xmlns="http://www.w3.org/2000/svg">
<g id="Frame 2087329848">
<circle id="Ellipse" cx="22.3187" cy="22.3187" r="22.3187" fill="var(--fill-0, #EAF2FF)"/>
<g id="Vector">
<mask id="path-2-inside-1_0_7" fill="white">
<path d="M15.8392 17.7969C17.2176 17.7969 18.3391 16.6753 18.3391 15.297C18.3391 13.9184 17.2176 12.7969 15.8392 12.7969C14.4609 12.7969 13.3394 13.9184 13.3394 15.297C13.3394 16.6753 14.4609 17.7969 15.8392 17.7969ZM15.8392 14.2254C16.4299 14.2254 16.9105 14.706 16.9105 15.2968C16.9107 15.8876 16.4299 16.3684 15.8392 16.3684C15.2486 16.3684 14.7678 15.8875 14.7678 15.297C14.7678 14.7062 15.2486 14.2254 15.8392 14.2254Z"/>
<path d="M15.8373 18.5114C14.0651 18.5114 12.6233 19.9533 12.6233 21.7258V22.7972C12.6233 23.192 12.9428 23.5115 13.3376 23.5115H18.3373C18.7321 23.5115 19.0516 23.192 19.0516 22.7972V21.7258C19.0515 19.9533 17.6096 18.5114 15.8373 18.5114ZM17.6229 22.0829H14.0517V21.7258C14.0517 20.7407 14.8523 19.94 15.8373 19.94C16.8223 19.94 17.6229 20.7407 17.6229 21.7258V22.0829Z"/>
<path d="M29.4085 17.7969C30.7868 17.7969 31.9083 16.6753 31.9083 15.297C31.9083 13.9184 30.7868 12.7969 29.4085 12.7969C28.0301 12.7969 26.9086 13.9184 26.9086 15.297C26.9086 16.6753 28.0301 17.7969 29.4085 17.7969ZM29.4085 14.2254C29.9993 14.2254 30.4798 14.706 30.4798 15.2968C30.4798 15.8876 29.999 16.3684 29.4085 16.3684C28.8178 16.3684 28.337 15.8875 28.337 15.297C28.337 14.7062 28.8178 14.2254 29.4085 14.2254Z"/>
<path d="M29.4092 18.5114C27.6368 18.5114 26.195 19.9533 26.195 21.7258V22.7972C26.195 23.192 26.5145 23.5115 26.9093 23.5115H31.909C32.3038 23.5115 32.6233 23.192 32.6233 22.7972V21.7258C32.6231 19.9533 31.1814 18.5114 29.4092 18.5114ZM31.1948 22.0829H27.6235V21.7258C27.6235 20.7407 28.4242 19.94 29.4092 19.94C30.3942 19.94 31.1948 20.7407 31.1948 21.7258V22.0829Z"/>
<path d="M28.3372 29.9385C28.3372 30.333 28.0175 30.6529 27.6229 30.6529C27.2285 30.6529 26.9086 30.3332 26.9086 29.9385C26.9086 29.5441 27.2283 29.2242 27.6229 29.2242C28.0175 29.2244 28.3372 29.5441 28.3372 29.9385Z"/>
<path d="M30.4781 29.9385C30.4781 30.333 30.1584 30.6529 29.7638 30.6529C29.3694 30.6529 29.0495 30.3332 29.0495 29.9385C29.0495 29.5441 29.3692 29.2242 29.7638 29.2242C30.1582 29.2244 30.4781 29.5441 30.4781 29.9385Z"/>
<path d="M30.4781 27.7975C30.4781 28.1919 30.1584 28.5118 29.7638 28.5118C29.3694 28.5118 29.0495 28.1921 29.0495 27.7975C29.0495 27.403 29.3692 27.0831 29.7638 27.0831C30.1582 27.0831 30.4781 27.403 30.4781 27.7975Z"/>
<path d="M30.4781 25.6539C30.4781 26.0484 30.1584 26.3682 29.7638 26.3682C29.3694 26.3682 29.0495 26.0485 29.0495 25.6539C29.0495 25.2595 29.3692 24.9396 29.7638 24.9396C30.1582 24.9396 30.4781 25.2593 30.4781 25.6539Z"/>
<path d="M18.3387 29.9385C18.3387 30.333 18.019 30.6529 17.6244 30.6529C17.23 30.6529 16.9101 30.3332 16.9101 29.9385C16.9101 29.5441 17.2298 29.2242 17.6244 29.2242C18.019 29.2244 18.3387 29.5441 18.3387 29.9385Z"/>
<path d="M16.1953 29.9385C16.1953 30.333 15.8756 30.6529 15.481 30.6529C15.0866 30.6529 14.7667 30.3332 14.7667 29.9385C14.7667 29.5441 15.0864 29.2242 15.481 29.2242C15.8754 29.2244 16.1953 29.5441 16.1953 29.9385Z"/>
<path d="M16.1953 27.7975C16.1953 28.1919 15.8756 28.5118 15.481 28.5118C15.0866 28.5118 14.7667 28.1921 14.7667 27.7975C14.7667 27.403 15.0864 27.0831 15.481 27.0831C15.8754 27.0831 16.1953 27.403 16.1953 27.7975Z"/>
<path d="M16.1953 25.6539C16.1953 26.0484 15.8756 26.3682 15.481 26.3682C15.0866 26.3682 14.7667 26.0485 14.7667 25.6539C14.7667 25.2595 15.0864 24.9396 15.481 24.9396C15.8754 24.9396 16.1953 25.2593 16.1953 25.6539Z"/>
<path d="M24.7643 27.7967V27.0824C24.7643 25.9007 23.8033 24.9396 22.6216 24.9396C21.44 24.9396 20.479 25.9007 20.479 27.0824V27.7967C20.0842 27.7967 19.7647 28.1163 19.7647 28.5111V32.0825C19.7647 32.4773 20.0842 32.7969 20.479 32.7969H24.7645C25.1592 32.7969 25.4788 32.4773 25.4788 32.0825L25.4786 28.5109C25.4786 28.1161 25.1591 27.7967 24.7643 27.7967ZM21.9074 27.0824C21.9074 26.6883 22.2275 26.368 22.6216 26.368C23.0158 26.368 23.3359 26.6882 23.3359 27.0824V27.7967H21.9074V27.0824ZM24.0502 31.3682H21.1931V29.2253H24.05L24.0502 31.3682Z"/>
<path d="M25.9833 18.3031L24.5558 19.7307C24.2767 20.0097 23.8249 20.0097 23.5459 19.7307C23.2668 19.4517 23.2669 18.9998 23.5459 18.7207L23.7551 18.5113H19.7653C19.3706 18.5113 19.0511 18.1918 19.0511 17.797C19.0511 17.4022 19.3706 17.0826 19.7653 17.0826H23.7551L23.5459 16.8734C23.2669 16.5943 23.2669 16.1424 23.5459 15.8634C23.8249 15.5844 24.2767 15.5844 24.5558 15.8634L25.9833 17.2911C26.264 17.5707 26.2598 18.0275 25.9833 18.3031Z"/>
</mask>
<path d="M15.8392 17.7969C17.2176 17.7969 18.3391 16.6753 18.3391 15.297C18.3391 13.9184 17.2176 12.7969 15.8392 12.7969C14.4609 12.7969 13.3394 13.9184 13.3394 15.297C13.3394 16.6753 14.4609 17.7969 15.8392 17.7969ZM15.8392 14.2254C16.4299 14.2254 16.9105 14.706 16.9105 15.2968C16.9107 15.8876 16.4299 16.3684 15.8392 16.3684C15.2486 16.3684 14.7678 15.8875 14.7678 15.297C14.7678 14.7062 15.2486 14.2254 15.8392 14.2254Z" fill="var(--fill-0, #0B7AFC)"/>
<path d="M15.8373 18.5114C14.0651 18.5114 12.6233 19.9533 12.6233 21.7258V22.7972C12.6233 23.192 12.9428 23.5115 13.3376 23.5115H18.3373C18.7321 23.5115 19.0516 23.192 19.0516 22.7972V21.7258C19.0515 19.9533 17.6096 18.5114 15.8373 18.5114ZM17.6229 22.0829H14.0517V21.7258C14.0517 20.7407 14.8523 19.94 15.8373 19.94C16.8223 19.94 17.6229 20.7407 17.6229 21.7258V22.0829Z" fill="var(--fill-0, #0B7AFC)"/>
<path d="M29.4085 17.7969C30.7868 17.7969 31.9083 16.6753 31.9083 15.297C31.9083 13.9184 30.7868 12.7969 29.4085 12.7969C28.0301 12.7969 26.9086 13.9184 26.9086 15.297C26.9086 16.6753 28.0301 17.7969 29.4085 17.7969ZM29.4085 14.2254C29.9993 14.2254 30.4798 14.706 30.4798 15.2968C30.4798 15.8876 29.999 16.3684 29.4085 16.3684C28.8178 16.3684 28.337 15.8875 28.337 15.297C28.337 14.7062 28.8178 14.2254 29.4085 14.2254Z" fill="var(--fill-0, #0B7AFC)"/>
<path d="M29.4092 18.5114C27.6368 18.5114 26.195 19.9533 26.195 21.7258V22.7972C26.195 23.192 26.5145 23.5115 26.9093 23.5115H31.909C32.3038 23.5115 32.6233 23.192 32.6233 22.7972V21.7258C32.6231 19.9533 31.1814 18.5114 29.4092 18.5114ZM31.1948 22.0829H27.6235V21.7258C27.6235 20.7407 28.4242 19.94 29.4092 19.94C30.3942 19.94 31.1948 20.7407 31.1948 21.7258V22.0829Z" fill="var(--fill-0, #0B7AFC)"/>
<path d="M28.3372 29.9385C28.3372 30.333 28.0175 30.6529 27.6229 30.6529C27.2285 30.6529 26.9086 30.3332 26.9086 29.9385C26.9086 29.5441 27.2283 29.2242 27.6229 29.2242C28.0175 29.2244 28.3372 29.5441 28.3372 29.9385Z" fill="var(--fill-0, #0B7AFC)"/>
<path d="M30.4781 29.9385C30.4781 30.333 30.1584 30.6529 29.7638 30.6529C29.3694 30.6529 29.0495 30.3332 29.0495 29.9385C29.0495 29.5441 29.3692 29.2242 29.7638 29.2242C30.1582 29.2244 30.4781 29.5441 30.4781 29.9385Z" fill="var(--fill-0, #0B7AFC)"/>
<path d="M30.4781 27.7975C30.4781 28.1919 30.1584 28.5118 29.7638 28.5118C29.3694 28.5118 29.0495 28.1921 29.0495 27.7975C29.0495 27.403 29.3692 27.0831 29.7638 27.0831C30.1582 27.0831 30.4781 27.403 30.4781 27.7975Z" fill="var(--fill-0, #0B7AFC)"/>
<path d="M30.4781 25.6539C30.4781 26.0484 30.1584 26.3682 29.7638 26.3682C29.3694 26.3682 29.0495 26.0485 29.0495 25.6539C29.0495 25.2595 29.3692 24.9396 29.7638 24.9396C30.1582 24.9396 30.4781 25.2593 30.4781 25.6539Z" fill="var(--fill-0, #0B7AFC)"/>
<path d="M18.3387 29.9385C18.3387 30.333 18.019 30.6529 17.6244 30.6529C17.23 30.6529 16.9101 30.3332 16.9101 29.9385C16.9101 29.5441 17.2298 29.2242 17.6244 29.2242C18.019 29.2244 18.3387 29.5441 18.3387 29.9385Z" fill="var(--fill-0, #0B7AFC)"/>
<path d="M16.1953 29.9385C16.1953 30.333 15.8756 30.6529 15.481 30.6529C15.0866 30.6529 14.7667 30.3332 14.7667 29.9385C14.7667 29.5441 15.0864 29.2242 15.481 29.2242C15.8754 29.2244 16.1953 29.5441 16.1953 29.9385Z" fill="var(--fill-0, #0B7AFC)"/>
<path d="M16.1953 27.7975C16.1953 28.1919 15.8756 28.5118 15.481 28.5118C15.0866 28.5118 14.7667 28.1921 14.7667 27.7975C14.7667 27.403 15.0864 27.0831 15.481 27.0831C15.8754 27.0831 16.1953 27.403 16.1953 27.7975Z" fill="var(--fill-0, #0B7AFC)"/>
<path d="M16.1953 25.6539C16.1953 26.0484 15.8756 26.3682 15.481 26.3682C15.0866 26.3682 14.7667 26.0485 14.7667 25.6539C14.7667 25.2595 15.0864 24.9396 15.481 24.9396C15.8754 24.9396 16.1953 25.2593 16.1953 25.6539Z" fill="var(--fill-0, #0B7AFC)"/>
<path d="M24.7643 27.7967V27.0824C24.7643 25.9007 23.8033 24.9396 22.6216 24.9396C21.44 24.9396 20.479 25.9007 20.479 27.0824V27.7967C20.0842 27.7967 19.7647 28.1163 19.7647 28.5111V32.0825C19.7647 32.4773 20.0842 32.7969 20.479 32.7969H24.7645C25.1592 32.7969 25.4788 32.4773 25.4788 32.0825L25.4786 28.5109C25.4786 28.1161 25.1591 27.7967 24.7643 27.7967ZM21.9074 27.0824C21.9074 26.6883 22.2275 26.368 22.6216 26.368C23.0158 26.368 23.3359 26.6882 23.3359 27.0824V27.7967H21.9074V27.0824ZM24.0502 31.3682H21.1931V29.2253H24.05L24.0502 31.3682Z" fill="var(--fill-0, #0B7AFC)"/>
<path d="M25.9833 18.3031L24.5558 19.7307C24.2767 20.0097 23.8249 20.0097 23.5459 19.7307C23.2668 19.4517 23.2669 18.9998 23.5459 18.7207L23.7551 18.5113H19.7653C19.3706 18.5113 19.0511 18.1918 19.0511 17.797C19.0511 17.4022 19.3706 17.0826 19.7653 17.0826H23.7551L23.5459 16.8734C23.2669 16.5943 23.2669 16.1424 23.5459 15.8634C23.8249 15.5844 24.2767 15.5844 24.5558 15.8634L25.9833 17.2911C26.264 17.5707 26.2598 18.0275 25.9833 18.3031Z" fill="var(--fill-0, #0B7AFC)"/>
<path d="M15.8392 17.7969C17.2176 17.7969 18.3391 16.6753 18.3391 15.297C18.3391 13.9184 17.2176 12.7969 15.8392 12.7969C14.4609 12.7969 13.3394 13.9184 13.3394 15.297C13.3394 16.6753 14.4609 17.7969 15.8392 17.7969ZM15.8392 14.2254C16.4299 14.2254 16.9105 14.706 16.9105 15.2968C16.9107 15.8876 16.4299 16.3684 15.8392 16.3684C15.2486 16.3684 14.7678 15.8875 14.7678 15.297C14.7678 14.7062 15.2486 14.2254 15.8392 14.2254Z" stroke="var(--stroke-0, #0B7AFC)" stroke-width="0.6" mask="url(#path-2-inside-1_0_7)"/>
<path d="M15.8373 18.5114C14.0651 18.5114 12.6233 19.9533 12.6233 21.7258V22.7972C12.6233 23.192 12.9428 23.5115 13.3376 23.5115H18.3373C18.7321 23.5115 19.0516 23.192 19.0516 22.7972V21.7258C19.0515 19.9533 17.6096 18.5114 15.8373 18.5114ZM17.6229 22.0829H14.0517V21.7258C14.0517 20.7407 14.8523 19.94 15.8373 19.94C16.8223 19.94 17.6229 20.7407 17.6229 21.7258V22.0829Z" stroke="var(--stroke-0, #0B7AFC)" stroke-width="0.6" mask="url(#path-2-inside-1_0_7)"/>
<path d="M29.4085 17.7969C30.7868 17.7969 31.9083 16.6753 31.9083 15.297C31.9083 13.9184 30.7868 12.7969 29.4085 12.7969C28.0301 12.7969 26.9086 13.9184 26.9086 15.297C26.9086 16.6753 28.0301 17.7969 29.4085 17.7969ZM29.4085 14.2254C29.9993 14.2254 30.4798 14.706 30.4798 15.2968C30.4798 15.8876 29.999 16.3684 29.4085 16.3684C28.8178 16.3684 28.337 15.8875 28.337 15.297C28.337 14.7062 28.8178 14.2254 29.4085 14.2254Z" stroke="var(--stroke-0, #0B7AFC)" stroke-width="0.6" mask="url(#path-2-inside-1_0_7)"/>
<path d="M29.4092 18.5114C27.6368 18.5114 26.195 19.9533 26.195 21.7258V22.7972C26.195 23.192 26.5145 23.5115 26.9093 23.5115H31.909C32.3038 23.5115 32.6233 23.192 32.6233 22.7972V21.7258C32.6231 19.9533 31.1814 18.5114 29.4092 18.5114ZM31.1948 22.0829H27.6235V21.7258C27.6235 20.7407 28.4242 19.94 29.4092 19.94C30.3942 19.94 31.1948 20.7407 31.1948 21.7258V22.0829Z" stroke="var(--stroke-0, #0B7AFC)" stroke-width="0.6" mask="url(#path-2-inside-1_0_7)"/>
<path d="M28.3372 29.9385C28.3372 30.333 28.0175 30.6529 27.6229 30.6529C27.2285 30.6529 26.9086 30.3332 26.9086 29.9385C26.9086 29.5441 27.2283 29.2242 27.6229 29.2242C28.0175 29.2244 28.3372 29.5441 28.3372 29.9385Z" stroke="var(--stroke-0, #0B7AFC)" stroke-width="0.6" mask="url(#path-2-inside-1_0_7)"/>
<path d="M30.4781 29.9385C30.4781 30.333 30.1584 30.6529 29.7638 30.6529C29.3694 30.6529 29.0495 30.3332 29.0495 29.9385C29.0495 29.5441 29.3692 29.2242 29.7638 29.2242C30.1582 29.2244 30.4781 29.5441 30.4781 29.9385Z" stroke="var(--stroke-0, #0B7AFC)" stroke-width="0.6" mask="url(#path-2-inside-1_0_7)"/>
<path d="M30.4781 27.7975C30.4781 28.1919 30.1584 28.5118 29.7638 28.5118C29.3694 28.5118 29.0495 28.1921 29.0495 27.7975C29.0495 27.403 29.3692 27.0831 29.7638 27.0831C30.1582 27.0831 30.4781 27.403 30.4781 27.7975Z" stroke="var(--stroke-0, #0B7AFC)" stroke-width="0.6" mask="url(#path-2-inside-1_0_7)"/>
<path d="M30.4781 25.6539C30.4781 26.0484 30.1584 26.3682 29.7638 26.3682C29.3694 26.3682 29.0495 26.0485 29.0495 25.6539C29.0495 25.2595 29.3692 24.9396 29.7638 24.9396C30.1582 24.9396 30.4781 25.2593 30.4781 25.6539Z" stroke="var(--stroke-0, #0B7AFC)" stroke-width="0.6" mask="url(#path-2-inside-1_0_7)"/>
<path d="M18.3387 29.9385C18.3387 30.333 18.019 30.6529 17.6244 30.6529C17.23 30.6529 16.9101 30.3332 16.9101 29.9385C16.9101 29.5441 17.2298 29.2242 17.6244 29.2242C18.019 29.2244 18.3387 29.5441 18.3387 29.9385Z" stroke="var(--stroke-0, #0B7AFC)" stroke-width="0.6" mask="url(#path-2-inside-1_0_7)"/>
<path d="M16.1953 29.9385C16.1953 30.333 15.8756 30.6529 15.481 30.6529C15.0866 30.6529 14.7667 30.3332 14.7667 29.9385C14.7667 29.5441 15.0864 29.2242 15.481 29.2242C15.8754 29.2244 16.1953 29.5441 16.1953 29.9385Z" stroke="var(--stroke-0, #0B7AFC)" stroke-width="0.6" mask="url(#path-2-inside-1_0_7)"/>
<path d="M16.1953 27.7975C16.1953 28.1919 15.8756 28.5118 15.481 28.5118C15.0866 28.5118 14.7667 28.1921 14.7667 27.7975C14.7667 27.403 15.0864 27.0831 15.481 27.0831C15.8754 27.0831 16.1953 27.403 16.1953 27.7975Z" stroke="var(--stroke-0, #0B7AFC)" stroke-width="0.6" mask="url(#path-2-inside-1_0_7)"/>
<path d="M16.1953 25.6539C16.1953 26.0484 15.8756 26.3682 15.481 26.3682C15.0866 26.3682 14.7667 26.0485 14.7667 25.6539C14.7667 25.2595 15.0864 24.9396 15.481 24.9396C15.8754 24.9396 16.1953 25.2593 16.1953 25.6539Z" stroke="var(--stroke-0, #0B7AFC)" stroke-width="0.6" mask="url(#path-2-inside-1_0_7)"/>
<path d="M24.7643 27.7967V27.0824C24.7643 25.9007 23.8033 24.9396 22.6216 24.9396C21.44 24.9396 20.479 25.9007 20.479 27.0824V27.7967C20.0842 27.7967 19.7647 28.1163 19.7647 28.5111V32.0825C19.7647 32.4773 20.0842 32.7969 20.479 32.7969H24.7645C25.1592 32.7969 25.4788 32.4773 25.4788 32.0825L25.4786 28.5109C25.4786 28.1161 25.1591 27.7967 24.7643 27.7967ZM21.9074 27.0824C21.9074 26.6883 22.2275 26.368 22.6216 26.368C23.0158 26.368 23.3359 26.6882 23.3359 27.0824V27.7967H21.9074V27.0824ZM24.0502 31.3682H21.1931V29.2253H24.05L24.0502 31.3682Z" stroke="var(--stroke-0, #0B7AFC)" stroke-width="0.6" mask="url(#path-2-inside-1_0_7)"/>
<path d="M25.9833 18.3031L24.5558 19.7307C24.2767 20.0097 23.8249 20.0097 23.5459 19.7307C23.2668 19.4517 23.2669 18.9998 23.5459 18.7207L23.7551 18.5113H19.7653C19.3706 18.5113 19.0511 18.1918 19.0511 17.797C19.0511 17.4022 19.3706 17.0826 19.7653 17.0826H23.7551L23.5459 16.8734C23.2669 16.5943 23.2669 16.1424 23.5459 15.8634C23.8249 15.5844 24.2767 15.5844 24.5558 15.8634L25.9833 17.2911C26.264 17.5707 26.2598 18.0275 25.9833 18.3031Z" stroke="var(--stroke-0, #0B7AFC)" stroke-width="0.6" mask="url(#path-2-inside-1_0_7)"/>
</g>
</g>
</svg>
