<svg preserveAspectRatio="none" width="100%" height="100%" overflow="visible" style="display: block;" viewBox="0 0 44.6373 44.6373" fill="none" xmlns="http://www.w3.org/2000/svg">
<g id="Frame 2087329843">
<circle id="Ellipse" cx="22.3187" cy="22.3187" r="22.3187" fill="var(--fill-0, #EAF2FF)"/>
<g id="Vector">
<mask id="path-2-inside-1_0_52" fill="white">
<path d="M32.045 13.825H28.7518V13.3305C28.7518 13.0079 28.4926 12.7461 28.1729 12.7461H17.0743C16.7545 12.7461 16.4954 13.0079 16.4954 13.3305V13.825H13.2021C12.8824 13.825 12.6233 14.0866 12.6233 14.4095V18.1986C12.6247 19.3276 13.0668 20.4104 13.8534 21.2128C14.6402 22.015 15.7085 22.4719 16.8266 22.4845C17.1658 23.4396 17.7531 24.285 18.5271 24.9322C19.3012 25.5792 20.2332 26.0043 21.2259 26.163C21.1602 27.6234 20.8145 28.6585 20.2106 29.1678H20.2104C20.0073 29.3405 19.762 29.4553 19.5 29.5H18.9768C18.9378 29.5004 18.8991 29.5044 18.861 29.5122H18.8541C18.8198 29.5197 18.7862 29.5301 18.7537 29.5433C18.7382 29.5499 18.7244 29.5593 18.7097 29.5672C18.6951 29.575 18.6731 29.5854 18.6562 29.5967C18.6391 29.608 18.6319 29.6166 18.6198 29.6263C18.6022 29.6392 18.5855 29.6533 18.5697 29.668C18.5597 29.6781 18.5516 29.6903 18.542 29.7016C18.5266 29.7181 18.5123 29.7357 18.4991 29.7541C18.4887 29.7705 18.4796 29.7874 18.4713 29.8048C18.4617 29.8202 18.4531 29.8362 18.4455 29.8528C18.4339 29.8811 18.4248 29.9105 18.4179 29.9404C18.4179 29.9483 18.4126 29.9549 18.4105 29.9627C18.4074 29.9791 18.4074 29.9966 18.4052 30.0133H18.4053C18.4017 30.0359 18.3996 30.0589 18.3986 30.0819V32.1617C18.3986 32.4845 18.6579 32.7461 18.9775 32.7461H26.2686C26.5884 32.7461 26.8475 32.4845 26.8475 32.1617V30.2789C26.9111 30.0996 26.8835 29.9001 26.7736 29.7453C26.6637 29.5903 26.4855 29.4997 26.2969 29.5028C26.2872 29.5028 26.2783 29.5 26.2686 29.5H25.7847C25.523 29.4553 25.2778 29.3405 25.075 29.1678C24.4703 28.6582 24.1242 27.6203 24.0593 26.1573V26.1571C25.0442 25.9927 25.968 25.5655 26.7346 24.9199C27.5013 24.2742 28.083 23.4334 28.42 22.4846C29.5381 22.472 30.6062 22.0151 31.393 21.2129C32.1798 20.4105 32.6219 19.3277 32.6233 18.1987V14.4095C32.6233 14.0869 32.3644 13.8253 32.0448 13.8251L32.045 13.825ZM13.781 18.1982V14.9939H16.4954V20.588C16.4969 20.8262 16.5135 21.064 16.5448 21.2998C15.7865 21.2177 15.0848 20.8557 14.5746 20.2831C14.0645 19.7107 13.7818 18.9681 13.781 18.1981L13.781 18.1982ZM25.6897 31.58H19.5572V30.6701H25.6897V31.58ZM21.4591 29.5C22.004 28.7418 22.3127 27.6509 22.379 26.2376H22.9059C22.9722 27.6507 23.2809 28.7416 23.8255 29.5H21.4591ZM27.5947 20.588V20.5882C27.5934 21.7762 27.1254 22.915 26.2933 23.755C25.4614 24.5951 24.3335 25.0675 23.1568 25.0689H22.0906C20.9139 25.0675 19.786 24.5951 18.9539 23.755C18.122 22.915 17.6541 21.7762 17.6527 20.5882V13.9151H27.5936L27.5947 20.588ZM31.4669 18.1981V18.1983C31.4659 18.9683 31.1833 19.7109 30.6732 20.2833C30.1631 20.8559 29.4614 21.2179 28.703 21.3C28.7344 21.0641 28.7509 20.8263 28.7525 20.5882V14.9941H31.4669L31.4669 18.1981ZM20.7608 19.7902L20.5084 21.189C20.4696 21.4075 20.5568 21.6294 20.7336 21.7614C20.9102 21.8936 21.1457 21.9134 21.3415 21.8124L22.5939 21.1644L23.8325 21.8393C24.0265 21.9449 24.2629 21.9301 24.4426 21.8012C24.6221 21.6725 24.7137 21.4518 24.6788 21.2323L24.4557 19.8296L25.4738 18.8512C25.6332 18.6978 25.6925 18.4664 25.627 18.2544C25.5615 18.0422 25.3825 17.8859 25.1651 17.8511L23.7759 17.6317L23.1634 16.3491C23.0679 16.1485 22.8681 16.0202 22.6478 16.0179H22.6416H22.6417C22.4236 16.0177 22.224 16.1414 22.1253 16.3378L21.4897 17.6044L20.0951 17.7933C19.8767 17.8229 19.6937 17.9752 19.6233 18.186C19.553 18.397 19.6074 18.6299 19.7637 18.7868L20.7608 19.7902ZM21.9455 18.7225V18.7227C22.1344 18.6969 22.2985 18.579 22.3847 18.4075L22.6281 17.9227L22.8597 18.4129C22.9422 18.5863 23.1039 18.7076 23.2922 18.7371L23.8241 18.821L23.4347 19.1962V19.196C23.2969 19.3289 23.2327 19.5216 23.263 19.7115L23.3483 20.2485L22.874 19.9905C22.7058 19.8985 22.5037 19.8964 22.3337 19.9846L21.8544 20.2325L21.9509 19.698C21.9852 19.5086 21.9251 19.3143 21.79 19.1786L21.4084 18.7949L21.9455 18.7225Z"/>
</mask>
<path d="M32.045 13.825H28.7518V13.3305C28.7518 13.0079 28.4926 12.7461 28.1729 12.7461H17.0743C16.7545 12.7461 16.4954 13.0079 16.4954 13.3305V13.825H13.2021C12.8824 13.825 12.6233 14.0866 12.6233 14.4095V18.1986C12.6247 19.3276 13.0668 20.4104 13.8534 21.2128C14.6402 22.015 15.7085 22.4719 16.8266 22.4845C17.1658 23.4396 17.7531 24.285 18.5271 24.9322C19.3012 25.5792 20.2332 26.0043 21.2259 26.163C21.1602 27.6234 20.8145 28.6585 20.2106 29.1678H20.2104C20.0073 29.3405 19.762 29.4553 19.5 29.5H18.9768C18.9378 29.5004 18.8991 29.5044 18.861 29.5122H18.8541C18.8198 29.5197 18.7862 29.5301 18.7537 29.5433C18.7382 29.5499 18.7244 29.5593 18.7097 29.5672C18.6951 29.575 18.6731 29.5854 18.6562 29.5967C18.6391 29.608 18.6319 29.6166 18.6198 29.6263C18.6022 29.6392 18.5855 29.6533 18.5697 29.668C18.5597 29.6781 18.5516 29.6903 18.542 29.7016C18.5266 29.7181 18.5123 29.7357 18.4991 29.7541C18.4887 29.7705 18.4796 29.7874 18.4713 29.8048C18.4617 29.8202 18.4531 29.8362 18.4455 29.8528C18.4339 29.8811 18.4248 29.9105 18.4179 29.9404C18.4179 29.9483 18.4126 29.9549 18.4105 29.9627C18.4074 29.9791 18.4074 29.9966 18.4052 30.0133H18.4053C18.4017 30.0359 18.3996 30.0589 18.3986 30.0819V32.1617C18.3986 32.4845 18.6579 32.7461 18.9775 32.7461H26.2686C26.5884 32.7461 26.8475 32.4845 26.8475 32.1617V30.2789C26.9111 30.0996 26.8835 29.9001 26.7736 29.7453C26.6637 29.5903 26.4855 29.4997 26.2969 29.5028C26.2872 29.5028 26.2783 29.5 26.2686 29.5H25.7847C25.523 29.4553 25.2778 29.3405 25.075 29.1678C24.4703 28.6582 24.1242 27.6203 24.0593 26.1573V26.1571C25.0442 25.9927 25.968 25.5655 26.7346 24.9199C27.5013 24.2742 28.083 23.4334 28.42 22.4846C29.5381 22.472 30.6062 22.0151 31.393 21.2129C32.1798 20.4105 32.6219 19.3277 32.6233 18.1987V14.4095C32.6233 14.0869 32.3644 13.8253 32.0448 13.8251L32.045 13.825ZM13.781 18.1982V14.9939H16.4954V20.588C16.4969 20.8262 16.5135 21.064 16.5448 21.2998C15.7865 21.2177 15.0848 20.8557 14.5746 20.2831C14.0645 19.7107 13.7818 18.9681 13.781 18.1981L13.781 18.1982ZM25.6897 31.58H19.5572V30.6701H25.6897V31.58ZM21.4591 29.5C22.004 28.7418 22.3127 27.6509 22.379 26.2376H22.9059C22.9722 27.6507 23.2809 28.7416 23.8255 29.5H21.4591ZM27.5947 20.588V20.5882C27.5934 21.7762 27.1254 22.915 26.2933 23.755C25.4614 24.5951 24.3335 25.0675 23.1568 25.0689H22.0906C20.9139 25.0675 19.786 24.5951 18.9539 23.755C18.122 22.915 17.6541 21.7762 17.6527 20.5882V13.9151H27.5936L27.5947 20.588ZM31.4669 18.1981V18.1983C31.4659 18.9683 31.1833 19.7109 30.6732 20.2833C30.1631 20.8559 29.4614 21.2179 28.703 21.3C28.7344 21.0641 28.7509 20.8263 28.7525 20.5882V14.9941H31.4669L31.4669 18.1981ZM20.7608 19.7902L20.5084 21.189C20.4696 21.4075 20.5568 21.6294 20.7336 21.7614C20.9102 21.8936 21.1457 21.9134 21.3415 21.8124L22.5939 21.1644L23.8325 21.8393C24.0265 21.9449 24.2629 21.9301 24.4426 21.8012C24.6221 21.6725 24.7137 21.4518 24.6788 21.2323L24.4557 19.8296L25.4738 18.8512C25.6332 18.6978 25.6925 18.4664 25.627 18.2544C25.5615 18.0422 25.3825 17.8859 25.1651 17.8511L23.7759 17.6317L23.1634 16.3491C23.0679 16.1485 22.8681 16.0202 22.6478 16.0179H22.6416H22.6417C22.4236 16.0177 22.224 16.1414 22.1253 16.3378L21.4897 17.6044L20.0951 17.7933C19.8767 17.8229 19.6937 17.9752 19.6233 18.186C19.553 18.397 19.6074 18.6299 19.7637 18.7868L20.7608 19.7902ZM21.9455 18.7225V18.7227C22.1344 18.6969 22.2985 18.579 22.3847 18.4075L22.6281 17.9227L22.8597 18.4129C22.9422 18.5863 23.1039 18.7076 23.2922 18.7371L23.8241 18.821L23.4347 19.1962V19.196C23.2969 19.3289 23.2327 19.5216 23.263 19.7115L23.3483 20.2485L22.874 19.9905C22.7058 19.8985 22.5037 19.8964 22.3337 19.9846L21.8544 20.2325L21.9509 19.698C21.9852 19.5086 21.9251 19.3143 21.79 19.1786L21.4084 18.7949L21.9455 18.7225Z" fill="var(--fill-0, #0B7AFC)" stroke="var(--stroke-0, #0B7AFC)" stroke-width="0.2" mask="url(#path-2-inside-1_0_52)"/>
</g>
</g>
</svg>
