<svg preserveAspectRatio="none" width="100%" height="100%" overflow="visible" style="display: block;" viewBox="0 0 44.6373 44.6373" fill="none" xmlns="http://www.w3.org/2000/svg">
<g id="Frame 2087329839">
<circle id="Ellipse" cx="22.3187" cy="22.3187" r="22.3187" fill="var(--fill-0, #EAF2FF)"/>
<path id="Vector" d="M16.3034 13.7089C15.9741 13.7454 15.7272 14.0286 15.7343 14.3613V15.3249H12.5399C11.4891 15.3249 10.6232 16.1955 10.6232 17.2521V29.7779C10.6232 30.8345 11.4891 31.7051 12.5399 31.7051H31.7064C32.7573 31.7051 33.6232 30.8345 33.6232 29.7779V17.2521C33.6232 16.1955 32.7573 15.3249 31.7064 15.3249H28.512V14.3613C28.516 14.1765 28.4405 13.9986 28.3045 13.8738C28.1688 13.7488 27.9861 13.6887 27.8032 13.7089C27.4741 13.7454 27.2272 14.0286 27.2343 14.3613V15.3249H17.0122V14.3613C17.0162 14.1765 16.9407 13.9986 16.805 13.8738C16.6693 13.7488 16.4866 13.6887 16.3036 13.7089H16.3034ZM12.5399 16.6097H15.7343V17.5731C15.7319 17.7451 15.798 17.9109 15.9182 18.0332C16.0383 18.1558 16.2023 18.2245 16.3732 18.2245C16.5443 18.2245 16.7081 18.1558 16.8282 18.0332C16.9483 17.9109 17.0145 17.7451 17.012 17.5731V16.6097H27.2341V17.5731C27.2317 17.7451 27.2979 17.9109 27.418 18.0332C27.5381 18.1558 27.7018 18.2245 27.873 18.2245C28.0439 18.2245 28.2079 18.1558 28.328 18.0332C28.4481 17.9109 28.5143 17.7451 28.5118 17.5731V16.6097H31.7062C32.0712 16.6097 32.3451 16.885 32.3451 17.252V29.7779C32.3451 30.1448 32.0712 30.4201 31.7062 30.4201H12.5397C12.1748 30.4201 11.9009 30.1448 11.9009 29.7779V17.252C11.9009 16.885 12.1748 16.6097 12.5397 16.6097H12.5399ZM22.0729 18.8579C21.8717 18.8749 21.6904 18.9865 21.5838 19.159L20.1263 21.5075L17.491 22.1899C17.2827 22.2468 17.1171 22.4056 17.0505 22.6122C16.9841 22.8188 17.0257 23.045 17.1614 23.2137L18.8986 25.3514L18.7188 28.1216C18.7025 28.3434 18.8014 28.5578 18.9801 28.6887C19.1591 28.8195 19.3926 28.848 19.5973 28.7639L22.1228 27.7303L24.6483 28.7639C24.8531 28.848 25.0866 28.8195 25.2655 28.6887C25.4442 28.5578 25.5431 28.3434 25.5269 28.1216L25.347 25.3514L27.0842 23.2137C27.2199 23.045 27.2615 22.8188 27.1951 22.6122C27.1285 22.4056 26.963 22.2468 26.7546 22.1899L24.1193 21.5075L22.6618 19.159C22.5363 18.9565 22.3095 18.8404 22.0729 18.8579H22.0729ZM22.1229 20.7046L23.161 22.4007C23.2477 22.5455 23.3876 22.6501 23.5503 22.6918L25.467 23.1837L24.1991 24.7293C24.0935 24.855 24.04 25.0168 24.0494 25.181L24.1793 27.1883L22.3624 26.4457C22.2088 26.3832 22.0368 26.3832 21.8833 26.4457L20.0663 27.1883L20.1963 25.181C20.2056 25.0168 20.1521 24.855 20.0465 24.7293L18.7786 23.1837L20.6954 22.6918C20.858 22.6501 20.998 22.5455 21.0847 22.4007L22.1229 20.7046Z" fill="var(--fill-0, #0B7AFC)"/>
</g>
</svg>
