<svg preserveAspectRatio="none" width="100%" height="100%" overflow="visible" style="display: block;" viewBox="0 0 44.6373 44.6373" fill="none" xmlns="http://www.w3.org/2000/svg">
<g id="Frame 2087329833">
<circle id="Ellipse" cx="22.3187" cy="22.3187" r="22.3187" fill="var(--fill-0, #EAF2FF)"/>
<g id="Vector">
<mask id="path-2-outside-1_0_46" maskUnits="userSpaceOnUse" x="9.62317" y="11.6436" width="25" height="22" fill="black">
<rect fill="white" x="9.62317" y="11.6436" width="25" height="22"/>
<path d="M30.7176 14.3338L27.9679 12.6554H27.9345L27.9123 12.6436H26.0755C26.0164 12.6436 25.9598 12.6685 25.918 12.713C25.8763 12.7575 25.8528 12.8179 25.8528 12.8808C25.8528 13.3212 25.6886 13.7435 25.3964 14.055C25.1041 14.3664 24.7077 14.5413 24.2943 14.5413C23.881 14.5413 23.4846 14.3664 23.1923 14.055C22.9 13.7435 22.7358 13.3212 22.7358 12.8808C22.7358 12.8179 22.7124 12.7575 22.6706 12.713C22.6289 12.6685 22.5722 12.6436 22.5132 12.6436H20.6764L20.6541 12.6554H20.6207L17.8711 14.3338C17.7234 14.4248 17.6137 14.5722 17.5642 14.7462C17.5146 14.9201 17.5288 15.1076 17.6039 15.2708L18.6281 17.4532C18.6837 17.5708 18.7687 17.6696 18.8739 17.7387C18.979 17.8078 19.1001 17.8444 19.2236 17.8446H20.5094V22.8263C20.5094 23.015 20.5798 23.196 20.705 23.3295C20.8303 23.4629 21.0002 23.5379 21.1773 23.5379H27.4113C27.5885 23.5379 27.7584 23.4629 27.8836 23.3295C28.0089 23.196 28.0793 23.015 28.0793 22.8263V17.8446H29.365C29.4886 17.8444 29.6096 17.8078 29.7148 17.7387C29.8199 17.6696 29.905 17.5708 29.9606 17.4532L30.9848 15.2708C31.0599 15.1076 31.0741 14.9201 31.0245 14.7462C30.9749 14.5722 30.8652 14.4248 30.7176 14.3338ZM19.2236 17.3702C19.1827 17.3716 19.1422 17.3599 19.1075 17.3366C19.0728 17.3134 19.0454 17.2796 19.0288 17.2397L18.0047 15.0573C17.9786 15.0028 17.9733 14.9396 17.9899 14.8811C18.0065 14.8225 18.0437 14.773 18.0937 14.743L20.5094 13.2722V17.3702H19.2236ZM27.634 22.8263C27.634 22.8892 27.6105 22.9495 27.5688 22.994C27.527 23.0385 27.4704 23.0635 27.4113 23.0635H21.1773C21.1183 23.0635 21.0616 23.0385 21.0199 22.994C20.9781 22.9495 20.9547 22.8892 20.9547 22.8263V13.1002H22.3017C22.3538 13.6246 22.5862 14.1099 22.9541 14.4626C23.322 14.8153 23.7994 15.0105 24.2943 15.0105C24.7892 15.0105 25.2667 14.8153 25.6346 14.4626C26.0025 14.1099 26.2349 13.6246 26.287 13.1002H27.634V22.8263ZM30.584 15.0573L29.5598 17.2397C29.5432 17.2796 29.5158 17.3134 29.4811 17.3366C29.4464 17.3599 29.406 17.3716 29.365 17.3702H28.0793V13.2722L30.4949 14.743C30.545 14.773 30.5822 14.8225 30.5988 14.8811C30.6153 14.9396 30.6101 15.0028 30.584 15.0573Z"/>
<path fill-rule="evenodd" clip-rule="evenodd" d="M16.7099 16.8134C16.8809 16.8979 16.9782 16.9829 17.0811 17.1378L17.1571 17.2521V17.793C17.1571 18.3545 17.1477 18.4566 17.085 18.5797C17.0251 18.6974 16.854 18.8468 16.7049 18.9117C16.6343 18.9424 16.5716 18.975 16.5656 18.9842C16.5595 18.9933 16.6276 19.1294 16.7169 19.2866C17.0558 19.8832 17.2376 20.2554 17.4377 20.762C17.7338 21.5117 17.969 22.3726 18.1151 23.2422C18.1813 23.6357 18.1862 23.8268 18.2034 26.6781C18.2202 29.4678 18.2136 31.0916 18.1844 31.327C18.1534 31.5783 17.9862 31.8808 17.7592 32.0966C17.5653 32.2809 17.3699 32.3973 17.1142 32.4809C17.0007 32.518 16.9635 32.5208 16.4118 32.5343C15.6538 32.5527 13.1659 32.5525 12.42 32.5339C11.7654 32.5176 11.7451 32.5144 11.4858 32.3874C11.1016 32.1992 10.8115 31.8771 10.6807 31.4933C10.6434 31.3838 10.6418 31.3522 10.6285 30.4367C10.6114 29.2635 10.6388 23.9091 10.6634 23.6293C10.7207 22.9751 11.0192 21.7664 11.3207 20.9674C11.5555 20.3453 11.7871 19.8646 12.1219 19.3049C12.2849 19.0324 12.3184 18.9512 12.2681 18.9512C12.2213 18.9512 12.0031 18.8368 11.9225 18.7699C11.8771 18.7323 11.8027 18.6479 11.7573 18.5823L11.6747 18.4632V17.247L11.7755 17.103C11.8848 16.9468 11.9493 16.8945 12.1497 16.7998L12.2735 16.7412L16.566 16.7422L16.7099 16.8134ZM12.2645 17.3048C12.2019 17.3939 12.1845 17.5514 12.1923 17.9592C12.1993 18.323 12.2117 18.3787 12.2954 18.4209C12.3635 18.4552 12.8583 18.4657 14.4159 18.4657C15.9734 18.4657 16.4682 18.4552 16.5363 18.4209C16.6181 18.3797 16.6316 18.3213 16.6393 17.9753C16.6483 17.5699 16.6295 17.3932 16.5677 17.3054L16.5227 17.2413H12.3091L12.2645 17.3048ZM12.7541 19.2134C12.182 20.0861 11.6718 21.3158 11.402 22.4725C11.2468 23.1381 11.2079 23.4159 11.1759 24.0891C11.1464 24.7098 11.1454 30.6919 11.1747 31.0417C11.1986 31.3263 11.2287 31.4869 11.2732 31.5679C11.3187 31.6507 11.6031 31.9022 11.7004 31.9456C11.8748 32.0234 11.8428 32.0224 14.4812 32.0288L16.9707 32.0349L17.0768 31.9749C17.3115 31.8421 17.4683 31.7014 17.5781 31.525C17.6594 31.3944 17.6605 31.3408 17.6615 27.4766C17.6623 24.6077 17.6579 23.8402 17.6399 23.6858C17.491 22.406 17.0901 21.0844 16.5122 19.9675C16.316 19.5883 16.243 19.4626 16.0464 19.165L15.9159 18.9674H12.9154L12.7541 19.2134Z"/>
<path d="M28.2 26.2968L28.2207 25.5307C28.2239 25.4283 28.1841 25.332 28.1077 25.2582C28.0314 25.1845 27.9312 25.1438 27.823 25.1438L20.4218 25.1439C20.3136 25.1439 20.2119 25.1845 20.1371 25.2568C20.0608 25.3305 20.0209 25.4268 20.0242 25.5292L20.1594 30.6102C20.161 31.7315 21.1249 32.6436 22.3099 32.6436H25.9365C27.1215 32.6436 28.0855 31.7314 28.087 30.6102L28.1029 30.0262C28.1347 30.0353 28.1665 30.0413 28.2015 30.0413C29.2926 30.0413 30.1803 29.2015 30.1803 28.1689C30.1788 27.138 29.2911 26.2968 28.2 26.2968ZM27.4492 30.5999V30.6104C27.4492 31.4006 26.7701 32.0433 25.9349 32.0433H22.3083C21.4733 32.0433 20.794 31.4007 20.794 30.6104V30.5984L20.6652 25.7461H27.5782L27.4492 30.5999ZM28.2 29.441C28.1714 29.441 28.1428 29.4455 28.1157 29.4515L28.1841 26.8974C28.1888 26.8974 28.1952 26.8989 28.1999 26.8989C28.9412 26.8989 29.5425 27.4693 29.5425 28.1692C29.5425 28.8706 28.9412 29.441 28.2 29.441Z"/>
<path d="M29.3955 23.8072C30.2433 23.8072 30.9329 23.1283 30.9329 22.2936C30.9329 22.0848 31.1046 21.9152 31.3172 21.9152C31.5298 21.9152 31.7015 22.0848 31.7015 22.2936C31.7015 23.1283 32.3911 23.8072 33.2388 23.8072C33.4514 23.8072 33.6232 23.9768 33.6232 24.1856C33.6232 24.3944 33.4514 24.564 33.2388 24.564C32.3911 24.564 31.7015 25.2429 31.7015 26.0776C31.7015 26.2864 31.5298 26.456 31.3172 26.456C31.1046 26.456 30.9329 26.2864 30.9329 26.0776C30.9329 25.2429 30.2433 24.564 29.3955 24.564C29.1829 24.564 29.0112 24.3944 29.0112 24.1856C29.0112 23.9768 29.1829 23.8072 29.3955 23.8072ZM31.3172 24.824C31.4879 24.5713 31.7089 24.3537 31.9656 24.1856C31.7089 24.0175 31.4879 23.7999 31.3172 23.5472C31.1465 23.7999 30.9255 24.0175 30.6688 24.1856C30.9255 24.3537 31.1465 24.5713 31.3172 24.824Z"/>
</mask>
<path d="M30.7176 14.3338L27.9679 12.6554H27.9345L27.9123 12.6436H26.0755C26.0164 12.6436 25.9598 12.6685 25.918 12.713C25.8763 12.7575 25.8528 12.8179 25.8528 12.8808C25.8528 13.3212 25.6886 13.7435 25.3964 14.055C25.1041 14.3664 24.7077 14.5413 24.2943 14.5413C23.881 14.5413 23.4846 14.3664 23.1923 14.055C22.9 13.7435 22.7358 13.3212 22.7358 12.8808C22.7358 12.8179 22.7124 12.7575 22.6706 12.713C22.6289 12.6685 22.5722 12.6436 22.5132 12.6436H20.6764L20.6541 12.6554H20.6207L17.8711 14.3338C17.7234 14.4248 17.6137 14.5722 17.5642 14.7462C17.5146 14.9201 17.5288 15.1076 17.6039 15.2708L18.6281 17.4532C18.6837 17.5708 18.7687 17.6696 18.8739 17.7387C18.979 17.8078 19.1001 17.8444 19.2236 17.8446H20.5094V22.8263C20.5094 23.015 20.5798 23.196 20.705 23.3295C20.8303 23.4629 21.0002 23.5379 21.1773 23.5379H27.4113C27.5885 23.5379 27.7584 23.4629 27.8836 23.3295C28.0089 23.196 28.0793 23.015 28.0793 22.8263V17.8446H29.365C29.4886 17.8444 29.6096 17.8078 29.7148 17.7387C29.8199 17.6696 29.905 17.5708 29.9606 17.4532L30.9848 15.2708C31.0599 15.1076 31.0741 14.9201 31.0245 14.7462C30.9749 14.5722 30.8652 14.4248 30.7176 14.3338ZM19.2236 17.3702C19.1827 17.3716 19.1422 17.3599 19.1075 17.3366C19.0728 17.3134 19.0454 17.2796 19.0288 17.2397L18.0047 15.0573C17.9786 15.0028 17.9733 14.9396 17.9899 14.8811C18.0065 14.8225 18.0437 14.773 18.0937 14.743L20.5094 13.2722V17.3702H19.2236ZM27.634 22.8263C27.634 22.8892 27.6105 22.9495 27.5688 22.994C27.527 23.0385 27.4704 23.0635 27.4113 23.0635H21.1773C21.1183 23.0635 21.0616 23.0385 21.0199 22.994C20.9781 22.9495 20.9547 22.8892 20.9547 22.8263V13.1002H22.3017C22.3538 13.6246 22.5862 14.1099 22.9541 14.4626C23.322 14.8153 23.7994 15.0105 24.2943 15.0105C24.7892 15.0105 25.2667 14.8153 25.6346 14.4626C26.0025 14.1099 26.2349 13.6246 26.287 13.1002H27.634V22.8263ZM30.584 15.0573L29.5598 17.2397C29.5432 17.2796 29.5158 17.3134 29.4811 17.3366C29.4464 17.3599 29.406 17.3716 29.365 17.3702H28.0793V13.2722L30.4949 14.743C30.545 14.773 30.5822 14.8225 30.5988 14.8811C30.6153 14.9396 30.6101 15.0028 30.584 15.0573Z" fill="var(--fill-0, #0B7AFC)"/>
<path fill-rule="evenodd" clip-rule="evenodd" d="M16.7099 16.8134C16.8809 16.8979 16.9782 16.9829 17.0811 17.1378L17.1571 17.2521V17.793C17.1571 18.3545 17.1477 18.4566 17.085 18.5797C17.0251 18.6974 16.854 18.8468 16.7049 18.9117C16.6343 18.9424 16.5716 18.975 16.5656 18.9842C16.5595 18.9933 16.6276 19.1294 16.7169 19.2866C17.0558 19.8832 17.2376 20.2554 17.4377 20.762C17.7338 21.5117 17.969 22.3726 18.1151 23.2422C18.1813 23.6357 18.1862 23.8268 18.2034 26.6781C18.2202 29.4678 18.2136 31.0916 18.1844 31.327C18.1534 31.5783 17.9862 31.8808 17.7592 32.0966C17.5653 32.2809 17.3699 32.3973 17.1142 32.4809C17.0007 32.518 16.9635 32.5208 16.4118 32.5343C15.6538 32.5527 13.1659 32.5525 12.42 32.5339C11.7654 32.5176 11.7451 32.5144 11.4858 32.3874C11.1016 32.1992 10.8115 31.8771 10.6807 31.4933C10.6434 31.3838 10.6418 31.3522 10.6285 30.4367C10.6114 29.2635 10.6388 23.9091 10.6634 23.6293C10.7207 22.9751 11.0192 21.7664 11.3207 20.9674C11.5555 20.3453 11.7871 19.8646 12.1219 19.3049C12.2849 19.0324 12.3184 18.9512 12.2681 18.9512C12.2213 18.9512 12.0031 18.8368 11.9225 18.7699C11.8771 18.7323 11.8027 18.6479 11.7573 18.5823L11.6747 18.4632V17.247L11.7755 17.103C11.8848 16.9468 11.9493 16.8945 12.1497 16.7998L12.2735 16.7412L16.566 16.7422L16.7099 16.8134ZM12.2645 17.3048C12.2019 17.3939 12.1845 17.5514 12.1923 17.9592C12.1993 18.323 12.2117 18.3787 12.2954 18.4209C12.3635 18.4552 12.8583 18.4657 14.4159 18.4657C15.9734 18.4657 16.4682 18.4552 16.5363 18.4209C16.6181 18.3797 16.6316 18.3213 16.6393 17.9753C16.6483 17.5699 16.6295 17.3932 16.5677 17.3054L16.5227 17.2413H12.3091L12.2645 17.3048ZM12.7541 19.2134C12.182 20.0861 11.6718 21.3158 11.402 22.4725C11.2468 23.1381 11.2079 23.4159 11.1759 24.0891C11.1464 24.7098 11.1454 30.6919 11.1747 31.0417C11.1986 31.3263 11.2287 31.4869 11.2732 31.5679C11.3187 31.6507 11.6031 31.9022 11.7004 31.9456C11.8748 32.0234 11.8428 32.0224 14.4812 32.0288L16.9707 32.0349L17.0768 31.9749C17.3115 31.8421 17.4683 31.7014 17.5781 31.525C17.6594 31.3944 17.6605 31.3408 17.6615 27.4766C17.6623 24.6077 17.6579 23.8402 17.6399 23.6858C17.491 22.406 17.0901 21.0844 16.5122 19.9675C16.316 19.5883 16.243 19.4626 16.0464 19.165L15.9159 18.9674H12.9154L12.7541 19.2134Z" fill="var(--fill-0, #0B7AFC)"/>
<path d="M28.2 26.2968L28.2207 25.5307C28.2239 25.4283 28.1841 25.332 28.1077 25.2582C28.0314 25.1845 27.9312 25.1438 27.823 25.1438L20.4218 25.1439C20.3136 25.1439 20.2119 25.1845 20.1371 25.2568C20.0608 25.3305 20.0209 25.4268 20.0242 25.5292L20.1594 30.6102C20.161 31.7315 21.1249 32.6436 22.3099 32.6436H25.9365C27.1215 32.6436 28.0855 31.7314 28.087 30.6102L28.1029 30.0262C28.1347 30.0353 28.1665 30.0413 28.2015 30.0413C29.2926 30.0413 30.1803 29.2015 30.1803 28.1689C30.1788 27.138 29.2911 26.2968 28.2 26.2968ZM27.4492 30.5999V30.6104C27.4492 31.4006 26.7701 32.0433 25.9349 32.0433H22.3083C21.4733 32.0433 20.794 31.4007 20.794 30.6104V30.5984L20.6652 25.7461H27.5782L27.4492 30.5999ZM28.2 29.441C28.1714 29.441 28.1428 29.4455 28.1157 29.4515L28.1841 26.8974C28.1888 26.8974 28.1952 26.8989 28.1999 26.8989C28.9412 26.8989 29.5425 27.4693 29.5425 28.1692C29.5425 28.8706 28.9412 29.441 28.2 29.441Z" fill="var(--fill-0, #0B7AFC)"/>
<path d="M29.3955 23.8072C30.2433 23.8072 30.9329 23.1283 30.9329 22.2936C30.9329 22.0848 31.1046 21.9152 31.3172 21.9152C31.5298 21.9152 31.7015 22.0848 31.7015 22.2936C31.7015 23.1283 32.3911 23.8072 33.2388 23.8072C33.4514 23.8072 33.6232 23.9768 33.6232 24.1856C33.6232 24.3944 33.4514 24.564 33.2388 24.564C32.3911 24.564 31.7015 25.2429 31.7015 26.0776C31.7015 26.2864 31.5298 26.456 31.3172 26.456C31.1046 26.456 30.9329 26.2864 30.9329 26.0776C30.9329 25.2429 30.2433 24.564 29.3955 24.564C29.1829 24.564 29.0112 24.3944 29.0112 24.1856C29.0112 23.9768 29.1829 23.8072 29.3955 23.8072ZM31.3172 24.824C31.4879 24.5713 31.7089 24.3537 31.9656 24.1856C31.7089 24.0175 31.4879 23.7999 31.3172 23.5472C31.1465 23.7999 30.9255 24.0175 30.6688 24.1856C30.9255 24.3537 31.1465 24.5713 31.3172 24.824Z" fill="var(--fill-0, #0B7AFC)"/>
<path d="M30.7176 14.3338L27.9679 12.6554H27.9345L27.9123 12.6436H26.0755C26.0164 12.6436 25.9598 12.6685 25.918 12.713C25.8763 12.7575 25.8528 12.8179 25.8528 12.8808C25.8528 13.3212 25.6886 13.7435 25.3964 14.055C25.1041 14.3664 24.7077 14.5413 24.2943 14.5413C23.881 14.5413 23.4846 14.3664 23.1923 14.055C22.9 13.7435 22.7358 13.3212 22.7358 12.8808C22.7358 12.8179 22.7124 12.7575 22.6706 12.713C22.6289 12.6685 22.5722 12.6436 22.5132 12.6436H20.6764L20.6541 12.6554H20.6207L17.8711 14.3338C17.7234 14.4248 17.6137 14.5722 17.5642 14.7462C17.5146 14.9201 17.5288 15.1076 17.6039 15.2708L18.6281 17.4532C18.6837 17.5708 18.7687 17.6696 18.8739 17.7387C18.979 17.8078 19.1001 17.8444 19.2236 17.8446H20.5094V22.8263C20.5094 23.015 20.5798 23.196 20.705 23.3295C20.8303 23.4629 21.0002 23.5379 21.1773 23.5379H27.4113C27.5885 23.5379 27.7584 23.4629 27.8836 23.3295C28.0089 23.196 28.0793 23.015 28.0793 22.8263V17.8446H29.365C29.4886 17.8444 29.6096 17.8078 29.7148 17.7387C29.8199 17.6696 29.905 17.5708 29.9606 17.4532L30.9848 15.2708C31.0599 15.1076 31.0741 14.9201 31.0245 14.7462C30.9749 14.5722 30.8652 14.4248 30.7176 14.3338ZM19.2236 17.3702C19.1827 17.3716 19.1422 17.3599 19.1075 17.3366C19.0728 17.3134 19.0454 17.2796 19.0288 17.2397L18.0047 15.0573C17.9786 15.0028 17.9733 14.9396 17.9899 14.8811C18.0065 14.8225 18.0437 14.773 18.0937 14.743L20.5094 13.2722V17.3702H19.2236ZM27.634 22.8263C27.634 22.8892 27.6105 22.9495 27.5688 22.994C27.527 23.0385 27.4704 23.0635 27.4113 23.0635H21.1773C21.1183 23.0635 21.0616 23.0385 21.0199 22.994C20.9781 22.9495 20.9547 22.8892 20.9547 22.8263V13.1002H22.3017C22.3538 13.6246 22.5862 14.1099 22.9541 14.4626C23.322 14.8153 23.7994 15.0105 24.2943 15.0105C24.7892 15.0105 25.2667 14.8153 25.6346 14.4626C26.0025 14.1099 26.2349 13.6246 26.287 13.1002H27.634V22.8263ZM30.584 15.0573L29.5598 17.2397C29.5432 17.2796 29.5158 17.3134 29.4811 17.3366C29.4464 17.3599 29.406 17.3716 29.365 17.3702H28.0793V13.2722L30.4949 14.743C30.545 14.773 30.5822 14.8225 30.5988 14.8811C30.6153 14.9396 30.6101 15.0028 30.584 15.0573Z" stroke="var(--stroke-0, #0B7AFC)" stroke-width="0.2" mask="url(#path-2-outside-1_0_46)"/>
<path fill-rule="evenodd" clip-rule="evenodd" d="M16.7099 16.8134C16.8809 16.8979 16.9782 16.9829 17.0811 17.1378L17.1571 17.2521V17.793C17.1571 18.3545 17.1477 18.4566 17.085 18.5797C17.0251 18.6974 16.854 18.8468 16.7049 18.9117C16.6343 18.9424 16.5716 18.975 16.5656 18.9842C16.5595 18.9933 16.6276 19.1294 16.7169 19.2866C17.0558 19.8832 17.2376 20.2554 17.4377 20.762C17.7338 21.5117 17.969 22.3726 18.1151 23.2422C18.1813 23.6357 18.1862 23.8268 18.2034 26.6781C18.2202 29.4678 18.2136 31.0916 18.1844 31.327C18.1534 31.5783 17.9862 31.8808 17.7592 32.0966C17.5653 32.2809 17.3699 32.3973 17.1142 32.4809C17.0007 32.518 16.9635 32.5208 16.4118 32.5343C15.6538 32.5527 13.1659 32.5525 12.42 32.5339C11.7654 32.5176 11.7451 32.5144 11.4858 32.3874C11.1016 32.1992 10.8115 31.8771 10.6807 31.4933C10.6434 31.3838 10.6418 31.3522 10.6285 30.4367C10.6114 29.2635 10.6388 23.9091 10.6634 23.6293C10.7207 22.9751 11.0192 21.7664 11.3207 20.9674C11.5555 20.3453 11.7871 19.8646 12.1219 19.3049C12.2849 19.0324 12.3184 18.9512 12.2681 18.9512C12.2213 18.9512 12.0031 18.8368 11.9225 18.7699C11.8771 18.7323 11.8027 18.6479 11.7573 18.5823L11.6747 18.4632V17.247L11.7755 17.103C11.8848 16.9468 11.9493 16.8945 12.1497 16.7998L12.2735 16.7412L16.566 16.7422L16.7099 16.8134ZM12.2645 17.3048C12.2019 17.3939 12.1845 17.5514 12.1923 17.9592C12.1993 18.323 12.2117 18.3787 12.2954 18.4209C12.3635 18.4552 12.8583 18.4657 14.4159 18.4657C15.9734 18.4657 16.4682 18.4552 16.5363 18.4209C16.6181 18.3797 16.6316 18.3213 16.6393 17.9753C16.6483 17.5699 16.6295 17.3932 16.5677 17.3054L16.5227 17.2413H12.3091L12.2645 17.3048ZM12.7541 19.2134C12.182 20.0861 11.6718 21.3158 11.402 22.4725C11.2468 23.1381 11.2079 23.4159 11.1759 24.0891C11.1464 24.7098 11.1454 30.6919 11.1747 31.0417C11.1986 31.3263 11.2287 31.4869 11.2732 31.5679C11.3187 31.6507 11.6031 31.9022 11.7004 31.9456C11.8748 32.0234 11.8428 32.0224 14.4812 32.0288L16.9707 32.0349L17.0768 31.9749C17.3115 31.8421 17.4683 31.7014 17.5781 31.525C17.6594 31.3944 17.6605 31.3408 17.6615 27.4766C17.6623 24.6077 17.6579 23.8402 17.6399 23.6858C17.491 22.406 17.0901 21.0844 16.5122 19.9675C16.316 19.5883 16.243 19.4626 16.0464 19.165L15.9159 18.9674H12.9154L12.7541 19.2134Z" stroke="var(--stroke-0, #0B7AFC)" stroke-width="0.2" mask="url(#path-2-outside-1_0_46)"/>
<path d="M28.2 26.2968L28.2207 25.5307C28.2239 25.4283 28.1841 25.332 28.1077 25.2582C28.0314 25.1845 27.9312 25.1438 27.823 25.1438L20.4218 25.1439C20.3136 25.1439 20.2119 25.1845 20.1371 25.2568C20.0608 25.3305 20.0209 25.4268 20.0242 25.5292L20.1594 30.6102C20.161 31.7315 21.1249 32.6436 22.3099 32.6436H25.9365C27.1215 32.6436 28.0855 31.7314 28.087 30.6102L28.1029 30.0262C28.1347 30.0353 28.1665 30.0413 28.2015 30.0413C29.2926 30.0413 30.1803 29.2015 30.1803 28.1689C30.1788 27.138 29.2911 26.2968 28.2 26.2968ZM27.4492 30.5999V30.6104C27.4492 31.4006 26.7701 32.0433 25.9349 32.0433H22.3083C21.4733 32.0433 20.794 31.4007 20.794 30.6104V30.5984L20.6652 25.7461H27.5782L27.4492 30.5999ZM28.2 29.441C28.1714 29.441 28.1428 29.4455 28.1157 29.4515L28.1841 26.8974C28.1888 26.8974 28.1952 26.8989 28.1999 26.8989C28.9412 26.8989 29.5425 27.4693 29.5425 28.1692C29.5425 28.8706 28.9412 29.441 28.2 29.441Z" stroke="var(--stroke-0, #0B7AFC)" stroke-width="0.2" mask="url(#path-2-outside-1_0_46)"/>
<path d="M29.3955 23.8072C30.2433 23.8072 30.9329 23.1283 30.9329 22.2936C30.9329 22.0848 31.1046 21.9152 31.3172 21.9152C31.5298 21.9152 31.7015 22.0848 31.7015 22.2936C31.7015 23.1283 32.3911 23.8072 33.2388 23.8072C33.4514 23.8072 33.6232 23.9768 33.6232 24.1856C33.6232 24.3944 33.4514 24.564 33.2388 24.564C32.3911 24.564 31.7015 25.2429 31.7015 26.0776C31.7015 26.2864 31.5298 26.456 31.3172 26.456C31.1046 26.456 30.9329 26.2864 30.9329 26.0776C30.9329 25.2429 30.2433 24.564 29.3955 24.564C29.1829 24.564 29.0112 24.3944 29.0112 24.1856C29.0112 23.9768 29.1829 23.8072 29.3955 23.8072ZM31.3172 24.824C31.4879 24.5713 31.7089 24.3537 31.9656 24.1856C31.7089 24.0175 31.4879 23.7999 31.3172 23.5472C31.1465 23.7999 30.9255 24.0175 30.6688 24.1856C30.9255 24.3537 31.1465 24.5713 31.3172 24.824Z" stroke="var(--stroke-0, #0B7AFC)" stroke-width="0.2" mask="url(#path-2-outside-1_0_46)"/>
</g>
</g>
</svg>
