<svg preserveAspectRatio="none" width="100%" height="100%" overflow="visible" style="display: block;" viewBox="0 0 44.6373 44.6373" fill="none" xmlns="http://www.w3.org/2000/svg">
<g id="Frame 2087329834">
<circle id="Ellipse" cx="22.3187" cy="22.3187" r="22.3187" fill="var(--fill-0, #EAF2FF)"/>
<path id="Vector" d="M30.1511 16.7559H27.9854L28.1072 16.6235C28.5116 16.1847 28.7344 15.6004 28.7344 14.9789C28.7344 13.6964 27.7739 12.6533 26.593 12.6533C26.0206 12.6533 25.4828 12.8953 25.0785 13.3344L22.1233 16.5437L19.1681 13.3344C18.764 12.8953 18.226 12.6533 17.6537 12.6533C16.4727 12.6533 15.5122 13.6964 15.5122 14.9789C15.5122 15.6004 15.735 16.1845 16.1394 16.6235L16.2612 16.7559H14.0955C13.8343 16.7559 13.6233 16.985 13.6233 17.2687V32.1405C13.6233 32.4242 13.8343 32.6533 14.0955 32.6533H30.1511C30.4123 32.6533 30.6233 32.4242 30.6233 32.1405V17.2687C30.6233 16.985 30.4123 16.7559 30.1511 16.7559H30.1511ZM29.6789 19.8328H24.0122V17.7815H29.6789V19.8328ZM21.1789 19.8328V17.7815H23.0678V19.8328H21.1789ZM23.0678 20.8584V31.6277H21.1789V20.8584H23.0678ZM25.7461 14.0593C25.9719 13.8141 26.2728 13.6788 26.593 13.6788C27.2526 13.6788 27.79 14.2624 27.79 14.9787C27.79 15.3265 27.6654 15.6525 27.4396 15.8982L26.6501 16.7558H23.2634L25.7461 14.0593ZM16.8068 15.8984C16.5811 15.6532 16.4565 15.3265 16.4565 14.9788C16.4565 14.2624 16.9938 13.6788 17.6535 13.6788C17.9737 13.6788 18.2739 13.8141 18.5001 14.0593L20.9833 16.7558H17.5966L16.8068 15.8984ZM20.2343 17.7814V19.8327H14.5676V17.7814H20.2343ZM14.5676 20.8583H20.2343V31.6276H14.5676V20.8583ZM29.6787 31.6276H24.012V20.8583H29.6787V31.6276Z" fill="var(--fill-0, #0B7AFC)"/>
</g>
</svg>
