<svg preserveAspectRatio="none" width="100%" height="100%" overflow="visible" style="display: block;" viewBox="0 0 44.6373 44.6373" fill="none" xmlns="http://www.w3.org/2000/svg">
<g id="Frame 2087329831">
<circle id="Ellipse" cx="22.3187" cy="22.3187" r="22.3187" fill="var(--fill-0, #EAF2FF)"/>
<g id="Group 1801290375">
<path id="Vector" d="M19.4317 17.7294C20.8395 17.7294 21.9849 16.584 21.9849 15.1762C21.9849 13.7685 20.8395 12.623 19.4317 12.623C18.024 12.623 16.8785 13.7685 16.8785 15.1762C16.8785 16.584 18.0238 17.7294 19.4317 17.7294ZM19.4317 13.5644C20.3206 13.5644 21.0435 14.2872 21.0435 15.1762C21.0435 16.0651 20.3207 16.788 19.4317 16.788C18.5429 16.788 17.8199 16.0652 17.8199 15.1762C17.8199 14.2872 18.5429 13.5644 19.4317 13.5644Z" fill="var(--fill-0, #0B7AFC)"/>
<path id="Vector_2" d="M13.5429 28.7772H17.0207V31.3279C17.0207 31.7537 17.3741 32.0999 17.8084 32.0999H20.6774C21.0747 32.0999 21.398 31.7939 21.413 31.3963L21.466 29.2081C22.4888 30.9893 24.4328 32.1971 26.6615 32.1971C29.9487 32.1973 32.6232 29.5748 32.6232 26.3509C32.6232 23.127 29.949 20.5046 26.662 20.5046C25.3273 20.5046 24.0973 20.9424 23.1024 21.6722V20.9395C23.1024 19.6389 22.0231 18.5801 20.6966 18.5801H18.0229C16.5885 18.5801 15.4219 19.7244 15.4219 21.1307V23.3322H13.5432C13.0358 23.3322 12.6232 23.737 12.6232 24.2346V27.8749C12.6232 28.3724 13.0356 28.7772 13.5432 28.7772H13.5429ZM26.6617 21.4787C29.4007 21.4787 31.6295 23.6646 31.6295 26.3508C31.6295 29.0371 29.4007 31.2229 26.6617 31.2229C23.9226 31.2229 21.6938 29.037 21.6938 26.3508C21.6938 23.6646 23.9225 21.4787 26.6617 21.4787ZM16.4152 21.1304C16.4152 20.2612 17.1365 19.554 18.0227 19.554H18.793V21.9301C18.793 22.1993 19.0155 22.4173 19.2898 22.4173C19.5641 22.4173 19.7866 22.1994 19.7866 21.9301V19.554H20.6966C21.4754 19.554 22.1088 20.1753 22.1088 20.939C22.1088 20.939 22.1226 22.5251 22.1311 22.5608C21.4271 23.3689 20.9481 24.3663 20.7766 25.4634C20.6488 25.5483 20.426 31.1254 20.426 31.1254H18.0143V28.777H18.6571C19.1646 28.777 19.5773 28.3722 19.5773 27.8745L19.5772 24.2342C19.5772 23.7366 19.1644 23.3318 18.6569 23.3318H16.4152L16.4152 21.1304ZM13.6165 24.3061H18.5839V27.8027H13.6165V24.3061Z" fill="var(--fill-0, #0B7AFC)"/>
<path id="Vector_3" d="M23.1757 25.9325L24.5036 27.0313L24.0042 28.5129C23.915 28.7782 23.9583 29.0576 24.1224 29.2816C24.3962 29.6534 24.9613 29.7492 25.3444 29.4757L26.6699 28.5326L27.9902 29.4766C28.1411 29.585 28.3173 29.6422 28.5 29.6422C28.7795 29.6422 29.0463 29.5073 29.2133 29.2804C29.38 29.0547 29.4244 28.7725 29.3359 28.5084L28.8234 26.9496L30.1254 25.9594C30.4538 25.7321 30.5809 25.2903 30.4419 24.8596C30.3154 24.4672 29.9941 24.2137 29.6231 24.2137H27.9333L27.499 23.0521C27.3737 22.6733 27.0073 22.4082 26.6082 22.4082C26.2515 22.4082 25.9496 22.6245 25.8419 22.9502L25.3984 24.2136H23.7134C23.3427 24.2136 23.0209 24.467 22.8944 24.8594C22.7554 25.2902 22.8825 25.7321 23.1757 25.9326L23.1757 25.9325ZM25.6623 25.2343C25.9449 25.2343 26.1748 25.0692 26.2594 24.8124L26.656 23.6818L27.0756 24.8037C27.1632 25.0691 27.3935 25.2343 27.6758 25.2343C27.7304 25.2343 29.4603 25.2084 29.4603 25.2084L28.169 26.1899C27.861 26.4036 27.7206 26.8396 27.8422 27.2029L28.2454 28.4296L27.1831 27.6701C27.0338 27.5628 26.8568 27.5061 26.6713 27.5061C26.485 27.5061 26.3068 27.5628 26.1559 27.6707L25.1015 28.4209L25.494 27.2564C25.6155 26.8956 25.4848 26.5057 25.2033 26.3135L23.8686 25.2087C23.8686 25.2086 25.6079 25.2342 25.6623 25.2342L25.6623 25.2343Z" fill="var(--fill-0, #0B7AFC)"/>
</g>
</g>
</svg>
