<svg preserveAspectRatio="none" width="100%" height="100%" overflow="visible" style="display: block;" viewBox="0 0 44.6373 44.6373" fill="none" xmlns="http://www.w3.org/2000/svg">
<g id="Frame 2087329840" clip-path="url(#clip0_0_25)">
<circle id="Ellipse" cx="22.3187" cy="22.3187" r="22.3187" fill="var(--fill-0, #EAF2FF)"/>
<g id="Vector">
<mask id="path-2-outside-1_0_25" maskUnits="userSpaceOnUse" x="11.6233" y="11.7148" width="22" height="22" fill="black">
<rect fill="white" x="11.6233" y="11.7148" width="22" height="22"/>
<path d="M30.0678 22.7149H29.9566V18.0481C29.9566 17.3999 29.6991 16.7782 29.2407 16.3198C28.7823 15.8613 28.1606 15.6038 27.5123 15.6038H26.0678V15.2704C26.0678 13.8371 24.5544 12.7148 22.6233 12.7148C20.6923 12.7148 19.1789 13.8371 19.1789 15.2704V15.6038H17.7344C17.0861 15.6038 16.4644 15.8613 16.006 16.3198C15.5476 16.7782 15.29 17.3998 15.29 18.0481V22.7149H15.1788C14.5012 22.7155 13.8515 22.985 13.3725 23.4641C12.8934 23.9432 12.6239 24.5928 12.6233 25.2704V28.0482C12.6233 28.4903 12.7989 28.9141 13.1114 29.2267C13.4241 29.5392 13.8479 29.7149 14.29 29.7149H15.29V29.8259C15.29 30.5921 15.5943 31.3269 16.1361 31.8687C16.6778 32.4105 17.4126 32.7148 18.1788 32.7148H27.0678C27.834 32.7148 28.5687 32.4104 29.1105 31.8687C29.6523 31.3269 29.9566 30.5921 29.9566 29.8259V29.7149H30.9566C31.3987 29.7149 31.8225 29.5392 32.1351 29.2267C32.4476 28.9141 32.6233 28.4903 32.6233 28.0482V25.2704C32.6227 24.5928 32.3532 23.9432 31.8741 23.4641C31.395 22.985 30.7454 22.7155 30.0677 22.7149H30.0678ZM20.2899 15.2703C20.2899 14.4925 21.3587 13.8258 22.6232 13.8258C23.8877 13.8258 24.9565 14.4925 24.9565 15.2703V15.6037H20.2897L20.2899 15.2703ZM17.7343 16.7148H27.5122C27.8657 16.7148 28.2048 16.8552 28.4549 17.1053C28.7049 17.3554 28.8454 17.6945 28.8454 18.048V20.1347L27.5388 21.5147C27.0135 22.0669 26.2853 22.3801 25.5231 22.3815H25.2899V20.6392C25.2899 20.4408 25.184 20.2573 25.0121 20.1581C24.8401 20.0588 24.6283 20.0588 24.4564 20.1581C24.2846 20.2573 24.1787 20.4408 24.1787 20.6392V22.3815H21.0676V20.6392C21.0676 20.4408 20.9618 20.2573 20.7899 20.1581C20.618 20.0588 20.4062 20.0588 20.2342 20.1581C20.0623 20.2573 19.9564 20.4408 19.9564 20.6392V22.3815H19.7342C18.9722 22.3801 18.2439 22.0669 17.7187 21.5147L16.4009 20.1348V18.048C16.4009 17.6945 16.5414 17.3554 16.7914 17.1053C17.0415 16.8553 17.3807 16.7148 17.7342 16.7148H17.7343ZM14.2899 28.6036C14.1426 28.6036 14.0013 28.545 13.8971 28.4408C13.7929 28.3366 13.7343 28.1953 13.7343 28.048V25.2702C13.735 24.8874 13.8873 24.5202 14.1581 24.2496C14.4287 23.9788 14.7959 23.8265 15.1787 23.8258H15.2899V28.6036L14.2899 28.6036ZM27.0678 31.6036H18.1789C17.7075 31.6036 17.2552 31.4163 16.9218 31.0828C16.5885 30.7494 16.4011 30.2973 16.4011 29.8257V21.7504L16.9011 22.2704C17.6379 23.0494 18.6623 23.4912 19.7344 23.4926H19.9566V25.3816C19.9566 25.58 20.0625 25.7634 20.2344 25.8626C20.4064 25.9619 20.6182 25.9619 20.7901 25.8626C20.962 25.7634 21.0679 25.58 21.0679 25.3816V23.4926H24.1789V25.3816C24.1789 25.58 24.2848 25.7634 24.4567 25.8626C24.6285 25.9619 24.8403 25.9619 25.0123 25.8626C25.1842 25.7634 25.2901 25.58 25.2901 25.3816V23.4926H25.5123C26.5845 23.4912 27.6089 23.0494 28.3456 22.2704L28.8456 21.7504V29.8257C28.8456 30.2973 28.6583 30.7494 28.325 31.0828C27.9916 31.4163 27.5393 31.6036 27.0679 31.6036H27.0678ZM31.5125 28.048C31.5125 28.1953 31.4539 28.3366 31.3497 28.4408C31.2455 28.545 31.1041 28.6036 30.9568 28.6036H29.9568V23.8258H30.068C30.4508 23.8265 30.818 23.9788 31.0887 24.2496C31.3594 24.5202 31.5118 24.8874 31.5125 25.2702L31.5125 28.048Z"/>
</mask>
<path d="M30.0678 22.7149H29.9566V18.0481C29.9566 17.3999 29.6991 16.7782 29.2407 16.3198C28.7823 15.8613 28.1606 15.6038 27.5123 15.6038H26.0678V15.2704C26.0678 13.8371 24.5544 12.7148 22.6233 12.7148C20.6923 12.7148 19.1789 13.8371 19.1789 15.2704V15.6038H17.7344C17.0861 15.6038 16.4644 15.8613 16.006 16.3198C15.5476 16.7782 15.29 17.3998 15.29 18.0481V22.7149H15.1788C14.5012 22.7155 13.8515 22.985 13.3725 23.4641C12.8934 23.9432 12.6239 24.5928 12.6233 25.2704V28.0482C12.6233 28.4903 12.7989 28.9141 13.1114 29.2267C13.4241 29.5392 13.8479 29.7149 14.29 29.7149H15.29V29.8259C15.29 30.5921 15.5943 31.3269 16.1361 31.8687C16.6778 32.4105 17.4126 32.7148 18.1788 32.7148H27.0678C27.834 32.7148 28.5687 32.4104 29.1105 31.8687C29.6523 31.3269 29.9566 30.5921 29.9566 29.8259V29.7149H30.9566C31.3987 29.7149 31.8225 29.5392 32.1351 29.2267C32.4476 28.9141 32.6233 28.4903 32.6233 28.0482V25.2704C32.6227 24.5928 32.3532 23.9432 31.8741 23.4641C31.395 22.985 30.7454 22.7155 30.0677 22.7149H30.0678ZM20.2899 15.2703C20.2899 14.4925 21.3587 13.8258 22.6232 13.8258C23.8877 13.8258 24.9565 14.4925 24.9565 15.2703V15.6037H20.2897L20.2899 15.2703ZM17.7343 16.7148H27.5122C27.8657 16.7148 28.2048 16.8552 28.4549 17.1053C28.7049 17.3554 28.8454 17.6945 28.8454 18.048V20.1347L27.5388 21.5147C27.0135 22.0669 26.2853 22.3801 25.5231 22.3815H25.2899V20.6392C25.2899 20.4408 25.184 20.2573 25.0121 20.1581C24.8401 20.0588 24.6283 20.0588 24.4564 20.1581C24.2846 20.2573 24.1787 20.4408 24.1787 20.6392V22.3815H21.0676V20.6392C21.0676 20.4408 20.9618 20.2573 20.7899 20.1581C20.618 20.0588 20.4062 20.0588 20.2342 20.1581C20.0623 20.2573 19.9564 20.4408 19.9564 20.6392V22.3815H19.7342C18.9722 22.3801 18.2439 22.0669 17.7187 21.5147L16.4009 20.1348V18.048C16.4009 17.6945 16.5414 17.3554 16.7914 17.1053C17.0415 16.8553 17.3807 16.7148 17.7342 16.7148H17.7343ZM14.2899 28.6036C14.1426 28.6036 14.0013 28.545 13.8971 28.4408C13.7929 28.3366 13.7343 28.1953 13.7343 28.048V25.2702C13.735 24.8874 13.8873 24.5202 14.1581 24.2496C14.4287 23.9788 14.7959 23.8265 15.1787 23.8258H15.2899V28.6036L14.2899 28.6036ZM27.0678 31.6036H18.1789C17.7075 31.6036 17.2552 31.4163 16.9218 31.0828C16.5885 30.7494 16.4011 30.2973 16.4011 29.8257V21.7504L16.9011 22.2704C17.6379 23.0494 18.6623 23.4912 19.7344 23.4926H19.9566V25.3816C19.9566 25.58 20.0625 25.7634 20.2344 25.8626C20.4064 25.9619 20.6182 25.9619 20.7901 25.8626C20.962 25.7634 21.0679 25.58 21.0679 25.3816V23.4926H24.1789V25.3816C24.1789 25.58 24.2848 25.7634 24.4567 25.8626C24.6285 25.9619 24.8403 25.9619 25.0123 25.8626C25.1842 25.7634 25.2901 25.58 25.2901 25.3816V23.4926H25.5123C26.5845 23.4912 27.6089 23.0494 28.3456 22.2704L28.8456 21.7504V29.8257C28.8456 30.2973 28.6583 30.7494 28.325 31.0828C27.9916 31.4163 27.5393 31.6036 27.0679 31.6036H27.0678ZM31.5125 28.048C31.5125 28.1953 31.4539 28.3366 31.3497 28.4408C31.2455 28.545 31.1041 28.6036 30.9568 28.6036H29.9568V23.8258H30.068C30.4508 23.8265 30.818 23.9788 31.0887 24.2496C31.3594 24.5202 31.5118 24.8874 31.5125 25.2702L31.5125 28.048Z" fill="var(--fill-0, #0B7AFC)"/>
<path d="M30.0678 22.7149H29.9566V18.0481C29.9566 17.3999 29.6991 16.7782 29.2407 16.3198C28.7823 15.8613 28.1606 15.6038 27.5123 15.6038H26.0678V15.2704C26.0678 13.8371 24.5544 12.7148 22.6233 12.7148C20.6923 12.7148 19.1789 13.8371 19.1789 15.2704V15.6038H17.7344C17.0861 15.6038 16.4644 15.8613 16.006 16.3198C15.5476 16.7782 15.29 17.3998 15.29 18.0481V22.7149H15.1788C14.5012 22.7155 13.8515 22.985 13.3725 23.4641C12.8934 23.9432 12.6239 24.5928 12.6233 25.2704V28.0482C12.6233 28.4903 12.7989 28.9141 13.1114 29.2267C13.4241 29.5392 13.8479 29.7149 14.29 29.7149H15.29V29.8259C15.29 30.5921 15.5943 31.3269 16.1361 31.8687C16.6778 32.4105 17.4126 32.7148 18.1788 32.7148H27.0678C27.834 32.7148 28.5687 32.4104 29.1105 31.8687C29.6523 31.3269 29.9566 30.5921 29.9566 29.8259V29.7149H30.9566C31.3987 29.7149 31.8225 29.5392 32.1351 29.2267C32.4476 28.9141 32.6233 28.4903 32.6233 28.0482V25.2704C32.6227 24.5928 32.3532 23.9432 31.8741 23.4641C31.395 22.985 30.7454 22.7155 30.0677 22.7149H30.0678ZM20.2899 15.2703C20.2899 14.4925 21.3587 13.8258 22.6232 13.8258C23.8877 13.8258 24.9565 14.4925 24.9565 15.2703V15.6037H20.2897L20.2899 15.2703ZM17.7343 16.7148H27.5122C27.8657 16.7148 28.2048 16.8552 28.4549 17.1053C28.7049 17.3554 28.8454 17.6945 28.8454 18.048V20.1347L27.5388 21.5147C27.0135 22.0669 26.2853 22.3801 25.5231 22.3815H25.2899V20.6392C25.2899 20.4408 25.184 20.2573 25.0121 20.1581C24.8401 20.0588 24.6283 20.0588 24.4564 20.1581C24.2846 20.2573 24.1787 20.4408 24.1787 20.6392V22.3815H21.0676V20.6392C21.0676 20.4408 20.9618 20.2573 20.7899 20.1581C20.618 20.0588 20.4062 20.0588 20.2342 20.1581C20.0623 20.2573 19.9564 20.4408 19.9564 20.6392V22.3815H19.7342C18.9722 22.3801 18.2439 22.0669 17.7187 21.5147L16.4009 20.1348V18.048C16.4009 17.6945 16.5414 17.3554 16.7914 17.1053C17.0415 16.8553 17.3807 16.7148 17.7342 16.7148H17.7343ZM14.2899 28.6036C14.1426 28.6036 14.0013 28.545 13.8971 28.4408C13.7929 28.3366 13.7343 28.1953 13.7343 28.048V25.2702C13.735 24.8874 13.8873 24.5202 14.1581 24.2496C14.4287 23.9788 14.7959 23.8265 15.1787 23.8258H15.2899V28.6036L14.2899 28.6036ZM27.0678 31.6036H18.1789C17.7075 31.6036 17.2552 31.4163 16.9218 31.0828C16.5885 30.7494 16.4011 30.2973 16.4011 29.8257V21.7504L16.9011 22.2704C17.6379 23.0494 18.6623 23.4912 19.7344 23.4926H19.9566V25.3816C19.9566 25.58 20.0625 25.7634 20.2344 25.8626C20.4064 25.9619 20.6182 25.9619 20.7901 25.8626C20.962 25.7634 21.0679 25.58 21.0679 25.3816V23.4926H24.1789V25.3816C24.1789 25.58 24.2848 25.7634 24.4567 25.8626C24.6285 25.9619 24.8403 25.9619 25.0123 25.8626C25.1842 25.7634 25.2901 25.58 25.2901 25.3816V23.4926H25.5123C26.5845 23.4912 27.6089 23.0494 28.3456 22.2704L28.8456 21.7504V29.8257C28.8456 30.2973 28.6583 30.7494 28.325 31.0828C27.9916 31.4163 27.5393 31.6036 27.0679 31.6036H27.0678ZM31.5125 28.048C31.5125 28.1953 31.4539 28.3366 31.3497 28.4408C31.2455 28.545 31.1041 28.6036 30.9568 28.6036H29.9568V23.8258H30.068C30.4508 23.8265 30.818 23.9788 31.0887 24.2496C31.3594 24.5202 31.5118 24.8874 31.5125 25.2702L31.5125 28.048Z" stroke="var(--stroke-0, #0B7AFC)" stroke-width="0.4" mask="url(#path-2-outside-1_0_25)"/>
</g>
</g>
<defs>
<clipPath id="clip0_0_25">
<rect width="44.6373" height="44.6373" fill="white"/>
</clipPath>
</defs>
</svg>
