<svg preserveAspectRatio="none" width="100%" height="100%" overflow="visible" style="display: block;" viewBox="0 0 44.6373 44.6373" fill="none" xmlns="http://www.w3.org/2000/svg">
<g id="Frame 2087329845">
<circle id="Ellipse" cx="22.3187" cy="22.3187" r="22.3187" fill="var(--fill-0, #EAF2FF)"/>
<path id="Vector" d="M20.0697 21.8964C20.0697 22.3933 20.2861 22.8699 20.6711 23.2215C21.0563 23.5728 21.5787 23.7702 22.1233 23.7702C22.6679 23.7702 23.1902 23.5728 23.5755 23.2215C23.9605 22.87 24.1769 22.3933 24.1769 21.8964C24.1769 21.3995 23.9605 20.9228 23.5755 20.5713C23.1903 20.2199 22.6679 20.0225 22.1233 20.0225C21.5787 20.0225 21.0564 20.2199 20.6711 20.5713C20.2861 20.9228 20.0697 21.3995 20.0697 21.8964ZM22.534 21.8964C22.534 22.048 22.4339 22.1847 22.2804 22.2425C22.127 22.3006 21.9504 22.2686 21.8329 22.1614C21.7153 22.0542 21.6803 21.893 21.7439 21.753C21.8074 21.613 21.9572 21.5216 22.1233 21.5216C22.2322 21.5216 22.3367 21.5611 22.4137 21.6314C22.4907 21.7016 22.534 21.797 22.534 21.8964ZM22.534 24.5198H21.7126C21.0589 24.5198 20.4322 24.7567 19.97 25.1783C19.5079 25.6001 19.2483 26.172 19.2483 26.7684V29.0171C19.2483 29.2158 19.3348 29.4066 19.4889 29.5471C19.6429 29.6876 19.8519 29.7666 20.0697 29.7666H24.1769C24.3947 29.7666 24.6037 29.6876 24.7577 29.5471C24.9117 29.4066 24.9983 29.2158 24.9983 29.0171V26.7684C24.9983 26.172 24.7387 25.6001 24.2766 25.1783C23.8144 24.7567 23.1877 24.5198 22.534 24.5198ZM23.3554 28.2675H20.8911V26.7684C20.8911 26.5697 20.9777 26.3789 21.1317 26.2384C21.2857 26.0979 21.4948 26.0189 21.7126 26.0189H22.534C22.7518 26.0189 22.9609 26.0979 23.1149 26.2384C23.2689 26.3789 23.3554 26.5697 23.3554 26.7684V28.2675ZM11.4447 21.8964C11.4447 22.3933 11.6611 22.8699 12.0461 23.2215C12.4313 23.5728 12.9537 23.7702 13.4983 23.7702C14.0429 23.7702 14.5652 23.5728 14.9505 23.2215C15.3355 22.87 15.5519 22.3933 15.5519 21.8964C15.5519 21.3995 15.3355 20.9228 14.9505 20.5713C14.5653 20.2199 14.0429 20.0225 13.4983 20.0225C12.9537 20.0225 12.4314 20.2199 12.0461 20.5713C11.6611 20.9228 11.4447 21.3995 11.4447 21.8964ZM13.909 21.8964C13.909 22.048 13.8089 22.1847 13.6554 22.2425C13.502 22.3006 13.3254 22.2686 13.2079 22.1614C13.0903 22.0542 13.0553 21.893 13.1189 21.753C13.1824 21.613 13.3322 21.5216 13.4983 21.5216C13.6072 21.5216 13.7117 21.5611 13.7887 21.6314C13.8657 21.7016 13.909 21.797 13.909 21.8964ZM13.909 24.5198H13.0876C12.4339 24.5198 11.8072 24.7567 11.345 25.1783C10.8829 25.6001 10.6233 26.172 10.6233 26.7684V29.0171C10.6233 29.2158 10.7098 29.4066 10.8639 29.5471C11.0179 29.6876 11.2269 29.7666 11.4447 29.7666H15.5519C15.7697 29.7666 15.9787 29.6876 16.1327 29.5471C16.2867 29.4066 16.3733 29.2158 16.3733 29.0171V26.7684C16.3733 26.172 16.1137 25.6001 15.6516 25.1783C15.1894 24.7567 14.5627 24.5198 13.909 24.5198ZM14.7304 28.2675H12.2661V26.7684C12.2661 26.5697 12.3527 26.3789 12.5067 26.2384C12.6607 26.0979 12.8698 26.0189 13.0876 26.0189H13.909C14.1268 26.0189 14.3359 26.0979 14.4899 26.2384C14.6439 26.3789 14.7304 26.5697 14.7304 26.7684V28.2675ZM28.6947 21.8964C28.6947 22.3933 28.9111 22.8699 29.2961 23.2215C29.6813 23.5728 30.2037 23.7702 30.7483 23.7702C31.2929 23.7702 31.8152 23.5728 32.2005 23.2215C32.5855 22.87 32.8019 22.3933 32.8019 21.8964C32.8019 21.3995 32.5855 20.9228 32.2005 20.5713C31.8153 20.2199 31.2929 20.0225 30.7483 20.0225C30.2037 20.0225 29.6814 20.2199 29.2961 20.5713C28.9111 20.9228 28.6947 21.3995 28.6947 21.8964ZM31.159 21.8964C31.159 22.048 31.0589 22.1847 30.9054 22.2425C30.752 22.3006 30.5754 22.2686 30.4579 22.1614C30.3403 22.0542 30.3053 21.893 30.3689 21.753C30.4324 21.613 30.5822 21.5216 30.7483 21.5216C30.8572 21.5216 30.9617 21.5611 31.0387 21.6314C31.1157 21.7016 31.159 21.797 31.159 21.8964ZM31.159 24.5198H30.3376C29.6839 24.5198 29.0572 24.7567 28.595 25.1783C28.1329 25.6001 27.8733 26.172 27.8733 26.7684V29.0171C27.8733 29.2158 27.9598 29.4066 28.1139 29.5471C28.2679 29.6876 28.4769 29.7666 28.6947 29.7666H32.8019C33.0197 29.7666 33.2287 29.6876 33.3827 29.5471C33.5367 29.4066 33.6233 29.2158 33.6233 29.0171V26.7684C33.6233 26.172 33.3637 25.6001 32.9016 25.1783C32.4394 24.7567 31.8127 24.5198 31.159 24.5198ZM31.9804 28.2675H29.5161V26.7684C29.5161 26.5697 29.6027 26.3789 29.7567 26.2384C29.9107 26.0979 30.1198 26.0189 30.3376 26.0189H31.159C31.3768 26.0189 31.5859 26.0979 31.7399 26.2384C31.8939 26.3789 31.9804 26.5697 31.9804 26.7684V28.2675ZM19.8003 17.1151C19.5988 16.9248 19.5221 16.6515 19.5988 16.3962C19.6756 16.1409 19.8942 15.9417 20.1738 15.8715C20.4536 15.8016 20.753 15.8714 20.9617 16.0553L21.5423 16.5851L23.2846 14.9954L23.2847 14.9955C23.4378 14.8508 23.6481 14.7685 23.8684 14.7666C24.0888 14.765 24.3005 14.8439 24.4564 14.9862C24.6122 15.1284 24.6988 15.3216 24.6969 15.5227C24.6951 15.7236 24.6047 15.9157 24.4461 16.0553L22.1232 18.1751C21.9692 18.3156 21.7603 18.3944 21.5425 18.3944C21.3247 18.3944 21.1157 18.3156 20.9617 18.1751L19.8003 17.1151ZM11.1753 17.1151C10.9738 16.9248 10.8971 16.6515 10.9738 16.3962C11.0506 16.1409 11.2692 15.9417 11.5488 15.8715C11.8286 15.8016 12.128 15.8714 12.3367 16.0553L12.9173 16.5851L14.6597 14.9955C14.8684 14.8117 15.1678 14.7417 15.4476 14.8117C15.7272 14.8818 15.9458 15.0812 16.0226 15.3363C16.0993 15.5916 16.0226 15.8649 15.8211 16.0553L13.4982 18.1751C13.3442 18.3156 13.1353 18.3944 12.9175 18.3944C12.6997 18.3944 12.4907 18.3156 12.3367 18.1751L11.1753 17.1151ZM28.4253 17.1151C28.2667 16.9754 28.1763 16.7835 28.1745 16.5826C28.1726 16.3815 28.2592 16.1882 28.415 16.046C28.5709 15.9038 28.7826 15.8247 29.003 15.8265C29.2232 15.8282 29.4335 15.9107 29.5867 16.0552L30.1673 16.5851L31.9096 14.9953L31.9097 14.9955C32.0628 14.8508 32.2732 14.7685 32.4934 14.7666C32.7138 14.765 32.9255 14.8439 33.0814 14.9861C33.2372 15.1283 33.3238 15.3216 33.3219 15.5227C33.3201 15.7236 33.2297 15.9157 33.0711 16.0552L30.7482 18.175C30.5942 18.3156 30.3854 18.3944 30.1675 18.3944C29.9497 18.3944 29.7407 18.3156 29.5867 18.175L28.4253 17.1151Z" fill="var(--fill-0, #0B7AFC)"/>
</g>
</svg>
