<svg preserveAspectRatio="none" width="100%" height="100%" overflow="visible" style="display: block;" viewBox="0 0 44.6373 44.6373" fill="none" xmlns="http://www.w3.org/2000/svg">
<g id="Frame 2087329835">
<circle id="Ellipse" cx="22.3187" cy="22.3187" r="22.3187" fill="var(--fill-0, #EAF2FF)"/>
<g id="Vector">
<mask id="path-2-inside-1_0_43" fill="white">
<path d="M28.0624 20.0794C27.6547 20.0794 27.3886 19.7668 27.1747 19.5155C27.0951 19.4223 26.9753 19.2812 26.9188 19.257C26.8533 19.2291 26.6706 19.2406 26.5372 19.2491C26.2192 19.269 25.8234 19.2942 25.5447 19.0075C25.2658 18.7208 25.2903 18.314 25.3097 17.9872C25.3179 17.8501 25.3291 17.6624 25.3019 17.5949C25.2787 17.5373 25.1358 17.4089 25.0507 17.3321C24.8062 17.1125 24.502 16.8388 24.502 16.4198C24.502 16.0008 24.8062 15.7273 25.0507 15.5074C25.1414 15.4257 25.2786 15.3025 25.3022 15.2445C25.3293 15.1771 25.3182 14.9894 25.3099 14.8523C25.2905 14.5255 25.266 14.1187 25.545 13.8323C25.8239 13.5457 26.2197 13.5708 26.5377 13.5908C26.6711 13.5993 26.8538 13.6107 26.9195 13.5828C26.9758 13.5589 27.1004 13.412 27.1751 13.3246C27.3888 13.0733 27.6552 12.7607 28.0629 12.7607C28.4706 12.7607 28.7367 13.0733 28.9506 13.3246C29.0302 13.4178 29.15 13.5589 29.2065 13.5831C29.272 13.611 29.4547 13.5995 29.5881 13.591C29.906 13.5711 30.3019 13.5459 30.5806 13.8326C30.8595 14.1192 30.835 14.5261 30.8156 14.8528C30.8073 14.9899 30.7962 15.1776 30.8234 15.2452C30.8466 15.3028 30.9895 15.4312 31.0746 15.5079C31.3191 15.7276 31.6233 16.0013 31.6233 16.4203C31.6233 16.8393 31.3191 17.1128 31.0746 17.3327C30.9839 17.4144 30.8466 17.5376 30.8231 17.5956C30.796 17.6629 30.8071 17.8506 30.8154 17.9877C30.8348 18.3145 30.8593 18.7214 30.5803 19.0078C30.3014 19.2944 29.9056 19.2693 29.5876 19.2493C29.4542 19.2408 29.2715 19.2294 29.2058 19.2573C29.1495 19.2812 29.0249 19.428 28.9501 19.5155C28.7362 19.7668 28.4704 20.0794 28.0624 20.0794ZM26.7582 18.402C26.9171 18.402 27.0798 18.419 27.2312 18.4838C27.4633 18.5828 27.6357 18.7854 27.7881 18.9644C27.8618 19.0514 27.9967 19.2094 28.0624 19.2398C28.1284 19.2094 28.2628 19.0514 28.3365 18.9646C28.4888 18.7857 28.6613 18.5827 28.8936 18.484C29.1333 18.3818 29.4011 18.3988 29.6373 18.414C29.7411 18.4207 29.9269 18.4324 29.9997 18.4122C30.0191 18.3375 30.0079 18.1463 30.0014 18.0398C29.9868 17.797 29.9703 17.5216 30.0698 17.2753C30.1661 17.0368 30.3633 16.8595 30.5374 16.7032C30.6221 16.6275 30.7759 16.4889 30.8054 16.4213C30.7759 16.3535 30.6221 16.2154 30.5377 16.1396C30.3635 15.9831 30.1661 15.8058 30.07 15.567C29.9706 15.3208 29.9871 15.0456 30.0019 14.8027C30.0084 14.696 30.0198 14.5051 30.0002 14.4303C29.9272 14.4104 29.7414 14.4218 29.6378 14.4286C29.4016 14.4435 29.1335 14.4605 28.8939 14.3583C28.6618 14.2593 28.4894 14.0567 28.337 13.8777C28.2633 13.7907 28.1284 13.6326 28.0627 13.6025C27.9967 13.6329 27.8623 13.7909 27.7886 13.8777C27.6363 14.0567 27.4636 14.2596 27.2315 14.3583C26.9918 14.4605 26.724 14.4435 26.4878 14.4283C26.384 14.4218 26.1982 14.4099 26.1254 14.4303C26.106 14.5054 26.1172 14.6963 26.1237 14.8027C26.1383 15.0455 26.1548 15.321 26.0553 15.5672C25.959 15.8058 25.7618 15.983 25.5877 16.1396C25.503 16.2154 25.3492 16.354 25.3197 16.4215C25.3492 16.4893 25.503 16.6274 25.5874 16.7032C25.7616 16.8597 25.959 17.037 26.0551 17.2758C26.1545 17.5221 26.138 17.7973 26.1232 18.0398C26.1167 18.1465 26.1053 18.3375 26.1252 18.4122C26.1982 18.4322 26.3837 18.4207 26.4875 18.414C26.5744 18.4078 26.6655 18.402 26.7582 18.402Z"/>
<path d="M29.0272 16.5108L29.0258 16.5083C28.944 16.3849 28.8198 16.283 28.6564 16.2057C28.5513 16.1566 28.3704 16.1025 28.1036 16.0404C27.7686 15.9626 27.7065 15.9076 27.7041 15.9053C27.6769 15.8804 27.6658 15.8537 27.6658 15.8131C27.6658 15.763 27.6864 15.7243 27.7351 15.6845C27.7742 15.652 27.8603 15.6139 28.0478 15.6139C28.1902 15.6139 28.2942 15.6408 28.3573 15.6939C28.398 15.7286 28.4276 15.7772 28.4456 15.8385C28.4854 15.9761 28.6049 16.0688 28.7432 16.0688C28.7507 16.0688 28.7587 16.0686 28.7675 16.0678L28.7711 16.0676C28.8652 16.0604 28.9499 16.0105 29.0039 15.9312C29.0575 15.8525 29.0738 15.754 29.0483 15.6615C29.0246 15.5753 28.9882 15.4933 28.9399 15.4182C28.8506 15.2784 28.7228 15.1719 28.5598 15.1014C28.407 15.0351 28.2304 15.0017 28.0349 15.0017C27.8559 15.0017 27.6896 15.0338 27.5409 15.0969C27.3813 15.1647 27.2571 15.2672 27.1717 15.4015C27.0871 15.5346 27.0441 15.6805 27.0441 15.8348C27.0441 15.9774 27.0803 16.1085 27.1518 16.2244C27.2217 16.3383 27.3267 16.4335 27.464 16.5076L27.4664 16.5088C27.5668 16.5631 27.7274 16.617 27.9576 16.6738C28.2171 16.7379 28.3187 16.77 28.3583 16.786C28.4458 16.8204 28.4842 16.8538 28.5009 16.876C28.5215 16.9034 28.5317 16.9356 28.5317 16.9742C28.5317 17.0141 28.5198 17.0505 28.4953 17.0854C28.4694 17.1223 28.4252 17.1534 28.3638 17.1779C28.2916 17.2068 28.205 17.2212 28.1063 17.2212C27.9949 17.2212 27.8945 17.2018 27.8079 17.1629C27.7296 17.1278 27.6731 17.0841 27.6396 17.0333C27.6178 17.0001 27.6003 16.959 27.5877 16.9116C27.5503 16.7716 27.4261 16.6738 27.2855 16.6738C27.276 16.6738 27.2665 16.6741 27.2583 16.6751C27.1678 16.6833 27.0854 16.7312 27.0322 16.8067C26.9789 16.8827 26.96 16.9787 26.9811 17.0702C27.0063 17.1804 27.05 17.2846 27.1106 17.3793C27.21 17.5346 27.3478 17.6522 27.5207 17.7288C27.6847 17.8013 27.8865 17.8382 28.1208 17.8382C28.3117 17.8382 28.4871 17.8013 28.6421 17.7283C28.8041 17.6525 28.9312 17.5423 29.02 17.4017C29.1085 17.2609 29.1534 17.1083 29.1534 16.9475C29.1529 16.785 29.1106 16.6379 29.0272 16.5108Z"/>
<path d="M26.5819 24.1742C26.5239 24.1742 26.466 24.1617 26.4114 24.1355C26.2668 24.0672 26.1747 23.9187 26.1747 23.7551L26.1744 18.8354C26.1744 18.6041 26.3568 18.4166 26.5819 18.4166C26.807 18.4166 26.9894 18.6041 26.9894 18.8354V22.847L27.7973 22.1376C27.9499 22.0037 28.1743 22.0037 28.3268 22.1376L29.1348 22.847V18.8354C29.1348 18.6041 29.3172 18.4166 29.5423 18.4166C29.7674 18.4166 29.9498 18.6041 29.9498 18.8354V23.7554C29.9498 23.9189 29.8571 24.0675 29.713 24.1358C29.5685 24.2041 29.3987 24.1801 29.2777 24.074L28.0622 23.007L26.8468 24.074C26.7714 24.14 26.677 24.1742 26.5819 24.1742Z"/>
<path d="M16.7819 32.6641C16.6213 32.6641 16.4605 32.6346 16.307 32.5758C15.6564 32.3258 15.2965 31.6156 15.47 30.9241L17 24.8213L17.0281 20.5747L16.2095 21.1652L16.0295 23.383C16.0014 23.7278 15.8328 24.0471 15.5667 24.2592C15.3007 24.4711 14.9579 24.5596 14.6262 24.5015C14.3293 24.4496 14.0639 24.2866 13.8786 24.0428C13.6933 23.7988 13.6038 23.4947 13.6268 23.186L13.8396 20.3191C13.8699 19.9115 14.0719 19.5401 14.3943 19.3003L16.9714 17.3839C17.8198 16.753 18.9804 16.8395 19.7314 17.5895L21.7819 19.6379L23.9532 20.015C24.5783 20.1235 25.0316 20.6754 25.0316 21.3265C25.0316 21.7129 24.8684 22.0796 24.5841 22.3326C24.2998 22.5853 23.9231 22.6985 23.551 22.6429L21.4513 22.3296C21.2706 22.3027 21.1003 22.2393 20.9451 22.1419L20.2536 21.7081L20.2739 23.3145L22.5641 24.3966C22.9498 24.5788 23.1892 24.9934 23.1601 25.4283L22.9515 28.5475C22.9272 28.9127 22.7628 29.2428 22.4885 29.4766C22.2144 29.7104 21.8682 29.8156 21.5143 29.773C20.8575 29.6937 20.368 29.1214 20.3758 28.4414L20.3969 26.5484L19.4412 26.1483L18.0953 31.6132C18.0009 31.9968 17.7511 32.3218 17.4103 32.5051C17.2148 32.6111 16.9987 32.6641 16.7819 32.6641ZM17.4411 19.3466C17.5059 19.3466 17.5709 19.3626 17.6303 19.3945C17.7654 19.4673 17.8496 19.6116 17.8486 19.7681L17.8147 24.8788C17.8144 24.9132 17.8101 24.9471 17.8018 24.9802L16.2592 31.1331C16.19 31.4086 16.3336 31.6917 16.5929 31.7912C16.7387 31.8473 16.8949 31.8375 17.0327 31.7632C17.1704 31.689 17.2675 31.5628 17.3058 31.4075L18.7666 25.476C18.7955 25.3586 18.8726 25.2597 18.9779 25.2051C19.0832 25.1505 19.2064 25.1452 19.3155 25.1909L20.9618 25.8801C21.1167 25.9449 21.2174 26.1007 21.2155 26.2727L21.1912 28.4507C21.1883 28.7009 21.3685 28.9116 21.6101 28.9407C21.7403 28.9564 21.8677 28.9178 21.9686 28.8315C22.0695 28.7453 22.1301 28.6242 22.1388 28.4898L22.3474 25.3706C22.3533 25.2806 22.304 25.1949 22.2242 25.1572L19.7003 23.9647C19.5574 23.8971 19.465 23.7513 19.463 23.5897L19.4296 20.9613C19.4276 20.809 19.5065 20.6674 19.6353 20.5919C19.7641 20.5164 19.9227 20.5189 20.0493 20.5981L21.3705 21.4267C21.4316 21.4651 21.4985 21.4898 21.5693 21.5005L23.6688 21.8138C23.8088 21.8348 23.9446 21.7939 24.0513 21.6989C24.1583 21.6037 24.217 21.4716 24.217 21.3265C24.217 21.0855 24.0492 20.8811 23.8178 20.8407L21.5213 20.4416C21.4398 20.4274 21.3644 20.3882 21.3052 20.3289L19.1635 18.1901C18.6971 17.7242 17.9762 17.6704 17.4494 18.0622L14.8723 19.9786C14.7447 20.0739 14.6644 20.2209 14.6525 20.3825L14.4398 23.2496C14.4243 23.4575 14.5635 23.6405 14.7634 23.6757C14.8723 23.6946 14.9805 23.6669 15.068 23.5974C15.1553 23.5278 15.2087 23.4269 15.2179 23.3137L15.4136 20.9005C15.4236 20.7769 15.4867 20.6639 15.5856 20.5924L17.2073 19.4226C17.2769 19.3722 17.3587 19.3466 17.4411 19.3466Z"/>
<path d="M18.8361 16.6928C17.7553 16.6928 16.8761 15.7892 16.8761 14.6784C16.8761 13.5677 17.7553 12.6641 18.8361 12.6641C19.9167 12.6641 20.7962 13.5677 20.7962 14.6784C20.7962 15.7889 19.9167 16.6928 18.8361 16.6928ZM18.8361 13.5016C18.2048 13.5016 17.6911 14.0295 17.6911 14.6784C17.6911 15.3272 18.2048 15.8552 18.8361 15.8552C19.4675 15.8552 19.9812 15.3272 19.9812 14.6784C19.9812 14.0295 19.4675 13.5016 18.8361 13.5016Z"/>
</mask>
<path d="M28.0624 20.0794C27.6547 20.0794 27.3886 19.7668 27.1747 19.5155C27.0951 19.4223 26.9753 19.2812 26.9188 19.257C26.8533 19.2291 26.6706 19.2406 26.5372 19.2491C26.2192 19.269 25.8234 19.2942 25.5447 19.0075C25.2658 18.7208 25.2903 18.314 25.3097 17.9872C25.3179 17.8501 25.3291 17.6624 25.3019 17.5949C25.2787 17.5373 25.1358 17.4089 25.0507 17.3321C24.8062 17.1125 24.502 16.8388 24.502 16.4198C24.502 16.0008 24.8062 15.7273 25.0507 15.5074C25.1414 15.4257 25.2786 15.3025 25.3022 15.2445C25.3293 15.1771 25.3182 14.9894 25.3099 14.8523C25.2905 14.5255 25.266 14.1187 25.545 13.8323C25.8239 13.5457 26.2197 13.5708 26.5377 13.5908C26.6711 13.5993 26.8538 13.6107 26.9195 13.5828C26.9758 13.5589 27.1004 13.412 27.1751 13.3246C27.3888 13.0733 27.6552 12.7607 28.0629 12.7607C28.4706 12.7607 28.7367 13.0733 28.9506 13.3246C29.0302 13.4178 29.15 13.5589 29.2065 13.5831C29.272 13.611 29.4547 13.5995 29.5881 13.591C29.906 13.5711 30.3019 13.5459 30.5806 13.8326C30.8595 14.1192 30.835 14.5261 30.8156 14.8528C30.8073 14.9899 30.7962 15.1776 30.8234 15.2452C30.8466 15.3028 30.9895 15.4312 31.0746 15.5079C31.3191 15.7276 31.6233 16.0013 31.6233 16.4203C31.6233 16.8393 31.3191 17.1128 31.0746 17.3327C30.9839 17.4144 30.8466 17.5376 30.8231 17.5956C30.796 17.6629 30.8071 17.8506 30.8154 17.9877C30.8348 18.3145 30.8593 18.7214 30.5803 19.0078C30.3014 19.2944 29.9056 19.2693 29.5876 19.2493C29.4542 19.2408 29.2715 19.2294 29.2058 19.2573C29.1495 19.2812 29.0249 19.428 28.9501 19.5155C28.7362 19.7668 28.4704 20.0794 28.0624 20.0794ZM26.7582 18.402C26.9171 18.402 27.0798 18.419 27.2312 18.4838C27.4633 18.5828 27.6357 18.7854 27.7881 18.9644C27.8618 19.0514 27.9967 19.2094 28.0624 19.2398C28.1284 19.2094 28.2628 19.0514 28.3365 18.9646C28.4888 18.7857 28.6613 18.5827 28.8936 18.484C29.1333 18.3818 29.4011 18.3988 29.6373 18.414C29.7411 18.4207 29.9269 18.4324 29.9997 18.4122C30.0191 18.3375 30.0079 18.1463 30.0014 18.0398C29.9868 17.797 29.9703 17.5216 30.0698 17.2753C30.1661 17.0368 30.3633 16.8595 30.5374 16.7032C30.6221 16.6275 30.7759 16.4889 30.8054 16.4213C30.7759 16.3535 30.6221 16.2154 30.5377 16.1396C30.3635 15.9831 30.1661 15.8058 30.07 15.567C29.9706 15.3208 29.9871 15.0456 30.0019 14.8027C30.0084 14.696 30.0198 14.5051 30.0002 14.4303C29.9272 14.4104 29.7414 14.4218 29.6378 14.4286C29.4016 14.4435 29.1335 14.4605 28.8939 14.3583C28.6618 14.2593 28.4894 14.0567 28.337 13.8777C28.2633 13.7907 28.1284 13.6326 28.0627 13.6025C27.9967 13.6329 27.8623 13.7909 27.7886 13.8777C27.6363 14.0567 27.4636 14.2596 27.2315 14.3583C26.9918 14.4605 26.724 14.4435 26.4878 14.4283C26.384 14.4218 26.1982 14.4099 26.1254 14.4303C26.106 14.5054 26.1172 14.6963 26.1237 14.8027C26.1383 15.0455 26.1548 15.321 26.0553 15.5672C25.959 15.8058 25.7618 15.983 25.5877 16.1396C25.503 16.2154 25.3492 16.354 25.3197 16.4215C25.3492 16.4893 25.503 16.6274 25.5874 16.7032C25.7616 16.8597 25.959 17.037 26.0551 17.2758C26.1545 17.5221 26.138 17.7973 26.1232 18.0398C26.1167 18.1465 26.1053 18.3375 26.1252 18.4122C26.1982 18.4322 26.3837 18.4207 26.4875 18.414C26.5744 18.4078 26.6655 18.402 26.7582 18.402Z" fill="var(--fill-0, #0B7AFC)"/>
<path d="M29.0272 16.5108L29.0258 16.5083C28.944 16.3849 28.8198 16.283 28.6564 16.2057C28.5513 16.1566 28.3704 16.1025 28.1036 16.0404C27.7686 15.9626 27.7065 15.9076 27.7041 15.9053C27.6769 15.8804 27.6658 15.8537 27.6658 15.8131C27.6658 15.763 27.6864 15.7243 27.7351 15.6845C27.7742 15.652 27.8603 15.6139 28.0478 15.6139C28.1902 15.6139 28.2942 15.6408 28.3573 15.6939C28.398 15.7286 28.4276 15.7772 28.4456 15.8385C28.4854 15.9761 28.6049 16.0688 28.7432 16.0688C28.7507 16.0688 28.7587 16.0686 28.7675 16.0678L28.7711 16.0676C28.8652 16.0604 28.9499 16.0105 29.0039 15.9312C29.0575 15.8525 29.0738 15.754 29.0483 15.6615C29.0246 15.5753 28.9882 15.4933 28.9399 15.4182C28.8506 15.2784 28.7228 15.1719 28.5598 15.1014C28.407 15.0351 28.2304 15.0017 28.0349 15.0017C27.8559 15.0017 27.6896 15.0338 27.5409 15.0969C27.3813 15.1647 27.2571 15.2672 27.1717 15.4015C27.0871 15.5346 27.0441 15.6805 27.0441 15.8348C27.0441 15.9774 27.0803 16.1085 27.1518 16.2244C27.2217 16.3383 27.3267 16.4335 27.464 16.5076L27.4664 16.5088C27.5668 16.5631 27.7274 16.617 27.9576 16.6738C28.2171 16.7379 28.3187 16.77 28.3583 16.786C28.4458 16.8204 28.4842 16.8538 28.5009 16.876C28.5215 16.9034 28.5317 16.9356 28.5317 16.9742C28.5317 17.0141 28.5198 17.0505 28.4953 17.0854C28.4694 17.1223 28.4252 17.1534 28.3638 17.1779C28.2916 17.2068 28.205 17.2212 28.1063 17.2212C27.9949 17.2212 27.8945 17.2018 27.8079 17.1629C27.7296 17.1278 27.6731 17.0841 27.6396 17.0333C27.6178 17.0001 27.6003 16.959 27.5877 16.9116C27.5503 16.7716 27.4261 16.6738 27.2855 16.6738C27.276 16.6738 27.2665 16.6741 27.2583 16.6751C27.1678 16.6833 27.0854 16.7312 27.0322 16.8067C26.9789 16.8827 26.96 16.9787 26.9811 17.0702C27.0063 17.1804 27.05 17.2846 27.1106 17.3793C27.21 17.5346 27.3478 17.6522 27.5207 17.7288C27.6847 17.8013 27.8865 17.8382 28.1208 17.8382C28.3117 17.8382 28.4871 17.8013 28.6421 17.7283C28.8041 17.6525 28.9312 17.5423 29.02 17.4017C29.1085 17.2609 29.1534 17.1083 29.1534 16.9475C29.1529 16.785 29.1106 16.6379 29.0272 16.5108Z" fill="var(--fill-0, #0B7AFC)"/>
<path d="M26.5819 24.1742C26.5239 24.1742 26.466 24.1617 26.4114 24.1355C26.2668 24.0672 26.1747 23.9187 26.1747 23.7551L26.1744 18.8354C26.1744 18.6041 26.3568 18.4166 26.5819 18.4166C26.807 18.4166 26.9894 18.6041 26.9894 18.8354V22.847L27.7973 22.1376C27.9499 22.0037 28.1743 22.0037 28.3268 22.1376L29.1348 22.847V18.8354C29.1348 18.6041 29.3172 18.4166 29.5423 18.4166C29.7674 18.4166 29.9498 18.6041 29.9498 18.8354V23.7554C29.9498 23.9189 29.8571 24.0675 29.713 24.1358C29.5685 24.2041 29.3987 24.1801 29.2777 24.074L28.0622 23.007L26.8468 24.074C26.7714 24.14 26.677 24.1742 26.5819 24.1742Z" fill="var(--fill-0, #0B7AFC)"/>
<path d="M16.7819 32.6641C16.6213 32.6641 16.4605 32.6346 16.307 32.5758C15.6564 32.3258 15.2965 31.6156 15.47 30.9241L17 24.8213L17.0281 20.5747L16.2095 21.1652L16.0295 23.383C16.0014 23.7278 15.8328 24.0471 15.5667 24.2592C15.3007 24.4711 14.9579 24.5596 14.6262 24.5015C14.3293 24.4496 14.0639 24.2866 13.8786 24.0428C13.6933 23.7988 13.6038 23.4947 13.6268 23.186L13.8396 20.3191C13.8699 19.9115 14.0719 19.5401 14.3943 19.3003L16.9714 17.3839C17.8198 16.753 18.9804 16.8395 19.7314 17.5895L21.7819 19.6379L23.9532 20.015C24.5783 20.1235 25.0316 20.6754 25.0316 21.3265C25.0316 21.7129 24.8684 22.0796 24.5841 22.3326C24.2998 22.5853 23.9231 22.6985 23.551 22.6429L21.4513 22.3296C21.2706 22.3027 21.1003 22.2393 20.9451 22.1419L20.2536 21.7081L20.2739 23.3145L22.5641 24.3966C22.9498 24.5788 23.1892 24.9934 23.1601 25.4283L22.9515 28.5475C22.9272 28.9127 22.7628 29.2428 22.4885 29.4766C22.2144 29.7104 21.8682 29.8156 21.5143 29.773C20.8575 29.6937 20.368 29.1214 20.3758 28.4414L20.3969 26.5484L19.4412 26.1483L18.0953 31.6132C18.0009 31.9968 17.7511 32.3218 17.4103 32.5051C17.2148 32.6111 16.9987 32.6641 16.7819 32.6641ZM17.4411 19.3466C17.5059 19.3466 17.5709 19.3626 17.6303 19.3945C17.7654 19.4673 17.8496 19.6116 17.8486 19.7681L17.8147 24.8788C17.8144 24.9132 17.8101 24.9471 17.8018 24.9802L16.2592 31.1331C16.19 31.4086 16.3336 31.6917 16.5929 31.7912C16.7387 31.8473 16.8949 31.8375 17.0327 31.7632C17.1704 31.689 17.2675 31.5628 17.3058 31.4075L18.7666 25.476C18.7955 25.3586 18.8726 25.2597 18.9779 25.2051C19.0832 25.1505 19.2064 25.1452 19.3155 25.1909L20.9618 25.8801C21.1167 25.9449 21.2174 26.1007 21.2155 26.2727L21.1912 28.4507C21.1883 28.7009 21.3685 28.9116 21.6101 28.9407C21.7403 28.9564 21.8677 28.9178 21.9686 28.8315C22.0695 28.7453 22.1301 28.6242 22.1388 28.4898L22.3474 25.3706C22.3533 25.2806 22.304 25.1949 22.2242 25.1572L19.7003 23.9647C19.5574 23.8971 19.465 23.7513 19.463 23.5897L19.4296 20.9613C19.4276 20.809 19.5065 20.6674 19.6353 20.5919C19.7641 20.5164 19.9227 20.5189 20.0493 20.5981L21.3705 21.4267C21.4316 21.4651 21.4985 21.4898 21.5693 21.5005L23.6688 21.8138C23.8088 21.8348 23.9446 21.7939 24.0513 21.6989C24.1583 21.6037 24.217 21.4716 24.217 21.3265C24.217 21.0855 24.0492 20.8811 23.8178 20.8407L21.5213 20.4416C21.4398 20.4274 21.3644 20.3882 21.3052 20.3289L19.1635 18.1901C18.6971 17.7242 17.9762 17.6704 17.4494 18.0622L14.8723 19.9786C14.7447 20.0739 14.6644 20.2209 14.6525 20.3825L14.4398 23.2496C14.4243 23.4575 14.5635 23.6405 14.7634 23.6757C14.8723 23.6946 14.9805 23.6669 15.068 23.5974C15.1553 23.5278 15.2087 23.4269 15.2179 23.3137L15.4136 20.9005C15.4236 20.7769 15.4867 20.6639 15.5856 20.5924L17.2073 19.4226C17.2769 19.3722 17.3587 19.3466 17.4411 19.3466Z" fill="var(--fill-0, #0B7AFC)"/>
<path d="M18.8361 16.6928C17.7553 16.6928 16.8761 15.7892 16.8761 14.6784C16.8761 13.5677 17.7553 12.6641 18.8361 12.6641C19.9167 12.6641 20.7962 13.5677 20.7962 14.6784C20.7962 15.7889 19.9167 16.6928 18.8361 16.6928ZM18.8361 13.5016C18.2048 13.5016 17.6911 14.0295 17.6911 14.6784C17.6911 15.3272 18.2048 15.8552 18.8361 15.8552C19.4675 15.8552 19.9812 15.3272 19.9812 14.6784C19.9812 14.0295 19.4675 13.5016 18.8361 13.5016Z" fill="var(--fill-0, #0B7AFC)"/>
<path d="M28.0624 20.0794C27.6547 20.0794 27.3886 19.7668 27.1747 19.5155C27.0951 19.4223 26.9753 19.2812 26.9188 19.257C26.8533 19.2291 26.6706 19.2406 26.5372 19.2491C26.2192 19.269 25.8234 19.2942 25.5447 19.0075C25.2658 18.7208 25.2903 18.314 25.3097 17.9872C25.3179 17.8501 25.3291 17.6624 25.3019 17.5949C25.2787 17.5373 25.1358 17.4089 25.0507 17.3321C24.8062 17.1125 24.502 16.8388 24.502 16.4198C24.502 16.0008 24.8062 15.7273 25.0507 15.5074C25.1414 15.4257 25.2786 15.3025 25.3022 15.2445C25.3293 15.1771 25.3182 14.9894 25.3099 14.8523C25.2905 14.5255 25.266 14.1187 25.545 13.8323C25.8239 13.5457 26.2197 13.5708 26.5377 13.5908C26.6711 13.5993 26.8538 13.6107 26.9195 13.5828C26.9758 13.5589 27.1004 13.412 27.1751 13.3246C27.3888 13.0733 27.6552 12.7607 28.0629 12.7607C28.4706 12.7607 28.7367 13.0733 28.9506 13.3246C29.0302 13.4178 29.15 13.5589 29.2065 13.5831C29.272 13.611 29.4547 13.5995 29.5881 13.591C29.906 13.5711 30.3019 13.5459 30.5806 13.8326C30.8595 14.1192 30.835 14.5261 30.8156 14.8528C30.8073 14.9899 30.7962 15.1776 30.8234 15.2452C30.8466 15.3028 30.9895 15.4312 31.0746 15.5079C31.3191 15.7276 31.6233 16.0013 31.6233 16.4203C31.6233 16.8393 31.3191 17.1128 31.0746 17.3327C30.9839 17.4144 30.8466 17.5376 30.8231 17.5956C30.796 17.6629 30.8071 17.8506 30.8154 17.9877C30.8348 18.3145 30.8593 18.7214 30.5803 19.0078C30.3014 19.2944 29.9056 19.2693 29.5876 19.2493C29.4542 19.2408 29.2715 19.2294 29.2058 19.2573C29.1495 19.2812 29.0249 19.428 28.9501 19.5155C28.7362 19.7668 28.4704 20.0794 28.0624 20.0794ZM26.7582 18.402C26.9171 18.402 27.0798 18.419 27.2312 18.4838C27.4633 18.5828 27.6357 18.7854 27.7881 18.9644C27.8618 19.0514 27.9967 19.2094 28.0624 19.2398C28.1284 19.2094 28.2628 19.0514 28.3365 18.9646C28.4888 18.7857 28.6613 18.5827 28.8936 18.484C29.1333 18.3818 29.4011 18.3988 29.6373 18.414C29.7411 18.4207 29.9269 18.4324 29.9997 18.4122C30.0191 18.3375 30.0079 18.1463 30.0014 18.0398C29.9868 17.797 29.9703 17.5216 30.0698 17.2753C30.1661 17.0368 30.3633 16.8595 30.5374 16.7032C30.6221 16.6275 30.7759 16.4889 30.8054 16.4213C30.7759 16.3535 30.6221 16.2154 30.5377 16.1396C30.3635 15.9831 30.1661 15.8058 30.07 15.567C29.9706 15.3208 29.9871 15.0456 30.0019 14.8027C30.0084 14.696 30.0198 14.5051 30.0002 14.4303C29.9272 14.4104 29.7414 14.4218 29.6378 14.4286C29.4016 14.4435 29.1335 14.4605 28.8939 14.3583C28.6618 14.2593 28.4894 14.0567 28.337 13.8777C28.2633 13.7907 28.1284 13.6326 28.0627 13.6025C27.9967 13.6329 27.8623 13.7909 27.7886 13.8777C27.6363 14.0567 27.4636 14.2596 27.2315 14.3583C26.9918 14.4605 26.724 14.4435 26.4878 14.4283C26.384 14.4218 26.1982 14.4099 26.1254 14.4303C26.106 14.5054 26.1172 14.6963 26.1237 14.8027C26.1383 15.0455 26.1548 15.321 26.0553 15.5672C25.959 15.8058 25.7618 15.983 25.5877 16.1396C25.503 16.2154 25.3492 16.354 25.3197 16.4215C25.3492 16.4893 25.503 16.6274 25.5874 16.7032C25.7616 16.8597 25.959 17.037 26.0551 17.2758C26.1545 17.5221 26.138 17.7973 26.1232 18.0398C26.1167 18.1465 26.1053 18.3375 26.1252 18.4122C26.1982 18.4322 26.3837 18.4207 26.4875 18.414C26.5744 18.4078 26.6655 18.402 26.7582 18.402Z" stroke="var(--stroke-0, #0B7AFC)" stroke-width="0.2" mask="url(#path-2-inside-1_0_43)"/>
<path d="M29.0272 16.5108L29.0258 16.5083C28.944 16.3849 28.8198 16.283 28.6564 16.2057C28.5513 16.1566 28.3704 16.1025 28.1036 16.0404C27.7686 15.9626 27.7065 15.9076 27.7041 15.9053C27.6769 15.8804 27.6658 15.8537 27.6658 15.8131C27.6658 15.763 27.6864 15.7243 27.7351 15.6845C27.7742 15.652 27.8603 15.6139 28.0478 15.6139C28.1902 15.6139 28.2942 15.6408 28.3573 15.6939C28.398 15.7286 28.4276 15.7772 28.4456 15.8385C28.4854 15.9761 28.6049 16.0688 28.7432 16.0688C28.7507 16.0688 28.7587 16.0686 28.7675 16.0678L28.7711 16.0676C28.8652 16.0604 28.9499 16.0105 29.0039 15.9312C29.0575 15.8525 29.0738 15.754 29.0483 15.6615C29.0246 15.5753 28.9882 15.4933 28.9399 15.4182C28.8506 15.2784 28.7228 15.1719 28.5598 15.1014C28.407 15.0351 28.2304 15.0017 28.0349 15.0017C27.8559 15.0017 27.6896 15.0338 27.5409 15.0969C27.3813 15.1647 27.2571 15.2672 27.1717 15.4015C27.0871 15.5346 27.0441 15.6805 27.0441 15.8348C27.0441 15.9774 27.0803 16.1085 27.1518 16.2244C27.2217 16.3383 27.3267 16.4335 27.464 16.5076L27.4664 16.5088C27.5668 16.5631 27.7274 16.617 27.9576 16.6738C28.2171 16.7379 28.3187 16.77 28.3583 16.786C28.4458 16.8204 28.4842 16.8538 28.5009 16.876C28.5215 16.9034 28.5317 16.9356 28.5317 16.9742C28.5317 17.0141 28.5198 17.0505 28.4953 17.0854C28.4694 17.1223 28.4252 17.1534 28.3638 17.1779C28.2916 17.2068 28.205 17.2212 28.1063 17.2212C27.9949 17.2212 27.8945 17.2018 27.8079 17.1629C27.7296 17.1278 27.6731 17.0841 27.6396 17.0333C27.6178 17.0001 27.6003 16.959 27.5877 16.9116C27.5503 16.7716 27.4261 16.6738 27.2855 16.6738C27.276 16.6738 27.2665 16.6741 27.2583 16.6751C27.1678 16.6833 27.0854 16.7312 27.0322 16.8067C26.9789 16.8827 26.96 16.9787 26.9811 17.0702C27.0063 17.1804 27.05 17.2846 27.1106 17.3793C27.21 17.5346 27.3478 17.6522 27.5207 17.7288C27.6847 17.8013 27.8865 17.8382 28.1208 17.8382C28.3117 17.8382 28.4871 17.8013 28.6421 17.7283C28.8041 17.6525 28.9312 17.5423 29.02 17.4017C29.1085 17.2609 29.1534 17.1083 29.1534 16.9475C29.1529 16.785 29.1106 16.6379 29.0272 16.5108Z" stroke="var(--stroke-0, #0B7AFC)" stroke-width="0.2" mask="url(#path-2-inside-1_0_43)"/>
<path d="M26.5819 24.1742C26.5239 24.1742 26.466 24.1617 26.4114 24.1355C26.2668 24.0672 26.1747 23.9187 26.1747 23.7551L26.1744 18.8354C26.1744 18.6041 26.3568 18.4166 26.5819 18.4166C26.807 18.4166 26.9894 18.6041 26.9894 18.8354V22.847L27.7973 22.1376C27.9499 22.0037 28.1743 22.0037 28.3268 22.1376L29.1348 22.847V18.8354C29.1348 18.6041 29.3172 18.4166 29.5423 18.4166C29.7674 18.4166 29.9498 18.6041 29.9498 18.8354V23.7554C29.9498 23.9189 29.8571 24.0675 29.713 24.1358C29.5685 24.2041 29.3987 24.1801 29.2777 24.074L28.0622 23.007L26.8468 24.074C26.7714 24.14 26.677 24.1742 26.5819 24.1742Z" stroke="var(--stroke-0, #0B7AFC)" stroke-width="0.2" mask="url(#path-2-inside-1_0_43)"/>
<path d="M16.7819 32.6641C16.6213 32.6641 16.4605 32.6346 16.307 32.5758C15.6564 32.3258 15.2965 31.6156 15.47 30.9241L17 24.8213L17.0281 20.5747L16.2095 21.1652L16.0295 23.383C16.0014 23.7278 15.8328 24.0471 15.5667 24.2592C15.3007 24.4711 14.9579 24.5596 14.6262 24.5015C14.3293 24.4496 14.0639 24.2866 13.8786 24.0428C13.6933 23.7988 13.6038 23.4947 13.6268 23.186L13.8396 20.3191C13.8699 19.9115 14.0719 19.5401 14.3943 19.3003L16.9714 17.3839C17.8198 16.753 18.9804 16.8395 19.7314 17.5895L21.7819 19.6379L23.9532 20.015C24.5783 20.1235 25.0316 20.6754 25.0316 21.3265C25.0316 21.7129 24.8684 22.0796 24.5841 22.3326C24.2998 22.5853 23.9231 22.6985 23.551 22.6429L21.4513 22.3296C21.2706 22.3027 21.1003 22.2393 20.9451 22.1419L20.2536 21.7081L20.2739 23.3145L22.5641 24.3966C22.9498 24.5788 23.1892 24.9934 23.1601 25.4283L22.9515 28.5475C22.9272 28.9127 22.7628 29.2428 22.4885 29.4766C22.2144 29.7104 21.8682 29.8156 21.5143 29.773C20.8575 29.6937 20.368 29.1214 20.3758 28.4414L20.3969 26.5484L19.4412 26.1483L18.0953 31.6132C18.0009 31.9968 17.7511 32.3218 17.4103 32.5051C17.2148 32.6111 16.9987 32.6641 16.7819 32.6641ZM17.4411 19.3466C17.5059 19.3466 17.5709 19.3626 17.6303 19.3945C17.7654 19.4673 17.8496 19.6116 17.8486 19.7681L17.8147 24.8788C17.8144 24.9132 17.8101 24.9471 17.8018 24.9802L16.2592 31.1331C16.19 31.4086 16.3336 31.6917 16.5929 31.7912C16.7387 31.8473 16.8949 31.8375 17.0327 31.7632C17.1704 31.689 17.2675 31.5628 17.3058 31.4075L18.7666 25.476C18.7955 25.3586 18.8726 25.2597 18.9779 25.2051C19.0832 25.1505 19.2064 25.1452 19.3155 25.1909L20.9618 25.8801C21.1167 25.9449 21.2174 26.1007 21.2155 26.2727L21.1912 28.4507C21.1883 28.7009 21.3685 28.9116 21.6101 28.9407C21.7403 28.9564 21.8677 28.9178 21.9686 28.8315C22.0695 28.7453 22.1301 28.6242 22.1388 28.4898L22.3474 25.3706C22.3533 25.2806 22.304 25.1949 22.2242 25.1572L19.7003 23.9647C19.5574 23.8971 19.465 23.7513 19.463 23.5897L19.4296 20.9613C19.4276 20.809 19.5065 20.6674 19.6353 20.5919C19.7641 20.5164 19.9227 20.5189 20.0493 20.5981L21.3705 21.4267C21.4316 21.4651 21.4985 21.4898 21.5693 21.5005L23.6688 21.8138C23.8088 21.8348 23.9446 21.7939 24.0513 21.6989C24.1583 21.6037 24.217 21.4716 24.217 21.3265C24.217 21.0855 24.0492 20.8811 23.8178 20.8407L21.5213 20.4416C21.4398 20.4274 21.3644 20.3882 21.3052 20.3289L19.1635 18.1901C18.6971 17.7242 17.9762 17.6704 17.4494 18.0622L14.8723 19.9786C14.7447 20.0739 14.6644 20.2209 14.6525 20.3825L14.4398 23.2496C14.4243 23.4575 14.5635 23.6405 14.7634 23.6757C14.8723 23.6946 14.9805 23.6669 15.068 23.5974C15.1553 23.5278 15.2087 23.4269 15.2179 23.3137L15.4136 20.9005C15.4236 20.7769 15.4867 20.6639 15.5856 20.5924L17.2073 19.4226C17.2769 19.3722 17.3587 19.3466 17.4411 19.3466Z" stroke="var(--stroke-0, #0B7AFC)" stroke-width="0.2" mask="url(#path-2-inside-1_0_43)"/>
<path d="M18.8361 16.6928C17.7553 16.6928 16.8761 15.7892 16.8761 14.6784C16.8761 13.5677 17.7553 12.6641 18.8361 12.6641C19.9167 12.6641 20.7962 13.5677 20.7962 14.6784C20.7962 15.7889 19.9167 16.6928 18.8361 16.6928ZM18.8361 13.5016C18.2048 13.5016 17.6911 14.0295 17.6911 14.6784C17.6911 15.3272 18.2048 15.8552 18.8361 15.8552C19.4675 15.8552 19.9812 15.3272 19.9812 14.6784C19.9812 14.0295 19.4675 13.5016 18.8361 13.5016Z" stroke="var(--stroke-0, #0B7AFC)" stroke-width="0.2" mask="url(#path-2-inside-1_0_43)"/>
</g>
</g>
</svg>
