<svg preserveAspectRatio="none" width="100%" height="100%" overflow="visible" style="display: block;" viewBox="0 0 44.6373 44.6373" fill="none" xmlns="http://www.w3.org/2000/svg">
<g id="Frame 2087329842">
<circle id="Ellipse" cx="22.3187" cy="22.3187" r="22.3187" fill="var(--fill-0, #EAF2FF)"/>
<g id="Vector">
<path d="M32.5012 18.111C32.3386 17.9546 32.0757 17.9546 31.9131 18.111C30.4581 19.5097 28.0903 19.5101 26.6359 18.111C25.5045 17.0228 25.5045 15.2522 26.6359 14.1639C27.5083 13.3249 28.9287 13.3242 29.8013 14.1639C30.1237 14.474 30.3017 14.8865 30.3017 15.3253C30.3017 15.7637 30.1237 16.1763 29.8013 16.4863C29.3172 16.9524 28.4716 16.9528 27.9873 16.4863C27.8089 16.3151 27.7111 16.0874 27.7111 15.8455C27.7111 15.6034 27.8089 15.3754 27.9877 15.2038C28.1599 15.0369 28.4141 14.9745 28.6496 15.0401C28.8704 15.1013 29.1009 14.9793 29.1649 14.7673C29.2286 14.5552 29.1016 14.3332 28.8808 14.2717C28.3538 14.1245 27.7856 14.2653 27.3987 14.6381C27.063 14.9606 26.8788 15.3895 26.8788 15.8455C26.8788 16.3016 27.063 16.73 27.3987 17.0524C28.2232 17.8454 29.5647 17.8454 30.3891 17.0524C30.8687 16.5912 31.1331 15.9779 31.1331 15.3253C31.1331 14.6728 30.8685 14.0594 30.3891 13.5981C29.191 12.4475 27.2431 12.448 26.0471 13.5981C24.5916 14.9983 24.5916 17.2763 26.0471 18.6769C26.9368 19.5326 28.1048 19.9603 29.2737 19.9603C30.4426 19.9603 31.6111 19.5322 32.5008 18.6769C32.6639 18.5206 32.6639 18.267 32.5012 18.111Z" fill="var(--fill-0, #0B7AFC)"/>
<path d="M20.1942 28.6512C20.9804 27.7549 21.356 26.618 21.2529 25.4498C21.2333 25.2294 21.0323 25.061 20.8028 25.0854C20.574 25.1042 20.4043 25.2975 20.4234 25.5178C20.5079 26.4732 20.2005 27.4025 19.5578 28.1354C18.9155 28.868 18.0146 29.3164 17.0212 29.3976C16.2488 29.4589 15.4972 29.2305 14.9049 28.7503C14.3125 28.2698 13.9503 27.5957 13.8845 26.8528C13.8338 26.2799 14.0184 25.7226 14.4036 25.2825C14.7893 24.8429 15.3295 24.574 15.9252 24.5252C16.3786 24.4887 16.8225 24.6231 17.1705 24.9061C17.5192 25.1889 17.7326 25.5855 17.7707 26.0226C17.7999 26.3507 17.6941 26.6703 17.4733 26.9224C17.2525 27.1744 16.9429 27.3284 16.6014 27.3564C16.0798 27.3912 15.6256 27.0271 15.5815 26.5294C15.5607 26.2946 15.6746 26.0677 15.878 25.9374C16.0689 25.815 16.1206 25.5665 15.9932 25.3825C15.866 25.1984 15.608 25.1489 15.4163 25.2717C14.9604 25.5637 14.7058 26.0715 14.7519 26.5971C14.8355 27.5353 15.6932 28.237 16.6716 28.1537C17.2343 28.1077 17.7448 27.8537 18.1087 27.4383C18.4727 27.0231 18.647 26.4962 18.5991 25.9548C18.5416 25.3048 18.2248 24.7151 17.7064 24.2949C17.1878 23.8741 16.5301 23.6697 15.8541 23.7285C15.0372 23.7949 14.2958 24.1638 13.7667 24.767C13.2394 25.3702 12.9864 26.1347 13.0554 26.921C13.1399 27.8768 13.6061 28.7437 14.3687 29.3623C15.0483 29.9136 15.8902 30.2084 16.7692 30.2084C16.8762 30.2084 16.9838 30.2039 17.0916 30.1951C18.3066 30.0955 19.408 29.5474 20.1942 28.6512Z" fill="var(--fill-0, #0B7AFC)"/>
<path d="M14.7439 16.9543L14.4269 18.731C14.4002 18.881 14.4643 19.0327 14.5924 19.1223C14.6648 19.1726 14.7508 19.1987 14.837 19.1987C14.9032 19.1987 14.9698 19.1835 15.0304 19.1527L16.6897 18.3141L18.3485 19.1527C18.4886 19.2234 18.6588 19.2118 18.7864 19.1222C18.9145 19.0327 18.9787 18.881 18.952 18.731L18.635 16.9543L19.9777 15.6962C20.0908 15.5897 20.132 15.4309 20.0828 15.2861C20.0338 15.1413 19.9035 15.0356 19.7471 15.0136L17.8927 14.7543L17.0633 13.1381C16.9934 13.0017 16.8488 12.9149 16.6902 12.9149C16.5321 12.9149 16.3874 13.0012 16.3175 13.1377L15.4872 14.7545L13.6325 15.0137C13.4761 15.0356 13.3459 15.1413 13.2969 15.2861C13.2477 15.4309 13.2889 15.5897 13.4021 15.6962L14.7439 16.9543ZM15.8234 15.5162C15.9586 15.4973 16.0758 15.4153 16.1362 15.2972L16.6898 14.2191L17.243 15.2972C17.3038 15.4153 17.4205 15.4973 17.5562 15.516L18.7933 15.6889L17.8981 16.5279C17.8003 16.6199 17.7555 16.7523 17.7783 16.8819L17.9897 18.067L16.8832 17.5077C16.7622 17.4465 16.617 17.4465 16.496 17.5077L15.3895 18.0674L15.6008 16.8823C15.6238 16.7527 15.5792 16.6203 15.481 16.5283L14.5863 15.6889L15.8234 15.5162Z" fill="var(--fill-0, #0B7AFC)"/>
<path d="M32.0318 26.9753L30.4071 26.0775L30.2545 24.2811C30.2416 24.1291 30.1402 23.9975 29.9929 23.9415C29.8461 23.8856 29.6781 23.9143 29.5607 24.0167L28.171 25.2258L26.347 24.8097C26.1944 24.7737 26.0318 24.8262 25.9306 24.9438C25.83 25.061 25.8067 25.2234 25.8711 25.3627L26.6373 27.0074L25.6622 28.5473C25.5803 28.6773 25.582 28.841 25.6664 28.9702C25.7513 29.0986 25.9064 29.1706 26.0621 29.1534L27.926 28.9614L29.1473 30.3284C29.2272 30.4184 29.3436 30.4681 29.463 30.4681C29.4975 30.4681 29.532 30.4641 29.5666 30.4557C29.7196 30.4177 29.8374 30.2993 29.8698 30.1504L30.2554 28.3865L31.985 27.6921C32.1309 27.6336 32.2296 27.5001 32.2396 27.348C32.2498 27.1954 32.1691 27.0509 32.0318 26.9753ZM29.7331 27.7286C29.6066 27.7794 29.5147 27.887 29.4864 28.0155L29.2294 29.192L28.4149 28.2803C28.3354 28.1912 28.2198 28.1407 28.0992 28.1407C28.0847 28.1407 28.0696 28.1415 28.0551 28.143L26.8118 28.2711L27.4619 27.2446C27.533 27.1321 27.5418 26.993 27.4864 26.8726L26.9751 25.776L28.1919 26.0533C28.3242 26.085 28.4652 26.0496 28.5666 25.9609L29.4938 25.1544L29.5954 26.3522C29.6066 26.4833 29.6845 26.6009 29.803 26.6667L30.8866 27.2651L29.7331 27.7286Z" fill="var(--fill-0, #0B7AFC)"/>
<path d="M21.3955 21.4075C21.3955 21.6284 21.582 21.8075 21.8115 21.8075C22.0411 21.8075 22.2274 21.6282 22.2274 21.4075C22.2274 20.1074 22.8772 19.2011 23.46 19.2011C23.6901 19.2011 23.8759 19.0218 23.8759 18.801C23.8759 18.5801 23.6899 18.401 23.46 18.401C22.3024 18.401 21.3955 19.7217 21.3955 21.4075Z" fill="var(--fill-0, #0B7AFC)"/>
<path d="M24.4636 21.0061C24.2335 21.0061 24.0477 21.1854 24.0477 21.4062C24.0477 22.4972 22.8605 23.3845 21.4018 23.3845C21.1721 23.3845 20.9858 23.5634 20.9858 23.7845C20.9858 24.0058 21.1723 24.1845 21.4018 24.1845C23.3194 24.1845 24.8797 22.938 24.8797 21.406C24.8796 21.1849 24.6935 21.0061 24.4636 21.0061Z" fill="var(--fill-0, #0B7AFC)"/>
<path d="M15.9247 21.8074C16.1543 21.8074 16.3406 21.6281 16.3406 21.4074C16.3406 21.1865 16.1542 21.0074 15.9247 21.0074C14.5633 21.0074 13.455 19.7387 13.455 18.1793C13.455 17.9584 13.2686 17.7793 13.0391 17.7793C12.8094 17.7793 12.6232 17.9586 12.6232 18.1793C12.6232 20.1795 14.1044 21.8074 15.9247 21.8074Z" fill="var(--fill-0, #0B7AFC)"/>
<path d="M19.6884 21.4009C18.8822 21.4009 18.2259 20.8179 18.2259 20.1014C18.2259 19.8805 18.0395 19.7014 17.81 19.7014C17.5803 19.7014 17.394 19.8807 17.394 20.1014C17.394 21.2593 18.4231 22.201 19.6884 22.201C19.9181 22.201 20.1043 22.0217 20.1043 21.8009C20.1045 21.5802 19.9185 21.4009 19.6884 21.4009Z" fill="var(--fill-0, #0B7AFC)"/>
<path d="M23.1684 26.5626C22.9383 26.5626 22.7525 26.7415 22.7525 26.9626C22.7525 29.3146 20.7226 31.9353 17.81 31.9353C17.5803 31.9353 17.394 32.1142 17.394 32.3353C17.394 32.5566 17.5805 32.7354 17.81 32.7354C21.2641 32.7354 23.5844 29.7505 23.5844 26.9622C23.5844 26.7416 23.3981 26.5626 23.1684 26.5626Z" fill="var(--fill-0, #0B7AFC)"/>
<path d="M22.6375 15.8315C23.4029 15.8315 24.0252 15.2326 24.0252 14.4969C24.0252 13.7611 23.4029 13.1622 22.6375 13.1622C21.8725 13.1622 21.2499 13.7611 21.2499 14.4969C21.2499 15.2326 21.8726 15.8315 22.6375 15.8315ZM22.6375 13.9625C22.9436 13.9625 23.1933 14.202 23.1933 14.497C23.1933 14.7918 22.9438 15.0316 22.6375 15.0316C22.331 15.0316 22.0817 14.792 22.0817 14.497C22.0817 14.202 22.3308 13.9625 22.6375 13.9625Z" fill="var(--fill-0, #0B7AFC)"/>
<path d="M29.3374 22.0864C29.3374 21.3507 28.7151 20.7522 27.9497 20.7522C27.1847 20.7522 26.5625 21.3507 26.5625 22.0864C26.5625 22.8222 27.1847 23.421 27.9497 23.421C28.715 23.421 29.3374 22.8222 29.3374 22.0864ZM27.3944 22.0864C27.3944 21.792 27.6435 21.5523 27.9497 21.5523C28.2558 21.5523 28.5055 21.7919 28.5055 22.0864C28.5055 22.3808 28.256 22.6206 27.9497 22.6206C27.6436 22.6206 27.3944 22.381 27.3944 22.0864Z" fill="var(--fill-0, #0B7AFC)"/>
</g>
</g>
</svg>
