<svg preserveAspectRatio="none" width="100%" height="100%" overflow="visible" style="display: block;" viewBox="0 0 44.6373 44.6373" fill="none" xmlns="http://www.w3.org/2000/svg">
<g id="Frame 2087329837">
<circle id="Ellipse" cx="22.3187" cy="22.3187" r="22.3187" fill="var(--fill-0, #EAF2FF)"/>
<g id="Vector">
<mask id="path-2-outside-1_0_37" maskUnits="userSpaceOnUse" x="11.6233" y="11.6846" width="21" height="22" fill="black">
<rect fill="white" x="11.6233" y="11.6846" width="21" height="22"/>
<path d="M31.4734 12.7345C31.3801 12.6736 31.2635 12.6681 31.1654 12.7197L30.6736 12.9788L30.1818 12.7199C30.0928 12.673 29.9879 12.6729 29.8988 12.7197L29.407 12.9788L28.9153 12.7199C28.8262 12.673 28.7213 12.6729 28.6323 12.7197L28.1405 12.9788L27.6487 12.7199C27.5596 12.673 27.4547 12.6729 27.3657 12.7197L26.8739 12.9788L26.3821 12.7199C26.293 12.673 26.1881 12.6729 26.0991 12.7197L25.6073 12.9788L25.1155 12.7199C25.0264 12.673 24.9216 12.6729 24.8325 12.7197L24.3407 12.9788L23.8489 12.7199C23.7599 12.673 23.655 12.6729 23.5659 12.7197L23.0741 12.9788L22.5823 12.7199C22.4933 12.673 22.3884 12.6729 22.2993 12.7197L21.8075 12.9788L21.3157 12.7199C21.2267 12.673 21.1218 12.6729 21.0327 12.7197L20.541 12.9788L20.0492 12.7199C19.9601 12.673 19.8552 12.6729 19.7662 12.7197L19.2744 12.9788L18.7826 12.7199C18.6935 12.673 18.5886 12.6729 18.4996 12.7197L18.0078 12.9788L17.516 12.7199C17.4179 12.6682 17.3013 12.6736 17.208 12.7345C17.1145 12.7952 17.0579 12.9026 17.0579 13.0181V15.0204C17.059 15.0586 17.0662 15.0965 17.0793 15.1323C17.0829 15.1416 17.086 15.1506 17.0901 15.1596C17.0928 15.1677 17.0959 15.1756 17.0993 15.1833L18.3244 17.4399V25.9469L18.0711 26.5489L18.65 26.8195L18.9314 26.1529C18.9491 26.1103 18.958 26.0642 18.9577 26.0176V17.3513C18.958 17.2929 18.9436 17.2354 18.9159 17.1847L17.9201 15.3514H30.761L29.7651 17.1847C29.7374 17.2354 29.7231 17.2929 29.7234 17.3513V26.0176C29.7234 26.0642 29.7327 26.1103 29.7507 26.1529L30.8193 28.6842H29.7234V29.3508H30.99V30.4781L30.8148 30.3859C30.7258 30.339 30.6209 30.3389 30.5318 30.3857L30.04 30.6448L29.8649 30.5525L29.5818 31.1492L29.8984 31.3159C29.9875 31.3628 30.0925 31.3626 30.1815 31.3158L30.6733 31.0567L31.1651 31.3156C31.2632 31.3672 31.3798 31.3619 31.4731 31.301C31.5666 31.2403 31.6233 31.1329 31.6233 31.0174V29.0175C31.6233 29.0124 31.6207 29.0081 31.6204 29.0035C31.6193 28.9669 31.6125 28.9307 31.6001 28.8965C31.5985 28.8928 31.5982 28.8888 31.597 28.8855V28.8822L30.3567 25.9469V17.4399L31.5815 15.1846C31.585 15.1769 31.588 15.169 31.5906 15.161C31.5947 15.152 31.598 15.143 31.6014 15.1336C31.6148 15.0974 31.6223 15.0592 31.6233 15.0203V13.0181C31.6233 12.9026 31.5669 12.7952 31.4734 12.7345ZM30.9903 14.6847H17.6912V13.5573L17.8664 13.6496C17.9554 13.6965 18.0603 13.6966 18.1494 13.6497L18.6412 13.3907L19.133 13.6496C19.222 13.6965 19.3269 13.6966 19.416 13.6497L19.9078 13.3907L20.3996 13.6496C20.4886 13.6965 20.5935 13.6966 20.6826 13.6497L21.1743 13.3907L21.6661 13.6496C21.7552 13.6965 21.8601 13.6966 21.9491 13.6497L22.4409 13.3907L22.9327 13.6496C23.0218 13.6965 23.1267 13.6966 23.2157 13.6497L23.7075 13.3907L24.1993 13.6496C24.2884 13.6965 24.3932 13.6966 24.4823 13.6497L24.9741 13.3907L25.4659 13.6496C25.5549 13.6965 25.6598 13.6966 25.7489 13.6497L26.2407 13.3907L26.7325 13.6496C26.8215 13.6965 26.9264 13.6966 27.0155 13.6497L27.5073 13.3907L27.9991 13.6496C28.0881 13.6965 28.193 13.6966 28.2821 13.6497L28.7738 13.3907L29.2656 13.6496C29.3547 13.6965 29.4596 13.6966 29.5486 13.6497L30.0404 13.3907L30.5322 13.6496C30.6213 13.6965 30.7262 13.6966 30.8152 13.6497L30.9904 13.5573L30.9903 14.6847Z"/>
<path d="M20.223 26.0189C20.2721 26.0195 20.3204 26.008 20.3645 25.9856L21.5644 25.3523H25.9225C26.678 25.3512 27.4024 25.0349 27.9365 24.4725C28.4707 23.9102 28.7712 23.1477 28.7723 22.3524V18.3526C28.7723 18.2371 28.7156 18.1296 28.6221 18.0689C28.5288 18.0081 28.4122 18.0026 28.3141 18.0542L27.1143 18.6859H22.7562C22.0006 18.6869 21.2763 19.0033 20.7421 19.5656C20.2079 20.1279 19.9074 20.8904 19.9064 21.6857V25.6856C19.9064 25.774 19.9397 25.8588 19.9991 25.9213C20.0585 25.9838 20.1391 26.0189 20.223 26.0189ZM20.5397 21.6857C20.5404 21.0672 20.774 20.474 21.1896 20.0367C21.6051 19.5992 22.1686 19.3533 22.7562 19.3525H27.1892C27.2382 19.3525 27.2867 19.3406 27.3307 19.3175L28.1391 18.8918V22.3524C28.1384 22.9709 27.9047 23.5641 27.4891 24.0014C27.0737 24.4389 26.5102 24.6849 25.9226 24.6856H21.4896C21.4406 24.685 21.3922 24.6965 21.3481 24.7189L20.5397 25.1463V21.6857Z"/>
<path d="M12.6567 31.1669L12.9028 31.6846L12.6568 32.2023C12.6078 32.3056 12.6129 32.4283 12.6707 32.5265C12.7283 32.6249 12.8304 32.6846 12.9401 32.6846H14.84C14.8443 32.6846 14.8482 32.6819 14.8527 32.6819C14.8851 32.6802 14.9171 32.6734 14.9477 32.6615C14.9546 32.6585 14.9617 32.6569 14.9686 32.6538C14.9755 32.6508 14.9765 32.6514 14.9803 32.6494L16.1813 32.0179H25.5312L26.7309 32.6512C26.7337 32.6512 26.737 32.6512 26.7398 32.6532C26.7813 32.6739 26.8266 32.6846 26.8725 32.6846H28.7724C28.8824 32.6852 28.9848 32.6256 29.0429 32.5273C29.101 32.4289 29.1065 32.3059 29.0574 32.2023L28.8097 31.6846L29.0557 31.1669C29.1002 31.0732 29.1003 30.9628 29.0558 30.869L28.8097 30.3513L29.0557 29.8336C29.1002 29.7399 29.1003 29.6295 29.0558 29.5357L28.8097 29.018L29.0557 28.5003C29.1002 28.4066 29.1003 28.2962 29.0558 28.2024L28.8097 27.6847L29.0557 27.1671C29.1047 27.0638 29.0996 26.941 29.0418 26.8428C28.9841 26.7445 28.8821 26.6848 28.7724 26.6848H26.8725C26.8681 26.6848 26.8643 26.6875 26.8595 26.6875C26.827 26.689 26.7951 26.6958 26.7645 26.7078C26.7572 26.7108 26.7502 26.7125 26.7433 26.7156C26.7364 26.7186 26.7354 26.718 26.7316 26.7199L25.5312 27.3514H16.1813L14.9816 26.7181C14.9778 26.7162 14.9737 26.7157 14.9699 26.7138C14.9661 26.7119 14.9559 26.7092 14.9487 26.7061C14.9183 26.6942 14.8861 26.6873 14.8535 26.6858C14.8482 26.6875 14.8444 26.6848 14.84 26.6848H12.9401C12.8304 26.6848 12.7284 26.7444 12.6707 26.8428C12.6129 26.941 12.6076 27.0638 12.6567 27.167L12.9028 27.6847L12.6568 28.2024C12.6123 28.2962 12.6122 28.4066 12.6567 28.5003L12.9028 29.018L12.6568 29.5357C12.6123 29.6295 12.6122 29.7399 12.6567 29.8336L12.9028 30.3513L12.6568 30.869C12.6123 30.9628 12.6121 31.0732 12.6567 31.1669ZM27.189 27.3515H28.2599L28.1723 27.5358C28.1277 27.6296 28.1276 27.74 28.1721 27.8337L28.4182 28.3514L28.1723 28.8691C28.1277 28.9629 28.1276 29.0733 28.1721 29.167L28.4182 29.6847L28.1723 30.2024C28.1277 30.2961 28.1276 30.4066 28.1721 30.5003L28.4182 31.018L28.1723 31.5357C28.1277 31.6294 28.1276 31.7398 28.1721 31.8336L28.2598 32.0179H27.189L27.189 27.3515ZM15.1565 27.5574L15.965 27.9848C16.0091 28.0072 16.0574 28.0187 16.1065 28.0181H25.6058C25.6548 28.0187 25.7032 28.0072 25.7473 27.9848L26.5557 27.5574V31.8121L25.7473 31.3865C25.7033 31.3634 25.6548 31.3514 25.6058 31.3514H16.1065C16.0574 31.3508 16.0091 31.3622 15.965 31.3847L15.1565 31.8121V27.5574ZM13.5401 30.2024L13.294 29.6847L13.54 29.167C13.5845 29.0733 13.5846 28.9628 13.5401 28.8691L13.294 28.3514L13.54 27.8337C13.5845 27.74 13.5846 27.6296 13.5401 27.5358L13.4523 27.3514H14.5233V32.0179H13.4523L13.54 31.8335C13.5845 31.7398 13.5846 31.6294 13.5401 31.5356L13.294 31.018L13.54 30.5003C13.5845 30.4065 13.5846 30.2961 13.5401 30.2024Z"/>
<path d="M17.0562 30.6823H24.6557C24.7396 30.6823 24.8202 30.6472 24.8796 30.5847C24.9389 30.5222 24.9723 30.4374 24.9723 30.349V29.0157C24.9723 28.9273 24.9389 28.8425 24.8796 28.78C24.8202 28.7175 24.7396 28.6824 24.6557 28.6824H17.0562C16.8814 28.6824 16.7396 28.8317 16.7396 29.0157V30.349C16.7396 30.4374 16.7729 30.5222 16.8323 30.5847C16.8917 30.6472 16.9723 30.6823 17.0562 30.6823ZM17.3729 29.3491H24.339V30.0157H17.3729V29.3491Z"/>
</mask>
<path d="M31.4734 12.7345C31.3801 12.6736 31.2635 12.6681 31.1654 12.7197L30.6736 12.9788L30.1818 12.7199C30.0928 12.673 29.9879 12.6729 29.8988 12.7197L29.407 12.9788L28.9153 12.7199C28.8262 12.673 28.7213 12.6729 28.6323 12.7197L28.1405 12.9788L27.6487 12.7199C27.5596 12.673 27.4547 12.6729 27.3657 12.7197L26.8739 12.9788L26.3821 12.7199C26.293 12.673 26.1881 12.6729 26.0991 12.7197L25.6073 12.9788L25.1155 12.7199C25.0264 12.673 24.9216 12.6729 24.8325 12.7197L24.3407 12.9788L23.8489 12.7199C23.7599 12.673 23.655 12.6729 23.5659 12.7197L23.0741 12.9788L22.5823 12.7199C22.4933 12.673 22.3884 12.6729 22.2993 12.7197L21.8075 12.9788L21.3157 12.7199C21.2267 12.673 21.1218 12.6729 21.0327 12.7197L20.541 12.9788L20.0492 12.7199C19.9601 12.673 19.8552 12.6729 19.7662 12.7197L19.2744 12.9788L18.7826 12.7199C18.6935 12.673 18.5886 12.6729 18.4996 12.7197L18.0078 12.9788L17.516 12.7199C17.4179 12.6682 17.3013 12.6736 17.208 12.7345C17.1145 12.7952 17.0579 12.9026 17.0579 13.0181V15.0204C17.059 15.0586 17.0662 15.0965 17.0793 15.1323C17.0829 15.1416 17.086 15.1506 17.0901 15.1596C17.0928 15.1677 17.0959 15.1756 17.0993 15.1833L18.3244 17.4399V25.9469L18.0711 26.5489L18.65 26.8195L18.9314 26.1529C18.9491 26.1103 18.958 26.0642 18.9577 26.0176V17.3513C18.958 17.2929 18.9436 17.2354 18.9159 17.1847L17.9201 15.3514H30.761L29.7651 17.1847C29.7374 17.2354 29.7231 17.2929 29.7234 17.3513V26.0176C29.7234 26.0642 29.7327 26.1103 29.7507 26.1529L30.8193 28.6842H29.7234V29.3508H30.99V30.4781L30.8148 30.3859C30.7258 30.339 30.6209 30.3389 30.5318 30.3857L30.04 30.6448L29.8649 30.5525L29.5818 31.1492L29.8984 31.3159C29.9875 31.3628 30.0925 31.3626 30.1815 31.3158L30.6733 31.0567L31.1651 31.3156C31.2632 31.3672 31.3798 31.3619 31.4731 31.301C31.5666 31.2403 31.6233 31.1329 31.6233 31.0174V29.0175C31.6233 29.0124 31.6207 29.0081 31.6204 29.0035C31.6193 28.9669 31.6125 28.9307 31.6001 28.8965C31.5985 28.8928 31.5982 28.8888 31.597 28.8855V28.8822L30.3567 25.9469V17.4399L31.5815 15.1846C31.585 15.1769 31.588 15.169 31.5906 15.161C31.5947 15.152 31.598 15.143 31.6014 15.1336C31.6148 15.0974 31.6223 15.0592 31.6233 15.0203V13.0181C31.6233 12.9026 31.5669 12.7952 31.4734 12.7345ZM30.9903 14.6847H17.6912V13.5573L17.8664 13.6496C17.9554 13.6965 18.0603 13.6966 18.1494 13.6497L18.6412 13.3907L19.133 13.6496C19.222 13.6965 19.3269 13.6966 19.416 13.6497L19.9078 13.3907L20.3996 13.6496C20.4886 13.6965 20.5935 13.6966 20.6826 13.6497L21.1743 13.3907L21.6661 13.6496C21.7552 13.6965 21.8601 13.6966 21.9491 13.6497L22.4409 13.3907L22.9327 13.6496C23.0218 13.6965 23.1267 13.6966 23.2157 13.6497L23.7075 13.3907L24.1993 13.6496C24.2884 13.6965 24.3932 13.6966 24.4823 13.6497L24.9741 13.3907L25.4659 13.6496C25.5549 13.6965 25.6598 13.6966 25.7489 13.6497L26.2407 13.3907L26.7325 13.6496C26.8215 13.6965 26.9264 13.6966 27.0155 13.6497L27.5073 13.3907L27.9991 13.6496C28.0881 13.6965 28.193 13.6966 28.2821 13.6497L28.7738 13.3907L29.2656 13.6496C29.3547 13.6965 29.4596 13.6966 29.5486 13.6497L30.0404 13.3907L30.5322 13.6496C30.6213 13.6965 30.7262 13.6966 30.8152 13.6497L30.9904 13.5573L30.9903 14.6847Z" fill="var(--fill-0, #0B7AFC)"/>
<path d="M20.223 26.0189C20.2721 26.0195 20.3204 26.008 20.3645 25.9856L21.5644 25.3523H25.9225C26.678 25.3512 27.4024 25.0349 27.9365 24.4725C28.4707 23.9102 28.7712 23.1477 28.7723 22.3524V18.3526C28.7723 18.2371 28.7156 18.1296 28.6221 18.0689C28.5288 18.0081 28.4122 18.0026 28.3141 18.0542L27.1143 18.6859H22.7562C22.0006 18.6869 21.2763 19.0033 20.7421 19.5656C20.2079 20.1279 19.9074 20.8904 19.9064 21.6857V25.6856C19.9064 25.774 19.9397 25.8588 19.9991 25.9213C20.0585 25.9838 20.1391 26.0189 20.223 26.0189ZM20.5397 21.6857C20.5404 21.0672 20.774 20.474 21.1896 20.0367C21.6051 19.5992 22.1686 19.3533 22.7562 19.3525H27.1892C27.2382 19.3525 27.2867 19.3406 27.3307 19.3175L28.1391 18.8918V22.3524C28.1384 22.9709 27.9047 23.5641 27.4891 24.0014C27.0737 24.4389 26.5102 24.6849 25.9226 24.6856H21.4896C21.4406 24.685 21.3922 24.6965 21.3481 24.7189L20.5397 25.1463V21.6857Z" fill="var(--fill-0, #0B7AFC)"/>
<path d="M12.6567 31.1669L12.9028 31.6846L12.6568 32.2023C12.6078 32.3056 12.6129 32.4283 12.6707 32.5265C12.7283 32.6249 12.8304 32.6846 12.9401 32.6846H14.84C14.8443 32.6846 14.8482 32.6819 14.8527 32.6819C14.8851 32.6802 14.9171 32.6734 14.9477 32.6615C14.9546 32.6585 14.9617 32.6569 14.9686 32.6538C14.9755 32.6508 14.9765 32.6514 14.9803 32.6494L16.1813 32.0179H25.5312L26.7309 32.6512C26.7337 32.6512 26.737 32.6512 26.7398 32.6532C26.7813 32.6739 26.8266 32.6846 26.8725 32.6846H28.7724C28.8824 32.6852 28.9848 32.6256 29.0429 32.5273C29.101 32.4289 29.1065 32.3059 29.0574 32.2023L28.8097 31.6846L29.0557 31.1669C29.1002 31.0732 29.1003 30.9628 29.0558 30.869L28.8097 30.3513L29.0557 29.8336C29.1002 29.7399 29.1003 29.6295 29.0558 29.5357L28.8097 29.018L29.0557 28.5003C29.1002 28.4066 29.1003 28.2962 29.0558 28.2024L28.8097 27.6847L29.0557 27.1671C29.1047 27.0638 29.0996 26.941 29.0418 26.8428C28.9841 26.7445 28.8821 26.6848 28.7724 26.6848H26.8725C26.8681 26.6848 26.8643 26.6875 26.8595 26.6875C26.827 26.689 26.7951 26.6958 26.7645 26.7078C26.7572 26.7108 26.7502 26.7125 26.7433 26.7156C26.7364 26.7186 26.7354 26.718 26.7316 26.7199L25.5312 27.3514H16.1813L14.9816 26.7181C14.9778 26.7162 14.9737 26.7157 14.9699 26.7138C14.9661 26.7119 14.9559 26.7092 14.9487 26.7061C14.9183 26.6942 14.8861 26.6873 14.8535 26.6858C14.8482 26.6875 14.8444 26.6848 14.84 26.6848H12.9401C12.8304 26.6848 12.7284 26.7444 12.6707 26.8428C12.6129 26.941 12.6076 27.0638 12.6567 27.167L12.9028 27.6847L12.6568 28.2024C12.6123 28.2962 12.6122 28.4066 12.6567 28.5003L12.9028 29.018L12.6568 29.5357C12.6123 29.6295 12.6122 29.7399 12.6567 29.8336L12.9028 30.3513L12.6568 30.869C12.6123 30.9628 12.6121 31.0732 12.6567 31.1669ZM27.189 27.3515H28.2599L28.1723 27.5358C28.1277 27.6296 28.1276 27.74 28.1721 27.8337L28.4182 28.3514L28.1723 28.8691C28.1277 28.9629 28.1276 29.0733 28.1721 29.167L28.4182 29.6847L28.1723 30.2024C28.1277 30.2961 28.1276 30.4066 28.1721 30.5003L28.4182 31.018L28.1723 31.5357C28.1277 31.6294 28.1276 31.7398 28.1721 31.8336L28.2598 32.0179H27.189L27.189 27.3515ZM15.1565 27.5574L15.965 27.9848C16.0091 28.0072 16.0574 28.0187 16.1065 28.0181H25.6058C25.6548 28.0187 25.7032 28.0072 25.7473 27.9848L26.5557 27.5574V31.8121L25.7473 31.3865C25.7033 31.3634 25.6548 31.3514 25.6058 31.3514H16.1065C16.0574 31.3508 16.0091 31.3622 15.965 31.3847L15.1565 31.8121V27.5574ZM13.5401 30.2024L13.294 29.6847L13.54 29.167C13.5845 29.0733 13.5846 28.9628 13.5401 28.8691L13.294 28.3514L13.54 27.8337C13.5845 27.74 13.5846 27.6296 13.5401 27.5358L13.4523 27.3514H14.5233V32.0179H13.4523L13.54 31.8335C13.5845 31.7398 13.5846 31.6294 13.5401 31.5356L13.294 31.018L13.54 30.5003C13.5845 30.4065 13.5846 30.2961 13.5401 30.2024Z" fill="var(--fill-0, #0B7AFC)"/>
<path d="M17.0562 30.6823H24.6557C24.7396 30.6823 24.8202 30.6472 24.8796 30.5847C24.9389 30.5222 24.9723 30.4374 24.9723 30.349V29.0157C24.9723 28.9273 24.9389 28.8425 24.8796 28.78C24.8202 28.7175 24.7396 28.6824 24.6557 28.6824H17.0562C16.8814 28.6824 16.7396 28.8317 16.7396 29.0157V30.349C16.7396 30.4374 16.7729 30.5222 16.8323 30.5847C16.8917 30.6472 16.9723 30.6823 17.0562 30.6823ZM17.3729 29.3491H24.339V30.0157H17.3729V29.3491Z" fill="var(--fill-0, #0B7AFC)"/>
<path d="M31.4734 12.7345C31.3801 12.6736 31.2635 12.6681 31.1654 12.7197L30.6736 12.9788L30.1818 12.7199C30.0928 12.673 29.9879 12.6729 29.8988 12.7197L29.407 12.9788L28.9153 12.7199C28.8262 12.673 28.7213 12.6729 28.6323 12.7197L28.1405 12.9788L27.6487 12.7199C27.5596 12.673 27.4547 12.6729 27.3657 12.7197L26.8739 12.9788L26.3821 12.7199C26.293 12.673 26.1881 12.6729 26.0991 12.7197L25.6073 12.9788L25.1155 12.7199C25.0264 12.673 24.9216 12.6729 24.8325 12.7197L24.3407 12.9788L23.8489 12.7199C23.7599 12.673 23.655 12.6729 23.5659 12.7197L23.0741 12.9788L22.5823 12.7199C22.4933 12.673 22.3884 12.6729 22.2993 12.7197L21.8075 12.9788L21.3157 12.7199C21.2267 12.673 21.1218 12.6729 21.0327 12.7197L20.541 12.9788L20.0492 12.7199C19.9601 12.673 19.8552 12.6729 19.7662 12.7197L19.2744 12.9788L18.7826 12.7199C18.6935 12.673 18.5886 12.6729 18.4996 12.7197L18.0078 12.9788L17.516 12.7199C17.4179 12.6682 17.3013 12.6736 17.208 12.7345C17.1145 12.7952 17.0579 12.9026 17.0579 13.0181V15.0204C17.059 15.0586 17.0662 15.0965 17.0793 15.1323C17.0829 15.1416 17.086 15.1506 17.0901 15.1596C17.0928 15.1677 17.0959 15.1756 17.0993 15.1833L18.3244 17.4399V25.9469L18.0711 26.5489L18.65 26.8195L18.9314 26.1529C18.9491 26.1103 18.958 26.0642 18.9577 26.0176V17.3513C18.958 17.2929 18.9436 17.2354 18.9159 17.1847L17.9201 15.3514H30.761L29.7651 17.1847C29.7374 17.2354 29.7231 17.2929 29.7234 17.3513V26.0176C29.7234 26.0642 29.7327 26.1103 29.7507 26.1529L30.8193 28.6842H29.7234V29.3508H30.99V30.4781L30.8148 30.3859C30.7258 30.339 30.6209 30.3389 30.5318 30.3857L30.04 30.6448L29.8649 30.5525L29.5818 31.1492L29.8984 31.3159C29.9875 31.3628 30.0925 31.3626 30.1815 31.3158L30.6733 31.0567L31.1651 31.3156C31.2632 31.3672 31.3798 31.3619 31.4731 31.301C31.5666 31.2403 31.6233 31.1329 31.6233 31.0174V29.0175C31.6233 29.0124 31.6207 29.0081 31.6204 29.0035C31.6193 28.9669 31.6125 28.9307 31.6001 28.8965C31.5985 28.8928 31.5982 28.8888 31.597 28.8855V28.8822L30.3567 25.9469V17.4399L31.5815 15.1846C31.585 15.1769 31.588 15.169 31.5906 15.161C31.5947 15.152 31.598 15.143 31.6014 15.1336C31.6148 15.0974 31.6223 15.0592 31.6233 15.0203V13.0181C31.6233 12.9026 31.5669 12.7952 31.4734 12.7345ZM30.9903 14.6847H17.6912V13.5573L17.8664 13.6496C17.9554 13.6965 18.0603 13.6966 18.1494 13.6497L18.6412 13.3907L19.133 13.6496C19.222 13.6965 19.3269 13.6966 19.416 13.6497L19.9078 13.3907L20.3996 13.6496C20.4886 13.6965 20.5935 13.6966 20.6826 13.6497L21.1743 13.3907L21.6661 13.6496C21.7552 13.6965 21.8601 13.6966 21.9491 13.6497L22.4409 13.3907L22.9327 13.6496C23.0218 13.6965 23.1267 13.6966 23.2157 13.6497L23.7075 13.3907L24.1993 13.6496C24.2884 13.6965 24.3932 13.6966 24.4823 13.6497L24.9741 13.3907L25.4659 13.6496C25.5549 13.6965 25.6598 13.6966 25.7489 13.6497L26.2407 13.3907L26.7325 13.6496C26.8215 13.6965 26.9264 13.6966 27.0155 13.6497L27.5073 13.3907L27.9991 13.6496C28.0881 13.6965 28.193 13.6966 28.2821 13.6497L28.7738 13.3907L29.2656 13.6496C29.3547 13.6965 29.4596 13.6966 29.5486 13.6497L30.0404 13.3907L30.5322 13.6496C30.6213 13.6965 30.7262 13.6966 30.8152 13.6497L30.9904 13.5573L30.9903 14.6847Z" stroke="var(--stroke-0, #0B7AFC)" stroke-width="0.2" mask="url(#path-2-outside-1_0_37)"/>
<path d="M20.223 26.0189C20.2721 26.0195 20.3204 26.008 20.3645 25.9856L21.5644 25.3523H25.9225C26.678 25.3512 27.4024 25.0349 27.9365 24.4725C28.4707 23.9102 28.7712 23.1477 28.7723 22.3524V18.3526C28.7723 18.2371 28.7156 18.1296 28.6221 18.0689C28.5288 18.0081 28.4122 18.0026 28.3141 18.0542L27.1143 18.6859H22.7562C22.0006 18.6869 21.2763 19.0033 20.7421 19.5656C20.2079 20.1279 19.9074 20.8904 19.9064 21.6857V25.6856C19.9064 25.774 19.9397 25.8588 19.9991 25.9213C20.0585 25.9838 20.1391 26.0189 20.223 26.0189ZM20.5397 21.6857C20.5404 21.0672 20.774 20.474 21.1896 20.0367C21.6051 19.5992 22.1686 19.3533 22.7562 19.3525H27.1892C27.2382 19.3525 27.2867 19.3406 27.3307 19.3175L28.1391 18.8918V22.3524C28.1384 22.9709 27.9047 23.5641 27.4891 24.0014C27.0737 24.4389 26.5102 24.6849 25.9226 24.6856H21.4896C21.4406 24.685 21.3922 24.6965 21.3481 24.7189L20.5397 25.1463V21.6857Z" stroke="var(--stroke-0, #0B7AFC)" stroke-width="0.2" mask="url(#path-2-outside-1_0_37)"/>
<path d="M12.6567 31.1669L12.9028 31.6846L12.6568 32.2023C12.6078 32.3056 12.6129 32.4283 12.6707 32.5265C12.7283 32.6249 12.8304 32.6846 12.9401 32.6846H14.84C14.8443 32.6846 14.8482 32.6819 14.8527 32.6819C14.8851 32.6802 14.9171 32.6734 14.9477 32.6615C14.9546 32.6585 14.9617 32.6569 14.9686 32.6538C14.9755 32.6508 14.9765 32.6514 14.9803 32.6494L16.1813 32.0179H25.5312L26.7309 32.6512C26.7337 32.6512 26.737 32.6512 26.7398 32.6532C26.7813 32.6739 26.8266 32.6846 26.8725 32.6846H28.7724C28.8824 32.6852 28.9848 32.6256 29.0429 32.5273C29.101 32.4289 29.1065 32.3059 29.0574 32.2023L28.8097 31.6846L29.0557 31.1669C29.1002 31.0732 29.1003 30.9628 29.0558 30.869L28.8097 30.3513L29.0557 29.8336C29.1002 29.7399 29.1003 29.6295 29.0558 29.5357L28.8097 29.018L29.0557 28.5003C29.1002 28.4066 29.1003 28.2962 29.0558 28.2024L28.8097 27.6847L29.0557 27.1671C29.1047 27.0638 29.0996 26.941 29.0418 26.8428C28.9841 26.7445 28.8821 26.6848 28.7724 26.6848H26.8725C26.8681 26.6848 26.8643 26.6875 26.8595 26.6875C26.827 26.689 26.7951 26.6958 26.7645 26.7078C26.7572 26.7108 26.7502 26.7125 26.7433 26.7156C26.7364 26.7186 26.7354 26.718 26.7316 26.7199L25.5312 27.3514H16.1813L14.9816 26.7181C14.9778 26.7162 14.9737 26.7157 14.9699 26.7138C14.9661 26.7119 14.9559 26.7092 14.9487 26.7061C14.9183 26.6942 14.8861 26.6873 14.8535 26.6858C14.8482 26.6875 14.8444 26.6848 14.84 26.6848H12.9401C12.8304 26.6848 12.7284 26.7444 12.6707 26.8428C12.6129 26.941 12.6076 27.0638 12.6567 27.167L12.9028 27.6847L12.6568 28.2024C12.6123 28.2962 12.6122 28.4066 12.6567 28.5003L12.9028 29.018L12.6568 29.5357C12.6123 29.6295 12.6122 29.7399 12.6567 29.8336L12.9028 30.3513L12.6568 30.869C12.6123 30.9628 12.6121 31.0732 12.6567 31.1669ZM27.189 27.3515H28.2599L28.1723 27.5358C28.1277 27.6296 28.1276 27.74 28.1721 27.8337L28.4182 28.3514L28.1723 28.8691C28.1277 28.9629 28.1276 29.0733 28.1721 29.167L28.4182 29.6847L28.1723 30.2024C28.1277 30.2961 28.1276 30.4066 28.1721 30.5003L28.4182 31.018L28.1723 31.5357C28.1277 31.6294 28.1276 31.7398 28.1721 31.8336L28.2598 32.0179H27.189L27.189 27.3515ZM15.1565 27.5574L15.965 27.9848C16.0091 28.0072 16.0574 28.0187 16.1065 28.0181H25.6058C25.6548 28.0187 25.7032 28.0072 25.7473 27.9848L26.5557 27.5574V31.8121L25.7473 31.3865C25.7033 31.3634 25.6548 31.3514 25.6058 31.3514H16.1065C16.0574 31.3508 16.0091 31.3622 15.965 31.3847L15.1565 31.8121V27.5574ZM13.5401 30.2024L13.294 29.6847L13.54 29.167C13.5845 29.0733 13.5846 28.9628 13.5401 28.8691L13.294 28.3514L13.54 27.8337C13.5845 27.74 13.5846 27.6296 13.5401 27.5358L13.4523 27.3514H14.5233V32.0179H13.4523L13.54 31.8335C13.5845 31.7398 13.5846 31.6294 13.5401 31.5356L13.294 31.018L13.54 30.5003C13.5845 30.4065 13.5846 30.2961 13.5401 30.2024Z" stroke="var(--stroke-0, #0B7AFC)" stroke-width="0.2" mask="url(#path-2-outside-1_0_37)"/>
<path d="M17.0562 30.6823H24.6557C24.7396 30.6823 24.8202 30.6472 24.8796 30.5847C24.9389 30.5222 24.9723 30.4374 24.9723 30.349V29.0157C24.9723 28.9273 24.9389 28.8425 24.8796 28.78C24.8202 28.7175 24.7396 28.6824 24.6557 28.6824H17.0562C16.8814 28.6824 16.7396 28.8317 16.7396 29.0157V30.349C16.7396 30.4374 16.7729 30.5222 16.8323 30.5847C16.8917 30.6472 16.9723 30.6823 17.0562 30.6823ZM17.3729 29.3491H24.339V30.0157H17.3729V29.3491Z" stroke="var(--stroke-0, #0B7AFC)" stroke-width="0.2" mask="url(#path-2-outside-1_0_37)"/>
</g>
</g>
</svg>
