<svg width="92.6704" height="20.4868" viewBox="0 0 92.6704 20.4868" fill="none" xmlns="http://www.w3.org/2000/svg">
<g id="Group 1801290366">
<path id="Vector" d="M6.6618 0C10.3524 0 12.709 2.34523 12.8619 5.77243H9.63299C9.55652 3.93704 8.32726 3.04766 6.58533 3.04766C4.63947 3.04766 3.48385 4.12681 3.48385 5.71862C3.48385 7.06684 4.32791 7.76927 5.68746 8.14598L8.73512 8.98154C11.9386 9.87091 13.4737 11.9216 13.4737 14.5642C13.4737 18.0707 10.732 20.4188 6.65897 20.4188C2.58598 20.4188 0.127458 18.1812 0 14.6463H3.22894C3.22894 16.3175 4.58566 17.3173 6.71279 17.3173C8.83992 17.3173 10.2221 16.2665 10.2221 14.6747C10.2221 13.4086 9.42906 12.6523 8.04402 12.2473L4.99352 11.3834C1.61164 10.4147 0.229424 8.36408 0.229424 5.85457C0.229424 2.42737 2.79274 0 6.6618 0Z" fill="var(--fill-0, white)"/>
<path id="Vector_2" d="M16.8754 20.4868V9.30733H14.482V6.63071H16.8754V2.54639H19.9231V6.63071H22.291V9.30733H19.9231V20.4868H16.8754Z" fill="var(--fill-0, white)"/>
<path id="Vector_3" d="M23.2965 16.4025C23.2965 13.8561 25.1092 12.4796 27.9048 12.2388L31.4566 11.9471V11.6554C31.4566 9.85396 30.4001 9.16285 28.8876 9.16285C27.1995 9.16285 26.2195 9.98425 26.245 11.3381H23.625C23.5996 8.52839 25.8173 6.64485 29.0406 6.64485C32.5414 6.64485 34.4561 8.7125 34.4561 12.185V20.1384H31.7625L31.5359 18.2039C31.0063 19.5549 29.5221 20.484 27.5564 20.484C24.8855 20.4868 23.2965 18.8412 23.2965 16.4025ZM31.4821 14.839V14.1479L28.8876 14.3858C27.0749 14.5727 26.4206 15.2072 26.4206 16.2693C26.4206 17.408 27.1769 18.0453 28.5619 18.0453C29.8705 18.0453 31.4821 17.2777 31.4821 14.839Z" fill="var(--fill-0, white)"/>
<path id="Vector_4" d="M36.4672 13.6466C36.4672 9.56226 38.7331 6.64772 42.486 6.64772C44.2251 6.64772 45.8112 7.44363 46.5901 8.74086V0.416439H49.5868V20.1413H46.8422L46.6411 18.0736C45.8849 19.6116 44.1741 20.4868 42.3104 20.4868C38.7076 20.4868 36.4643 17.7026 36.4672 13.6466ZM46.4882 13.5389C46.4882 11.1796 45.1286 9.53677 42.9873 9.53677C40.846 9.53677 39.5375 11.2079 39.5375 13.5389C39.5375 15.87 40.8206 17.5156 42.9873 17.5156C45.1541 17.5156 46.4882 15.9012 46.4882 13.5389Z" fill="var(--fill-0, white)"/>
<path id="Vector_5" d="M52.8328 6.89966H55.9059V20.4839H52.8328V6.89966Z" fill="var(--fill-0, white)"/>
<path id="Vector_6" d="M58.6251 15.2383V7.04418H61.6982V14.0969C61.6982 16.8018 62.7802 17.5977 64.3437 17.5977C66.3575 17.5977 67.2157 16.2721 67.2157 13.9127V7.04418H70.286V20.1412H67.414L67.2129 18.4446C66.4821 19.6654 64.8705 20.4867 63.1852 20.4867C60.2367 20.4867 58.6251 18.3653 58.6251 15.2383Z" fill="var(--fill-0, white)"/>
<path id="Vector_7" d="M73.5064 20.4837V7.3867H76.3275L76.4776 8.87088C77.2083 7.70393 78.5169 6.98734 79.9784 6.98734C82.0432 6.98734 83.4028 7.94185 84.0826 9.47985C84.6859 7.94185 86.1729 6.98734 88.0621 6.98734C91.0843 6.98734 92.6704 8.89637 92.6704 11.9185V20.4809H89.6992V12.6635C89.6992 10.8082 88.7419 9.82823 87.2577 9.82823C85.7707 9.82823 84.6377 10.8366 84.6377 12.9835V20.4866H81.641V12.6635C81.641 10.8082 80.6837 9.82823 79.2222 9.82823C77.7606 9.82823 76.5795 10.8366 76.5795 12.9552V20.4837H73.5064Z" fill="var(--fill-0, white)"/>
<path id="Vector_8" d="M55.9059 0.416439H52.8328V3.48959H55.9059V0.416439Z" fill="var(--fill-0, white)"/>
</g>
</svg>
