<svg width="11.5732" height="20.4784" viewBox="0 0 11.5732 20.4784" fill="none" xmlns="http://www.w3.org/2000/svg">
<g id="Group 1801290367">
<path id="Vector" d="M11.5732 0V6.45328L10.0352 8.02253L8.50002 6.45328V0H11.5732Z" fill="var(--fill-0, #8D12E7)"/>
<path id="Vector_2" d="M10.0351 8.02242L9.40069 8.66977L8.49999 9.58878L7.8627 10.239L1.85518 4.10652L4.02763 1.88992L10.0351 8.02242Z" fill="var(--fill-0, #0B7AFC)"/>
<path id="Vector_3" d="M11.5731 6.45311V10.8863L10.6724 11.8053L10.0351 12.4556L4.02763 18.5852L1.85518 16.3686L7.8627 10.239L8.49999 9.58872L9.40069 8.66971L11.5731 6.45311Z" fill="var(--fill-0, #FF5B77)"/>
<path id="Vector_4" d="M7.86274 10.2393L6.32758 11.8056H0V8.67002H6.32758L7.86274 10.2393Z" fill="var(--fill-0, #FFB800)"/>
<path id="Vector_5" d="M11.5732 10.8866V20.4784H8.50002V14.0222L10.0352 12.4558L10.6725 11.8056L11.5732 10.8866Z" fill="var(--fill-0, #00C036)"/>
</g>
</svg>
