<svg width="75" height="25" viewBox="0 0 75 25" fill="none" xmlns="http://www.w3.org/2000/svg">
<path d="M10.3176 0.00288892C10.3176 6.1794 10.3176 12.3559 10.3205 18.5324C10.3205 18.674 10.2883 18.726 10.1418 18.7491C9.38894 18.8618 8.63021 18.9311 7.8744 19.012C7.57853 19.0438 7.28265 19.0669 6.98678 19.1131C6.87253 19.1304 6.83737 19.0987 6.80222 19.0004C5.95267 16.5362 5.1002 14.0748 4.25066 11.6135C3.93427 10.7006 3.62082 9.78767 3.30444 8.87477C3.28686 8.82565 3.26635 8.77943 3.22827 8.7361C3.22827 8.79099 3.22827 8.84588 3.22827 8.90077C3.22827 12.405 3.22827 15.9093 3.2312 19.4135C3.2312 19.5436 3.20484 19.5898 3.06129 19.6042C2.08578 19.7053 1.11613 19.844 0.149403 19.9913C0.102531 20 0.0527304 19.9971 0.00292947 20C0.00292947 13.3786 0.00292947 6.76008 0 0.138668C0.00292947 0.0260003 0.0263652 0 0.137685 0C1.09855 0.00577784 2.06234 0.00288892 3.02321 0.00288892C3.06715 0.037556 3.09059 0.0837787 3.10816 0.135779C3.49192 1.19601 3.87568 2.25625 4.26237 3.31648C4.71937 4.57027 5.17344 5.82695 5.63043 7.08363C6.03177 8.18431 6.42725 9.28788 6.82859 10.3886C6.90182 10.5937 6.97506 10.7959 7.05122 11.001C7.07466 11.0646 7.0981 11.1252 7.0981 11.1628C7.07759 11.0732 7.08638 10.949 7.08638 10.8277C7.08638 7.30897 7.08638 3.79026 7.08638 0.271559C7.08638 0.182002 7.06294 0.0866676 7.12739 0.00577784C8.18786 0.00288892 9.25418 0.00288892 10.3176 0.00288892Z" fill="#4F5052"/>
<path d="M75.0001 0.00195312C73.6731 3.13932 72.3489 6.27669 71.0219 9.41406C70.9867 9.49784 71.0014 9.56717 71.0307 9.64517C72.3372 13.0541 73.6408 16.463 74.9474 19.8691C74.962 19.9037 74.9737 19.9413 74.9942 19.9991C74.7423 19.9644 74.5021 19.9384 74.2648 19.9008C73.3596 19.7535 72.4573 19.6004 71.5521 19.4559C71.4525 19.4415 71.4174 19.3953 71.3851 19.3115C70.6674 17.4857 69.9497 15.6599 69.2291 13.8341C69.2086 13.7821 69.1851 13.7272 69.1558 13.6608C68.7838 14.5101 68.4205 15.3421 68.0573 16.177C67.6706 17.0639 67.2839 17.9508 66.9031 18.8377C66.8591 18.9446 66.8064 18.9677 66.6951 18.9504C65.825 18.8002 64.9432 18.7366 64.0673 18.6355C63.9033 18.6153 63.7392 18.5893 63.5723 18.5806C63.4434 18.5748 63.4463 18.5286 63.4902 18.4304C63.9267 17.4597 64.3574 16.489 64.7909 15.5183C65.6756 13.5308 66.5574 11.5432 67.445 9.5585C67.4977 9.44295 67.4948 9.34761 67.4509 9.23206C66.2439 6.15824 65.0399 3.08154 63.8359 0.00484205C64.9696 0.00484205 66.1004 0.00484205 67.2341 0.00484205C67.2898 0.0337313 67.3132 0.0857318 67.3337 0.140621C67.9899 1.81042 68.652 3.47444 69.3082 5.14423C69.3111 5.1529 69.3169 5.16157 69.3169 5.16157C69.4605 4.79756 69.6157 4.43934 69.7681 4.08111C70.2163 3.02376 70.6616 1.96642 71.1068 0.909074C71.2123 0.654849 71.3236 0.403513 71.4262 0.149288C71.4496 0.0915097 71.4789 0.0337313 71.5375 0.00195312C72.6946 0.00195312 73.8488 0.00195312 75.0001 0.00195312Z" fill="#4F5052"/>
<path d="M22.1523 0.00288892C22.1523 0.999567 22.1494 1.99624 22.1553 2.99292C22.1553 3.11426 22.1113 3.1287 22.0058 3.1287C20.2423 3.12581 18.4817 3.1287 16.7182 3.12292C16.5922 3.12292 16.5483 3.14603 16.5483 3.2847C16.5541 4.58472 16.5541 5.88473 16.5483 7.18475C16.5483 7.30608 16.5805 7.33208 16.7035 7.32919C18.0247 7.30608 19.3488 7.28875 20.6729 7.26852C20.7638 7.26564 20.7872 7.29452 20.7872 7.38119C20.7843 8.3432 20.7843 9.3081 20.7872 10.2701C20.7872 10.3741 20.752 10.3972 20.6524 10.3972C19.7004 10.4001 18.7483 10.403 17.7962 10.4117C17.4154 10.4146 17.0346 10.4377 16.6537 10.4463C16.5717 10.4492 16.5483 10.4723 16.5483 10.5532C16.5512 12.0324 16.5512 13.5086 16.5483 14.9877C16.5483 15.0744 16.5629 15.0975 16.6596 15.0917C18.4231 14.9819 20.1837 14.8346 21.9502 14.7711C22.1494 14.7624 22.1494 14.7624 22.1494 14.9617C22.1494 15.8515 22.1465 16.7442 22.1523 17.634C22.1523 17.7438 22.123 17.7813 22.0117 17.79C20.9747 17.868 19.9406 17.946 18.9035 18.0298C17.7259 18.1222 16.5483 18.2146 15.3735 18.3071C14.7408 18.3562 14.108 18.4053 13.4753 18.4544C13.402 18.4602 13.3756 18.44 13.3844 18.3706C13.3874 18.3475 13.3844 18.3215 13.3844 18.2984C13.3844 12.2461 13.3844 6.19385 13.3844 0.144446C13.3844 0.0953344 13.3874 0.0491117 13.3903 0C16.3139 0.00288892 19.2316 0.00288892 22.1523 0.00288892Z" fill="#4F5052"/>
<path d="M44.8267 0.00195312C44.8238 0.0539537 44.818 0.105954 44.818 0.160844C44.818 1.09397 44.815 2.02998 44.8209 2.9631C44.8209 3.09021 44.7945 3.13065 44.6568 3.13065C42.8523 3.12488 41.0448 3.12777 39.2373 3.12488C39.1143 3.12488 39.0733 3.1451 39.0733 3.27799C39.0791 4.51156 39.0791 5.74224 39.0733 6.97581C39.0733 7.09137 39.1055 7.11737 39.2168 7.11448C40.5644 7.11159 41.9119 7.11448 43.2595 7.1087C43.3796 7.1087 43.4147 7.1347 43.4147 7.25603C43.4089 8.20071 43.4089 9.1425 43.4147 10.0872C43.4147 10.2085 43.3796 10.2374 43.2624 10.2374C41.9207 10.2345 40.579 10.2374 39.2344 10.2316C39.1055 10.2316 39.0733 10.2605 39.0733 10.3905C39.0762 12.6468 39.0762 14.9059 39.0791 17.1621C39.0791 17.3037 39.044 17.3355 38.9034 17.3355C37.9894 17.3297 37.0783 17.3326 36.1643 17.3326C35.9387 17.3326 35.968 17.3644 35.968 17.1448C35.968 12.4994 35.968 7.85404 35.968 3.20866C35.968 2.19176 35.968 1.17774 35.968 0.160844C35.968 0.108843 35.9739 0.0568426 35.9768 0.00195312C38.9297 0.00195312 41.8768 0.00195312 44.8267 0.00195312Z" fill="#4F5052"/>
<path d="M33.929 0.00195312C33.929 0.998631 33.926 1.99531 33.9319 2.99199C33.9319 3.11332 33.8879 3.12777 33.7825 3.12777C32.7923 3.12488 31.7992 3.12777 30.8091 3.12199C30.6802 3.12199 30.6421 3.15088 30.6421 3.28377C30.645 7.96382 30.645 12.6439 30.6479 17.3239C30.6479 17.4799 30.6011 17.5088 30.4546 17.5088C29.526 17.503 28.6003 17.503 27.6716 17.5377C27.4753 17.5464 27.4753 17.5406 27.4753 17.3557C27.4753 12.6757 27.4753 7.9956 27.4753 3.31555C27.4753 3.12777 27.4753 3.12777 27.2791 3.12777C26.3036 3.12777 25.3251 3.12488 24.3496 3.13065C24.209 3.13065 24.1855 3.09021 24.1855 2.9631C24.1914 2.0242 24.1885 1.0853 24.1885 0.146399C24.1885 0.0972875 24.1943 0.0510648 24.1973 0.00195312C27.446 0.00195312 30.686 0.00195312 33.929 0.00195312Z" fill="#4F5052"/>
<path d="M49.9529 0.00390625C49.9558 0.0674625 49.9587 0.12813 49.9587 0.191686C49.9587 4.93529 49.9587 9.67601 49.9558 14.4196C49.9558 14.5641 49.988 14.5987 50.1374 14.6045C51.5612 14.6392 52.9849 14.7258 54.4086 14.8183C54.681 14.8356 54.9535 14.8501 55.2289 14.8616C55.3226 14.8645 55.3519 14.8934 55.349 14.9887C55.346 15.9363 55.346 16.8868 55.349 17.8343C55.349 17.9412 55.3167 17.9586 55.2171 17.9528C53.9692 17.8748 52.7242 17.7968 51.4762 17.7303C50.571 17.6812 49.6629 17.6437 48.7547 17.6061C48.1513 17.583 47.5449 17.5657 46.9385 17.5541C46.8125 17.5512 46.7891 17.5137 46.7891 17.3981C46.792 14.7605 46.792 12.1229 46.792 9.48246C46.792 6.38264 46.792 3.28283 46.792 0.18013C46.792 0.122352 46.7891 0.0645736 46.7891 0.00679517C47.8437 0.00390625 48.8983 0.00390625 49.9529 0.00390625Z" fill="#4F5052"/>
<path d="M61.115 0.00390625C61.1179 0.0559068 61.1238 0.107907 61.1238 0.162797C61.1238 6.1862 61.1238 12.2096 61.1267 18.233C61.1267 18.363 61.115 18.4092 60.9568 18.3919C60.0311 18.2879 59.0995 18.233 58.168 18.1839C58.0332 18.1781 58.0127 18.1377 58.0127 18.0192C58.0156 12.0767 58.0156 6.13709 58.0156 0.194575C58.0156 0.131019 58.0127 0.0703514 58.0098 0.00679517C59.0439 0.00390625 60.0809 0.00390625 61.115 0.00390625Z" fill="#4F5052"/>
</svg>
