<svg preserveAspectRatio="none" width="100%" height="100%" overflow="visible" style="display: block;" viewBox="0 0 84 24" fill="none" xmlns="http://www.w3.org/2000/svg">
<g id="accenture" clip-path="url(#clip0_0_18)">
<path id="Vector" d="M6.11107 18.9247C6.11107 20.3248 5.53539 22.2072 3.83548 22.2072C2.9832 22.2072 2.48151 21.7685 2.48151 20.8966C2.4819 19.2508 4.89482 18.9247 6.11107 18.9247ZM8.54917 23.744V15.9639C8.54917 13.4415 6.89226 12.57 4.57096 12.57C2.30079 12.57 0.410279 13.5334 0.410279 16.0361H2.897C2.897 14.9551 3.4719 14.3615 4.57115 14.3615C5.83272 14.3615 6.11126 15.2756 6.11126 16.3554V17.4347C3.62977 17.5032 0.000216485 17.8486 0.000216485 21.1307C0.000216485 22.989 1.47176 23.9987 3.21544 23.9987C4.41116 23.9987 5.51312 23.6078 6.0671 22.4829H6.11146V23.7442H8.54917V23.744ZM16.1091 16.562H18.8199C18.8199 13.8759 17.3296 12.57 14.6618 12.57C11.3822 12.57 9.65326 14.6328 9.65326 17.7985C9.65326 21.6083 11.6065 23.9987 15.5098 23.9987C16.5914 23.9987 17.6699 23.8172 18.7053 23.4934V21.9332C18.1059 22.1389 17.4857 22.2072 16.8703 22.2072C13.9691 22.2072 12.3645 20.096 12.3645 17.3436C12.3645 16.0366 12.8468 14.3615 14.4559 14.3615C15.7874 14.3615 16.1091 15.4391 16.1091 16.562ZM25.9053 16.562H28.619C28.619 13.8759 27.1225 12.57 24.4591 12.57C21.1749 12.57 19.4512 14.6328 19.4512 17.7985C19.4512 21.6083 21.4023 23.9987 25.3083 23.9987C26.387 23.9987 27.4696 23.8172 28.5009 23.4934V21.9332C27.9054 22.1389 27.2837 22.2072 26.664 22.2072C23.7709 22.2072 22.1582 20.096 22.1582 17.3436C22.1582 16.0366 22.6449 14.3615 24.2511 14.3615C25.583 14.3615 25.9053 15.4391 25.9053 16.562ZM35.9018 16.0792H31.9046C32.0212 14.9768 32.8676 14.1935 33.9618 14.1935C35.1384 14.1935 35.9018 14.91 35.9018 16.0792ZM38.3141 17.6205V16.9982C38.3141 14.3367 36.9359 12.57 34.1554 12.57C30.8954 12.57 29.4665 14.6122 29.4665 17.7107C29.4665 21.3099 31.0968 23.9991 34.9788 23.9991C36.0143 23.9991 37.0533 23.8855 38.0319 23.5625V21.7964C37.388 22.0241 36.6345 22.207 35.9459 22.207C33.4666 22.207 31.8302 19.9372 31.8302 17.6207H38.3141V17.6205ZM45.8703 23.744H48.426V16.1717C48.426 14.2924 47.5443 12.57 45.4576 12.57C43.895 12.57 42.7957 13.4675 42.2185 14.8632H42.1734V12.8161H39.6183V23.7448H42.1734V19.018C42.1734 17.5462 42.9094 14.9559 44.7403 14.9559C45.0026 14.9559 45.291 14.9768 45.4812 15.1641C45.9118 15.5749 45.8703 16.9736 45.8703 17.5032V23.744V23.744ZM53.7239 14.5886H56.9721V12.8161H53.7239V9.19483L51.1849 10.2268V12.8155H49.0453V14.5881H51.1849V20.9896C51.1849 23.2639 52.2987 23.9983 54.5344 23.9983C55.2266 23.9983 55.9333 23.9319 56.6186 23.8168V22.0235C56.2345 22.1182 55.8459 22.206 55.4488 22.206C53.8593 22.206 53.7235 21.0363 53.7235 19.7487V14.5886H53.7239ZM64.3497 23.744H66.9V12.8159H64.3497V17.5458C64.3497 19.0174 63.6137 21.6085 61.7723 21.6085C61.5234 21.6085 61.2199 21.5901 61.0363 21.4055C60.5976 20.9904 60.6471 19.5898 60.6471 19.0648V12.8157H58.1008V20.395C58.1008 22.2784 58.9662 23.9989 61.0617 23.9989C62.6049 23.9989 63.7293 23.0789 64.3059 21.7062H64.3497V23.744V23.744ZM71.0593 18.9495C71.0593 16.3786 72.023 15.2336 74.6393 15.2336V12.57C72.8051 12.57 71.9499 13.3279 71.1023 14.8379H71.0591V12.8155H68.5046V23.7442H71.0591V18.9495H71.0593ZM81.5886 16.0792H77.5899C77.7053 14.9768 78.5543 14.1935 79.6547 14.1935C80.8301 14.1935 81.5886 14.91 81.5886 16.0792ZM84 17.6205V16.9982C84 14.3367 82.6234 12.57 79.8407 12.57C76.5796 12.57 75.1545 14.6122 75.1545 17.7107C75.1545 21.3099 76.786 23.9991 80.6651 23.9991C81.7002 23.9991 82.7357 23.8855 83.723 23.5625V21.7964C83.0807 22.0241 82.322 22.207 81.6376 22.207C79.1498 22.207 77.5192 19.9372 77.5192 17.6207H83.9998" fill="var(--fill-0, #181818)"/>
<path id="Vector_2" d="M49.0424 0.000745375V1.79746C49.0424 1.79746 54.1349 3.7689 54.864 4.05239C54.1349 4.33162 49.0424 6.2932 49.0424 6.2932V8.08739L56.974 4.86821V3.22147L49.0424 0.000745375Z" fill="var(--fill-0, #181818)"/>
</g>
<defs>
<clipPath id="clip0_0_18">
<rect width="84" height="24" fill="white"/>
</clipPath>
</defs>
</svg>
