<svg preserveAspectRatio="none" width="100%" height="100%" overflow="visible" style="display: block;" viewBox="0 0 118 21" fill="none" xmlns="http://www.w3.org/2000/svg">
<g id="bloomberg">
<path id="Vector" d="M118 15.9711C117.931 16.3412 117.885 16.7157 117.793 17.0812C117.253 19.2079 115.82 20.4295 113.625 20.8174C112.007 21.1027 110.38 21.0804 108.804 20.5588C107.135 20.006 106.061 18.9181 105.72 17.2105C105.71 17.166 105.701 17.1214 105.697 17.0812C105.697 17.059 105.701 17.0411 105.71 17.001C105.789 17.001 105.863 17.001 105.936 17.001C107.195 17.001 108.458 17.001 109.716 17.001C109.864 17.001 109.961 17.0233 110.03 17.1793C110.196 17.536 110.505 17.7589 110.878 17.8838C111.339 18.0398 111.809 18.0532 112.284 17.9595C112.934 17.8303 113.34 17.4468 113.519 16.836C113.69 16.2475 113.63 15.6456 113.639 15.0081C113.561 15.0527 113.51 15.0705 113.482 15.1017C112.15 16.5239 110.514 16.6711 108.762 16.0736C107.186 15.5386 106.217 14.3839 105.775 12.8547C105.166 10.7503 105.337 8.69054 106.439 6.75559C107.098 5.59641 108.08 4.77606 109.458 4.54868C111.122 4.27226 112.593 4.6111 113.625 6.03779C113.644 6.06008 113.662 6.08683 113.681 6.10467C113.69 6.11358 113.708 6.11358 113.759 6.12696C113.759 5.69449 113.759 5.2754 113.759 4.84294C113.842 4.82956 113.893 4.81173 113.943 4.81173C115.266 4.81173 116.585 4.81173 117.908 4.81173C117.94 4.81173 117.968 4.82065 118 4.8251C118 8.53895 118 12.2573 118 15.9711ZM113.824 10.358C113.828 9.89431 113.736 9.32363 113.459 8.79754C113.118 8.14661 112.597 7.72752 111.814 7.73198C110.984 7.73644 110.445 8.17336 110.113 8.88671C109.887 9.36821 109.818 9.88539 109.813 10.407C109.808 11.0892 109.905 11.7535 110.279 12.3509C111.025 13.5457 112.593 13.5502 113.344 12.3553C113.708 11.7802 113.824 11.1427 113.824 10.358Z" fill="var(--fill-0, #181818)"/>
<path id="Vector_2" d="M0 16.952C0 11.2942 0 5.66328 0 0.0189482C0.0553169 0.0100314 0.110634 0.0011146 0.161341 0.0011146C3.15767 0.005573 6.154 -0.0122606 9.15033 0.0189482C10.3765 0.0323234 11.5382 0.34887 12.5108 1.11571C13.3544 1.78002 13.8062 2.66724 13.9537 3.69713C14.0689 4.49518 14.0228 5.28432 13.6955 6.03779C13.3959 6.7333 12.8566 7.21481 12.1835 7.56702C12.1052 7.60714 12.0222 7.65173 11.9162 7.70523C11.9761 7.74536 12.0084 7.78548 12.0499 7.80331C13.7416 8.42749 14.6083 9.64909 14.7927 11.3522C14.9217 12.5515 14.6866 13.6884 14.032 14.7272C13.2714 15.9354 12.1144 16.5819 10.6992 16.8048C10.0815 16.9029 9.44997 16.943 8.82304 16.9475C5.97883 16.9609 3.13923 16.952 0.295023 16.952C0.202829 16.952 0.110634 16.952 0 16.952ZM4.80796 13.2515C5.52247 13.2515 6.21393 13.2604 6.90539 13.247C7.46317 13.2336 8.02095 13.2203 8.57412 13.1579C9.15955 13.091 9.59748 12.7878 9.85101 12.2573C10.0124 11.914 10.0308 11.5528 9.98931 11.1872C9.91094 10.5408 9.56521 10.0771 8.91524 9.87647C8.68475 9.80514 8.43582 9.77393 8.19151 9.77393C7.13127 9.76501 6.07564 9.76947 5.0154 9.76947C4.95086 9.76947 4.88171 9.77838 4.80796 9.78284C4.80796 10.9376 4.80796 12.0789 4.80796 13.2515ZM4.76186 6.56834C4.8725 6.56834 4.95547 6.56834 5.03845 6.56834C5.8682 6.56834 6.69795 6.56834 7.52771 6.56834C7.59685 6.56834 7.666 6.56388 7.73514 6.57725C8.37129 6.69763 9.05814 6.34096 9.25175 5.74353C9.33933 5.48049 9.35777 5.19069 9.34394 4.91427C9.32089 4.42831 9.07197 4.03597 8.59716 3.85317C8.31136 3.74171 7.99329 3.67929 7.68444 3.67484C6.78093 3.65254 5.87281 3.66592 4.9693 3.66592C4.90476 3.66592 4.83562 3.67484 4.76186 3.67929C4.76186 4.64231 4.76186 5.59195 4.76186 6.56834Z" fill="var(--fill-0, #181818)"/>
<path id="Vector_3" d="M60.0417 6.62623C60.157 6.46573 60.2307 6.35873 60.3091 6.25173C61.2218 4.99446 62.4941 4.47282 64.0522 4.50403C65.1908 4.52632 66.2003 4.8295 66.9794 5.67213C67.5694 6.30968 67.8829 7.08545 68.012 7.91917C68.095 8.45863 68.1411 9.01147 68.1457 9.55986C68.1595 11.9317 68.1503 14.2991 68.1503 16.671C68.1503 16.7602 68.1503 16.8449 68.1503 16.943C66.6705 16.943 65.2139 16.943 63.7387 16.943C63.7387 16.8449 63.7387 16.7557 63.7387 16.671C63.7387 14.4998 63.748 12.333 63.7341 10.1617C63.7295 9.77832 63.6834 9.39044 63.582 9.02039C63.4299 8.47647 63.0335 8.15546 62.4434 8.0975C61.881 8.03954 61.4108 8.2045 61.0697 8.6548C60.7194 9.11848 60.6041 9.65348 60.6041 10.2108C60.5949 12.3642 60.5995 14.5221 60.5995 16.6755C60.5995 16.7557 60.5995 16.836 60.5995 16.9385C59.1336 16.9385 57.6816 16.9385 56.188 16.9385C56.188 16.8583 56.188 16.7735 56.188 16.6888C56.188 14.5354 56.1972 12.3776 56.1834 10.2242C56.1788 9.82736 56.1327 9.42165 56.0359 9.03822C55.893 8.4943 55.5058 8.16884 54.9111 8.10196C54.3395 8.03954 53.8647 8.2045 53.519 8.65926C53.1548 9.14077 53.0534 9.70699 53.0488 10.2821C53.0395 12.4132 53.0442 14.5488 53.0442 16.6799C53.0442 16.7602 53.0442 16.8404 53.0442 16.9385C51.5322 16.9385 50.0294 16.9385 48.5174 16.9385C48.5174 12.9215 48.5174 8.90447 48.5174 4.87408C49.9141 4.87408 51.3017 4.87408 52.7169 4.87408C52.7169 5.46259 52.7169 6.0511 52.7169 6.63961C52.7353 6.64852 52.7584 6.65744 52.7768 6.66636C52.8321 6.59948 52.892 6.5326 52.9381 6.46127C53.519 5.5473 54.3026 4.883 55.409 4.63333C56.1465 4.46837 56.8841 4.44607 57.6216 4.61103C58.6634 4.84733 59.4148 5.44921 59.9034 6.36764C59.9403 6.43898 59.9772 6.50585 60.0417 6.62623Z" fill="var(--fill-0, #181818)"/>
<path id="Vector_4" d="M69.4409 0.0100182C70.9022 0.0100182 72.3543 0.0100182 73.8294 0.0100182C73.8294 2.02967 73.8294 4.04487 73.8294 6.12248C73.917 6.05115 73.9677 6.0244 73.9999 5.98427C74.9081 4.88305 76.1204 4.43721 77.5448 4.46396C79.5962 4.50408 80.9376 5.55181 81.7627 7.29504C82.3574 8.54785 82.5141 9.88537 82.4726 11.2496C82.4358 12.4311 82.2329 13.5769 81.7166 14.6603C80.4213 17.3666 77.3927 17.7812 75.558 17.0366C74.8066 16.7335 74.2166 16.2386 73.7971 15.5609C73.7648 15.5119 73.7326 15.4628 73.668 15.3558C73.668 15.9176 73.668 16.4169 73.668 16.9386C72.2436 16.9386 70.8515 16.9386 69.4409 16.9386C69.4409 11.3076 69.4409 5.67219 69.4409 0.0100182ZM77.9459 10.8127C77.9228 10.0414 77.8491 9.2612 77.4434 8.54785C77.0239 7.81222 76.3786 7.49567 75.5304 7.63388C74.8435 7.74534 74.3825 8.16889 74.1198 8.76186C73.5297 10.0771 73.5436 11.4101 74.0691 12.7432C74.235 13.1578 74.507 13.5056 74.8988 13.7553C75.6226 14.2189 76.9179 14.2234 77.5264 12.9528C77.8537 12.284 77.9274 11.5617 77.9459 10.8127Z" fill="var(--fill-0, #181818)"/>
<path id="Vector_5" d="M95.7903 12.0566C92.9784 12.0566 90.1941 12.0566 87.4098 12.0566C87.3453 13.5591 88.6867 14.6336 90.1618 14.2814C90.6965 14.1521 91.0699 13.84 91.3004 13.3585C91.3327 13.2961 91.4203 13.2158 91.4848 13.2158C92.8355 13.2069 94.1861 13.2114 95.5414 13.2114C95.5552 13.2114 95.569 13.2203 95.6105 13.2292C95.5875 13.3273 95.5644 13.4254 95.5321 13.519C94.8499 15.6144 93.3471 16.8093 91.1483 17.2105C89.6409 17.487 88.152 17.4112 86.723 16.8227C84.7684 16.0157 83.6114 14.5578 83.1642 12.5738C82.8001 10.951 82.9153 9.35039 83.6621 7.83453C84.561 6.00659 86.0822 4.93657 88.1381 4.60665C89.6086 4.37035 91.0469 4.49073 92.3975 5.15949C93.9326 5.92188 94.8591 7.17023 95.3708 8.73513C95.7027 9.75164 95.8087 10.7949 95.8133 11.8515C95.8041 11.914 95.7949 11.9719 95.7903 12.0566ZM91.388 9.61343C91.3557 8.23133 90.4522 7.32627 89.2306 7.42436C88.1566 7.50907 87.2623 8.58354 87.419 9.61343C88.7328 9.61343 90.0558 9.61343 91.388 9.61343Z" fill="var(--fill-0, #181818)"/>
<path id="Vector_6" d="M21.0112 10.9554C21.0435 9.72932 21.2878 8.56122 21.9147 7.48675C22.7214 6.10018 23.9476 5.22188 25.5195 4.80725C26.9993 4.41937 28.4836 4.43274 29.9449 4.89196C31.6828 5.44034 32.9274 6.54157 33.5728 8.19117C34.3748 10.2331 34.3334 12.284 33.3192 14.2546C32.471 15.9087 31.019 16.8494 29.1705 17.2016C27.6723 17.4869 26.188 17.4111 24.7635 16.8316C22.7675 16.0246 21.6335 14.531 21.2094 12.5114C21.0988 12.0076 21.0711 11.477 21.0112 10.9554ZM29.5669 10.9509C29.5438 10.6032 29.5346 10.251 29.4931 9.90766C29.4148 9.31469 29.2719 8.73956 28.9169 8.23576C28.2116 7.23708 26.7365 7.25937 26.0819 8.28926C25.9482 8.50326 25.8376 8.7351 25.7639 8.97585C25.455 9.95224 25.4458 10.9509 25.5564 11.9541C25.621 12.5559 25.7592 13.14 26.0958 13.6616C26.5613 14.3839 27.4418 14.638 28.2255 14.268C28.7003 14.0451 28.9861 13.6572 29.1843 13.198C29.4839 12.4802 29.5531 11.7222 29.5669 10.9509Z" fill="var(--fill-0, #181818)"/>
<path id="Vector_7" d="M41.1281 4.51306C42.1514 4.53981 43.1333 4.70477 44.0691 5.10157C45.4612 5.69899 46.4615 6.67984 47.0285 8.03965C47.7984 9.8988 47.8306 11.7936 47.0977 13.6662C46.3186 15.6457 44.7836 16.7959 42.6585 17.2106C41.2065 17.4915 39.7682 17.4201 38.3853 16.8762C36.357 16.0826 35.1861 14.5846 34.7574 12.5382C34.4486 11.0624 34.5269 9.59563 35.117 8.18678C35.9283 6.25183 37.4449 5.12386 39.5331 4.70031C40.0586 4.59777 40.598 4.57102 41.1281 4.51306ZM43.1149 10.9688C43.0918 10.6211 43.0826 10.2689 43.0411 9.92555C42.9674 9.33259 42.8245 8.75745 42.4695 8.25365C42.0731 7.69635 41.5245 7.45114 40.8238 7.53139C40.0771 7.6161 39.6668 8.08869 39.3994 8.71287C39.1597 9.27463 39.0814 9.87205 39.0491 10.4739C39.003 11.4057 39.0491 12.3331 39.3994 13.2159C39.6161 13.7553 39.948 14.1967 40.5565 14.3706C41.3724 14.6069 42.1883 14.2324 42.6124 13.4165C43.0227 12.6452 43.101 11.8115 43.1149 10.9688Z" fill="var(--fill-0, #181818)"/>
<path id="Vector_8" d="M15.6084 0.014451C17.1204 0.014451 18.614 0.014451 20.1213 0.014451C20.1213 5.67662 20.1213 11.3254 20.1213 16.9876C18.6186 16.9876 17.125 16.9876 15.6084 16.9876C15.6084 11.3343 15.6084 5.68554 15.6084 0.014451Z" fill="var(--fill-0, #181818)"/>
<path id="Vector_9" d="M101.027 16.9876C99.5334 16.9876 98.0675 16.9876 96.5878 16.9876C96.5878 12.9528 96.5878 8.92237 96.5878 4.87414C97.9799 4.87414 99.3721 4.87414 100.796 4.87414C100.796 5.55182 100.796 6.22504 100.796 6.90272C100.82 6.91163 100.838 6.91609 100.861 6.92501C100.907 6.85813 100.958 6.79571 100.995 6.72438C101.363 6.10466 101.806 5.55182 102.428 5.15056C103.175 4.66906 104.009 4.53085 104.89 4.60664C105.208 4.63339 105.231 4.67797 105.231 4.97669C105.231 6.03779 105.231 7.10334 105.231 8.16444C105.231 8.24469 105.231 8.32495 105.231 8.43195C104.987 8.4052 104.761 8.37399 104.535 8.35615C103.539 8.28482 102.617 8.43641 101.894 9.18096C101.387 9.70705 101.17 10.358 101.082 11.0579C101.041 11.3968 101.032 11.7401 101.027 12.0789C101.022 13.6171 101.022 15.1552 101.022 16.6934C101.027 16.787 101.027 16.8762 101.027 16.9876Z" fill="var(--fill-0, #181818)"/>
</g>
</svg>
