<svg preserveAspectRatio="none" width="100%" height="100%" overflow="visible" style="display: block;" viewBox="0 0 75 20" fill="none" xmlns="http://www.w3.org/2000/svg">
<g id="netflix">
<path id="Vector" d="M10.3176 0.00288892C10.3176 6.1794 10.3176 12.3559 10.3205 18.5324C10.3205 18.674 10.2883 18.726 10.1418 18.7491C9.38894 18.8618 8.63021 18.9311 7.8744 19.012C7.57853 19.0438 7.28265 19.0669 6.98678 19.1131C6.87253 19.1304 6.83737 19.0987 6.80222 19.0004C5.95267 16.5362 5.1002 14.0748 4.25066 11.6135C3.93427 10.7006 3.62082 9.78767 3.30444 8.87477C3.28686 8.82565 3.26635 8.77943 3.22827 8.7361C3.22827 8.79099 3.22827 8.84588 3.22827 8.90077C3.22827 12.405 3.22827 15.9093 3.2312 19.4135C3.2312 19.5436 3.20484 19.5898 3.06129 19.6042C2.08578 19.7053 1.11613 19.844 0.149403 19.9913C0.102531 20 0.0527304 19.9971 0.00292947 20C0.00292947 13.3786 0.00292947 6.76008 0 0.138668C0.00292947 0.0260003 0.0263652 0 0.137685 0C1.09855 0.00577784 2.06234 0.00288892 3.02321 0.00288892C3.06715 0.037556 3.09059 0.0837787 3.10816 0.135779C3.49192 1.19601 3.87568 2.25625 4.26237 3.31648C4.71937 4.57027 5.17344 5.82695 5.63043 7.08363C6.03177 8.18431 6.42725 9.28788 6.82859 10.3886C6.90182 10.5937 6.97506 10.7959 7.05122 11.001C7.07466 11.0646 7.0981 11.1252 7.0981 11.1628C7.07759 11.0732 7.08638 10.949 7.08638 10.8277C7.08638 7.30897 7.08638 3.79026 7.08638 0.271559C7.08638 0.182002 7.06294 0.0866676 7.12739 0.00577784C8.18786 0.00288892 9.25418 0.00288892 10.3176 0.00288892Z" fill="var(--fill-0, #181818)"/>
<path id="Vector_2" d="M75 0.00282613C73.673 3.14019 72.3488 6.27756 71.0218 9.41493C70.9866 9.49871 71.0013 9.56804 71.0306 9.64604C72.3371 13.055 73.6407 16.4639 74.9473 19.8699C74.9619 19.9046 74.9736 19.9422 74.9941 19.9999C74.7422 19.9653 74.502 19.9393 74.2647 19.9017C73.3595 19.7544 72.4572 19.6013 71.552 19.4568C71.4524 19.4424 71.4173 19.3962 71.385 19.3124C70.6673 17.4866 69.9496 15.6608 69.229 13.835C69.2084 13.783 69.185 13.7281 69.1557 13.6616C68.7837 14.511 68.4204 15.343 68.0572 16.1779C67.6705 17.0648 67.2838 17.9517 66.903 18.8386C66.859 18.9455 66.8063 18.9686 66.695 18.9513C65.8249 18.801 64.9431 18.7375 64.0672 18.6364C63.9032 18.6161 63.7391 18.5901 63.5722 18.5815C63.4433 18.5757 63.4462 18.5295 63.4901 18.4313C63.9266 17.4606 64.3573 16.4899 64.7908 15.5192C65.6755 13.5316 66.5573 11.5441 67.4449 9.55938C67.4976 9.44382 67.4947 9.34849 67.4508 9.23293C66.2438 6.15912 65.0398 3.08242 63.8358 0.00571505C64.9695 0.00571505 66.1003 0.00571505 67.234 0.00571505C67.2896 0.0346043 67.3131 0.0866048 67.3336 0.141494C67.9898 1.81129 68.6518 3.47531 69.308 5.14511C69.311 5.15377 69.3168 5.16244 69.3168 5.16244C69.4604 4.79843 69.6156 4.44021 69.768 4.08198C70.2162 3.02464 70.6615 1.96729 71.1067 0.909947C71.2122 0.655722 71.3235 0.404386 71.4261 0.150161C71.4495 0.0923827 71.4788 0.0346043 71.5374 0.00282613C72.6945 0.00282613 73.8487 0.00282613 75 0.00282613Z" fill="var(--fill-0, #181818)"/>
<path id="Vector_3" d="M22.1525 0.00288892C22.1525 0.999567 22.1496 1.99624 22.1554 2.99292C22.1554 3.11426 22.1115 3.1287 22.006 3.1287C20.2425 3.12581 18.4819 3.1287 16.7184 3.12292C16.5924 3.12292 16.5484 3.14603 16.5484 3.2847C16.5543 4.58472 16.5543 5.88473 16.5484 7.18475C16.5484 7.30608 16.5807 7.33208 16.7037 7.32919C18.0249 7.30608 19.349 7.28875 20.6731 7.26852C20.7639 7.26564 20.7874 7.29452 20.7874 7.38119C20.7844 8.3432 20.7844 9.3081 20.7874 10.2701C20.7874 10.3741 20.7522 10.3972 20.6526 10.3972C19.7005 10.4001 18.7485 10.403 17.7964 10.4117C17.4156 10.4146 17.0347 10.4377 16.6539 10.4463C16.5719 10.4492 16.5484 10.4723 16.5484 10.5532C16.5514 12.0324 16.5514 13.5086 16.5484 14.9877C16.5484 15.0744 16.5631 15.0975 16.6598 15.0917C18.4233 14.9819 20.1839 14.8346 21.9504 14.7711C22.1496 14.7624 22.1496 14.7624 22.1496 14.9617C22.1496 15.8515 22.1466 16.7442 22.1525 17.634C22.1525 17.7438 22.1232 17.7813 22.0119 17.79C20.9749 17.868 19.9408 17.946 18.9037 18.0298C17.7261 18.1222 16.5484 18.2146 15.3737 18.3071C14.741 18.3562 14.1082 18.4053 13.4754 18.4544C13.4022 18.4602 13.3758 18.44 13.3846 18.3706C13.3876 18.3475 13.3846 18.3215 13.3846 18.2984C13.3846 12.2461 13.3846 6.19385 13.3846 0.144446C13.3846 0.0953344 13.3876 0.0491117 13.3905 0C16.3141 0.00288892 19.2318 0.00288892 22.1525 0.00288892Z" fill="var(--fill-0, #181818)"/>
<path id="Vector_4" d="M44.8267 0.00282613C44.8238 0.0548267 44.8179 0.106827 44.8179 0.161717C44.8179 1.09484 44.815 2.03085 44.8208 2.96397C44.8208 3.09108 44.7945 3.13153 44.6568 3.13153C42.8522 3.12575 41.0448 3.12864 39.2373 3.12575C39.1143 3.12575 39.0732 3.14597 39.0732 3.27886C39.0791 4.51243 39.0791 5.74311 39.0732 6.97668C39.0732 7.09224 39.1055 7.11824 39.2168 7.11535C40.5643 7.11246 41.9119 7.11535 43.2594 7.10957C43.3795 7.10957 43.4147 7.13557 43.4147 7.25691C43.4088 8.20158 43.4088 9.14337 43.4147 10.088C43.4147 10.2094 43.3795 10.2383 43.2624 10.2383C41.9207 10.2354 40.579 10.2383 39.2344 10.2325C39.1055 10.2325 39.0732 10.2614 39.0732 10.3914C39.0762 12.6476 39.0762 14.9068 39.0791 17.163C39.0791 17.3046 39.0439 17.3364 38.9033 17.3364C37.9893 17.3306 37.0783 17.3335 36.1643 17.3335C35.9387 17.3335 35.968 17.3652 35.968 17.1457C35.968 12.5003 35.968 7.85491 35.968 3.20953C35.968 2.19263 35.968 1.17862 35.968 0.161717C35.968 0.109716 35.9739 0.0577156 35.9768 0.00282613C38.9297 0.00282613 41.8767 0.00282613 44.8267 0.00282613Z" fill="var(--fill-0, #181818)"/>
<path id="Vector_5" d="M33.929 0.00286954C33.929 0.999547 33.926 1.99623 33.9319 2.9929C33.9319 3.11424 33.888 3.12868 33.7825 3.12868C32.7923 3.12579 31.7992 3.12868 30.8091 3.1229C30.6802 3.1229 30.6421 3.15179 30.6421 3.28468C30.645 7.96474 30.645 12.6448 30.648 17.3248C30.648 17.4808 30.6011 17.5097 30.4546 17.5097C29.526 17.504 28.6003 17.504 27.6716 17.5386C27.4754 17.5473 27.4754 17.5415 27.4754 17.3566C27.4754 12.6766 27.4754 7.99651 27.4754 3.31646C27.4754 3.12868 27.4754 3.12868 27.2791 3.12868C26.3036 3.12868 25.3251 3.12579 24.3496 3.13157C24.209 3.13157 24.1856 3.09113 24.1856 2.96401C24.1914 2.02511 24.1885 1.08621 24.1885 0.147316C24.1885 0.0982039 24.1943 0.0519812 24.1973 0.00286954C27.4461 0.00286954 30.686 0.00286954 33.929 0.00286954Z" fill="var(--fill-0, #181818)"/>
<path id="Vector_6" d="M49.9532 0.00282613C49.9561 0.0663824 49.9591 0.12705 49.9591 0.190606C49.9591 4.93421 49.9591 9.67493 49.9561 14.4185C49.9561 14.563 49.9884 14.5977 50.1378 14.6034C51.5615 14.6381 52.9852 14.7248 54.4089 14.8172C54.6814 14.8345 54.9538 14.849 55.2292 14.8605C55.3229 14.8634 55.3522 14.8923 55.3493 14.9877C55.3464 15.9352 55.3464 16.8857 55.3493 17.8332C55.3493 17.9401 55.3171 17.9575 55.2175 17.9517C53.9695 17.8737 52.7245 17.7957 51.4765 17.7292C50.5713 17.6801 49.6632 17.6426 48.7551 17.605C48.1516 17.5819 47.5452 17.5646 46.9388 17.553C46.8128 17.5501 46.7894 17.5126 46.7894 17.397C46.7923 14.7594 46.7923 12.1219 46.7923 9.48138C46.7923 6.38156 46.7923 3.28175 46.7923 0.17905C46.7923 0.121272 46.7894 0.0634935 46.7894 0.00571505C47.844 0.00282613 48.8986 0.00282613 49.9532 0.00282613Z" fill="var(--fill-0, #181818)"/>
<path id="Vector_7" d="M61.1146 0.00282613C61.1175 0.0548267 61.1234 0.106827 61.1234 0.161717C61.1234 6.18512 61.1234 12.2085 61.1263 18.2319C61.1263 18.3619 61.1146 18.4081 60.9564 18.3908C60.0307 18.2868 59.0991 18.2319 58.1675 18.1828C58.0328 18.177 58.0123 18.1366 58.0123 18.0181C58.0152 12.0756 58.0152 6.13601 58.0152 0.193495C58.0152 0.129939 58.0123 0.0692713 58.0093 0.00571505C59.0434 0.00282613 60.0805 0.00282613 61.1146 0.00282613Z" fill="var(--fill-0, #181818)"/>
</g>
</svg>
