<svg width="87" height="25" viewBox="0 0 87 25" fill="none" xmlns="http://www.w3.org/2000/svg">
<path d="M0.176782 6.40779C0.975062 3.07818 3.71824 0.675071 7.2597 0.153915C8.69661 -0.0487572 10.1045 -0.019804 11.4978 0.356587C15.4312 1.45681 17.5938 5.00357 16.8681 9.11491C16.5343 11.0258 15.8666 12.792 14.4297 14.1672C13.0654 15.4701 11.4108 16.1216 9.53843 15.7597C8.68209 15.6004 7.89833 15.0503 6.99845 14.645C6.47594 17.1928 5.73571 19.8421 3.86339 21.9991C3.81984 21.9991 3.76179 21.9991 3.71824 21.9991C3.6747 21.7819 3.63116 21.5792 3.58762 21.3621C3.19573 19.1472 3.68921 17.0046 4.1827 14.8621C4.67618 12.7196 5.54703 10.635 4.95195 8.30422C4.69069 7.29086 5.14063 6.24855 5.95343 5.48129C6.56302 4.90223 7.43387 4.74299 8.10153 5.09043C8.85626 5.46682 9.03043 6.16169 9.00141 6.92895C8.98689 7.29086 8.91432 7.65278 8.82724 8.00022C8.53695 9.04253 8.20313 10.0704 7.94187 11.1272C7.54999 12.8209 8.79821 14.0514 10.4964 13.675C11.6285 13.4289 12.3397 12.6472 12.8622 11.6917C13.8201 9.94007 14.0959 8.04365 13.8637 6.08931C13.704 4.75746 13.0073 3.70067 11.8607 2.96237C8.40632 0.790884 3.42796 2.84656 2.57162 6.81314C2.31037 8.01469 2.2378 9.25968 2.99253 10.302C3.4715 10.9534 3.42796 11.518 3.23928 12.1839C3.07962 12.763 2.77482 12.8499 2.28134 12.5748C1.35243 12.0537 0.728321 11.2719 0.409009 10.273C-0.113501 8.753 -0.0699588 7.59487 0.176782 6.40779Z" fill="#4F5052"/>
<path opacity="0.7" d="M69.322 17.6422C68.0593 18.641 66.6804 19.307 65.0984 19.4807C63.7921 19.6254 62.5293 19.5386 61.3972 18.8003C60.0329 17.9027 59.5249 16.5998 59.5975 15.0074C59.641 13.9362 59.0895 13.6177 58.0154 13.9651C57.4784 14.1388 56.8688 14.2112 56.3173 14.1533C55.7222 14.0809 55.3013 13.6756 55.3303 13.0097C55.3739 12.3727 55.7512 11.9673 56.4044 11.9673C56.8543 11.9673 57.014 11.7791 56.9994 11.3593C56.9849 10.8961 56.8108 10.4473 56.3318 10.4907C55.8093 10.5342 55.1561 10.6789 54.8513 11.0264C54.2563 11.6923 53.7047 12.4885 53.3854 13.3137C52.7758 14.9785 52.3114 16.7157 51.8614 18.4384C51.6872 19.0898 51.4115 19.3938 50.7148 19.2925C50.1778 19.2201 49.6262 19.2056 49.0747 19.1622C49.1328 18.6555 49.1908 18.1344 49.2489 17.4974C47.8555 18.8003 46.2735 19.5096 44.4302 19.5386C42.5433 19.5675 41.0338 18.8871 40.0469 17.0486C39.2776 18.2067 38.3632 19.0898 37.0279 19.3938C35.3733 19.7847 34.4589 19.4517 33.7477 18.3081C32.9204 18.6989 32.1366 19.2346 31.2803 19.4373C29.3354 19.9295 28.0146 18.67 28.3484 16.7012C28.5952 15.2246 28.9871 13.7914 29.3209 12.3293C29.4515 11.7791 29.5531 11.2001 29.0451 10.7947C28.5081 10.3604 27.884 10.5052 27.3324 10.7658C26.4326 11.1856 25.9826 11.9818 25.7504 12.9083C25.2569 14.7758 24.778 16.6433 24.328 18.5107C24.1974 19.0753 23.9506 19.3649 23.3556 19.2925C23.1233 19.2635 22.8766 19.2925 22.6299 19.2925C21.5703 19.2925 21.5703 19.2925 21.5413 18.3949C20.9027 18.7279 20.2931 19.1767 19.5964 19.3938C17.4628 20.0453 16.084 18.945 16.4033 16.7446C16.6645 14.9929 17.187 13.2702 17.5934 11.533C17.7676 10.7803 17.9853 10.042 18.174 9.28918C18.2901 8.82593 18.5223 8.57982 19.0303 8.60878C19.4367 8.63773 19.8576 8.62325 20.264 8.60878C20.8301 8.57982 21.0478 8.75354 20.8736 9.37603C20.3366 11.4028 19.8431 13.444 19.3351 15.4707C19.2771 15.7312 19.2335 15.9918 19.2335 16.2524C19.19 17.2513 19.8286 17.6856 20.7285 17.2223C21.7445 16.7012 22.2525 15.7457 22.5573 14.7179C23.0072 13.1689 23.3846 11.591 23.791 10.0275C24.1974 8.46401 23.9506 8.5943 25.6488 8.5943C25.6923 8.5943 25.7504 8.5943 25.7939 8.5943C26.7519 8.5943 26.7519 8.5943 26.7374 9.56423C27.6227 8.86936 28.5516 8.33372 29.7128 8.37715C31.5125 8.43506 32.6011 9.68004 32.2673 11.4607C32.006 12.8794 31.5996 14.2691 31.2803 15.6733C31.2368 15.876 31.1497 16.1221 31.2077 16.3103C31.3239 16.6433 31.469 17.121 31.7157 17.2223C32.0205 17.3381 32.6011 17.2658 32.8188 17.0486C33.2397 16.6143 33.6316 16.0642 33.8058 15.4851C34.2993 13.9072 34.6911 12.2858 35.1556 10.5342C34.6331 10.5342 34.2267 10.5342 33.8058 10.5342C33.4139 10.5342 33.1962 10.3894 33.3268 9.9551C33.3849 9.75243 33.4574 9.53528 33.4865 9.31813C33.5445 8.69564 33.8638 8.49296 34.5025 8.49296C35.7942 8.50744 35.562 8.76802 35.9103 7.4217C36.0845 6.77025 36.1861 6.08985 36.4328 5.46736C36.549 5.16335 36.8828 4.87382 37.1876 4.74353C37.623 4.55534 38.131 4.52638 38.5955 4.43953C39.118 4.33819 39.3357 4.51191 39.1905 5.06202C38.9148 6.14776 38.6535 7.24798 38.3487 8.49296C38.9873 8.49296 39.5244 8.50744 40.0614 8.49296C40.5404 8.47849 40.671 8.69564 40.5404 9.12993C40.4678 9.39051 40.3807 9.63661 40.3372 9.89719C40.2646 10.3749 39.9888 10.5052 39.5244 10.5197C37.7972 10.5631 37.7827 10.5776 37.3763 12.2424C37.0715 13.4874 36.7376 14.7179 36.5054 15.9629C36.4328 16.3393 36.607 17.0341 36.8683 17.1355C37.2456 17.2947 37.8988 17.2223 38.2471 16.9762C39.2776 16.2669 39.6985 15.1667 39.8727 13.9506C40.2791 11.0698 42.1659 8.94174 44.7785 8.44954C45.4316 8.33372 46.1428 8.31925 46.796 8.40611C48.2764 8.60878 49.3214 9.57871 49.5246 10.8382C49.7569 12.2424 48.9876 13.7624 47.6813 14.3994C46.2735 15.0943 44.793 15.1232 43.2835 14.8337C43.1384 14.8047 42.9933 14.7903 42.8626 14.7613C42.8481 14.7613 42.8191 14.7758 42.8046 14.7903C42.5723 16.0642 43.24 17.121 44.4592 17.4105C46.7815 17.9606 49.6553 16.209 50.2794 13.8493C50.6858 12.3293 51.0777 10.8237 51.426 9.28918C51.5566 8.72459 51.8324 8.52192 52.3839 8.56535C52.7468 8.5943 53.1096 8.56535 53.4725 8.56535C54.2417 8.57982 54.2998 8.65221 54.1111 9.41947C54.0676 9.62214 54.024 9.83928 53.937 10.2302C54.2272 9.92614 54.4014 9.73795 54.5756 9.56423C55.2577 8.88383 56.0415 8.37715 57.043 8.33372C58.6831 8.27582 59.6555 9.21679 59.612 10.8382C59.5975 11.3159 59.4959 11.7936 59.4378 12.2858C59.9458 12.7056 60.091 12.3293 60.2796 11.9239C61.4263 9.40499 63.4583 8.18896 66.1724 8.33372C67.7399 8.42058 69.0317 9.36156 69.293 10.5921C69.6123 12.1121 68.843 13.7045 67.4206 14.3994C66.3321 14.935 65.1564 15.0653 63.9517 14.9495C63.5018 14.9061 63.0519 14.8337 62.6019 14.7903C62.3842 16.0208 63.0083 17.121 64.1549 17.3671C65.9257 17.758 67.4932 17.2223 68.9011 16.1366C69.0027 16.0497 69.0752 15.905 69.1478 15.7892C69.6413 14.8337 70.2944 14.5152 71.0492 14.8482C71.7023 15.1377 71.8184 15.6733 71.4556 16.7157C72.3409 17.6132 74.0246 17.9462 75.1567 17.454C75.984 17.092 76.1001 16.1945 75.3454 15.6878C74.997 15.4562 74.5616 15.3259 74.1552 15.1522C73.4585 14.8771 72.7328 14.66 72.0797 14.3125C69.9171 13.1399 69.8155 10.2302 71.9636 9.01412C72.8634 8.49296 73.9955 8.36268 75.0551 8.04419C74.9245 7.58094 74.6922 6.95845 74.5616 6.32148C74.0826 3.93285 75.3599 1.50078 77.5515 0.530852C80.0335 -0.554891 82.9363 0.0676016 84.4022 2.00746C85.3602 3.2814 85.4618 4.71458 85.1134 6.20567C84.9538 6.9295 84.7796 7.65332 84.5764 8.49296C85.244 8.49296 85.8391 8.50744 86.4342 8.49296C86.9277 8.47849 87.1164 8.66668 86.9277 9.15889C86.8987 9.23127 86.8987 9.30365 86.8841 9.37603C86.5939 10.5197 86.5939 10.5197 85.3892 10.5197C84.0394 10.5197 84.0394 10.5197 83.7201 11.8226C83.4007 13.111 83.0524 14.3849 82.7621 15.6878C82.6315 16.2669 82.4864 16.9183 83.2121 17.2658C83.7781 17.5408 84.5764 17.1934 84.9973 16.513C85.0554 16.4116 85.1134 16.2958 85.1715 16.1945C85.5634 15.3404 85.723 15.268 86.71 15.572C86.4923 17.9172 84.141 19.8136 81.8332 19.4952C80.3963 19.2925 79.5835 18.1633 79.8883 16.6577C80.2367 14.964 80.6721 13.2847 81.0785 11.591C81.151 11.2725 81.2381 10.954 81.3252 10.5342C80.8172 10.5342 80.4108 10.5342 80.0044 10.5342C79.6271 10.5342 79.4674 10.346 79.5545 9.98405C79.598 9.79586 79.6706 9.60766 79.6851 9.41947C79.7577 8.69564 80.1351 8.39163 80.8462 8.52192C81.6736 8.68116 82.0219 8.29029 82.1525 7.52303C82.2831 6.77025 82.5299 6.03195 82.6605 5.26469C82.9653 3.49855 82.2832 2.1667 80.9043 1.71793C79.2207 1.1823 77.3628 1.90613 76.6081 3.38274C75.7953 4.97516 76.0566 7.13217 77.2467 8.46401C77.566 8.82593 77.9434 9.14441 78.2627 9.49185C78.8868 10.1722 78.9449 11.0264 78.3933 11.4751C77.8418 11.9384 76.9274 11.7357 76.3759 11.0119C75.7808 10.2302 74.6342 9.92614 73.7053 10.317C72.965 10.6355 72.7909 11.5041 73.4295 12.0108C73.7488 12.2569 74.1407 12.4161 74.5181 12.5754C75.2583 12.8794 76.0275 13.111 76.7387 13.4729C78.9159 14.5731 79.0755 17.2513 77.0435 18.641C75.7518 19.5241 74.2858 19.6399 72.7909 19.4517C71.4411 19.307 70.2364 18.7858 69.322 17.6422ZM42.9497 13.2992C43.9222 13.5453 44.9091 13.719 45.8671 13.1834C46.6218 12.7636 46.9411 11.7791 46.5783 11.0698C46.288 10.4763 45.5042 10.2736 44.6769 10.5776C43.7044 10.9395 42.9352 12.1266 42.9497 13.2992ZM62.6745 13.2268C63.734 13.6032 64.8226 13.6177 65.5048 13.2847C66.3756 12.8649 66.782 11.8081 66.3611 11.0408C66.0128 10.4039 65.0693 10.2302 64.2275 10.7079C63.2841 11.258 62.8922 12.17 62.6745 13.2268Z" fill="#4F5052"/>
<path d="M18.551 6.29253C18.5656 5.22126 19.5525 4.28028 20.6266 4.32371C21.4103 4.35267 21.9909 4.93173 21.9764 5.71346C21.9619 6.77025 20.9749 7.75466 19.9299 7.74018C19.1171 7.71123 18.5365 7.11769 18.551 6.29253Z" fill="#4F5052"/>
</svg>
