<svg preserveAspectRatio="none" width="100%" height="100%" overflow="visible" style="display: block;" viewBox="0 0 74 24" fill="none" xmlns="http://www.w3.org/2000/svg">
<g id="google">
<path id="Vector" d="M9.04953 0C9.113 0 9.17274 0 9.23622 0C9.46024 0 9.68799 0 9.91201 0C9.99789 0 10.0875 0 10.1734 0C10.2817 0.00367873 10.3899 0.00735746 10.4945 0.00735746C10.5579 0.040466 10.6289 0.00735746 10.6924 0.0331086C11.5586 0.14347 12.4061 0.331086 13.2089 0.669529C13.9892 1.00061 14.7173 1.42367 15.3781 1.95341C15.5835 2.11895 15.7926 2.28449 15.9793 2.46843C16.0465 2.53097 16.0539 2.56775 15.983 2.63765C15.4267 3.17842 14.8704 3.72655 14.3178 4.27468C14.258 4.33354 14.2244 4.34458 14.1535 4.28204C13.4553 3.6493 12.6525 3.17474 11.749 2.86941C11.3607 2.74065 10.9612 2.63397 10.543 2.61558C10.4683 2.6119 10.4086 2.55304 10.3302 2.57879C10.2443 2.53832 10.151 2.58247 10.0614 2.54936C9.76267 2.52729 9.46024 2.52729 9.16154 2.54936C9.07567 2.58247 8.97859 2.53832 8.89272 2.57879C8.26546 2.63397 7.65687 2.76641 7.07441 2.99817C6.2194 3.34029 5.45025 3.81852 4.80433 4.46966C3.86344 5.41509 3.24738 6.53343 2.96735 7.83202C2.90388 8.12264 2.84041 8.41326 2.85161 8.71491C2.81054 8.82527 2.85907 8.94299 2.82547 9.05336C2.82547 9.21522 2.82547 9.37341 2.82547 9.53527C2.85907 9.64563 2.81054 9.76335 2.85534 9.87371C2.86654 10.5506 3.04576 11.1944 3.29218 11.8198C3.65062 12.7321 4.18453 13.534 4.9014 14.2109C5.85723 15.1085 6.9848 15.6971 8.28786 15.9399C8.48948 15.9767 8.68736 16.0245 8.89272 16.0135C8.96739 16.0466 9.04953 16.0135 9.12794 16.0393C9.46397 16.0613 9.80374 16.065 10.1398 16.0393C10.2144 16.0098 10.2966 16.0466 10.375 16.0135C11.118 15.9804 11.8199 15.7854 12.492 15.4838C13.1379 15.1968 13.7054 14.7959 14.2207 14.3213C14.833 13.7548 15.2437 13.0632 15.4864 12.2722C15.5984 11.9044 15.688 11.5365 15.7403 11.1576C15.7664 11.1098 15.7552 11.073 15.6992 11.0619C15.6432 11.0509 15.5872 11.0583 15.5312 11.0583C13.6084 11.0583 11.6893 11.0583 9.7664 11.0546C9.70666 11.0546 9.62825 11.0951 9.57972 11.0215C9.58345 10.2563 9.59465 9.49112 9.58345 8.72595C9.57972 8.53098 9.63946 8.49787 9.82241 8.49787C12.5779 8.50522 15.3333 8.50155 18.0888 8.49787C18.2381 8.49787 18.3315 8.50522 18.324 8.69652C18.3203 8.85103 18.3688 9.00921 18.395 9.16372C18.4211 9.23729 18.3875 9.31822 18.4211 9.3918C18.4248 9.56102 18.4286 9.73024 18.4323 9.89579C18.451 10.0061 18.451 10.1128 18.4323 10.2232C18.4286 10.3777 18.4248 10.5359 18.4211 10.6904C18.3838 10.764 18.4248 10.8449 18.395 10.9222C18.2717 12.0515 18.0179 13.1478 17.4989 14.1705C17.0396 15.0791 16.3974 15.8406 15.6208 16.5065C15.0458 16.9994 14.426 17.4225 13.739 17.7499C13.1043 18.0515 12.436 18.2575 11.7453 18.401C11.4204 18.4672 11.0993 18.5187 10.7708 18.5482C10.7073 18.5739 10.6364 18.5408 10.5766 18.5739C10.4795 18.5776 10.3825 18.5813 10.2854 18.5849C10.0987 18.6181 9.90455 18.5702 9.71786 18.6107C9.60212 18.6107 9.48264 18.6107 9.3669 18.6107C9.23995 18.5702 9.10927 18.6181 8.98606 18.5849C8.91139 18.5813 8.84045 18.5776 8.76577 18.5776C8.70603 18.5408 8.63509 18.5776 8.57535 18.5518C7.81741 18.4856 7.08188 18.3164 6.36501 18.0626C5.32704 17.691 4.37869 17.1686 3.5162 16.4881C2.58278 15.7523 1.82857 14.8584 1.22745 13.8467C0.727136 13.0117 0.391104 12.103 0.17455 11.1576C0.10361 10.8559 0.0886751 10.5396 0.0476046 10.2342C0.0214687 10.1717 0.0550719 10.1018 0.0214687 10.0429C0.017735 9.95832 0.0140013 9.87739 0.0140013 9.79278C-0.00466711 9.4617 -0.00466711 9.13429 0.0140013 8.8032C0.129746 7.12202 0.637528 5.57328 1.61202 4.1864C3.13163 2.01594 5.20383 0.66585 7.83235 0.150828C8.23185 0.0698959 8.63883 0.0294298 9.04953 0Z" fill="var(--fill-0, #181818)"/>
<path id="Vector_2" d="M59.0813 0.669507C59.9401 0.669507 60.7988 0.669507 61.6576 0.669507C61.6912 0.732046 61.6725 0.801942 61.6725 0.868159C61.6725 6.59963 61.6725 12.3311 61.6725 18.0589C61.6725 18.1214 61.7024 18.195 61.6426 18.2502C60.7913 18.2502 59.9401 18.2502 59.0888 18.2502C59.029 18.195 59.0589 18.1214 59.0589 18.0589C59.0589 12.3274 59.0589 6.59595 59.0589 0.868159C59.0664 0.801942 59.0514 0.732046 59.0813 0.669507Z" fill="var(--fill-0, #181818)"/>
<path id="Vector_3" d="M57.3415 6.97483C56.5835 6.97851 55.8218 6.97851 55.0639 6.97851C55.0228 6.97851 54.9743 6.96379 54.9407 7.00426C54.9407 7.25441 54.9482 7.50456 54.9444 7.75472C54.9444 7.82093 54.993 7.91658 54.8996 7.94601C54.8175 7.97176 54.7727 7.87979 54.7279 7.82829C54.5225 7.60757 54.2873 7.42363 54.0297 7.26545C53.3949 6.8755 52.693 6.69156 51.9537 6.62167C51.7446 6.60327 51.5318 6.60327 51.3227 6.62167C50.5685 6.68053 49.8442 6.86446 49.1647 7.19923C48.3881 7.58182 47.7272 8.11891 47.1783 8.78108C46.8348 9.19678 46.5548 9.65294 46.3345 10.1422C46.0321 10.8117 45.8454 11.5181 45.823 12.2575C45.8043 12.515 45.8043 12.7688 45.823 13.0263C45.8417 13.339 45.8828 13.6444 45.95 13.9497C46.2039 15.0938 46.7676 16.0687 47.589 16.9037C48.0632 17.3856 48.6196 17.7756 49.2356 18.0662C49.8591 18.3568 50.5125 18.5592 51.207 18.5923C51.319 18.6254 51.4385 18.5775 51.5505 18.618C51.6065 18.618 51.6625 18.618 51.7148 18.618C51.8268 18.5775 51.9463 18.6217 52.0583 18.5923C52.6034 18.5555 53.1224 18.4083 53.6152 18.1802C54.0558 17.9742 54.4366 17.6873 54.7689 17.3341C54.8063 17.2973 54.8399 17.2348 54.9071 17.2642C54.9668 17.29 54.9407 17.3489 54.9407 17.3967C54.937 17.7462 54.9332 18.0956 54.9295 18.4451C54.8959 18.5297 54.9407 18.6254 54.8996 18.71C54.8697 19.0374 54.8063 19.3611 54.6905 19.6665C54.4926 20.1852 54.2126 20.6524 53.7496 20.9945C53.3128 21.3145 52.8349 21.5242 52.2898 21.5757C52.23 21.6125 52.1591 21.5757 52.0993 21.6051C51.3638 21.6787 50.6693 21.5684 50.0384 21.1711C49.4372 20.7921 48.9967 20.2808 48.6905 19.6481C48.6532 19.5671 48.6308 19.4825 48.4889 19.5451C47.7907 19.843 47.085 20.1263 46.3793 20.4132C46.2935 20.4463 46.2673 20.4758 46.3159 20.5677C46.7564 21.4249 47.2978 22.1974 48.0856 22.7934C48.4963 23.1061 48.9294 23.3673 49.3999 23.5586C49.9637 23.7903 50.5499 23.9448 51.1622 23.9742C51.2518 24.0037 51.3451 23.9632 51.431 24C51.6102 24 51.7895 24 51.9687 24C52.0695 23.9595 52.174 24.0037 52.2748 23.9742C52.3346 23.9706 52.3943 23.9669 52.4541 23.9632C52.5138 23.9264 52.5847 23.9632 52.6482 23.9338C52.7117 23.9301 52.7751 23.9375 52.8312 23.9227C53.3128 23.805 53.7944 23.6983 54.2574 23.5034C55.3253 23.0472 56.1243 22.3151 56.6806 21.3108C57.1286 20.4978 57.3303 19.6113 57.4385 18.6989C57.4647 18.6364 57.4311 18.5665 57.4647 18.5077C57.4684 18.401 57.4721 18.2943 57.4759 18.1839C57.4833 18.1619 57.4871 18.1361 57.4871 18.1103C57.4871 14.45 57.4871 10.7934 57.4908 7.13301C57.4983 7.00426 57.4609 6.97483 57.3415 6.97483ZM54.1193 15.2961C52.9768 16.466 51.1099 16.5653 49.8405 15.5279C49.0079 14.8473 48.5822 13.9644 48.515 12.9123C48.4441 11.8234 48.7278 10.8412 49.4895 10.0355C51.1585 8.27342 53.9065 8.78476 54.8287 11.0214C55.0415 11.5401 55.1423 12.0772 55.1386 12.6364C55.1236 13.6444 54.8436 14.5567 54.1193 15.2961Z" fill="var(--fill-0, #181818)"/>
<path id="Vector_4" d="M44.856 13.0889C44.856 12.7688 44.856 12.4451 44.856 12.125C44.8261 12.0625 44.856 11.9926 44.8298 11.9264C44.7626 11.5254 44.6954 11.1281 44.5722 10.7382C44.3146 9.94723 43.9113 9.24092 43.355 8.61185C42.8323 8.02325 42.2125 7.57445 41.5106 7.22865C40.7564 6.86077 39.9462 6.68052 39.1098 6.61798C38.8746 6.59958 38.6394 6.59958 38.4041 6.61798C38.3183 6.62166 38.2361 6.62534 38.1502 6.62901C38.0868 6.66212 38.0158 6.62901 37.9524 6.65844C37.2243 6.75777 36.5186 6.94539 35.8615 7.27647C35.1894 7.61492 34.5995 8.06004 34.1029 8.62657C33.6959 9.09377 33.3636 9.60879 33.121 10.1643C32.882 10.7087 32.714 11.2863 32.6766 11.8859C32.6505 11.9485 32.6841 12.0184 32.6505 12.0772C32.6468 12.1839 32.643 12.2906 32.6393 12.4009C32.6206 12.5481 32.6206 12.6952 32.6393 12.8387C32.6654 13.1257 32.6729 13.4126 32.7252 13.6995C32.8185 14.2035 32.9567 14.6928 33.1807 15.1563C33.4383 15.6934 33.7631 16.1827 34.1627 16.6352C34.607 17.1392 35.1297 17.5365 35.7121 17.8528C36.485 18.2759 37.3214 18.526 38.21 18.5812C38.322 18.6143 38.4452 18.5702 38.5572 18.607C38.6842 18.607 38.8148 18.607 38.9418 18.607C39.0538 18.5665 39.177 18.6143 39.289 18.5812C39.4085 18.5518 39.5317 18.5592 39.6512 18.5408C40.4427 18.4194 41.1895 18.1692 41.8839 17.7682C42.5224 17.4004 43.075 16.9368 43.538 16.3703C44.2772 15.4617 44.6767 14.4206 44.8224 13.2728C44.8522 13.2213 44.8224 13.1514 44.856 13.0889ZM41.2604 15.1195C39.5541 16.9883 36.556 16.4402 35.6001 14.0895C35.4022 13.6076 35.3164 13.1036 35.3201 12.4892C35.3388 11.4482 35.7233 10.4696 36.6232 9.73387C38.0868 8.53828 40.2224 8.78107 41.4023 10.2599C42.5 11.6431 42.4365 13.832 41.2604 15.1195Z" fill="var(--fill-0, #181818)"/>
<path id="Vector_5" d="M31.6837 12.4782C31.68 12.3605 31.6762 12.2391 31.6725 12.1214C31.6352 12.0478 31.6762 11.9632 31.6464 11.8896C31.6128 11.6983 31.5829 11.507 31.5418 11.3157C31.3178 10.2967 30.8697 9.38806 30.1603 8.60081C29.6078 7.99014 28.9544 7.52662 28.2076 7.17715C27.6252 6.90492 27.0054 6.75777 26.3706 6.65476C26.3072 6.62533 26.2362 6.65844 26.1728 6.62901C26.0906 6.62534 26.0047 6.62166 25.9226 6.61798C25.6874 6.59958 25.4522 6.59958 25.2169 6.61798C25.1348 6.62166 25.0489 6.62534 24.9668 6.62901C24.9033 6.66212 24.8324 6.62901 24.7689 6.65476C24.0446 6.75409 23.3426 6.93435 22.6967 7.26543C22.0396 7.6002 21.4571 8.03429 20.9605 8.59346C20.5536 9.0533 20.2213 9.54993 19.9711 10.0981C19.7135 10.6646 19.5455 11.2605 19.4969 11.8859C19.4671 11.9595 19.5044 12.0441 19.4708 12.1177C19.4671 12.2354 19.4633 12.3568 19.4596 12.4745C19.4409 12.5591 19.4409 12.6437 19.4596 12.7284C19.4633 12.8571 19.4671 12.9895 19.4708 13.1183C19.5007 13.1808 19.4708 13.2544 19.4969 13.3169C19.5156 13.6811 19.6015 14.0306 19.7023 14.3764C19.8367 14.8326 20.0308 15.2667 20.2773 15.675C20.5946 16.2011 20.968 16.6756 21.4422 17.084C21.8155 17.404 22.2038 17.691 22.6407 17.9117C23.3912 18.2943 24.1864 18.5297 25.0303 18.5849C25.146 18.618 25.2655 18.5739 25.3812 18.6106C25.5082 18.6106 25.6351 18.6106 25.7621 18.6106C25.8778 18.5739 25.9973 18.618 26.113 18.5849C26.2773 18.5665 26.4491 18.5628 26.6096 18.5297C27.3377 18.3899 28.0359 18.1618 28.6818 17.7903C29.6899 17.2127 30.4628 16.4181 31.0004 15.4028C31.3477 14.748 31.5381 14.0453 31.6426 13.3169C31.6725 13.2434 31.6352 13.1588 31.6688 13.0852C31.6725 12.9675 31.6762 12.8461 31.68 12.7284C31.7024 12.6474 31.7024 12.5628 31.6837 12.4782ZM27.9575 15.2409C26.24 16.9883 23.3389 16.3703 22.4204 14.0858C22.3233 13.8467 22.2524 13.6002 22.2038 13.3464C22.1553 13.0999 22.1404 12.8497 22.1404 12.5959C22.1665 11.3709 22.5959 10.3298 23.6301 9.59775C25.5343 8.25133 28.1778 9.18205 28.8312 11.4371C29.2381 12.8424 29.0178 14.1631 27.9575 15.2409Z" fill="var(--fill-0, #181818)"/>
<path id="Vector_6" d="M73.9787 10.981C73.9003 10.8044 73.8294 10.6241 73.7547 10.4439C73.2544 9.20782 72.5002 8.16673 71.3614 7.41995C70.6184 6.93436 69.7858 6.69524 68.9009 6.62167C68.6545 6.60327 68.4043 6.60327 68.1579 6.62167C67.2581 6.69892 66.4068 6.927 65.619 7.37949C64.7378 7.88347 64.0657 8.59347 63.5766 9.45429C63.1809 10.1496 62.927 10.9037 62.8486 11.7057C62.8187 11.7682 62.8523 11.8381 62.8187 11.9006C62.815 11.9705 62.8112 12.0404 62.8075 12.1103C62.7739 12.2722 62.8224 12.4414 62.7814 12.6033V12.607C62.8224 12.7578 62.7739 12.9123 62.8075 13.0631C62.8112 13.133 62.815 13.2066 62.8187 13.2765C62.856 13.3354 62.8187 13.4089 62.8486 13.4678C62.856 13.5377 62.856 13.6113 62.871 13.6812C62.9344 13.9938 63.0203 14.3029 63.1174 14.6082C63.2443 15.0202 63.431 15.4065 63.6513 15.7707C63.9761 16.3041 64.3682 16.786 64.8573 17.1907C65.1821 17.4592 65.5219 17.7057 65.8953 17.9007C66.6607 18.3053 67.4783 18.5371 68.3446 18.5886C68.4827 18.6217 68.6283 18.5739 68.7702 18.6143C68.8337 18.5959 68.9009 18.5959 68.9644 18.6143C69.0913 18.5739 69.2257 18.6217 69.3527 18.5886C70.0658 18.5224 70.7603 18.3715 71.4099 18.0625C72.3471 17.6211 73.12 16.981 73.7509 16.1717C73.919 15.9583 73.919 15.9583 73.6837 15.8038C73.6427 15.778 73.6016 15.7486 73.5643 15.7228C73.0341 15.3697 72.5002 15.0202 71.9662 14.6707C71.9028 14.6303 71.8356 14.553 71.7534 14.6744C71.4921 15.0496 71.1822 15.377 70.7976 15.6346C70.3645 15.9289 69.8978 16.1496 69.3639 16.1937C69.3041 16.2268 69.2294 16.1937 69.1697 16.2232C68.9457 16.2489 68.7217 16.2452 68.4939 16.2232C68.4304 16.1937 68.3595 16.2305 68.2998 16.1937C68.2363 16.1937 68.1728 16.2011 68.1131 16.1864C67.1311 15.973 66.4217 15.4138 65.9513 14.5457C65.9027 14.4574 65.9027 14.4132 66.011 14.3691C66.6831 14.0968 67.3514 13.8173 68.0235 13.545C68.9195 13.1808 69.8231 12.824 70.7192 12.4598C71.3539 12.206 71.9849 11.9448 72.6159 11.6873C73.0453 11.5107 73.4709 11.3341 73.904 11.1612C74.0048 11.1281 74.0198 11.0766 73.9787 10.981ZM70.3832 10.4071C68.7963 11.0656 67.2021 11.713 65.6115 12.3642C65.4734 12.4193 65.4472 12.3936 65.4472 12.2538C65.4584 10.5947 66.6047 9.2446 68.2512 8.96134C68.3856 8.93927 68.5238 8.93927 68.6022 8.93191C69.3004 8.93927 69.8828 9.10849 70.3832 9.52051C70.4317 9.56097 70.4765 9.60144 70.5213 9.64559C70.6669 9.79273 70.8573 9.96196 70.8461 10.1422C70.8312 10.3445 70.5474 10.3372 70.3832 10.4071Z" fill="var(--fill-0, #181818)"/>
</g>
</svg>
