<svg width="84" height="30" viewBox="0 0 84 30" fill="none" xmlns="http://www.w3.org/2000/svg">
<g clip-path="url(#clip0_140_47574)">
<path opacity="0.7" d="M6.11085 18.9252C6.11085 20.3252 5.53517 22.2077 3.83526 22.2077C2.98298 22.2077 2.4813 21.769 2.4813 20.897C2.48169 19.2513 4.89461 18.9252 6.11085 18.9252ZM8.54895 23.7445V15.9644C8.54895 13.442 6.89204 12.5705 4.57074 12.5705C2.30058 12.5705 0.410062 13.5339 0.410062 16.0365H2.89679C2.89679 14.9556 3.47169 14.3619 4.57093 14.3619C5.8325 14.3619 6.11104 15.2761 6.11104 16.3558V17.4352C3.62955 17.5037 0 17.8491 0 21.1312C0 22.9894 1.47154 23.9991 3.21523 23.9991C4.41094 23.9991 5.5129 23.6083 6.06688 22.4834H6.11124V23.7447H8.54895V23.7445ZM16.1089 16.5625H18.8197C18.8197 13.8764 17.3294 12.5705 14.6615 12.5705C11.382 12.5705 9.65304 14.6332 9.65304 17.799C9.65304 21.6088 11.6063 23.9991 15.5096 23.9991C16.5912 23.9991 17.6697 23.8176 18.705 23.4939V21.9337C18.1057 22.1394 17.4855 22.2077 16.8701 22.2077C13.9689 22.2077 12.3643 20.0965 12.3643 17.3441C12.3643 16.0371 12.8466 14.3619 14.4556 14.3619C15.7871 14.3619 16.1089 15.4396 16.1089 16.5625ZM25.9051 16.5625H28.6188C28.6188 13.8764 27.1223 12.5705 24.4589 12.5705C21.1747 12.5705 19.451 14.6332 19.451 17.799C19.451 21.6088 21.4021 23.9991 25.3081 23.9991C26.3868 23.9991 27.4694 23.8176 28.5006 23.4939V21.9337C27.9052 22.1394 27.2834 22.2077 26.6638 22.2077C23.7707 22.2077 22.1579 20.0965 22.1579 17.3441C22.1579 16.0371 22.6447 14.3619 24.2509 14.3619C25.5827 14.3619 25.9051 15.4396 25.9051 16.5625ZM35.9015 16.0797H31.9043C32.021 14.9773 32.8674 14.194 33.9616 14.194C35.1382 14.194 35.9015 14.9105 35.9015 16.0797ZM38.3139 17.621V16.9987C38.3139 14.3372 36.9357 12.5705 34.1551 12.5705C30.8952 12.5705 29.4662 14.6127 29.4662 17.7112C29.4662 21.3104 31.0966 23.9995 34.9786 23.9995C36.0141 23.9995 37.0531 23.8859 38.0317 23.563V21.7969C37.3878 22.0246 36.6343 22.2075 35.9457 22.2075C33.4663 22.2075 31.83 19.9376 31.83 17.6212H38.3139V17.621ZM45.8701 23.7445H48.4258V16.1722C48.4258 14.2929 47.5441 12.5705 45.4574 12.5705C43.8948 12.5705 42.7955 13.4679 42.2183 14.8637H42.1732V12.8166H39.6181V23.7453H42.1732V19.0185C42.1732 17.5467 42.9092 14.9564 44.7401 14.9564C45.0023 14.9564 45.2908 14.9773 45.481 15.1646C45.9116 15.5754 45.8701 16.9741 45.8701 17.5037V23.7445ZM53.7237 14.5891H56.9718V12.8166H53.7237V9.19531L51.1847 10.2273V12.816H49.0451V14.5885H51.1847V20.9901C51.1847 23.2644 52.2984 23.9988 54.5341 23.9988C55.2264 23.9988 55.933 23.9324 56.6184 23.8173V22.024C56.2342 22.1186 55.8457 22.2065 55.4486 22.2065C53.8591 22.2065 53.7233 21.0368 53.7233 19.7492V14.5891H53.7237ZM64.3495 23.7445H66.8998V12.8164H64.3495V17.5463C64.3495 19.0179 63.6134 21.609 61.7721 21.609C61.5232 21.609 61.2197 21.5906 61.0361 21.406C60.5973 20.9909 60.6469 19.5903 60.6469 19.0653V12.8162H58.1005V20.3955C58.1005 22.2789 58.966 23.9993 61.0614 23.9993C62.6046 23.9993 63.7291 23.0794 64.3057 21.7067H64.3495V23.7445ZM71.0591 18.95C71.0591 16.3791 72.0227 15.2341 74.639 15.2341V12.5705C72.8049 12.5705 71.9497 13.3284 71.1021 14.8384H71.0589V12.816H68.5044V23.7447H71.0589V18.95H71.0591ZM81.5884 16.0797H77.5897C77.7051 14.9773 78.5541 14.194 79.6545 14.194C80.8299 14.194 81.5884 14.9105 81.5884 16.0797ZM83.9998 17.621V16.9987C83.9998 14.3372 82.6232 12.5705 79.8405 12.5705C76.5793 12.5705 75.1543 14.6127 75.1543 17.7112C75.1543 21.3104 76.7858 23.9995 80.6649 23.9995C81.7 23.9995 82.7355 23.8859 83.7228 23.563V21.7969C83.0805 22.0246 82.3218 22.2075 81.6374 22.2075C79.1495 22.2075 77.519 19.9376 77.519 17.6212H83.9996" fill="#4F5052"/>
<path d="M49.043 0V1.79671C49.043 1.79671 54.1355 3.76816 54.8646 4.05165C54.1355 4.33088 49.043 6.29245 49.043 6.29245V8.08664L56.9746 4.86746V3.22073L49.043 0Z" fill="#4F5052"/>
</g>
<defs>
<clipPath id="clip0_140_47574">
<rect width="84" height="24" fill="white"/>
</clipPath>
</defs>
</svg>
