<svg width="80" height="24" viewBox="0 0 80 24" fill="none" xmlns="http://www.w3.org/2000/svg">
<path fill-rule="evenodd" clip-rule="evenodd" d="M49.9714 18.5807C45.3195 22.1145 38.577 24 32.7718 24C24.6319 24 17.3039 20.8971 11.76 15.7364C11.3245 15.3306 11.7147 14.7775 12.2374 15.0936C18.2203 18.6813 25.618 20.8396 33.2596 20.8396C38.4132 20.8396 44.0825 19.7407 49.2954 17.4602C50.0829 17.1155 50.7415 17.9917 49.9714 18.5807Z" fill="#4F5052"/>
<path fill-rule="evenodd" clip-rule="evenodd" d="M51.2966 16.5064C50.7352 15.7801 47.5715 16.1632 46.1515 16.3332C45.7189 16.3865 45.6528 16.0066 46.0425 15.7334C48.5622 13.9441 52.6968 14.4606 53.179 15.0603C53.6611 15.6634 53.0535 19.8451 50.6857 21.841C50.3224 22.1475 49.9756 21.9843 50.1375 21.5778C50.6691 20.2383 51.8613 17.2361 51.2966 16.5064Z" fill="#4F5052"/>
<path fill-rule="evenodd" clip-rule="evenodd" d="M46.262 2.3132V0.466884C46.262 0.187461 46.477 0 46.7352 0H55.1132C55.382 0 55.5971 0.190999 55.5971 0.466884V2.04793C55.5935 2.3132 55.3677 2.65983 54.9662 3.20806L50.6248 9.32355C52.238 9.28464 53.9409 9.52162 55.4035 10.3351C55.7333 10.5191 55.823 10.7879 55.8481 11.0531V13.0233C55.8481 13.2921 55.5469 13.6069 55.2315 13.4442C52.6539 12.1107 49.2303 11.9657 46.3803 13.4583C46.0899 13.6139 45.7852 13.3027 45.7852 13.0339V11.1628C45.7852 10.8621 45.7887 10.3493 46.0935 9.89301L51.1231 2.77655H46.7459C46.477 2.77655 46.262 2.58909 46.262 2.3132Z" fill="#4F5052"/>
<path fill-rule="evenodd" clip-rule="evenodd" d="M16.0756 14H13.5357C13.2928 13.983 13.0999 13.8099 13.082 13.5893V1.20588C13.082 0.958146 13.2999 0.761312 13.5714 0.761312H15.9398C16.1863 0.771486 16.3828 0.951357 16.4006 1.17534V2.79411H16.4471C17.0651 1.22964 18.226 0.5 19.7907 0.5C21.3803 0.5 22.3734 1.22964 23.0878 2.79411C23.7023 1.22964 25.099 0.5 26.5958 0.5C27.6603 0.5 28.8248 0.91742 29.5357 1.85407C30.3395 2.89592 30.1751 4.40949 30.1751 5.73642L30.1716 13.552C30.1716 13.7997 29.9537 14 29.6822 14H27.1459C26.8923 13.983 26.6886 13.7896 26.6886 13.552V6.98867C26.6886 6.46605 26.7387 5.16289 26.6172 4.66741C26.4279 3.83597 25.8599 3.6018 25.124 3.6018C24.5096 3.6018 23.8666 3.99207 23.6058 4.61651C23.345 5.24094 23.37 6.28619 23.37 6.98867V13.552C23.37 13.7997 23.1521 14 22.8807 14H20.3444C20.0872 13.983 19.8871 13.7896 19.8871 13.552L19.8836 6.98867C19.8836 5.60746 20.1229 3.57465 18.3189 3.57465C16.4935 3.57465 16.565 5.55655 16.565 6.98867V13.552C16.565 13.7997 16.347 14 16.0756 14" fill="#4F5052"/>
<path fill-rule="evenodd" clip-rule="evenodd" d="M62.595 0.5C66.3795 0.5 68.4278 3.51701 68.4278 7.35322C68.4278 11.0595 66.1643 14 62.595 14C58.8787 14 56.8555 10.983 56.8555 7.22335C56.8555 3.44042 58.9038 0.5 62.595 0.5ZM62.6172 2.98096C60.7375 2.98096 60.6192 5.3586 60.6192 6.84047C60.6192 8.32567 60.594 11.4959 62.5957 11.4959C64.5723 11.4959 64.6655 8.93839 64.6655 7.37993C64.6655 6.35428 64.6189 5.12883 64.2853 4.15646C63.9983 3.31063 63.4279 2.98096 62.6172 2.98096Z" fill="#4F5052"/>
<path fill-rule="evenodd" clip-rule="evenodd" d="M72.4612 14H69.9002C69.6434 13.983 69.4372 13.7896 69.4372 13.552L69.4336 1.16516C69.4553 0.937782 69.6687 0.761312 69.9292 0.761312H72.3129C72.5372 0.771486 72.7217 0.914027 72.7723 1.10747V3.00113H72.8194C73.5392 1.30769 74.5484 0.5 76.3245 0.5C77.4784 0.5 78.6034 0.890271 79.3268 1.95927C79.9997 2.95022 79.9997 4.61651 79.9997 5.81447V13.6097C79.9707 13.8269 79.7573 14 79.5041 14H76.925C76.6898 13.983 76.4945 13.8201 76.4692 13.6097V6.88347C76.4692 5.5294 76.6356 3.5475 74.8595 3.5475C74.2337 3.5475 73.6586 3.94117 73.3728 4.53845C73.0111 5.29524 72.9641 6.04863 72.9641 6.88347V13.552C72.9604 13.7997 72.7362 14 72.4613 14" fill="#4F5052"/>
<path fill-rule="evenodd" clip-rule="evenodd" d="M39.6464 8.04245C39.6464 8.96283 39.6712 9.73036 39.1737 10.5477C38.7722 11.2123 38.1325 11.621 37.4254 11.621C36.4553 11.621 35.8867 10.9298 35.8867 9.90979C35.8867 7.89625 37.8163 7.53076 39.6464 7.53076V8.04245ZM42.1937 13.8006C42.0267 13.9402 41.785 13.9501 41.5967 13.8571C40.7581 13.2059 40.6053 12.9035 40.1469 12.2822C38.761 13.6046 37.7767 14 35.9821 14C33.8536 14 32.2012 12.7739 32.2012 10.3185C32.2012 8.40129 33.3099 7.09548 34.8947 6.45753C36.2664 5.89268 38.1818 5.793 39.6458 5.63683V5.33115C39.6458 4.76962 39.692 4.10509 39.3367 3.61998C39.0311 3.18471 38.4412 3.00529 37.9188 3.00529C36.9558 3.00529 36.0994 3.46714 35.8897 4.42406C35.8471 4.63671 35.6801 4.84604 35.4491 4.85601L33.0007 4.61013C32.7946 4.56694 32.5636 4.41077 32.624 4.11506C33.1855 1.33731 35.872 0.5 38.2742 0.5C39.5037 0.5 41.1099 0.805685 42.08 1.67622C43.3095 2.74944 43.1922 4.18151 43.1922 5.73984V9.42134C43.1922 10.5278 43.6826 11.0129 44.1446 11.611C44.3045 11.8236 44.34 12.0795 44.1339 12.239C43.6187 12.641 42.7018 13.3886 42.1972 13.8073L42.1937 13.8006" fill="#4F5052"/>
<path fill-rule="evenodd" clip-rule="evenodd" d="M7.44282 8.0425C7.44282 8.96287 7.46769 9.73041 6.97032 10.5478C6.56888 11.2123 5.93296 11.621 5.22244 11.621C4.25258 11.621 3.68772 10.9299 3.68772 9.90983C3.68772 7.8963 5.61678 7.53081 7.44282 7.53081V8.0425ZM9.98991 13.8006C9.82294 13.9402 9.58136 13.9501 9.39307 13.8571C8.55466 13.2059 8.40545 12.9035 7.94361 12.2822C6.5581 13.6046 5.57758 14 3.77997 14C1.65551 14 0 12.7739 0 10.3185C0 8.40129 1.11196 7.09548 2.69287 6.45753C4.06417 5.89268 5.97903 5.793 7.4427 5.63683V5.33115C7.4427 4.76962 7.48888 4.10509 7.13718 3.61998C6.8281 3.18471 6.23837 3.00529 5.71969 3.00529C4.75693 3.00529 3.8972 3.46714 3.6876 4.42406C3.64497 4.63671 3.47799 4.84604 3.25063 4.85601L0.799335 4.61013C0.593284 4.56694 0.365917 4.41077 0.422759 4.11506C0.987623 1.33731 3.66984 0.5 6.0714 0.5C7.30059 0.5 8.90637 0.805685 9.87623 1.67622C11.1054 2.74944 10.9882 4.18151 10.9882 5.73984V9.42134C10.9882 10.5278 11.4785 11.0129 11.9403 11.611C12.1037 11.8236 12.1392 12.0795 11.9332 12.239C11.4181 12.641 10.5015 13.3886 9.99702 13.8073L9.98991 13.8006" fill="#4F5052"/>
</svg>
