<svg preserveAspectRatio="none" width="100%" height="100%" overflow="visible" style="display: block;" viewBox="0 0 80 24" fill="none" xmlns="http://www.w3.org/2000/svg">
<g id="amazon">
<path id="path8" fill-rule="evenodd" clip-rule="evenodd" d="M49.9714 18.5807C45.3195 22.1146 38.5769 24 32.7717 24C24.6318 24 17.3039 20.8971 11.76 15.7364C11.3244 15.3306 11.7147 14.7776 12.2374 15.0936C18.2203 18.6813 25.618 20.8397 33.2595 20.8397C38.4132 20.8397 44.0825 19.7407 49.2954 17.4603C50.0829 17.1155 50.7414 17.9918 49.9714 18.5807" fill="var(--fill-0, #181818)"/>
<path id="path10" fill-rule="evenodd" clip-rule="evenodd" d="M51.2976 16.5064C50.7362 15.78 47.5725 16.1632 46.1525 16.3332C45.7198 16.3865 45.6538 16.0066 46.0435 15.7334C48.5632 13.9441 52.6978 14.4606 53.1799 15.0603C53.6621 15.6634 53.0544 19.8451 50.6866 21.841C50.3234 22.1475 49.9766 21.9843 50.1384 21.5778C50.6701 20.2383 51.8623 17.2361 51.2976 16.5064" fill="var(--fill-0, #181818)"/>
<path id="path12" fill-rule="evenodd" clip-rule="evenodd" d="M46.2629 2.3132V0.466884C46.2629 0.187461 46.478 0 46.7361 0H55.1141C55.383 0 55.5981 0.190999 55.5981 0.466884V2.04793C55.5945 2.3132 55.3687 2.65983 54.9671 3.20806L50.6258 9.32355C52.239 9.28464 53.9419 9.52162 55.4045 10.3351C55.7343 10.5191 55.8239 10.7879 55.849 11.0531V13.0233C55.849 13.2921 55.5479 13.6069 55.2324 13.4442C52.6549 12.1107 49.2312 11.9657 46.3812 13.4583C46.0908 13.6139 45.7861 13.3027 45.7861 13.0339V11.1628C45.7861 10.8621 45.7897 10.3493 46.0944 9.89301L51.1241 2.77655H46.7469C46.478 2.77655 46.2629 2.58909 46.2629 2.3132" fill="var(--fill-0, #181818)"/>
<path id="path14" fill-rule="evenodd" clip-rule="evenodd" d="M16.0753 13.9999H13.5354C13.2925 13.983 13.0996 13.8099 13.0817 13.5893V1.20586C13.0817 0.958121 13.2997 0.761287 13.5711 0.761287H15.9395C16.186 0.771462 16.3825 0.951332 16.4004 1.17531V2.79409H16.4468C17.0648 1.22961 18.2258 0.499975 19.7904 0.499975C21.38 0.499975 22.3731 1.22961 23.0876 2.79409C23.702 1.22961 25.0987 0.499975 26.5955 0.499975C27.66 0.499975 28.8246 0.917395 29.5354 1.85404C30.3392 2.8959 30.1749 4.40947 30.1749 5.73639L30.1713 13.552C30.1713 13.7997 29.9534 13.9999 29.6819 13.9999H27.1456C26.892 13.983 26.6884 13.7895 26.6884 13.552V6.98865C26.6884 6.46603 26.7384 5.16286 26.6169 4.66739C26.4276 3.83594 25.8596 3.60178 25.1237 3.60178C24.5093 3.60178 23.8663 3.99205 23.6055 4.61648C23.3448 5.24092 23.3698 6.28616 23.3698 6.98865V13.552C23.3698 13.7997 23.1519 13.9999 22.8804 13.9999H20.3441C20.0869 13.983 19.8868 13.7895 19.8868 13.552L19.8833 6.98865C19.8833 5.60743 20.1226 3.57463 18.3186 3.57463C16.4932 3.57463 16.5647 5.55652 16.5647 6.98865V13.552C16.5647 13.7997 16.3468 13.9999 16.0753 13.9999" fill="var(--fill-0, #181818)"/>
<path id="path16" fill-rule="evenodd" clip-rule="evenodd" d="M62.5951 0.499975C66.3796 0.499975 68.4279 3.51699 68.4279 7.35319C68.4279 11.0595 66.1644 13.9999 62.5951 13.9999C58.8787 13.9999 56.8556 10.9829 56.8556 7.22332C56.8556 3.4404 58.9039 0.499975 62.5951 0.499975M62.6166 2.98084C60.7369 2.98084 60.6185 5.35849 60.6185 6.84036C60.6185 8.32555 60.5934 11.4957 62.595 11.4957C64.5716 11.4957 64.6649 8.93828 64.6649 7.37982C64.6649 6.35417 64.6182 5.12872 64.2846 4.15634C63.9976 3.31052 63.4273 2.98084 62.6166 2.98084" fill="var(--fill-0, #181818)"/>
<path id="path18" fill-rule="evenodd" clip-rule="evenodd" d="M72.4616 13.9999H69.9006C69.6437 13.983 69.4376 13.7895 69.4376 13.552L69.4339 1.16513C69.4556 0.937757 69.6691 0.761287 69.9295 0.761287H72.3133C72.5376 0.771462 72.722 0.914002 72.7727 1.10744V3.0011H72.8197C73.5396 1.30767 74.5488 0.499975 76.3249 0.499975C77.4788 0.499975 78.6037 0.890246 79.3272 1.95925C80 2.9502 80 4.61648 80 5.81444V13.6097C79.9711 13.8269 79.7576 13.9999 79.5044 13.9999H76.9253C76.6902 13.983 76.4949 13.8201 76.4695 13.6097V6.88345C76.4695 5.52938 76.6359 3.54748 74.8599 3.54748C74.2341 3.54748 73.6589 3.94115 73.3732 4.53843C73.0114 5.29522 72.9644 6.04861 72.9644 6.88345V13.552C72.9608 13.7997 72.7365 13.9999 72.4616 13.9999" fill="var(--fill-0, #181818)"/>
<path id="path28" fill-rule="evenodd" clip-rule="evenodd" d="M39.6459 8.04247C39.6459 8.96285 39.6708 9.73038 39.1733 10.5478C38.7717 11.2123 38.1321 11.621 37.425 11.621C36.4548 11.621 35.8863 10.9299 35.8863 9.90981C35.8863 7.89627 37.8158 7.53078 39.6459 7.53078V8.04247M42.1939 13.8006C42.0269 13.9401 41.7853 13.9501 41.5969 13.8571C40.7583 13.2058 40.6055 12.9035 40.1471 12.2821C38.7612 13.6045 37.7769 13.9999 35.9824 13.9999C33.8538 13.9999 32.2014 12.7739 32.2014 10.3184C32.2014 8.40126 33.3101 7.09546 34.895 6.45751C36.2666 5.89265 38.182 5.79297 39.646 5.63681V5.33113C39.646 4.76959 39.6922 4.10506 39.3369 3.61996C39.0313 3.18469 38.4414 3.00526 37.919 3.00526C36.956 3.00526 36.0996 3.46711 35.89 4.42404C35.8473 4.63669 35.6803 4.84602 35.4493 4.85598L33.0009 4.61011C32.7948 4.56691 32.5639 4.41075 32.6243 4.11503C33.1857 1.33729 35.8722 0.499975 38.2744 0.499975C39.5039 0.499975 41.1101 0.805661 42.0802 1.6762C43.3097 2.74942 43.1925 4.18148 43.1925 5.73981V9.42132C43.1925 10.5278 43.6829 11.0129 44.1448 11.611C44.3047 11.8236 44.3403 12.0794 44.1341 12.2389C43.6189 12.641 42.7021 13.3886 42.1975 13.8072L42.1939 13.8006" fill="var(--fill-0, #181818)"/>
<path id="path30" fill-rule="evenodd" clip-rule="evenodd" d="M7.44282 8.0425C7.44282 8.96287 7.46769 9.73041 6.97033 10.5478C6.56888 11.2123 5.93296 11.621 5.22244 11.621C4.25258 11.621 3.68772 10.9299 3.68772 9.90983C3.68772 7.8963 5.61678 7.53081 7.44282 7.53081V8.0425M9.98991 13.8006C9.82294 13.9402 9.58136 13.9501 9.39307 13.8571C8.55466 13.2059 8.40545 12.9035 7.94361 12.2822C6.5581 13.6046 5.57758 14 3.77997 14C1.65551 14 0 12.7739 0 10.3185C0 8.40129 1.11196 7.09549 2.69287 6.45754C4.06417 5.89268 5.97903 5.793 7.4427 5.63684V5.33115C7.4427 4.76962 7.48888 4.10509 7.13718 3.61998C6.8281 3.18471 6.23837 3.00529 5.71969 3.00529C4.75693 3.00529 3.8972 3.46714 3.6876 4.42407C3.64497 4.63672 3.478 4.84604 3.25063 4.85601L0.799335 4.61013C0.593284 4.56694 0.365917 4.41077 0.422759 4.11506C0.987623 1.33732 3.66984 0.500003 6.0714 0.500003C7.30059 0.500003 8.90637 0.805688 9.87623 1.67622C11.1054 2.74944 10.9882 4.18151 10.9882 5.73984V9.42135C10.9882 10.5278 11.4785 11.0129 11.9403 11.611C12.1037 11.8236 12.1392 12.0795 11.9332 12.239C11.4181 12.641 10.5015 13.3886 9.99702 13.8073L9.98991 13.8006" fill="var(--fill-0, #181818)"/>
</g>
</svg>
