<svg preserveAspectRatio="none" width="100%" height="100%" overflow="visible" style="display: block;" viewBox="0 0 37 26" fill="none" xmlns="http://www.w3.org/2000/svg">
<g id="salesforce">
<path id="Vector" d="M10.3751 12.3597C10.3272 12.3013 10.2385 12.3276 10.1673 12.3188C9.93196 12.2911 9.69368 12.275 9.45976 12.332C9.18807 12.3977 8.96432 12.5466 8.99919 12.9482C9.01227 13.1088 9.08782 13.2227 9.22149 13.3001C9.29268 13.3425 9.37259 13.3644 9.4525 13.3819C9.74454 13.4447 10.0293 13.3804 10.317 13.3425C10.3736 13.3352 10.3969 13.3016 10.3954 13.2417C10.3925 13.1103 10.394 12.9789 10.394 12.8474C10.394 12.7598 10.3969 12.6722 10.3925 12.5846C10.3911 12.5101 10.426 12.421 10.3751 12.3597Z" fill="var(--fill-0, #181818)"/>
<path id="Vector_2" d="M14.8924 11.0922C14.6163 10.9972 14.3461 11.0191 14.1165 11.2236C13.9538 11.3682 13.8855 11.5668 13.8434 11.7741C13.8259 11.8603 13.8288 11.8646 13.9189 11.8646C14.1412 11.8661 14.3635 11.8646 14.5858 11.8646C14.779 11.8646 14.9723 11.8646 15.1655 11.8646C15.3689 11.8646 15.3733 11.8632 15.3326 11.6602C15.2832 11.3988 15.1539 11.1827 14.8924 11.0922Z" fill="var(--fill-0, #181818)"/>
<path id="Vector_3" d="M32.0018 11.0644C31.7068 11.006 31.4424 11.0615 31.2463 11.3112C31.1242 11.4674 31.0676 11.6514 31.0429 11.8471C31.0908 11.8792 31.1402 11.8661 31.1867 11.8661C31.5732 11.8676 31.9596 11.8676 32.3461 11.8661C32.6164 11.8661 32.5858 11.8938 32.5335 11.631C32.474 11.3389 32.3083 11.1257 32.0018 11.0644Z" fill="var(--fill-0, #181818)"/>
<path id="Vector_4" d="M23.2305 11.0674C23.168 11.0718 23.0852 11.0689 23.0053 11.0922C22.738 11.1652 22.597 11.3624 22.5215 11.6092C22.3951 12.0283 22.3965 12.4532 22.5302 12.8708C22.6464 13.2344 22.8803 13.3936 23.2581 13.3921C23.6228 13.3907 23.8523 13.2344 23.97 12.8883C24.1153 12.4576 24.1153 12.0209 23.9787 11.5873C23.8887 11.3054 23.6882 11.0513 23.2305 11.0674Z" fill="var(--fill-0, #181818)"/>
<path id="Vector_5" d="M36.9913 11.9245C36.9913 11.7288 36.9913 11.5332 36.9913 11.336C36.9913 11.2586 36.9913 11.1798 36.9927 11.1024C36.9826 10.9622 36.9811 10.822 36.9651 10.6804C36.9012 10.1079 36.7777 9.54867 36.5917 9.00545C36.06 7.44881 35.1461 6.16231 33.8457 5.16203C32.4814 4.1121 30.9297 3.57619 29.2153 3.51924C28.7939 3.50463 28.374 3.53822 27.9556 3.59371C27.2466 3.68863 26.5637 3.88138 25.9055 4.16029C25.7922 4.20848 25.7922 4.20848 25.7297 4.10042C25.3316 3.42432 24.8376 2.82999 24.2361 2.3262C23.0912 1.36827 21.772 0.864476 20.2856 0.800225C19.6928 0.7754 19.1073 0.842572 18.5305 0.985678C17.3507 1.27919 16.3352 1.86476 15.4707 2.72193C15.3675 2.82415 15.3675 2.82415 15.2818 2.71463C14.798 2.10424 14.2328 1.58293 13.5819 1.15799C12.5518 0.483347 11.4199 0.105139 10.1966 0.00146026C10.1385 0.00146026 10.0803 0 10.0237 0C9.98445 0.00146026 9.94522 0.00146026 9.90745 0.00292053C9.74181 0.00292053 9.57618 0.00292053 9.41055 0.00292053C9.35243 0.00292053 9.29431 0.00146026 9.2362 0.00146026C9.18825 0.00146026 9.1403 0.00146026 9.09236 0.00292053C8.8628 0.0321258 8.63324 0.049649 8.40658 0.0934569C8.12907 0.147487 7.84866 0.195675 7.58278 0.297894C7.55517 0.303735 7.52466 0.305195 7.49851 0.313957C6.43788 0.648357 5.5022 1.20034 4.69583 1.96552C3.9098 2.71025 3.32137 3.59225 2.93053 4.60567C2.86225 4.78236 2.7896 4.9576 2.75764 5.14451C2.75764 5.14451 2.75764 5.14451 2.75909 5.14451C2.75328 5.15327 2.74747 5.16203 2.74311 5.17226C2.73003 5.21314 2.71405 5.25549 2.70388 5.29638C2.57602 5.7768 2.49757 6.26307 2.4627 6.75956C2.42783 7.23853 2.44962 7.71165 2.51209 8.18478C2.59346 8.80393 2.75473 9.40264 2.99446 9.9809C3.0395 10.0904 3.03805 10.0919 2.94071 10.1518C2.37116 10.5051 1.87136 10.9374 1.43984 11.4499C0.836881 12.1655 0.412629 12.9759 0.167086 13.8827C0.0973455 14.1412 0.053758 14.404 0.00145292 14.6654C0.00145292 15.2408 0 15.8147 0 16.39C0.0188879 16.4951 0.0377759 16.6003 0.0581167 16.7054C0.38357 18.3818 1.23789 19.7223 2.62252 20.7095C3.51315 21.3447 4.5084 21.7039 5.59954 21.7988C6.16764 21.8485 6.72991 21.8222 7.28929 21.7141C7.40552 21.6922 7.40697 21.6922 7.45492 21.8149C7.61619 22.2281 7.81524 22.6224 8.05498 22.9948C8.74656 24.0651 9.6619 24.8785 10.8083 25.4305C11.3923 25.7123 12.0069 25.8934 12.6447 26C13.3233 26 14.0018 26 14.6788 26C15.0609 25.9328 15.4372 25.8467 15.8034 25.7196C16.6562 25.4232 17.419 24.9764 18.0917 24.3703C18.7862 23.7454 19.3296 23.0079 19.7175 22.1551C19.7902 21.996 19.7902 21.993 19.9529 22.0675C20.5893 22.3596 21.2591 22.5246 21.9536 22.5728C22.4476 22.6078 22.9401 22.5801 23.4283 22.4851C24.5805 22.2603 25.5786 21.7331 26.4228 20.9154C26.7933 20.5561 27.1085 20.1487 27.373 19.7033C27.4471 19.5778 27.4471 19.5763 27.5822 19.5997C27.8829 19.6522 28.1851 19.6975 28.4888 19.7121C29.0017 19.7355 29.5131 19.7325 30.0245 19.6668C30.8527 19.5617 31.6431 19.3339 32.3972 18.9776C33.6074 18.4037 34.6172 17.5816 35.4149 16.5024C36.368 15.213 36.9114 13.7688 37 12.1582C36.9913 12.0793 36.9913 12.0019 36.9913 11.9245ZM6.89264 13.966C6.80692 13.9747 6.71829 13.9674 6.63112 13.9674C6.20832 13.9835 5.81748 13.874 5.45716 13.6549C5.32204 13.5732 5.32204 13.5702 5.37144 13.4242C5.40195 13.3366 5.43246 13.2504 5.46442 13.1628C5.51963 13.0153 5.52545 13.0139 5.6533 13.0942C5.77244 13.1687 5.89303 13.2388 6.02525 13.2913C6.26353 13.3848 6.50907 13.4257 6.76333 13.4125C6.8723 13.4067 6.97255 13.3731 7.06409 13.3147C7.24134 13.2008 7.33142 12.8824 7.06118 12.7218C6.94785 12.6546 6.82581 12.6094 6.70086 12.5685C6.52215 12.5086 6.34199 12.4546 6.16182 12.3947C6.03251 12.3524 5.91192 12.291 5.80005 12.2122C5.49784 12.0019 5.39032 11.7055 5.43972 11.3477C5.5051 10.8687 5.87124 10.5723 6.31293 10.4935C6.7953 10.4073 7.25587 10.4862 7.6932 10.7096C7.82832 10.7797 7.83268 10.7943 7.77892 10.9359C7.7455 11.0265 7.71354 11.1184 7.67867 11.209C7.63799 11.3112 7.62636 11.3156 7.52902 11.2689C7.31399 11.1623 7.08879 11.0936 6.85341 11.0571C6.73282 11.0381 6.61223 11.0323 6.49164 11.0454C6.3231 11.0659 6.18507 11.136 6.12405 11.3097C6.08191 11.4339 6.11533 11.5536 6.21558 11.6383C6.28677 11.6982 6.36814 11.7434 6.45531 11.7741C6.65146 11.8427 6.8476 11.9114 7.04374 11.98C7.25006 12.053 7.45056 12.1392 7.6191 12.2823C7.79054 12.4268 7.88644 12.6079 7.90097 12.8372C7.94891 13.522 7.48979 13.909 6.89264 13.966ZM10.9695 13.7791C10.5162 13.8798 10.0615 13.9776 9.59361 13.9601C9.34662 13.9514 9.10108 13.9251 8.87151 13.8214C8.5388 13.671 8.34992 13.4111 8.30924 13.0475C8.22497 12.3071 8.69426 11.9581 9.13449 11.8311C9.44542 11.7405 9.76215 11.7274 10.0818 11.7697C10.1588 11.7799 10.2358 11.7858 10.3114 11.7989C10.3782 11.8092 10.3956 11.7799 10.3956 11.7186C10.3971 11.6149 10.3855 11.5142 10.3578 11.4163C10.3099 11.2455 10.185 11.152 10.0222 11.1053C9.79412 11.0396 9.56165 11.0586 9.33209 11.0922C9.13449 11.1199 8.94561 11.1798 8.76691 11.2703C8.67973 11.3141 8.66229 11.3054 8.62597 11.2163C8.58238 11.1082 8.54751 10.9958 8.50247 10.8892C8.47487 10.822 8.48649 10.7767 8.54751 10.7417C8.58529 10.7198 8.62307 10.6964 8.66229 10.6804C9.17372 10.4774 9.69968 10.4058 10.2402 10.527C10.5453 10.5957 10.7981 10.7505 10.9405 11.044C11.0291 11.225 11.0683 11.4207 11.0698 11.6222C11.0698 11.9435 11.0698 12.2648 11.0698 12.586H11.0712C11.0712 12.9365 11.0698 13.2869 11.0727 13.6374C11.0756 13.7148 11.0523 13.7601 10.9695 13.7791ZM12.466 11.5273C12.466 12.2516 12.466 12.9759 12.466 13.7017C12.466 13.7411 12.466 13.7791 12.4646 13.8185C12.4631 13.8725 12.4326 13.9003 12.3818 13.9003C12.2118 13.9017 12.0432 13.9017 11.8732 13.9003C11.8166 13.9003 11.7832 13.8696 11.7832 13.8097C11.7832 13.7761 11.7817 13.7411 11.7817 13.7075C11.7817 12.2531 11.7817 10.8001 11.7817 9.34569C11.7817 9.33547 11.7817 9.32671 11.7817 9.31648C11.7832 9.15878 11.7875 9.15293 11.9459 9.15293C12.0767 9.15147 12.2074 9.15147 12.3382 9.15293C12.4501 9.15585 12.4631 9.16754 12.4631 9.27998C12.4646 9.5034 12.4631 9.72682 12.4631 9.9517C12.466 10.4759 12.466 11.0016 12.466 11.5273ZM16.0388 12.275C16.0271 12.386 16.0199 12.3947 15.9022 12.3962C15.5724 12.3976 15.244 12.3962 14.9142 12.3962C14.5902 12.3962 14.2647 12.3947 13.9407 12.3962C13.8216 12.3962 13.8172 12.3991 13.826 12.5203C13.8623 12.9847 14.0977 13.2826 14.567 13.3541C14.9229 13.4096 15.2702 13.3643 15.6087 13.2431C15.7395 13.1964 15.7424 13.1964 15.7889 13.3205C15.8252 13.4213 15.8615 13.522 15.8949 13.6228C15.9283 13.7221 15.924 13.7338 15.8281 13.7791C15.6741 13.8535 15.5099 13.8959 15.3428 13.9222C14.9767 13.982 14.6105 13.9922 14.2473 13.9046C13.6821 13.7688 13.3044 13.4257 13.1547 12.8532C13.021 12.3392 13.0385 11.8281 13.2506 11.3389C13.4758 10.8235 13.8841 10.546 14.4405 10.4847C14.6352 10.4628 14.8256 10.4701 15.0159 10.5124C15.5244 10.6293 15.8281 10.9607 15.9719 11.4499C16.0547 11.7201 16.0693 11.9961 16.0388 12.275ZM18.0263 13.966C17.9406 13.9747 17.852 13.9674 17.7648 13.9674C17.342 13.9835 16.9512 13.874 16.5894 13.6564C16.4499 13.5717 16.4485 13.5702 16.5037 13.414C16.5371 13.3176 16.572 13.2212 16.6098 13.1263C16.649 13.0285 16.6679 13.0197 16.758 13.0781C16.9585 13.2081 17.1691 13.3132 17.403 13.3687C17.5687 13.4081 17.7372 13.4213 17.9072 13.4111C18.0263 13.4038 18.1339 13.3629 18.2269 13.2869C18.4143 13.1336 18.4027 12.8693 18.2036 12.7306C18.115 12.6693 18.0162 12.6298 17.9145 12.5962C17.73 12.5364 17.5454 12.4794 17.3609 12.4195C17.2403 12.3816 17.1255 12.3305 17.0166 12.2677C16.4993 11.9669 16.3976 11.2864 16.8015 10.841C17.0195 10.6001 17.3013 10.4935 17.6137 10.4701C18.0263 10.4394 18.423 10.5081 18.7964 10.6979C18.8269 10.714 18.856 10.73 18.885 10.7475C18.9402 10.7797 18.9533 10.8249 18.9315 10.8833C18.8894 10.9972 18.8502 11.1126 18.8037 11.225C18.7673 11.3141 18.7528 11.32 18.6613 11.2732C18.4564 11.1696 18.2399 11.1053 18.0147 11.0659C17.8854 11.0425 17.7547 11.0396 17.6239 11.0498C17.5106 11.0586 17.4074 11.1024 17.3289 11.1885C17.1924 11.336 17.2098 11.5375 17.3696 11.6602C17.435 11.7113 17.5077 11.7507 17.5861 11.7785C17.7823 11.8486 17.9784 11.9158 18.1745 11.9844C18.3634 12.0486 18.545 12.1275 18.7049 12.2487C18.901 12.3962 19.0158 12.5875 19.0332 12.8386C19.0812 13.522 18.6206 13.9046 18.0263 13.966ZM21.6383 10.6862C21.6209 10.787 21.602 10.8877 21.5845 10.987C21.5627 11.1082 21.5453 11.1243 21.4233 11.1258C21.2446 11.1272 21.0644 11.1287 20.8857 11.1258C20.816 11.1243 20.7854 11.1447 20.7724 11.2207C20.6285 12.0589 20.4832 12.8956 20.3336 13.7323C20.274 14.0623 20.2144 14.3924 20.0764 14.7019C20.0227 14.8217 19.9616 14.937 19.8774 15.0393C19.7277 15.2218 19.5432 15.3474 19.3122 15.3999C19.0332 15.4627 18.7557 15.4686 18.4811 15.3824C18.3562 15.343 18.3489 15.3313 18.3939 15.2072C18.4332 15.0977 18.4753 14.9881 18.5145 14.8786C18.5378 14.8129 18.5741 14.7837 18.6467 14.8129C18.7572 14.8582 18.8749 14.8494 18.9911 14.8465C19.1669 14.8421 19.2947 14.7618 19.3819 14.6114C19.4851 14.4332 19.5446 14.2376 19.5824 14.0361C19.6681 13.5775 19.7524 13.119 19.8352 12.6605C19.921 12.183 20.0052 11.704 20.088 11.225C20.104 11.1301 20.104 11.1287 20.0052 11.1258C19.8933 11.1228 19.7829 11.1287 19.6711 11.1243C19.5708 11.1199 19.5563 11.0995 19.5737 10.9972C19.594 10.8819 19.6129 10.768 19.6362 10.6526C19.658 10.5489 19.6638 10.5446 19.7713 10.5431C19.873 10.5416 19.9747 10.5431 20.0764 10.5431C20.2028 10.5416 20.2014 10.5416 20.2232 10.4204C20.2638 10.1897 20.322 9.96484 20.4237 9.7531C20.6256 9.33839 20.9627 9.12957 21.4116 9.0916C21.6151 9.07408 21.8185 9.0843 22.0161 9.14417C22.1163 9.17484 22.1265 9.1909 22.0931 9.28874C22.0524 9.40848 22.0059 9.5253 21.9638 9.64504C21.9405 9.71076 21.9085 9.73558 21.833 9.71514C21.6979 9.67717 21.5613 9.65965 21.4175 9.69031C21.2242 9.7312 21.0964 9.84656 21.0223 10.0218C20.954 10.1824 20.9162 10.3533 20.9017 10.527C20.9511 10.5562 21.0005 10.5431 21.0484 10.5446C21.2039 10.546 21.3579 10.5446 21.5134 10.546C21.647 10.546 21.6601 10.5606 21.6383 10.6862ZM24.6313 13.1073C24.4366 13.5775 24.0719 13.8521 23.5707 13.9397C23.2903 13.9893 23.0099 13.982 22.7382 13.8959C22.1991 13.725 21.8926 13.3381 21.7633 12.7978C21.7182 12.6079 21.6906 12.4152 21.7008 12.2531C21.6979 11.9347 21.7371 11.6558 21.8446 11.3915C22.0756 10.8293 22.497 10.527 23.0999 10.4847C23.3571 10.4672 23.6128 10.4789 23.8569 10.5796C24.2608 10.7461 24.5412 11.0367 24.6764 11.4529C24.858 12.0078 24.8565 12.567 24.6313 13.1073ZM27.3279 10.6789C27.2814 10.8016 27.2364 10.9242 27.1943 11.0484C27.1696 11.1199 27.1274 11.1447 27.0519 11.136C26.9618 11.1243 26.8703 11.1199 26.7773 11.1228C26.4082 11.1374 26.1714 11.3886 26.0915 11.7464C26.0639 11.8705 26.0566 11.9961 26.0566 12.1231C26.0566 12.6386 26.0566 13.1541 26.0566 13.6695C26.0566 13.7031 26.0552 13.7382 26.0566 13.7717C26.0581 13.8418 26.029 13.8813 25.9535 13.8813C25.7893 13.8798 25.6237 13.8798 25.4595 13.8813C25.3941 13.8813 25.3592 13.8564 25.3607 13.7878C25.3621 13.7586 25.3607 13.7294 25.3607 13.7002C25.3607 12.7072 25.3607 11.7157 25.3607 10.7227C25.3607 10.5416 25.3607 10.5416 25.5467 10.5416C25.6585 10.5416 25.7689 10.5416 25.8808 10.5416C26.0305 10.5431 26.0305 10.5431 26.0319 10.6994C26.0319 10.7373 26.0319 10.7767 26.0319 10.8483C26.1569 10.7329 26.2673 10.657 26.3893 10.5986C26.677 10.4613 26.9734 10.492 27.2698 10.5577C27.3352 10.5723 27.3526 10.6161 27.3279 10.6789ZM29.9868 13.8229C29.4928 13.9864 28.993 14.02 28.4903 13.8608C28.0704 13.7279 27.79 13.4417 27.6272 13.0358C27.5226 12.7758 27.479 12.5028 27.4848 12.2224C27.4776 11.9566 27.5197 11.6982 27.6156 11.4514C27.835 10.8906 28.2476 10.5709 28.8404 10.4862C29.2051 10.4336 29.564 10.473 29.9156 10.5752C30.0638 10.6176 30.0696 10.6293 30.0158 10.7797C29.981 10.8804 29.9417 10.9797 29.9069 11.0819C29.8836 11.1491 29.8458 11.1696 29.7732 11.1462C29.5393 11.0717 29.2981 11.06 29.0554 11.0703C28.7692 11.0819 28.5469 11.209 28.3929 11.4529C28.3028 11.5945 28.2476 11.7507 28.2258 11.9158C28.1895 12.1976 28.1866 12.478 28.2767 12.7525C28.3929 13.1029 28.6893 13.3337 29.0554 13.3527C29.3024 13.3658 29.548 13.3629 29.7863 13.2753C29.8894 13.2373 29.9083 13.2519 29.9475 13.3556C29.9868 13.4607 30.026 13.5644 30.0609 13.671C30.0943 13.7644 30.0812 13.7922 29.9868 13.8229ZM33.25 12.2531C33.2282 12.3947 33.2282 12.3947 33.0902 12.3962C32.7662 12.3962 32.4407 12.3962 32.1167 12.3962C31.7971 12.3962 31.4775 12.3962 31.1578 12.3962C31.0256 12.3962 31.0169 12.4049 31.0343 12.5378C31.043 12.605 31.0547 12.6722 31.0721 12.7379C31.1622 13.1029 31.4092 13.2928 31.7651 13.3527C32.1167 13.4111 32.4582 13.3673 32.7938 13.2534C32.8214 13.2446 32.849 13.2344 32.8752 13.2242C32.926 13.2022 32.9594 13.2212 32.9783 13.2709C33.0248 13.3979 33.0713 13.5264 33.1164 13.6549C33.1396 13.7221 33.096 13.7513 33.0437 13.7776C32.8941 13.8506 32.7357 13.8944 32.573 13.9207C32.2025 13.982 31.8305 13.9966 31.4629 13.909C30.8353 13.7571 30.4546 13.3614 30.3297 12.7233C30.2527 12.3261 30.2701 11.9304 30.3834 11.5405C30.5708 10.9009 31.0968 10.5168 31.6983 10.4832C31.8697 10.473 32.0368 10.4759 32.2025 10.5124C32.756 10.6322 33.0684 10.9972 33.2006 11.5317C33.2631 11.7653 33.2878 12.0092 33.25 12.2531Z" fill="var(--fill-0, #181818)"/>
</g>
</svg>
