<svg width="81" height="24" viewBox="0 0 81 24" fill="none" xmlns="http://www.w3.org/2000/svg">
<path d="M73.8658 14.8919C74.1513 14.0909 74.4333 13.2934 74.7153 12.4994C75.0843 11.4578 75.4568 10.4197 75.8189 9.37812C75.8641 9.24749 75.9303 9.19593 76.0695 9.19937C76.6614 9.20281 77.2532 9.19937 77.845 9.20281C78.0782 9.20281 78.12 9.26812 78.0365 9.48812C77.2149 11.5884 76.3968 13.6887 75.5682 15.7856C75.227 16.6519 74.9207 17.5353 74.5169 18.3775C74.2975 18.8381 74.019 19.2575 73.6082 19.5772C73.0234 20.0343 72.3375 20.0997 71.6308 20.055C71.0738 20.0206 70.5516 19.8556 70.0573 19.6081C69.9041 19.529 69.8797 19.4397 69.9494 19.2919C70.1408 18.8897 70.3253 18.4806 70.5133 18.075C70.5934 17.8997 70.6421 17.8825 70.8232 17.9719C71.0912 18.1025 71.3663 18.1919 71.6656 18.2194C72.1113 18.2606 72.4176 18.0784 72.6474 17.7106C72.7588 17.5284 72.7762 17.3772 72.6892 17.1744C71.8432 15.1944 71.0077 13.2109 70.1722 11.2275C70.1234 11.1072 70.0677 11.0625 69.9354 11.0659C69.4724 11.0728 69.0059 11.0762 68.5429 11.0659C68.3897 11.0625 68.3514 11.1003 68.3514 11.255C68.3584 13.2659 68.3549 15.2769 68.3549 17.2878C68.3549 17.5697 68.3549 17.5697 68.066 17.5697C67.5333 17.5697 66.9972 17.5697 66.4645 17.5697C66.2104 17.5697 66.1965 17.5559 66.1965 17.3084C66.1965 15.2975 66.193 13.2865 66.2 11.2756C66.2 11.1141 66.1721 11.0522 65.9946 11.0659C65.7752 11.0831 65.5524 11.0659 65.3331 11.0728C65.2148 11.0762 65.166 11.0247 65.166 10.9078C65.166 10.3922 65.1695 9.87656 65.166 9.36093C65.166 9.23031 65.2391 9.1925 65.354 9.1925C65.5733 9.1925 65.7961 9.18218 66.0155 9.19593C66.1582 9.20281 66.2034 9.16156 66.2 9.01718C66.186 8.59781 66.2139 8.18187 66.3218 7.77281C66.5829 6.7725 67.2722 6.17094 68.3062 6.04375C68.9955 5.96125 69.6708 6.02313 70.3358 6.20531C70.4611 6.23969 70.5168 6.29469 70.5133 6.43219C70.5064 6.90656 70.5098 7.38437 70.5098 7.85875C70.5098 8.06156 70.4541 8.09937 70.2522 8.0375C69.918 7.93437 69.5803 7.86219 69.2287 7.86906C68.7309 7.87594 68.4385 8.11656 68.3549 8.60125C68.2505 9.19593 68.2574 9.20624 68.8562 9.20624C69.6987 9.20624 70.5377 9.21312 71.3802 9.20281C71.5786 9.19937 71.6622 9.27156 71.7318 9.44687C72.4107 11.2103 73.0965 12.9703 73.7788 14.7303C73.7927 14.7784 73.7997 14.8437 73.8658 14.8919Z" fill="#4F5052"/>
<path d="M32.1847 6.40637C33.7234 6.40637 35.008 6.82231 36.1429 7.68168C36.3692 7.85355 36.3692 7.8673 36.2091 8.09074C35.9167 8.49637 35.6277 8.90543 35.3353 9.31105C35.2099 9.48636 35.1612 9.49324 34.9837 9.36949C34.2978 8.88137 33.5633 8.50324 32.7138 8.3898C32.1882 8.32105 31.6694 8.32449 31.1855 8.57543C30.8165 8.76793 30.5902 9.06011 30.5728 9.48636C30.5554 9.91949 30.7539 10.2289 31.1333 10.4385C31.6729 10.7307 32.2647 10.8751 32.8531 11.0195C33.5911 11.1982 34.3222 11.3976 34.9976 11.7482C35.767 12.147 36.3692 12.7004 36.5537 13.577C36.9228 15.3335 36.1325 16.9732 34.1551 17.5129C32.599 17.9357 31.0915 17.7192 29.6398 17.0557C29.0619 16.791 28.5432 16.4404 28.0628 16.0279C27.9131 15.8973 27.9131 15.8492 28.0384 15.7014C28.3796 15.3026 28.7173 14.9039 29.055 14.5051C29.1942 14.3435 29.2464 14.3367 29.4101 14.4742C30.0889 15.0448 30.8304 15.502 31.7217 15.6773C32.3483 15.801 32.9749 15.8389 33.5946 15.6292C34.2213 15.416 34.5172 14.9554 34.4371 14.3401C34.3988 14.0376 34.2247 13.8279 33.9741 13.6698C33.5563 13.4085 33.0898 13.2779 32.6198 13.1576C31.8679 12.9685 31.1089 12.8035 30.3918 12.5045C29.9636 12.3257 29.5563 12.1057 29.2116 11.7895C28.6198 11.2464 28.3935 10.552 28.3831 9.78199C28.3587 8.18699 29.3474 6.96324 30.9662 6.56106C31.4049 6.44762 31.847 6.39262 32.1847 6.40637Z" fill="#4F5052"/>
<path d="M56.8979 13.2743C56.8979 12.5868 56.8944 11.8993 56.9014 11.2118C56.9014 11.0949 56.8735 11.0502 56.7482 11.0571C56.515 11.0674 56.2852 11.0571 56.0519 11.0605C55.9197 11.064 55.8535 11.0124 55.8535 10.8818C55.8535 10.3765 55.8535 9.87459 55.8535 9.36928C55.8535 9.24209 55.9231 9.18709 56.0519 9.19053C56.2782 9.19397 56.5045 9.18365 56.7308 9.19397C56.8735 9.20084 56.9014 9.14928 56.9014 9.01865C56.8944 8.41709 56.8979 7.81553 56.8979 7.21397C56.8979 6.99397 56.9258 6.96647 57.1451 6.96647C57.7091 6.96647 58.2696 6.96991 58.8335 6.96303C58.9972 6.9596 59.0598 7.01803 59.0598 7.18303C59.0529 7.79491 59.0633 8.41022 59.0529 9.02209C59.0494 9.15959 59.0946 9.19397 59.2269 9.19053C59.8257 9.18365 60.421 9.18709 61.0198 9.18709C61.2391 9.18709 61.2565 9.20772 61.2565 9.42084C61.2565 9.89521 61.2531 10.373 61.26 10.8474C61.2635 11.0055 61.2043 11.0571 61.0442 11.0536C60.4349 11.0468 59.8257 11.0536 59.2165 11.0468C59.0877 11.0468 59.0494 11.0743 59.0494 11.2083C59.0563 12.4355 59.0529 13.6593 59.0529 14.8865C59.0529 14.993 59.0668 15.103 59.0877 15.2096C59.1608 15.5499 59.4184 15.739 59.8118 15.7561C60.2087 15.7733 60.5846 15.6977 60.9432 15.5327C61.1521 15.4365 61.2322 15.488 61.2322 15.7149C61.2322 16.1618 61.2322 16.6086 61.2357 17.0555C61.2357 17.1621 61.2078 17.2411 61.1034 17.2927C60.1669 17.7636 59.1886 17.8324 58.2069 17.4955C57.4619 17.2411 57.0963 16.6499 56.9571 15.9108C56.9084 15.6461 56.891 15.378 56.891 15.1065C56.8979 14.5015 56.8979 13.8896 56.8979 13.2743Z" fill="#4F5052"/>
<path d="M64.2858 13.3748C64.2858 14.6845 64.2858 15.9976 64.2858 17.3073C64.2858 17.548 64.2754 17.5583 64.0317 17.5583C63.4677 17.5583 62.9072 17.5548 62.3432 17.5617C62.1831 17.5651 62.1309 17.5101 62.1309 17.352C62.1343 14.7051 62.1343 12.0617 62.1309 9.41484C62.1309 9.25328 62.1866 9.19141 62.3537 9.19141C62.9211 9.19828 63.4921 9.19484 64.0595 9.19484C64.2649 9.19484 64.2893 9.21891 64.2893 9.42516C64.2893 10.7417 64.2858 12.0583 64.2858 13.3748Z" fill="#4F5052"/>
<path d="M63.2214 5.51758C63.9769 5.51758 64.5652 6.09851 64.5652 6.84445C64.5652 7.59726 63.9734 8.1782 63.204 8.17476C62.4521 8.17132 61.8672 7.58695 61.8672 6.83758C61.8707 6.09508 62.466 5.51758 63.2214 5.51758Z" fill="#4F5052"/>
<path d="M24.1151 9.94426C23.68 7.32145 22.4406 5.08708 20.4772 3.26521C18.357 1.29553 15.8261 0.223032 12.9227 0.0167825C12.5293 -0.00727995 11.659 -0.00384246 11.3526 0.0167825C10.914 0.0442824 10.4788 0.0924073 10.0436 0.17147C7.21331 0.683656 4.83556 2.00022 2.95216 4.14865C1.10706 6.25583 0.13229 8.71364 0.00348133 11.498C0.00348133 11.718 0 11.938 0 12.1546C0 12.2577 0 12.3608 0 12.4639C0.0522199 13.6121 0.243693 14.7396 0.63012 15.8258C1.75111 18.9883 3.82598 21.3258 6.87214 22.797C9.36128 24.0002 11.9897 24.2855 14.6947 23.7217C17.424 23.1511 19.7043 21.7933 21.4763 19.6689C23.8436 16.833 24.7139 13.5639 24.1151 9.94426ZM17.7095 17.2936C17.4867 17.6511 17.0411 17.7577 16.6616 17.5308C15.0741 16.5821 13.3474 16.0802 11.5058 15.9289C9.66764 15.7777 7.86083 15.9736 6.07143 16.3724C5.75811 16.4411 5.47961 16.393 5.26724 16.1455C5.06533 15.9117 5.02703 15.6436 5.15236 15.3583C5.24984 15.1383 5.42042 14.9974 5.65367 14.9424C6.65281 14.7121 7.6624 14.5471 8.68591 14.4577C9.21855 14.413 9.75119 14.3786 10.0645 14.3855C12.5223 14.3924 14.6668 14.8152 16.6721 15.8361C16.9332 15.9702 17.1908 16.1146 17.4449 16.2658C17.8244 16.4961 17.9323 16.9361 17.7095 17.2936ZM19.3179 13.7393C19.2274 14.1414 18.8932 14.4268 18.458 14.4714C18.263 14.4921 18.0785 14.4405 17.9114 14.3408C16.1046 13.2614 14.1272 12.7046 12.0454 12.4605C11.3944 12.3849 10.7399 12.3505 10.0854 12.3471C8.63369 12.3471 7.20982 12.5224 5.81729 12.9314C5.28813 13.0861 4.76245 12.8111 4.61624 12.3093C4.47002 11.8108 4.74853 11.3124 5.27421 11.1543C6.53793 10.7727 7.83298 10.5733 9.14892 10.5046C10.9975 10.4083 12.8182 10.5836 14.6111 11.0236C16.1081 11.3914 17.532 11.938 18.8514 12.7355C19.2239 12.9555 19.4049 13.3508 19.3179 13.7393ZM20.8949 10.2158C20.5886 10.7555 19.8993 10.948 19.3457 10.6318C18.3013 10.0336 17.1908 9.60395 16.028 9.29457C14.733 8.94739 13.4135 8.74458 12.0767 8.64833C10.9 8.56239 9.72682 8.56239 8.55013 8.65864C7.43959 8.74801 6.34297 8.91301 5.27073 9.2327C4.61624 9.4252 3.98264 9.10551 3.80509 8.49364C3.62754 7.8852 3.97219 7.28364 4.61972 7.09458C5.77204 6.75771 6.95221 6.56177 8.14978 6.45521C8.79731 6.39677 9.44484 6.36583 10.1341 6.35208C12.5537 6.34177 14.9697 6.62708 17.3266 7.35239C18.4301 7.6927 19.4919 8.12583 20.4841 8.71708C21.0237 9.02989 21.1978 9.67957 20.8949 10.2158Z" fill="#4F5052"/>
<path d="M46.0229 12.3291C45.7583 10.9781 45.0481 9.92627 43.7461 9.36595C42.4127 8.79533 41.1246 8.87095 39.9688 9.82314C39.8226 9.94345 39.7008 10.0981 39.5685 10.2391C39.5546 10.2288 39.5372 10.2219 39.5232 10.2116C39.5232 9.94345 39.5163 9.67877 39.5267 9.41064C39.5337 9.24908 39.471 9.1872 39.3039 9.1872C38.7365 9.19408 38.1655 9.19064 37.5981 9.19064C37.3927 9.19064 37.3648 9.2147 37.3648 9.41752C37.3648 12.8756 37.3648 16.3338 37.3613 19.7953C37.3613 19.9569 37.424 20.0222 37.5876 20.0222C38.1551 20.0187 38.726 20.0222 39.2935 20.0187C39.4919 20.0187 39.5232 19.9844 39.5232 19.785C39.5232 18.7812 39.5232 17.7809 39.5232 16.7772C39.5232 16.7222 39.5232 16.6672 39.5232 16.6122C39.5372 16.6053 39.5511 16.5984 39.565 16.5916C39.6242 16.6534 39.6799 16.7188 39.7426 16.7806C40.0559 17.0831 40.4145 17.3237 40.8218 17.4853C42.6843 18.2244 44.881 17.3031 45.713 15.4228C46.1552 14.4259 46.2283 13.3844 46.0229 12.3291ZM43.7043 14.5291C43.3562 15.3334 42.74 15.7941 41.8488 15.8353C40.9262 15.88 40.2439 15.4641 39.8017 14.6734C39.572 14.2644 39.4849 13.8691 39.4815 13.3844C39.5023 12.4941 39.8052 11.7344 40.592 11.2359C41.7965 10.4728 43.3701 11.0881 43.7983 12.4803C44.0072 13.1713 43.9933 13.8588 43.7043 14.5291Z" fill="#4F5052"/>
<path d="M51.0579 9.02603C48.6906 9.10165 46.6888 10.9132 46.6993 13.4638C46.7097 15.8735 48.7184 17.7676 51.2319 17.7538C53.7489 17.7401 55.7333 15.8013 55.7229 13.3745C55.7124 10.841 53.6236 8.94353 51.0579 9.02603ZM52.252 15.626C50.8455 16.3066 49.2128 15.4713 48.9203 13.9382C48.7637 13.1029 48.9029 12.326 49.4808 11.6729C50.5775 10.4285 52.6558 10.7895 53.3381 12.3295C53.4913 12.6732 53.5679 13.0376 53.561 13.4157C53.5296 14.3851 53.1745 15.1791 52.252 15.626Z" fill="#4F5052"/>
<path d="M79.6875 9.17396C78.9565 9.16365 78.3472 9.76177 78.3438 10.4871C78.3438 11.2124 78.9321 11.8002 79.6632 11.8036C80.4012 11.8071 80.9965 11.2227 81 10.4871C81 9.7549 80.4325 9.18427 79.6875 9.17396ZM79.6806 11.6696C79.0296 11.6765 78.5004 11.154 78.4969 10.5043C78.4935 9.84083 79.0122 9.32177 79.6806 9.32521C80.349 9.32521 80.8503 9.82708 80.8503 10.4905C80.8468 11.1436 80.3386 11.6627 79.6806 11.6696Z" fill="#4F5052"/>
<path d="M80.0469 10.7142C80.0086 10.6592 79.9912 10.6282 80.0678 10.5836C80.2766 10.4529 80.3393 10.2879 80.2836 10.0748C80.2383 9.90293 80.0747 9.77918 79.8484 9.76887C79.657 9.75856 79.4655 9.77231 79.274 9.762C79.1696 9.75856 79.1348 9.78606 79.1348 9.89606C79.1417 10.257 79.1382 10.6145 79.1382 10.9754C79.1382 11.0614 79.1174 11.1439 79.2601 11.1404C79.3854 11.137 79.4237 11.0957 79.4098 10.9823C79.4028 10.9136 79.4133 10.8448 79.4063 10.7761C79.3993 10.6936 79.4342 10.6764 79.5142 10.6661C79.744 10.6317 79.7997 10.8139 79.8763 10.9445C79.9807 11.1198 80.113 11.1782 80.3323 11.1164C80.2349 10.972 80.1409 10.8414 80.0469 10.7142ZM79.8937 10.4014C79.8101 10.4392 79.7231 10.4289 79.6256 10.4323C79.5664 10.4186 79.4516 10.4701 79.4307 10.4014C79.3993 10.2914 79.4202 10.1642 79.4202 10.0439C79.4202 10.0336 79.4307 10.0232 79.4376 10.0164C79.5142 9.9545 79.9215 10.0164 79.9807 10.0989C80.0538 10.202 80.0155 10.3464 79.8937 10.4014Z" fill="#4F5052"/>
</svg>
