<svg preserveAspectRatio="none" width="100%" height="100%" overflow="visible" style="display: block;" viewBox="0 0 81 24" fill="none" xmlns="http://www.w3.org/2000/svg">
<g id="spotify">
<path id="Vector" d="M73.8668 14.8908C74.1522 14.0898 74.4342 13.2923 74.7162 12.4983C75.0852 11.4567 75.4577 10.4186 75.8198 9.37704C75.865 9.24641 75.9312 9.19485 76.0704 9.19829C76.6623 9.20172 77.2541 9.19829 77.8459 9.20172C78.0792 9.20172 78.1209 9.26704 78.0374 9.48704C77.2158 11.5873 76.3977 13.6877 75.5691 15.7845C75.228 16.6508 74.9216 17.5342 74.5178 18.3764C74.2985 18.837 74.0199 19.2564 73.6091 19.5761C73.0243 20.0333 72.3385 20.0986 71.6318 20.0539C71.0747 20.0195 70.5525 19.8545 70.0582 19.607C69.905 19.528 69.8807 19.4386 69.9503 19.2908C70.1418 18.8886 70.3263 18.4795 70.5143 18.0739C70.5943 17.8986 70.6431 17.8814 70.8241 17.9708C71.0922 18.1014 71.3672 18.1908 71.6666 18.2183C72.1122 18.2595 72.4185 18.0773 72.6483 17.7095C72.7597 17.5273 72.7771 17.3761 72.6901 17.1733C71.8441 15.1933 71.0086 13.2098 70.1731 11.2264C70.1243 11.1061 70.0686 11.0614 69.9364 11.0648C69.4733 11.0717 69.0068 11.0752 68.5438 11.0648C68.3906 11.0614 68.3524 11.0992 68.3524 11.2539C68.3593 13.2648 68.3558 15.2758 68.3558 17.2867C68.3558 17.5686 68.3558 17.5686 68.0669 17.5686C67.5342 17.5686 66.9981 17.5686 66.4655 17.5686C66.2113 17.5686 66.1974 17.5548 66.1974 17.3073C66.1974 15.2964 66.1939 13.2855 66.2009 11.2745C66.2009 11.113 66.173 11.0511 65.9955 11.0648C65.7762 11.082 65.5534 11.0648 65.334 11.0717C65.2157 11.0752 65.1669 11.0236 65.1669 10.9067C65.1669 10.3911 65.1704 9.87547 65.1669 9.35985C65.1669 9.22922 65.24 9.19141 65.3549 9.19141C65.5743 9.19141 65.7971 9.1811 66.0164 9.19485C66.1591 9.20172 66.2044 9.16047 66.2009 9.0161C66.187 8.59673 66.2148 8.18079 66.3227 7.77173C66.5838 6.77142 67.2731 6.16986 68.3071 6.04267C68.9964 5.96017 69.6718 6.02204 70.3367 6.20423C70.462 6.23861 70.5177 6.29361 70.5143 6.43111C70.5073 6.90548 70.5108 7.38329 70.5108 7.85766C70.5108 8.06048 70.4551 8.09829 70.2532 8.03641C69.9189 7.93329 69.5813 7.8611 69.2296 7.86798C68.7318 7.87485 68.4394 8.11548 68.3558 8.60016C68.2514 9.19485 68.2584 9.20516 68.8571 9.20516C69.6996 9.20516 70.5386 9.21204 71.3811 9.20172C71.5795 9.19829 71.6631 9.27047 71.7327 9.44579C72.4116 11.2092 73.0974 12.9692 73.7797 14.7292C73.7937 14.7773 73.8006 14.8427 73.8668 14.8908Z" fill="var(--fill-0, #181818)"/>
<path id="Vector_2" d="M32.1848 6.40706C33.7235 6.40706 35.0081 6.823 36.143 7.68237C36.3693 7.85425 36.3693 7.868 36.2092 8.09143C35.9167 8.49706 35.6278 8.90612 35.3354 9.31174C35.21 9.48706 35.1613 9.49393 34.9837 9.37018C34.2979 8.88206 33.5634 8.50393 32.7139 8.3905C32.1882 8.32175 31.6695 8.32518 31.1856 8.57612C30.8166 8.76862 30.5903 9.06081 30.5729 9.48706C30.5555 9.92018 30.7539 10.2296 31.1334 10.4392C31.673 10.7314 32.2648 10.8758 32.8532 11.0202C33.5912 11.1989 34.3223 11.3983 34.9977 11.7489C35.767 12.1477 36.3693 12.7011 36.5538 13.5777C36.9228 15.3342 36.1326 16.9739 34.1552 17.5136C32.599 17.9364 31.0916 17.7199 29.6399 17.0564C29.062 16.7917 28.5433 16.4411 28.0629 16.0286C27.9132 15.898 27.9132 15.8499 28.0385 15.702C28.3797 15.3033 28.7174 14.9045 29.055 14.5058C29.1943 14.3442 29.2465 14.3374 29.4101 14.4749C30.089 15.0455 30.8305 15.5027 31.7217 15.678C32.3484 15.8017 32.975 15.8395 33.5947 15.6299C34.2213 15.4167 34.5172 14.9561 34.4372 14.3408C34.3989 14.0383 34.2248 13.8286 33.9742 13.6705C33.5564 13.4092 33.0899 13.2786 32.6199 13.1583C31.868 12.9692 31.109 12.8042 30.3919 12.5052C29.9637 12.3264 29.5564 12.1064 29.2117 11.7902C28.6199 11.2471 28.3936 10.5527 28.3832 9.78268C28.3588 8.18768 29.3475 6.96394 30.9663 6.56175C31.4049 6.44831 31.8471 6.39331 32.1848 6.40706Z" fill="var(--fill-0, #181818)"/>
<path id="Vector_3" d="M56.8988 13.2751C56.8988 12.5876 56.8953 11.9001 56.9023 11.2126C56.9023 11.0957 56.8744 11.0511 56.7491 11.0579C56.5158 11.0682 56.2861 11.0579 56.0528 11.0614C55.9205 11.0648 55.8544 11.0132 55.8544 10.8826C55.8544 10.3773 55.8544 9.87544 55.8544 9.37013C55.8544 9.24294 55.924 9.18794 56.0528 9.19138C56.2791 9.19481 56.5054 9.1845 56.7317 9.19481C56.8744 9.20169 56.9023 9.15013 56.9023 9.0195C56.8953 8.41794 56.8988 7.81638 56.8988 7.21482C56.8988 6.99482 56.9266 6.96732 57.146 6.96732C57.7099 6.96732 58.2704 6.97076 58.8344 6.96388C58.998 6.96044 59.0607 7.01888 59.0607 7.18388C59.0537 7.79575 59.0642 8.41107 59.0537 9.02294C59.0502 9.16044 59.0955 9.19481 59.2278 9.19138C59.8266 9.1845 60.4219 9.18794 61.0207 9.18794C61.24 9.18794 61.2574 9.20856 61.2574 9.42169C61.2574 9.89606 61.2539 10.3739 61.2609 10.8482C61.2644 11.0064 61.2052 11.0579 61.0451 11.0545C60.4358 11.0476 59.8266 11.0545 59.2174 11.0476C59.0885 11.0476 59.0502 11.0751 59.0502 11.2092C59.0572 12.4364 59.0537 13.6601 59.0537 14.8873C59.0537 14.9939 59.0677 15.1039 59.0885 15.2104C59.1617 15.5507 59.4193 15.7398 59.8127 15.757C60.2095 15.7742 60.5855 15.6986 60.9441 15.5336C61.153 15.4373 61.233 15.4889 61.233 15.7157C61.233 16.1626 61.233 16.6095 61.2365 17.0564C61.2365 17.1629 61.2087 17.242 61.1042 17.2935C60.1678 17.7645 59.1895 17.8332 58.2078 17.4964C57.4628 17.242 57.0972 16.6507 56.958 15.9117C56.9092 15.647 56.8918 15.3789 56.8918 15.1073C56.8988 14.5023 56.8988 13.8904 56.8988 13.2751Z" fill="var(--fill-0, #181818)"/>
<path id="Vector_4" d="M64.2862 13.3749C64.2862 14.6846 64.2862 15.9977 64.2862 17.3074C64.2862 17.548 64.2757 17.5584 64.032 17.5584C63.4681 17.5584 62.9076 17.5549 62.3436 17.5618C62.1834 17.5652 62.1312 17.5102 62.1312 17.3521C62.1347 14.7052 62.1347 12.0618 62.1312 9.41493C62.1312 9.25337 62.1869 9.19149 62.354 9.19149C62.9215 9.19837 63.4924 9.19493 64.0599 9.19493C64.2653 9.19493 64.2896 9.21899 64.2896 9.42524C64.2896 10.7418 64.2862 12.0584 64.2862 13.3749Z" fill="var(--fill-0, #181818)"/>
<path id="Vector_5" d="M63.2209 5.51676C63.9763 5.51676 64.5646 6.0977 64.5646 6.84363C64.5646 7.59644 63.9728 8.17738 63.2034 8.17394C62.4515 8.17051 61.8666 7.58613 61.8666 6.83676C61.8701 6.09426 62.4654 5.51676 63.2209 5.51676Z" fill="var(--fill-0, #181818)"/>
<path id="Vector_6" d="M24.1151 9.94426C23.68 7.32145 22.4406 5.08708 20.4772 3.26521C18.357 1.29553 15.8261 0.223032 12.9227 0.0167825C12.5293 -0.00727995 11.659 -0.00384246 11.3526 0.0167825C10.914 0.0442824 10.4788 0.0924073 10.0436 0.17147C7.21331 0.683656 4.83556 2.00022 2.95216 4.14865C1.10706 6.25583 0.13229 8.71364 0.00348133 11.498C0.00348133 11.718 0 11.938 0 12.1546C0 12.2577 0 12.3608 0 12.4639C0.0522199 13.6121 0.243693 14.7396 0.63012 15.8258C1.75111 18.9883 3.82598 21.3258 6.87214 22.797C9.36128 24.0002 11.9897 24.2855 14.6947 23.7217C17.424 23.1511 19.7043 21.7933 21.4763 19.6689C23.8436 16.833 24.7139 13.5639 24.1151 9.94426ZM17.7095 17.2936C17.4867 17.6511 17.0411 17.7577 16.6616 17.5308C15.0741 16.5821 13.3474 16.0802 11.5058 15.9289C9.66764 15.7777 7.86083 15.9736 6.07143 16.3724C5.75811 16.4411 5.47961 16.393 5.26725 16.1455C5.06533 15.9117 5.02703 15.6436 5.15236 15.3583C5.24984 15.1383 5.42042 14.9974 5.65367 14.9424C6.65281 14.7121 7.6624 14.5471 8.68591 14.4577C9.21855 14.413 9.75119 14.3786 10.0645 14.3855C12.5223 14.3924 14.6668 14.8152 16.6721 15.8361C16.9332 15.9702 17.1908 16.1146 17.4449 16.2658C17.8244 16.4961 17.9323 16.9361 17.7095 17.2936ZM19.3179 13.7393C19.2274 14.1414 18.8932 14.4268 18.458 14.4714C18.263 14.4921 18.0785 14.4405 17.9114 14.3408C16.1046 13.2614 14.1272 12.7046 12.0454 12.4605C11.3944 12.3849 10.7399 12.3505 10.0854 12.3471C8.63369 12.3471 7.20982 12.5224 5.81729 12.9314C5.28813 13.0861 4.76245 12.8111 4.61624 12.3093C4.47002 11.8108 4.74853 11.3124 5.27421 11.1543C6.53793 10.7727 7.83298 10.5733 9.14892 10.5046C10.9975 10.4083 12.8182 10.5836 14.6111 11.0236C16.1081 11.3914 17.532 11.938 18.8514 12.7355C19.2239 12.9555 19.4049 13.3508 19.3179 13.7393ZM20.8949 10.2158C20.5886 10.7555 19.8993 10.948 19.3457 10.6318C18.3013 10.0336 17.1908 9.60395 16.028 9.29457C14.733 8.94739 13.4135 8.74458 12.0767 8.64833C10.9 8.56239 9.72682 8.56239 8.55013 8.65864C7.43959 8.74801 6.34297 8.91301 5.27073 9.2327C4.61624 9.4252 3.98264 9.10551 3.80509 8.49364C3.62754 7.8852 3.97219 7.28364 4.61972 7.09458C5.77204 6.75771 6.95221 6.56177 8.14978 6.45521C8.79731 6.39677 9.44484 6.36583 10.1341 6.35208C12.5537 6.34177 14.9697 6.62708 17.3266 7.35239C18.4301 7.6927 19.4919 8.12583 20.4841 8.71708C21.0237 9.02989 21.1978 9.67957 20.8949 10.2158Z" fill="var(--fill-0, #181818)"/>
<path id="Vector_7" d="M46.023 12.3298C45.7584 10.9789 45.0482 9.92704 43.7462 9.36672C42.4129 8.7961 41.1248 8.87173 39.969 9.82391C39.8228 9.94422 39.7009 10.0989 39.5686 10.2398C39.5547 10.2295 39.5373 10.2227 39.5234 10.2123C39.5234 9.94422 39.5164 9.67954 39.5268 9.41141C39.5338 9.24985 39.4711 9.18797 39.304 9.18797C38.7366 9.19485 38.1656 9.19141 37.5982 9.19141C37.3928 9.19141 37.3649 9.21548 37.3649 9.41829C37.3649 12.8764 37.3649 16.3345 37.3615 19.7961C37.3615 19.9576 37.4241 20.023 37.5877 20.023C38.1552 20.0195 38.7261 20.023 39.2936 20.0195C39.492 20.0195 39.5234 19.9851 39.5234 19.7858C39.5234 18.782 39.5234 17.7817 39.5234 16.778C39.5234 16.723 39.5234 16.668 39.5234 16.613C39.5373 16.6061 39.5512 16.5992 39.5651 16.5923C39.6243 16.6542 39.68 16.7195 39.7427 16.7814C40.056 17.0839 40.4146 17.3245 40.8219 17.4861C42.6844 18.2251 44.8811 17.3039 45.7132 15.4236C46.1553 14.4267 46.2284 13.3852 46.023 12.3298ZM43.7044 14.5298C43.3563 15.3342 42.7401 15.7948 41.8489 15.8361C40.9263 15.8808 40.244 15.4648 39.8019 14.6742C39.5721 14.2652 39.4851 13.8698 39.4816 13.3852C39.5025 12.4948 39.8054 11.7352 40.5921 11.2367C41.7967 10.4736 43.3702 11.0889 43.7984 12.4811C44.0073 13.172 43.9934 13.8595 43.7044 14.5298Z" fill="var(--fill-0, #181818)"/>
<path id="Vector_8" d="M51.0572 9.02642C48.6899 9.10204 46.6881 10.9136 46.6985 13.4642C46.709 15.8739 48.7177 17.768 51.2312 17.7542C53.7482 17.7405 55.7326 15.8017 55.7221 13.3748C55.7117 10.8414 53.6229 8.94392 51.0572 9.02642ZM52.2513 15.6264C50.8448 16.307 49.2121 15.4717 48.9196 13.9386C48.763 13.1033 48.9022 12.3264 49.4801 11.6733C50.5767 10.4289 52.6551 10.7898 53.3374 12.3298C53.4906 12.6736 53.5672 13.038 53.5602 13.4161C53.5289 14.3855 53.1738 15.1795 52.2513 15.6264Z" fill="var(--fill-0, #181818)"/>
<path id="Vector_9" d="M79.6875 9.17418C78.9564 9.16387 78.3472 9.76199 78.3437 10.4873C78.3437 11.2126 78.9321 11.8004 79.6632 11.8039C80.4012 11.8073 80.9965 11.2229 81 10.4873C81 9.75511 80.4325 9.18449 79.6875 9.17418ZM79.6806 11.6698C79.0296 11.6767 78.5004 11.1542 78.4969 10.5045C78.4934 9.84105 79.0121 9.32199 79.6806 9.32543C80.349 9.32543 80.8503 9.8273 80.8503 10.4907C80.8468 11.1439 80.3385 11.6629 79.6806 11.6698Z" fill="var(--fill-0, #181818)"/>
<path id="Vector_10" d="M80.0461 10.7142C80.0078 10.6592 79.9904 10.6283 80.067 10.5836C80.2758 10.453 80.3385 10.288 80.2828 10.0749C80.2376 9.90298 80.0739 9.77924 79.8477 9.76892C79.6562 9.75861 79.4647 9.77236 79.2732 9.76205C79.1688 9.75861 79.134 9.78611 79.134 9.89611C79.1409 10.257 79.1375 10.6145 79.1375 10.9755C79.1375 11.0614 79.1166 11.1439 79.2593 11.1405C79.3846 11.137 79.4229 11.0958 79.409 10.9824C79.402 10.9136 79.4125 10.8449 79.4055 10.7761C79.3986 10.6936 79.4334 10.6764 79.5134 10.6661C79.7432 10.6317 79.7989 10.8139 79.8755 10.9445C79.9799 11.1199 80.1122 11.1783 80.3316 11.1164C80.2341 10.972 80.1401 10.8414 80.0461 10.7142ZM79.8929 10.4014C79.8093 10.4392 79.7223 10.4289 79.6248 10.4324C79.5657 10.4186 79.4508 10.4702 79.4299 10.4014C79.3986 10.2914 79.4194 10.1642 79.4194 10.0439C79.4194 10.0336 79.4299 10.0233 79.4369 10.0164C79.5134 9.95455 79.9208 10.0164 79.9799 10.0989C80.053 10.202 80.0147 10.3464 79.8929 10.4014Z" fill="var(--fill-0, #181818)"/>
</g>
</svg>
