<svg preserveAspectRatio="none" width="100%" height="100%" overflow="visible" style="display: block;" viewBox="0 0 87 22" fill="none" xmlns="http://www.w3.org/2000/svg">
<g id="pinterest">
<path id="Vector" d="M0.176782 6.40873C0.975062 3.07912 3.71824 0.676009 7.2597 0.154852C8.69661 -0.0478195 10.1045 -0.0188664 11.4978 0.357524C15.4312 1.45774 17.5938 5.0045 16.8681 9.11585C16.5343 11.0268 15.8666 12.7929 14.4297 14.1682C13.0654 15.4711 11.4108 16.1225 9.53843 15.7606C8.68209 15.6014 7.89833 15.0512 6.99845 14.6459C6.47594 17.1938 5.73571 19.843 3.86339 22C3.81984 22 3.76179 22 3.71824 22C3.6747 21.7828 3.63116 21.5802 3.58762 21.363C3.19573 19.1481 3.68921 17.0056 4.1827 14.863C4.67618 12.7205 5.54703 10.6359 4.95195 8.30516C4.69069 7.2918 5.14063 6.24949 5.95343 5.48223C6.56302 4.90317 7.43387 4.74393 8.10153 5.09136C8.85626 5.46775 9.03043 6.16263 9.00141 6.92989C8.98689 7.2918 8.91432 7.65372 8.82724 8.00115C8.53695 9.04347 8.20313 10.0713 7.94187 11.1281C7.54999 12.8218 8.79821 14.0524 10.4964 13.676C11.6285 13.4299 12.3397 12.6481 12.8622 11.6927C13.8201 9.94101 14.0959 8.04458 13.8637 6.09025C13.704 4.7584 13.0073 3.70161 11.8607 2.96331C8.40632 0.791821 3.42796 2.84749 2.57162 6.81407C2.31037 8.01563 2.2378 9.26061 2.99253 10.3029C3.4715 10.9544 3.42796 11.519 3.23928 12.1849C3.07962 12.7639 2.77482 12.8508 2.28134 12.5757C1.35243 12.0546 0.728321 11.2729 0.409009 10.274C-0.113501 8.75393 -0.0699588 7.59581 0.176782 6.40873Z" fill="var(--fill-0, #181818)"/>
<path id="Vector_2" d="M69.3224 17.6422C68.0596 18.641 66.6808 19.307 65.0987 19.4807C63.7925 19.6254 62.5297 19.5386 61.3976 18.8003C60.0333 17.9027 59.5253 16.5998 59.5979 15.0074C59.6414 13.9362 59.0899 13.6177 58.0158 13.9651C57.4788 14.1388 56.8692 14.2112 56.3177 14.1533C55.7226 14.0809 55.3017 13.6756 55.3307 13.0097C55.3742 12.3727 55.7516 11.9673 56.4047 11.9673C56.8547 11.9673 57.0143 11.7791 56.9998 11.3593C56.9853 10.8961 56.8111 10.4473 56.3322 10.4907C55.8097 10.5342 55.1565 10.6789 54.8517 11.0264C54.2566 11.6923 53.7051 12.4885 53.3858 13.3137C52.7762 14.9785 52.3117 16.7157 51.8618 18.4384C51.6876 19.0898 51.4119 19.3938 50.7152 19.2925C50.1781 19.2201 49.6266 19.2056 49.0751 19.1622C49.1331 18.6555 49.1912 18.1344 49.2492 17.4974C47.8559 18.8003 46.2738 19.5096 44.4305 19.5386C42.5437 19.5675 41.0342 18.8871 40.0472 17.0486C39.278 18.2067 38.3636 19.0898 37.0283 19.3938C35.3737 19.7847 34.4593 19.4517 33.7481 18.3081C32.9208 18.6989 32.137 19.2346 31.2807 19.4373C29.3358 19.9295 28.015 18.67 28.3488 16.7012C28.5956 15.2246 28.9874 13.7914 29.3213 12.3293C29.4519 11.7791 29.5535 11.2001 29.0455 10.7947C28.5085 10.3604 27.8844 10.5052 27.3328 10.7658C26.4329 11.1856 25.983 11.9818 25.7508 12.9083C25.2573 14.7758 24.7783 16.6433 24.3284 18.5107C24.1978 19.0753 23.951 19.3649 23.3559 19.2925C23.1237 19.2635 22.877 19.2925 22.6302 19.2925C21.5707 19.2925 21.5707 19.2925 21.5417 18.3949C20.903 18.7279 20.2934 19.1767 19.5968 19.3938C17.4632 20.0453 16.0843 18.945 16.4036 16.7446C16.6649 14.9929 17.1874 13.2702 17.5938 11.533C17.768 10.7803 17.9857 10.042 18.1744 9.28918C18.2905 8.82593 18.5227 8.57982 19.0307 8.60878C19.4371 8.63773 19.858 8.62325 20.2644 8.60878C20.8305 8.57982 21.0482 8.75354 20.874 9.37603C20.337 11.4028 19.8435 13.444 19.3355 15.4707C19.2775 15.7312 19.2339 15.9918 19.2339 16.2524C19.1904 17.2513 19.829 17.6856 20.7289 17.2223C21.7449 16.7012 22.2529 15.7457 22.5577 14.7179C23.0076 13.1689 23.385 11.5909 23.7914 10.0275C24.1978 8.46401 23.951 8.5943 25.6492 8.5943C25.6927 8.5943 25.7508 8.5943 25.7943 8.5943C26.7523 8.5943 26.7523 8.5943 26.7377 9.56423C27.6231 8.86936 28.552 8.33372 29.7131 8.37715C31.5129 8.43506 32.6015 9.68004 32.2676 11.4607C32.0064 12.8794 31.6 14.2691 31.2807 15.6733C31.2371 15.876 31.1501 16.1221 31.2081 16.3103C31.3242 16.6433 31.4694 17.121 31.7161 17.2223C32.0209 17.3381 32.6015 17.2658 32.8192 17.0486C33.2401 16.6143 33.632 16.0642 33.8061 15.4851C34.2996 13.9072 34.6915 12.2858 35.156 10.5342C34.6335 10.5342 34.2271 10.5342 33.8061 10.5342C33.4143 10.5342 33.1966 10.3894 33.3272 9.9551C33.3852 9.75243 33.4578 9.53528 33.4868 9.31813C33.5449 8.69564 33.8642 8.49296 34.5028 8.49296C35.7946 8.50744 35.5624 8.76802 35.9107 7.4217C36.0849 6.77025 36.1865 6.08985 36.4332 5.46736C36.5493 5.16335 36.8832 4.87382 37.188 4.74353C37.6234 4.55534 38.1314 4.52638 38.5958 4.43953C39.1183 4.33819 39.3361 4.51191 39.1909 5.06202C38.9151 6.14776 38.6539 7.24798 38.3491 8.49296C38.9877 8.49296 39.5247 8.50744 40.0618 8.49296C40.5407 8.47849 40.6714 8.69564 40.5407 9.12993C40.4682 9.39051 40.3811 9.63661 40.3375 9.89719C40.265 10.3749 39.9892 10.5052 39.5247 10.5197C37.7975 10.5631 37.783 10.5776 37.3766 12.2424C37.0718 13.4874 36.738 14.7179 36.5058 15.9629C36.4332 16.3393 36.6074 17.0341 36.8686 17.1355C37.246 17.2947 37.8992 17.2223 38.2475 16.9762C39.278 16.2669 39.6989 15.1667 39.8731 13.9506C40.2795 11.0698 42.1663 8.94174 44.7789 8.44954C45.432 8.33372 46.1432 8.31925 46.7963 8.40611C48.2768 8.60878 49.3218 9.57871 49.525 10.8382C49.7572 12.2424 48.988 13.7624 47.6817 14.3994C46.2738 15.0943 44.7934 15.1232 43.2839 14.8337C43.1388 14.8047 42.9936 14.7903 42.863 14.7613C42.8485 14.7613 42.8195 14.7758 42.8049 14.7903C42.5727 16.0642 43.2404 17.121 44.4596 17.4105C46.7818 17.9606 49.6556 16.209 50.2797 13.8493C50.6861 12.3293 51.078 10.8237 51.4264 9.28918C51.557 8.72459 51.8328 8.52192 52.3843 8.56535C52.7472 8.5943 53.11 8.56535 53.4729 8.56535C54.2421 8.57982 54.3002 8.65221 54.1115 9.41946C54.0679 9.62214 54.0244 9.83929 53.9373 10.2302C54.2276 9.92614 54.4018 9.73795 54.5759 9.56423C55.2581 8.88383 56.0419 8.37715 57.0434 8.33372C58.6835 8.27582 59.6559 9.21679 59.6124 10.8382C59.5979 11.3159 59.4963 11.7936 59.4382 12.2858C59.9462 12.7056 60.0913 12.3293 60.28 11.9239C61.4266 9.40499 63.4586 8.18896 66.1728 8.33372C67.7403 8.42058 69.0321 9.36156 69.2933 10.5921C69.6126 12.1121 68.8434 13.7045 67.421 14.3994C66.3324 14.935 65.1568 15.0653 63.9521 14.9495C63.5022 14.9061 63.0522 14.8337 62.6023 14.7903C62.3846 16.0208 63.0087 17.121 64.1553 17.3671C65.926 17.758 67.4936 17.2223 68.9014 16.1366C69.003 16.0497 69.0756 15.905 69.1482 15.7892C69.6417 14.8337 70.2948 14.5152 71.0495 14.8482C71.7027 15.1377 71.8188 15.6733 71.4559 16.7157C72.3413 17.6132 74.025 17.9462 75.1571 17.454C75.9844 17.092 76.1005 16.1945 75.3457 15.6878C74.9974 15.4562 74.562 15.3259 74.1556 15.1522C73.4589 14.8771 72.7332 14.66 72.0801 14.3125C69.9174 13.1399 69.8158 10.2302 71.9639 9.01412C72.8638 8.49296 73.9959 8.36268 75.0555 8.04419C74.9248 7.58094 74.6926 6.95845 74.562 6.32148C74.083 3.93285 75.3603 1.50078 77.5519 0.530852C80.0338 -0.554891 82.9367 0.0676016 84.4026 2.00746C85.3605 3.2814 85.4621 4.71458 85.1138 6.20567C84.9541 6.9295 84.78 7.65332 84.5768 8.49296C85.2444 8.49296 85.8395 8.50744 86.4346 8.49296C86.9281 8.47849 87.1168 8.66668 86.9281 9.15889C86.899 9.23127 86.899 9.30365 86.8845 9.37603C86.5942 10.5197 86.5942 10.5197 85.3896 10.5197C84.0397 10.5197 84.0397 10.5197 83.7204 11.8226C83.4011 13.111 83.0528 14.3849 82.7625 15.6878C82.6319 16.2669 82.4867 16.9183 83.2124 17.2658C83.7785 17.5408 84.5768 17.1934 84.9977 16.513C85.0557 16.4116 85.1138 16.2958 85.1718 16.1945C85.5637 15.3404 85.7234 15.268 86.7104 15.572C86.4926 17.9172 84.1413 19.8136 81.8336 19.4952C80.3967 19.2925 79.5839 18.1633 79.8887 16.6577C80.237 14.964 80.6724 13.2847 81.0788 11.591C81.1514 11.2725 81.2385 10.954 81.3256 10.5342C80.8176 10.5342 80.4112 10.5342 80.0048 10.5342C79.6274 10.5342 79.4678 10.346 79.5549 9.98405C79.5984 9.79586 79.671 9.60766 79.6855 9.41946C79.7581 8.69564 80.1354 8.39163 80.8466 8.52192C81.6739 8.68116 82.0223 8.29029 82.1529 7.52303C82.2835 6.77025 82.5303 6.03195 82.6609 5.26469C82.9657 3.49855 82.2835 2.1667 80.9047 1.71793C79.221 1.1823 77.3632 1.90613 76.6085 3.38274C75.7957 4.97516 76.0569 7.13217 77.2471 8.46401C77.5664 8.82593 77.9438 9.14441 78.2631 9.49185C78.8872 10.1722 78.9453 11.0264 78.3937 11.4751C77.8422 11.9384 76.9278 11.7357 76.3763 11.0119C75.7812 10.2302 74.6345 9.92614 73.7056 10.317C72.9654 10.6355 72.7912 11.5041 73.4299 12.0108C73.7492 12.2569 74.1411 12.4161 74.5184 12.5754C75.2587 12.8794 76.0279 13.111 76.7391 13.4729C78.9162 14.5731 79.0759 17.2513 77.0439 18.641C75.7521 19.5241 74.2862 19.6399 72.7912 19.4517C71.4414 19.307 70.2368 18.7858 69.3224 17.6422ZM42.9501 13.2992C43.9225 13.5453 44.9095 13.719 45.8674 13.1834C46.6222 12.7636 46.9415 11.7791 46.5786 11.0698C46.2883 10.4763 45.5046 10.2736 44.6773 10.5776C43.7048 10.9395 42.9356 12.1266 42.9501 13.2992ZM62.6749 13.2268C63.7344 13.6032 64.823 13.6177 65.5051 13.2847C66.376 12.8649 66.7824 11.8081 66.3615 11.0408C66.0131 10.4039 65.0697 10.2302 64.2279 10.7079C63.2845 11.258 62.8926 12.17 62.6749 13.2268Z" fill="var(--fill-0, #181818)"/>
<path id="Vector_3" d="M18.5519 6.29253C18.5664 5.22126 19.5533 4.28029 20.6274 4.32372C21.4111 4.35267 21.9917 4.93173 21.9772 5.71347C21.9627 6.77026 20.9757 7.75466 19.9307 7.74019C19.1179 7.71123 18.5373 7.11769 18.5519 6.29253Z" fill="var(--fill-0, #181818)"/>
</g>
</svg>
