<svg width="74" height="25" viewBox="0 0 74 25" fill="none" xmlns="http://www.w3.org/2000/svg">
<path d="M9.04953 0C9.113 0 9.17274 0 9.23622 0C9.46024 0 9.68799 0 9.91201 0C9.99789 0 10.0875 0 10.1734 0C10.2817 0.00367873 10.3899 0.00735746 10.4945 0.00735746C10.5579 0.040466 10.6289 0.00735746 10.6924 0.0331086C11.5586 0.14347 12.4061 0.331086 13.2089 0.669529C13.9892 1.00061 14.7173 1.42367 15.3781 1.95341C15.5835 2.11895 15.7926 2.28449 15.9793 2.46843C16.0465 2.53097 16.0539 2.56775 15.983 2.63765C15.4267 3.17842 14.8704 3.72655 14.3178 4.27468C14.258 4.33354 14.2244 4.34458 14.1535 4.28204C13.4553 3.6493 12.6525 3.17474 11.749 2.86941C11.3607 2.74065 10.9612 2.63397 10.543 2.61558C10.4683 2.6119 10.4086 2.55304 10.3302 2.57879C10.2443 2.53832 10.151 2.58247 10.0614 2.54936C9.76267 2.52729 9.46024 2.52729 9.16154 2.54936C9.07567 2.58247 8.97859 2.53832 8.89272 2.57879C8.26546 2.63397 7.65687 2.76641 7.07441 2.99817C6.2194 3.34029 5.45025 3.81852 4.80433 4.46966C3.86344 5.41509 3.24738 6.53343 2.96735 7.83202C2.90388 8.12264 2.8404 8.41326 2.85161 8.71491C2.81054 8.82527 2.85907 8.94299 2.82547 9.05336C2.82547 9.21522 2.82547 9.37341 2.82547 9.53527C2.85907 9.64563 2.81054 9.76335 2.85534 9.87371C2.86654 10.5506 3.04576 11.1944 3.29218 11.8198C3.65062 12.7321 4.18453 13.534 4.9014 14.2109C5.85723 15.1085 6.9848 15.6971 8.28786 15.9399C8.48948 15.9767 8.68736 16.0245 8.89272 16.0135C8.96739 16.0466 9.04953 16.0135 9.12794 16.0393C9.46397 16.0613 9.80374 16.065 10.1398 16.0393C10.2144 16.0098 10.2966 16.0466 10.375 16.0135C11.118 15.9804 11.8199 15.7854 12.492 15.4838C13.1379 15.1968 13.7054 14.7959 14.2207 14.3213C14.833 13.7548 15.2437 13.0632 15.4864 12.2722C15.5984 11.9044 15.688 11.5365 15.7403 11.1576C15.7664 11.1098 15.7552 11.073 15.6992 11.0619C15.6432 11.0509 15.5872 11.0583 15.5312 11.0583C13.6084 11.0583 11.6893 11.0583 9.7664 11.0546C9.70666 11.0546 9.62825 11.0951 9.57972 11.0215C9.58345 10.2563 9.59465 9.49112 9.58345 8.72595C9.57972 8.53098 9.63946 8.49787 9.82241 8.49787C12.5779 8.50523 15.3333 8.50155 18.0888 8.49787C18.2381 8.49787 18.3315 8.50523 18.324 8.69652C18.3203 8.85103 18.3688 9.00921 18.395 9.16372C18.4211 9.23729 18.3875 9.31822 18.4211 9.3918C18.4248 9.56102 18.4286 9.73024 18.4323 9.89579C18.451 10.0061 18.451 10.1128 18.4323 10.2232C18.4286 10.3777 18.4248 10.5359 18.4211 10.6904C18.3838 10.764 18.4248 10.8449 18.395 10.9222C18.2717 12.0515 18.0179 13.1478 17.4989 14.1705C17.0396 15.0791 16.3974 15.8406 15.6208 16.5065C15.0458 16.9994 14.426 17.4225 13.739 17.7499C13.1043 18.0515 12.436 18.2575 11.7453 18.401C11.4204 18.4672 11.0993 18.5187 10.7708 18.5482C10.7073 18.5739 10.6364 18.5408 10.5766 18.5739C10.4795 18.5776 10.3825 18.5813 10.2854 18.5849C10.0987 18.6181 9.90455 18.5702 9.71786 18.6107C9.60212 18.6107 9.48264 18.6107 9.3669 18.6107C9.23995 18.5702 9.10927 18.6181 8.98606 18.5849C8.91139 18.5813 8.84045 18.5776 8.76577 18.5776C8.70603 18.5408 8.63509 18.5776 8.57535 18.5518C7.81741 18.4856 7.08188 18.3164 6.36501 18.0626C5.32704 17.691 4.37869 17.1686 3.5162 16.4881C2.58278 15.7523 1.82857 14.8584 1.22745 13.8467C0.727136 13.0117 0.391104 12.103 0.17455 11.1576C0.10361 10.8559 0.0886751 10.5396 0.0476046 10.2342C0.0214687 10.1717 0.0550719 10.1018 0.0214687 10.0429C0.017735 9.95832 0.0140013 9.87739 0.0140013 9.79278C-0.00466711 9.4617 -0.00466711 9.13429 0.0140013 8.8032C0.129746 7.12202 0.637528 5.57328 1.61202 4.1864C3.13163 2.01594 5.20383 0.66585 7.83235 0.150828C8.23185 0.0698959 8.63883 0.0294298 9.04953 0Z" fill="#4F5052"/>
<path d="M59.0807 0.669922C59.9394 0.669922 60.7981 0.669922 61.6569 0.669922C61.6905 0.73246 61.6718 0.802356 61.6718 0.868573C61.6718 6.60004 61.6718 12.3315 61.6718 18.0593C61.6718 18.1218 61.7017 18.1954 61.642 18.2506C60.7907 18.2506 59.9394 18.2506 59.0881 18.2506C59.0284 18.1954 59.0582 18.1218 59.0582 18.0593C59.0582 12.3278 59.0582 6.59636 59.0582 0.868573C59.0657 0.802356 59.0508 0.73246 59.0807 0.669922Z" fill="#4F5052"/>
<path d="M57.341 6.97438C56.5831 6.97805 55.8214 6.97805 55.0635 6.97805C55.0224 6.97805 54.9739 6.96334 54.9403 7.00381C54.9403 7.25396 54.9477 7.50411 54.944 7.75427C54.944 7.82048 54.9925 7.91613 54.8992 7.94556C54.8171 7.97131 54.7723 7.87934 54.7275 7.82784C54.5221 7.60712 54.2869 7.42318 54.0292 7.265C53.3945 6.87505 52.6926 6.69111 51.9533 6.62122C51.7442 6.60282 51.5314 6.60282 51.3223 6.62122C50.5681 6.68008 49.8438 6.86401 49.1642 7.19878C48.3876 7.58137 47.7268 8.11846 47.1779 8.78063C46.8344 9.19633 46.5544 9.65249 46.3341 10.1418C46.0317 10.8113 45.845 11.5176 45.8226 12.257C45.8039 12.5145 45.8039 12.7684 45.8226 13.0259C45.8413 13.3386 45.8823 13.6439 45.9495 13.9493C46.2034 15.0933 46.7672 16.0682 47.5886 16.9033C48.0628 17.3852 48.6191 17.7751 49.2352 18.0658C49.8587 18.3564 50.5121 18.5587 51.2066 18.5918C51.3186 18.6249 51.4381 18.5771 51.5501 18.6176C51.6061 18.6176 51.6621 18.6176 51.7144 18.6176C51.8264 18.5771 51.9458 18.6212 52.0579 18.5918C52.603 18.555 53.122 18.4079 53.6148 18.1798C54.0554 17.9738 54.4362 17.6868 54.7685 17.3337C54.8059 17.2969 54.8395 17.2344 54.9067 17.2638C54.9664 17.2895 54.9403 17.3484 54.9403 17.3962C54.9365 17.7457 54.9328 18.0952 54.9291 18.4447C54.8955 18.5293 54.9403 18.6249 54.8992 18.7095C54.8693 19.0369 54.8059 19.3607 54.6901 19.666C54.4922 20.1847 54.2122 20.6519 53.7492 20.994C53.3124 21.3141 52.8345 21.5238 52.2893 21.5753C52.2296 21.6121 52.1587 21.5753 52.0989 21.6047C51.3634 21.6783 50.6689 21.5679 50.0379 21.1706C49.4368 20.7917 48.9962 20.2803 48.6901 19.6476C48.6527 19.5667 48.6303 19.4821 48.4885 19.5446C47.7903 19.8426 47.0846 20.1258 46.3789 20.4128C46.293 20.4459 46.2669 20.4753 46.3154 20.5673C46.756 21.4244 47.2974 22.197 48.0852 22.7929C48.4959 23.1056 48.929 23.3668 49.3995 23.5581C49.9633 23.7899 50.5494 23.9444 51.1618 23.9738C51.2514 24.0032 51.3447 23.9628 51.4306 23.9995C51.6098 23.9995 51.789 23.9995 51.9683 23.9995C52.0691 23.9591 52.1736 24.0032 52.2744 23.9738C52.3342 23.9701 52.3939 23.9664 52.4536 23.9628C52.5134 23.926 52.5843 23.9628 52.6478 23.9333C52.7113 23.9296 52.7747 23.937 52.8307 23.9223C53.3124 23.8046 53.794 23.6979 54.257 23.5029C55.3248 23.0468 56.1238 22.3147 56.6802 21.3104C57.1282 20.4974 57.3298 19.6108 57.4381 18.6985C57.4642 18.636 57.4306 18.5661 57.4642 18.5072C57.468 18.4005 57.4717 18.2938 57.4754 18.1835C57.4829 18.1614 57.4866 18.1356 57.4866 18.1099C57.4866 14.4496 57.4866 10.7929 57.4904 7.13256C57.4978 7.00381 57.4605 6.97438 57.341 6.97438ZM54.1189 15.2957C52.9763 16.4655 51.1095 16.5648 49.84 15.5274C49.0074 14.8469 48.5818 13.964 48.5146 12.9118C48.4436 11.8229 48.7274 10.8407 49.4891 10.0351C51.158 8.27297 53.906 8.78431 54.8283 11.021C55.0411 11.5397 55.1419 12.0768 55.1382 12.6359C55.1232 13.6439 54.8432 14.5562 54.1189 15.2957Z" fill="#4F5052"/>
<path d="M44.8557 13.0882C44.8557 12.7682 44.8557 12.4444 44.8557 12.1244C44.8258 12.0618 44.8557 11.9919 44.8295 11.9257C44.7623 11.5247 44.6951 11.1274 44.5719 10.7375C44.3143 9.94657 43.911 9.24025 43.3547 8.61119C42.832 8.02259 42.2122 7.57378 41.5103 7.22798C40.7561 6.86011 39.9458 6.67985 39.1095 6.61731C38.8743 6.59892 38.6391 6.59892 38.4038 6.61731C38.318 6.62099 38.2358 6.62467 38.1499 6.62835C38.0865 6.66146 38.0155 6.62835 37.9521 6.65778C37.224 6.7571 36.5183 6.94472 35.8612 7.2758C35.1891 7.61425 34.5992 8.05938 34.1026 8.6259C33.6956 9.0931 33.3633 9.60812 33.1206 10.1636C32.8817 10.7081 32.7137 11.2856 32.6763 11.8853C32.6502 11.9478 32.6838 12.0177 32.6502 12.0766C32.6465 12.1832 32.6427 12.2899 32.639 12.4003C32.6203 12.5474 32.6203 12.6946 32.639 12.8381C32.6651 13.125 32.6726 13.4119 32.7249 13.6989C32.8182 14.2029 32.9564 14.6921 33.1804 15.1557C33.438 15.6928 33.7628 16.182 34.1623 16.6345C34.6067 17.1385 35.1294 17.5358 35.7118 17.8522C36.4847 18.2752 37.3211 18.5254 38.2097 18.5806C38.3217 18.6137 38.4449 18.5695 38.5569 18.6063C38.6839 18.6063 38.8145 18.6063 38.9415 18.6063C39.0535 18.5658 39.1767 18.6137 39.2887 18.5806C39.4082 18.5511 39.5314 18.5585 39.6509 18.5401C40.4424 18.4187 41.1892 18.1685 41.8836 17.7676C42.5221 17.3997 43.0747 16.9362 43.5377 16.3696C44.2769 15.461 44.6764 14.4199 44.8221 13.2721C44.8519 13.2206 44.8221 13.1507 44.8557 13.0882ZM41.2601 15.1189C39.5538 16.9877 36.5556 16.4395 35.5998 14.0888C35.4019 13.6069 35.3161 13.1029 35.3198 12.4886C35.3385 11.4475 35.723 10.4689 36.6229 9.7332C38.0865 8.53761 40.2221 8.78041 41.402 10.2593C42.4997 11.6425 42.4362 13.8313 41.2601 15.1189Z" fill="#4F5052"/>
<path d="M31.6834 12.4775C31.6797 12.3598 31.676 12.2384 31.6722 12.1207C31.6349 12.0471 31.676 11.9625 31.6461 11.8889C31.6125 11.6976 31.5826 11.5063 31.5415 11.3151C31.3175 10.296 30.8695 9.3874 30.1601 8.60015C29.6075 7.98948 28.9541 7.52596 28.2074 7.17648C27.6249 6.90425 27.0051 6.7571 26.3704 6.6541C26.3069 6.62467 26.236 6.65778 26.1725 6.62835C26.0903 6.62467 26.0045 6.62099 25.9223 6.61731C25.6871 6.59892 25.4519 6.59892 25.2167 6.61731C25.1345 6.62099 25.0487 6.62467 24.9665 6.62835C24.903 6.66146 24.8321 6.62835 24.7686 6.6541C24.0443 6.75342 23.3424 6.93368 22.6964 7.26477C22.0393 7.59953 21.4568 8.03362 20.9603 8.59279C20.5533 9.05263 20.221 9.54926 19.9708 10.0974C19.7132 10.6639 19.5452 11.2599 19.4967 11.8853C19.4668 11.9588 19.5041 12.0434 19.4705 12.117C19.4668 12.2347 19.463 12.3561 19.4593 12.4739C19.4406 12.5585 19.4406 12.6431 19.4593 12.7277C19.463 12.8564 19.4668 12.9889 19.4705 13.1176C19.5004 13.1802 19.4705 13.2537 19.4967 13.3163C19.5153 13.6805 19.6012 14.03 19.702 14.3758C19.8364 14.8319 20.0306 15.266 20.277 15.6743C20.5944 16.2004 20.9677 16.675 21.4419 17.0833C21.8153 17.4034 22.2036 17.6903 22.6404 17.911C23.3909 18.2936 24.1862 18.529 25.03 18.5842C25.1457 18.6173 25.2652 18.5732 25.3809 18.61C25.5079 18.61 25.6348 18.61 25.7618 18.61C25.8775 18.5732 25.997 18.6173 26.1128 18.5842C26.277 18.5658 26.4488 18.5622 26.6093 18.529C27.3374 18.3893 28.0356 18.1612 28.6815 17.7896C29.6896 17.2121 30.4625 16.4175 31.0002 15.4021C31.3474 14.7473 31.5378 14.0447 31.6423 13.3163C31.6722 13.2427 31.6349 13.1581 31.6685 13.0845C31.6722 12.9668 31.676 12.8454 31.6797 12.7277C31.7021 12.6468 31.7021 12.5621 31.6834 12.4775ZM27.9572 15.2403C26.2397 16.9877 23.3386 16.3696 22.4201 14.0851C22.3231 13.846 22.2521 13.5995 22.2036 13.3457C22.155 13.0992 22.1401 12.8491 22.1401 12.5953C22.1662 11.3702 22.5956 10.3292 23.6298 9.59708C25.534 8.25067 28.1775 9.18139 28.8309 11.4365C29.2379 12.8417 29.0176 14.1624 27.9572 15.2403Z" fill="#4F5052"/>
<path d="M73.9786 10.9805C73.9002 10.8039 73.8292 10.6237 73.7546 10.4434C73.2543 9.20736 72.5001 8.16628 71.3613 7.4195C70.6183 6.93391 69.7857 6.69479 68.9008 6.62122C68.6543 6.60282 68.4042 6.60282 68.1578 6.62122C67.2579 6.69847 66.4067 6.92655 65.6189 7.37904C64.7377 7.88302 64.0656 8.59302 63.5765 9.45384C63.1808 10.1491 62.9269 10.9033 62.8485 11.7052C62.8186 11.7678 62.8522 11.8377 62.8186 11.9002C62.8149 11.9701 62.8111 12.04 62.8074 12.1099C62.7738 12.2717 62.8223 12.441 62.7812 12.6028V12.6065C62.8223 12.7573 62.7738 12.9118 62.8074 13.0627C62.8111 13.1326 62.8149 13.2061 62.8186 13.276C62.8559 13.3349 62.8186 13.4085 62.8485 13.4673C62.8559 13.5372 62.8559 13.6108 62.8709 13.6807C62.9343 13.9934 63.0202 14.3024 63.1173 14.6077C63.2442 15.0198 63.4309 15.406 63.6512 15.7702C63.976 16.3036 64.3681 16.7855 64.8572 17.1902C65.182 17.4588 65.5218 17.7052 65.8952 17.9002C66.6606 18.3049 67.4782 18.5366 68.3445 18.5881C68.4826 18.6212 68.6282 18.5734 68.7701 18.6139C68.8336 18.5955 68.9008 18.5955 68.9642 18.6139C69.0912 18.5734 69.2256 18.6212 69.3525 18.5881C70.0657 18.5219 70.7601 18.3711 71.4098 18.0621C72.347 17.6206 73.1198 16.9805 73.7508 16.1712C73.9189 15.9578 73.9189 15.9578 73.6836 15.8033C73.6426 15.7776 73.6015 15.7481 73.5642 15.7224C73.034 15.3692 72.5001 15.0198 71.9661 14.6703C71.9027 14.6298 71.8355 14.5526 71.7533 14.674C71.492 15.0492 71.1821 15.3766 70.7975 15.6341C70.3644 15.9284 69.8977 16.1491 69.3638 16.1933C69.304 16.2264 69.2293 16.1933 69.1696 16.2227C68.9456 16.2485 68.7216 16.2448 68.4938 16.2227C68.4303 16.1933 68.3594 16.2301 68.2996 16.1933C68.2362 16.1933 68.1727 16.2006 68.113 16.1859C67.131 15.9726 66.4216 15.4134 65.9512 14.5452C65.9026 14.4569 65.9026 14.4128 66.0109 14.3686C66.683 14.0964 67.3513 13.8168 68.0234 13.5446C68.9194 13.1804 69.823 12.8236 70.7191 12.4594C71.3538 12.2055 71.9848 11.9443 72.6158 11.6868C73.0452 11.5103 73.4708 11.3337 73.9039 11.1608C74.0047 11.1277 74.0197 11.0762 73.9786 10.9805ZM70.383 10.4066C68.7962 11.0651 67.2019 11.7126 65.6114 12.3637C65.4732 12.4189 65.4471 12.3931 65.4471 12.2534C65.4583 10.5942 66.6046 9.24415 68.2511 8.96089C68.3855 8.93882 68.5237 8.93882 68.6021 8.93146C69.3003 8.93882 69.8827 9.10804 70.383 9.52006C70.4316 9.56052 70.4764 9.60099 70.5212 9.64513C70.6668 9.79228 70.8572 9.9615 70.846 10.1418C70.8311 10.3441 70.5473 10.3367 70.383 10.4066Z" fill="#4F5052"/>
</svg>
