<svg width="90" height="19" viewBox="0 0 90 19" fill="none" xmlns="http://www.w3.org/2000/svg">
<path d="M89.9997 12.1686C89.9469 12.4505 89.9118 12.7358 89.8415 13.0144C89.4301 14.6347 88.3366 15.5654 86.6631 15.861C85.429 16.0784 84.1879 16.0614 82.9854 15.664C81.7127 15.2427 80.8935 14.4139 80.6333 13.1129C80.6263 13.0789 80.6192 13.045 80.6157 13.0144C80.6157 12.9974 80.6192 12.9838 80.6263 12.9532C80.686 12.9532 80.7423 12.9532 80.7985 12.9532C81.7584 12.9532 82.7217 12.9532 83.6816 12.9532C83.7941 12.9532 83.8679 12.9702 83.9207 13.0891C84.0472 13.3609 84.2828 13.5307 84.5676 13.6258C84.9192 13.7447 85.2778 13.7549 85.6399 13.6836C86.1357 13.5851 86.4451 13.2929 86.5822 12.8276C86.7123 12.3792 86.6666 11.9206 86.6736 11.4348C86.6138 11.4688 86.5752 11.4824 86.5541 11.5062C85.538 12.5898 84.2898 12.7019 82.9538 12.2467C81.7513 11.8391 81.013 10.9593 80.6755 9.79415C80.2114 8.19083 80.3415 6.62147 81.1818 5.14723C81.6845 4.26404 82.4334 3.63901 83.4847 3.46577C84.7539 3.25517 85.8755 3.51333 86.6631 4.60033C86.6771 4.61731 86.6912 4.6377 86.7053 4.65128C86.7123 4.65808 86.7264 4.65808 86.765 4.66827C86.765 4.33877 86.765 4.01946 86.765 3.68997C86.8283 3.67978 86.867 3.66619 86.9057 3.66619C87.9147 3.66619 88.9203 3.66619 89.9293 3.66619C89.954 3.66619 89.9751 3.67298 89.9997 3.67638C89.9997 6.50598 89.9997 9.33897 89.9997 12.1686ZM86.8143 7.8919C86.8178 7.53863 86.7475 7.10383 86.5365 6.703C86.2763 6.20705 85.879 5.88775 85.2813 5.89114C84.6485 5.89454 84.2371 6.22743 83.9839 6.77093C83.8117 7.1378 83.7589 7.53183 83.7554 7.92927C83.7519 8.44899 83.8257 8.95512 84.1105 9.41031C84.6801 10.3207 85.8755 10.3241 86.4486 9.4137C86.7264 8.97551 86.8143 8.48975 86.8143 7.8919Z" fill="#4F5052"/>
<path d="M0 12.9158C0 8.60514 0 4.31488 0 0.0144367C0.0421908 0.00764297 0.0843817 0.000849219 0.123057 0.000849219C2.40839 0.0042461 4.69373 -0.00934141 6.97907 0.0144367C7.9143 0.0246274 8.8003 0.265806 9.54216 0.850068C10.1856 1.3562 10.5301 2.03218 10.6426 2.81686C10.7305 3.4249 10.6954 4.02615 10.4457 4.60022C10.2172 5.13013 9.80585 5.49699 9.29253 5.76535C9.23276 5.79592 9.16947 5.82989 9.08861 5.87065C9.13432 5.90122 9.15893 5.93179 9.19057 5.94538C10.4809 6.42095 11.1419 7.35169 11.2825 8.6493C11.381 9.56306 11.2017 10.4293 10.7024 11.2207C10.1223 12.1413 9.23979 12.6338 8.16041 12.8037C7.68928 12.8784 7.2076 12.909 6.72944 12.9124C4.56013 12.9226 2.39433 12.9158 0.225018 12.9158C0.1547 12.9158 0.0843817 12.9158 0 12.9158ZM3.66709 10.0964C4.21205 10.0964 4.73944 10.1032 5.26682 10.093C5.69225 10.0828 6.11767 10.0726 6.53958 10.025C6.9861 9.97408 7.32011 9.74309 7.51348 9.33886C7.63654 9.0773 7.6506 8.80215 7.61896 8.52361C7.55919 8.03106 7.2955 7.67779 6.79976 7.52493C6.62396 7.47058 6.4341 7.4468 6.24776 7.4468C5.4391 7.44001 4.63396 7.4434 3.8253 7.4434C3.77608 7.4434 3.72334 7.4502 3.66709 7.4536C3.66709 8.33339 3.66709 9.20299 3.66709 10.0964ZM3.63193 5.00445C3.71631 5.00445 3.7796 5.00445 3.84288 5.00445C4.47574 5.00445 5.10861 5.00445 5.74147 5.00445C5.79421 5.00445 5.84695 5.00105 5.89969 5.01124C6.38488 5.10296 6.90875 4.83121 7.05642 4.37603C7.12322 4.17561 7.13728 3.95481 7.12674 3.74421C7.10916 3.37395 6.9193 3.07502 6.55716 2.93575C6.33917 2.85083 6.09658 2.80327 5.86101 2.79988C5.17189 2.78289 4.47926 2.79308 3.79014 2.79308C3.74092 2.79308 3.68818 2.79988 3.63193 2.80327C3.63193 3.537 3.63193 4.26053 3.63193 5.00445Z" fill="#4F5052"/>
<path d="M45.7937 5.04932C45.8816 4.92704 45.9378 4.84551 45.9976 4.76398C46.6937 3.80607 47.6641 3.40863 48.8525 3.43241C49.7209 3.44939 50.4909 3.68038 51.0851 4.32239C51.5351 4.80814 51.7742 5.3992 51.8727 6.03442C51.9359 6.44544 51.9711 6.86665 51.9746 7.28447C51.9852 9.0916 51.9781 10.8953 51.9781 12.7025C51.9781 12.7704 51.9781 12.835 51.9781 12.9097C50.8495 12.9097 49.7385 12.9097 48.6134 12.9097C48.6134 12.835 48.6134 12.767 48.6134 12.7025C48.6134 11.0482 48.6204 9.39732 48.6099 7.74304C48.6064 7.45091 48.5712 7.15539 48.4939 6.87344C48.3778 6.45903 48.0755 6.21445 47.6254 6.17029C47.1965 6.12613 46.8379 6.25182 46.5777 6.5949C46.3105 6.94818 46.2226 7.3558 46.2226 7.78041C46.2156 9.4211 46.2191 11.0652 46.2191 12.7059C46.2191 12.767 46.2191 12.8282 46.2191 12.9063C45.101 12.9063 43.9935 12.9063 42.8544 12.9063C42.8544 12.8452 42.8544 12.7806 42.8544 12.7161C42.8544 11.0754 42.8614 9.43129 42.8509 7.7906C42.8473 7.48828 42.8122 7.17916 42.7383 6.88703C42.6293 6.47261 42.334 6.22464 41.8805 6.17369C41.4445 6.12613 41.0824 6.25182 40.8187 6.5983C40.5409 6.96516 40.4636 7.39656 40.46 7.83476C40.453 9.45847 40.4565 11.0856 40.4565 12.7093C40.4565 12.7704 40.4565 12.8316 40.4565 12.9063C39.3033 12.9063 38.1571 12.9063 37.0039 12.9063C37.0039 9.84571 37.0039 6.78513 37.0039 3.71435C38.0692 3.71435 39.1275 3.71435 40.2069 3.71435C40.2069 4.16274 40.2069 4.61113 40.2069 5.05951C40.221 5.06631 40.2385 5.0731 40.2526 5.07989C40.2948 5.02894 40.3405 4.97799 40.3757 4.92364C40.8187 4.22728 41.4164 3.72114 42.2602 3.53092C42.8227 3.40523 43.3853 3.38825 43.9478 3.51393C44.7424 3.69397 45.3155 4.15255 45.6882 4.8523C45.7163 4.90665 45.7444 4.95761 45.7937 5.04932Z" fill="#4F5052"/>
<path d="M52.9629 0.0078125C54.0774 0.0078125 55.1849 0.0078125 56.31 0.0078125C56.31 1.5466 56.31 3.08199 56.31 4.66493C56.3768 4.61058 56.4155 4.5902 56.4401 4.55963C57.1328 3.7206 58.0574 3.38091 59.1439 3.40129C60.7084 3.43186 61.7316 4.23013 62.3609 5.55831C62.8145 6.51283 62.934 7.53189 62.9024 8.57134C62.8742 9.47151 62.7195 10.3445 62.3257 11.1699C61.3378 13.2318 59.0278 13.5478 57.6285 12.9805C57.0554 12.7495 56.6054 12.3724 56.2854 11.8561C56.2608 11.8187 56.2362 11.7814 56.187 11.6999C56.187 12.1279 56.187 12.5083 56.187 12.9057C55.1006 12.9057 54.0388 12.9057 52.9629 12.9057C52.9629 8.61549 52.9629 4.32184 52.9629 0.0078125ZM59.4497 8.23844C59.4322 7.65078 59.3759 7.05633 59.0665 6.51283C58.7466 5.95234 58.2543 5.71117 57.6074 5.81647C57.0835 5.90139 56.7319 6.2241 56.5315 6.67588C56.0815 7.67796 56.092 8.69362 56.4929 9.70929C56.6194 10.0252 56.8269 10.2902 57.1257 10.4804C57.6777 10.8337 58.6657 10.8371 59.1298 9.86894C59.3794 9.35941 59.4357 8.80912 59.4497 8.23844Z" fill="#4F5052"/>
<path d="M73.0598 9.18671C70.9151 9.18671 68.7915 9.18671 66.6679 9.18671C66.6187 10.3315 67.6418 11.1501 68.7669 10.8818C69.1747 10.7832 69.4595 10.5455 69.6353 10.1786C69.6599 10.131 69.7267 10.0699 69.7759 10.0699C70.8061 10.0631 71.8363 10.0665 72.8699 10.0665C72.8805 10.0665 72.891 10.0733 72.9227 10.0801C72.9051 10.1548 72.8875 10.2296 72.8629 10.3009C72.3425 11.8974 71.1964 12.8078 69.5193 13.1135C68.3696 13.3241 67.2339 13.2664 66.144 12.818C64.6533 12.2031 63.7708 11.0924 63.4297 9.58075C63.152 8.34429 63.2399 7.12481 63.8095 5.96987C64.4951 4.57715 65.6553 3.7619 67.2234 3.51053C68.345 3.3305 69.4419 3.42221 70.4721 3.93174C71.6429 4.51261 72.3496 5.46373 72.7398 6.65604C72.993 7.43053 73.0738 8.22539 73.0774 9.03045C73.0703 9.07801 73.0633 9.12217 73.0598 9.18671ZM69.7021 7.32522C69.6775 6.27219 68.9884 5.58263 68.0567 5.65736C67.2375 5.7219 66.5554 6.54054 66.6749 7.32522C67.6769 7.32522 68.686 7.32522 69.7021 7.32522Z" fill="#4F5052"/>
<path d="M16.0254 8.34603C16.05 7.41189 16.2363 6.52191 16.7145 5.70326C17.3298 4.64683 18.265 3.97765 19.4639 3.66174C20.5925 3.36621 21.7247 3.3764 22.8392 3.72628C24.1647 4.1441 25.114 4.98313 25.6062 6.23997C26.218 7.79574 26.1863 9.3583 25.4129 10.8597C24.7659 12.12 23.6584 12.8367 22.2485 13.1051C21.1059 13.3225 19.9738 13.2647 18.8873 12.8231C17.365 12.2083 16.5 11.0703 16.1766 9.53154C16.0922 9.1477 16.0711 8.74347 16.0254 8.34603ZM22.5509 8.34264C22.5333 8.07768 22.5263 7.80933 22.4947 7.54777C22.4349 7.09598 22.3259 6.65778 22.0552 6.27394C21.5172 5.51304 20.3921 5.53002 19.8929 6.3147C19.7909 6.47775 19.7065 6.65439 19.6503 6.83782C19.4147 7.58174 19.4077 8.34264 19.4921 9.10693C19.5413 9.56551 19.6468 10.0105 19.9034 10.4079C20.2585 10.9582 20.9301 11.1519 21.5278 10.8699C21.8899 10.7001 22.1079 10.4045 22.2591 10.0547C22.4876 9.50776 22.5404 8.93029 22.5509 8.34264Z" fill="#4F5052"/>
<path d="M31.3694 3.4375C32.1499 3.45788 32.8988 3.58357 33.6125 3.88589C34.6743 4.34107 35.4373 5.08838 35.8697 6.12443C36.4569 7.54093 36.4815 8.9846 35.9225 10.4113C35.3283 11.9195 34.1575 12.7959 32.5367 13.1118C31.4292 13.3258 30.3322 13.2715 29.2774 12.857C27.7304 12.2524 26.8374 11.111 26.5104 9.55188C26.2748 8.42751 26.3346 7.30994 26.7847 6.23653C27.4034 4.76228 28.5602 3.90287 30.1529 3.58017C30.5537 3.50204 30.9651 3.48166 31.3694 3.4375ZM32.8847 8.35618C32.8672 8.09122 32.8601 7.82287 32.8285 7.56131C32.7722 7.10952 32.6632 6.67133 32.3925 6.28748C32.0901 5.86287 31.6718 5.67604 31.1373 5.73718C30.5678 5.80173 30.2548 6.16179 30.0509 6.63736C29.8681 7.06536 29.8083 7.52054 29.7837 7.97912C29.7486 8.68907 29.7837 9.39562 30.0509 10.0682C30.2162 10.4792 30.4693 10.8155 30.9334 10.948C31.5557 11.128 32.178 10.8427 32.5015 10.2211C32.8144 9.6334 32.8742 8.99819 32.8847 8.35618Z" fill="#4F5052"/>
<path d="M11.9043 0.0117188C13.0575 0.0117188 14.1967 0.0117188 15.3464 0.0117188C15.3464 4.32575 15.3464 8.62959 15.3464 12.9436C14.2002 12.9436 13.061 12.9436 11.9043 12.9436C11.9043 8.63639 11.9043 4.33255 11.9043 0.0117188Z" fill="#4F5052"/>
<path d="M77.0538 12.9421C75.9146 12.9421 74.7966 12.9421 73.668 12.9421C73.668 9.86792 73.668 6.79715 73.668 3.71278C74.7298 3.71278 75.7916 3.71278 76.878 3.71278C76.878 4.22911 76.878 4.74204 76.878 5.25836C76.8956 5.26516 76.9096 5.26855 76.9272 5.27535C76.9624 5.22439 77.001 5.17684 77.0292 5.12249C77.3104 4.65032 77.648 4.22911 78.1226 3.92339C78.6922 3.55653 79.3286 3.45123 80.0001 3.50897C80.2427 3.52935 80.2603 3.56332 80.2603 3.79091C80.2603 4.59937 80.2603 5.41122 80.2603 6.21968C80.2603 6.28082 80.2603 6.34197 80.2603 6.42349C80.0739 6.40311 79.9017 6.37933 79.7294 6.36575C78.9699 6.31139 78.2668 6.42689 77.7148 6.99417C77.328 7.395 77.1628 7.89094 77.096 8.42425C77.0643 8.68241 77.0573 8.94397 77.0538 9.20214C77.0503 10.3741 77.0503 11.546 77.0503 12.7179C77.0538 12.7892 77.0538 12.8572 77.0538 12.9421Z" fill="#4F5052"/>
</svg>
