<svg preserveAspectRatio="none" width="100%" height="100%" overflow="visible" style="display: block;" viewBox="0 0 48 48" fill="none" xmlns="http://www.w3.org/2000/svg">
<g id="Icon / World">
<path id="Vector" d="M31.5 6V12C31.5 13.5913 30.8679 15.1174 29.7426 16.2426C28.6174 17.3679 27.0913 18 25.5 18C24.7044 18 23.9414 18.3161 23.3787 18.8787C22.8161 19.4414 22.5 20.2044 22.5 21C22.5 21.7956 22.1839 22.5586 21.6213 23.1213C21.0586 23.6839 20.2956 24 19.5 24H13.5C12.7044 24 11.9413 23.6839 11.3787 23.1213C10.8161 22.5586 10.5 21.7956 10.5 21V9.93C13.8828 6.65862 18.3396 4.72875 23.04 4.5H24H24.96C27.2116 4.60816 29.4262 5.11608 31.5 6Z" stroke="var(--stroke-0, #9FA0A2)" stroke-width="1.96875" stroke-linecap="round" stroke-linejoin="round"/>
<path id="Vector_2" d="M33.69 40.92C31.0287 42.4668 28.0347 43.3517 24.96 43.5H24H23.055C22.3659 43.4595 21.6798 43.3794 21 43.26V39C21 38.2044 21.316 37.4414 21.8787 36.8787C22.4413 36.3161 23.2044 36 24 36C25.8883 35.9999 27.7501 36.4454 29.4339 37.3002C31.1176 38.1551 32.5758 39.3954 33.69 40.92Z" stroke="var(--stroke-0, #9FA0A2)" stroke-width="1.96875" stroke-linecap="round" stroke-linejoin="round"/>
<path id="Vector_3" d="M13.5 24V27C13.5 27.7956 13.8161 28.5586 14.3787 29.1213C14.9413 29.6839 15.7044 30 16.5 30H21C21.7956 30 22.5586 30.3161 23.1213 30.8787C23.6839 31.4414 24 32.2044 24 33V36" stroke="var(--stroke-0, #9FA0A2)" stroke-width="1.96875" stroke-linecap="round" stroke-linejoin="round"/>
<path id="Vector_4" d="M43.5002 24C43.5062 29.0095 41.5841 33.8294 38.1323 37.46C34.6805 41.0906 29.9637 43.2534 24.9602 43.5H24.0002H23.0552C17.8835 43.5 12.9235 41.4456 9.26659 37.7886C5.60964 34.1316 3.55518 29.1717 3.55518 24C3.55518 18.8283 5.60964 13.8684 9.26659 10.2114C12.9235 6.55446 17.8835 4.5 23.0552 4.5H24.0002H24.9602C29.9637 4.74663 34.6805 6.90945 38.1323 10.54C41.5841 14.1706 43.5062 18.9905 43.5002 24Z" stroke="var(--stroke-0, #9FA0A2)" stroke-width="1.96875" stroke-linecap="round" stroke-linejoin="round"/>
</g>
</svg>
