<svg width="184" height="28" viewBox="0 0 184 28" fill="none" xmlns="http://www.w3.org/2000/svg">
<path d="M31.7488 6.135C31.7488 2.516 34.7448 0 39.0988 0C43.2818 0 45.9388 2.318 46.0518 6.05H42.4338C42.3488 4.269 41.0768 3.223 39.0418 3.223C36.8088 3.223 35.3678 4.297 35.3678 6.021C35.3678 7.491 36.1588 8.311 37.8828 8.707L41.1328 9.414C44.6668 10.177 46.3908 11.986 46.3908 15.068C46.3908 18.913 43.3948 21.4 38.8438 21.4C34.4348 21.4 31.5518 19.054 31.4668 15.35H35.0848C35.1138 17.103 36.5268 18.15 38.8448 18.15C41.2468 18.15 42.7728 17.103 42.7728 15.379C42.7728 13.993 42.0668 13.174 40.3708 12.806L37.0918 12.071C33.5868 11.308 31.7488 9.301 31.7488 6.135ZM51.9668 21.033H48.5188V7.067H51.7128L51.9958 8.877C52.8718 7.463 54.5678 6.643 56.4608 6.643C59.9658 6.643 61.7748 8.82 61.7748 12.439V21.033H58.3268V13.258C58.3268 10.912 57.1678 9.781 55.3868 9.781C53.2668 9.781 51.9668 11.251 51.9668 13.513V21.033ZM68.5278 21.4C65.5598 21.4 63.7508 19.676 63.7508 17.047C63.7508 14.474 65.6168 12.863 68.9238 12.608L73.1068 12.298V11.986C73.1068 10.092 71.9768 9.329 70.2238 9.329C68.1888 9.329 67.0578 10.177 67.0578 11.647H64.1178C64.1178 8.622 66.6058 6.643 70.3928 6.643C74.1528 6.643 76.4698 8.679 76.4698 12.552V21.032H73.4458L73.1918 18.969C72.5978 20.411 70.7038 21.4 68.5278 21.4ZM69.6578 18.8C71.7778 18.8 73.1348 17.527 73.1348 15.379V14.644L70.2238 14.87C68.0758 15.068 67.2558 15.774 67.2558 16.905C67.2558 18.177 68.1038 18.799 69.6588 18.799L69.6578 18.8ZM78.2488 14.022C78.2488 9.697 81.1028 6.643 85.2288 6.643C89.0448 6.643 91.6448 8.763 92.0128 12.128H88.5648C88.1688 10.545 87.0098 9.725 85.3708 9.725C83.1658 9.725 81.6958 11.393 81.6958 14.022C81.6958 16.651 83.0528 18.291 85.2578 18.291C86.9818 18.291 88.1978 17.442 88.5648 15.916H92.0408C91.6168 19.166 88.9038 21.4 85.2578 21.4C81.0178 21.4 78.2488 18.46 78.2488 14.022ZM97.2938 21.033H93.8738L93.5638 0H96.9838L97.2938 12.92L102.721 7.067H107.045L101.732 12.608L106.932 21.033H102.975L99.3288 15.153L97.2938 17.273V21.033ZM112.15 21.033H108.701V7.067H111.867L112.15 8.707C112.856 7.548 114.269 6.643 116.276 6.643C118.396 6.643 119.866 7.689 120.601 9.301C121.307 7.689 122.946 6.643 125.066 6.643C128.458 6.643 130.323 8.679 130.323 11.902V21.032H126.903V12.806C126.903 10.799 125.829 9.753 124.19 9.753C122.522 9.753 121.251 10.827 121.251 13.117V21.033H117.802V12.778C117.802 10.828 116.757 9.781 115.117 9.781C113.478 9.781 112.15 10.856 112.15 13.117V21.033ZM136.918 21.4C133.951 21.4 132.142 19.676 132.142 17.047C132.142 14.474 134.007 12.863 137.314 12.608L141.497 12.298V11.986C141.497 10.092 140.367 9.329 138.614 9.329C136.579 9.329 135.449 10.177 135.449 11.647H132.509C132.509 8.622 134.996 6.643 138.784 6.643C142.543 6.643 144.861 8.679 144.861 12.552V21.032H141.836L141.582 18.969C140.988 20.411 139.095 21.4 136.918 21.4ZM138.049 18.8C140.169 18.8 141.525 17.527 141.525 15.379V14.644L138.614 14.87C136.466 15.068 135.646 15.774 135.646 16.905C135.646 18.177 136.494 18.8 138.049 18.8ZM146.822 13.74C146.822 9.668 149.479 6.615 153.464 6.615C155.555 6.615 157.195 7.491 158.014 8.99L158.212 7.067H161.406V20.326C161.406 24.991 158.608 27.902 154.086 27.902C150.072 27.902 147.331 25.612 146.907 21.881H150.355C150.581 23.691 151.966 24.764 154.086 24.764C156.46 24.764 157.986 23.266 157.986 20.948V18.63C157.11 19.93 155.386 20.75 153.379 20.75C149.422 20.75 146.822 17.782 146.822 13.74ZM150.298 13.654C150.298 16.001 151.796 17.754 154.057 17.754C156.432 17.754 157.901 16.085 157.901 13.654C157.901 11.28 156.46 9.64 154.057 9.64C151.768 9.64 150.298 11.364 150.298 13.654ZM170.206 14.022C170.206 9.697 173.061 6.643 177.187 6.643C181.003 6.643 183.603 8.763 183.971 12.128H180.522C180.127 10.545 178.968 9.725 177.329 9.725C175.124 9.725 173.654 11.393 173.654 14.022C173.654 16.651 175.011 18.291 177.216 18.291C178.94 18.291 180.155 17.442 180.522 15.916H183.999C183.575 19.166 180.862 21.4 177.216 21.4C172.976 21.4 170.206 18.46 170.206 14.022ZM164.312 7.067H167.926V21.033H164.312V7.067ZM167.926 0.458H164.312V4.072H167.926V0.458Z" fill="white"/>
<path d="M14.7293 10.9002C14.8093 10.9242 14.8993 10.9382 14.9823 10.9552C15.5746 11.0705 16.1599 11.2194 16.7353 11.4012C17.8723 11.7622 18.5993 12.5232 18.9393 13.6912C19.1223 14.3082 19.2683 14.9312 19.3863 15.5662C19.4163 15.7332 19.4383 15.9262 19.6703 15.9642C19.8703 15.9062 19.8913 15.7192 19.9233 15.5492C20.0333 14.9012 20.1933 14.2672 20.3803 13.6402C20.7263 12.4852 21.4603 11.7522 22.5833 11.4012C23.1833 11.2142 23.7933 11.0612 24.4093 10.9412C24.5723 10.9112 24.7893 10.9012 24.8003 10.6722C24.8103 10.4372 24.5893 10.4302 24.4263 10.3922C24.2463 10.3482 24.0623 10.3242 23.8823 10.2802C23.0793 10.0932 22.2683 9.91219 21.5683 9.43819C20.7963 8.91719 20.4663 8.10219 20.2453 7.23419C20.1103 6.70919 20.0133 6.17719 19.8913 5.64619C19.8613 5.50619 19.8153 5.36619 19.6413 5.36919C19.4903 5.37319 19.4443 5.50919 19.4173 5.63219C19.3613 5.85319 19.3303 6.07519 19.2823 6.29619C19.0983 7.14819 18.9183 8.00719 18.4293 8.74019C17.9343 9.48619 17.1753 9.80019 16.3693 10.0382C15.8353 10.1982 15.2913 10.3012 14.7503 10.4202C14.6303 10.4472 14.5043 10.4952 14.4973 10.6522C14.4913 10.8122 14.6153 10.8602 14.7333 10.8972L14.7303 10.9002H14.7293Z" fill="#FFB800"/>
<path d="M17.6947 17.8829C17.769 17.9438 17.8288 18.0205 17.8699 18.1074C17.911 18.1943 17.9324 18.2892 17.9324 18.3854C17.9324 18.4815 17.911 18.5764 17.8699 18.6633C17.8288 18.7502 17.769 18.8269 17.6947 18.8879C14.0147 21.8939 8.69067 22.1669 4.69967 19.4709C4.39967 19.2669 4.10067 19.0449 3.81367 18.8059C3.52567 18.5679 3.25567 18.3159 3.00267 18.0559C1.38234 16.4032 0.353407 14.2615 0.075816 11.9637C-0.201775 9.66596 0.287532 7.34085 1.46767 5.34985C1.51853 5.26741 1.58653 5.19688 1.66707 5.14305C1.7476 5.08922 1.83878 5.05336 1.93441 5.0379C2.03003 5.02243 2.12786 5.02773 2.22126 5.05344C2.31465 5.07914 2.40142 5.12464 2.47567 5.18685L17.6987 17.8829H17.6947ZM15.0787 0.932853C11.3897 -0.628147 7.05267 -0.0521469 3.91067 2.51285C3.83656 2.57373 3.77686 2.65029 3.73587 2.737C3.69488 2.82372 3.67362 2.91844 3.67362 3.01435C3.67362 3.11027 3.69488 3.20499 3.73587 3.29171C3.77686 3.37842 3.83656 3.45497 3.91067 3.51585L10.6727 9.15585L11.4527 9.80585C11.7327 10.0419 12.1557 10.0079 12.3977 9.73185L17.7707 3.49885C17.8825 3.37017 17.9393 3.20277 17.9291 3.03262C17.9188 2.86246 17.8422 2.70313 17.7157 2.58885C17.5896 2.47233 17.4578 2.36219 17.3207 2.25885C16.6311 1.72706 15.8784 1.28268 15.0797 0.935853V0.932853H15.0787Z" fill="#0B7AFC"/>
</svg>
