<svg xmlns="http://www.w3.org/2000/svg" width="27.434" height="12.001" viewBox="0 0 27.434 12.001" fill="none"><g><g id="Group">
<g id="Group_2">
<path id="Vector" d="M12.2311 9.5259C12.0192 9.5259 11.8072 9.47979 11.6105 9.38757L7.25088 7.42017C6.46374 7.06665 6.11558 6.14443 6.46374 5.34518L8.40133 0.933901C8.74949 0.150015 9.65773 -0.218872 10.4449 0.134645L14.8045 2.10204C15.5765 2.45556 15.9398 3.37778 15.5916 4.17704L13.6389 8.60368C13.3815 9.18775 12.8215 9.5259 12.2311 9.5259ZM11.9586 8.55757C12.2916 8.71127 12.6701 8.55757 12.8215 8.21943L14.759 3.79278C14.9104 3.45463 14.759 3.07037 14.426 2.91667L10.0816 0.964641C9.74856 0.810938 9.37012 0.964641 9.21875 1.30279L7.28116 5.71407C7.12979 6.05221 7.28116 6.43647 7.61418 6.59017L11.9586 8.55757Z" fill="#089949"/>
</g>
<g id="Group_3">
<path id="Vector_2" d="M25.8903 9.52439H21.122C20.2743 9.52439 19.578 8.81735 19.578 7.95662V3.11497C19.578 2.25423 20.2743 1.5472 21.122 1.5472H25.8903C26.738 1.5472 27.4343 2.25423 27.4343 3.11497V7.95662C27.4343 8.81735 26.738 9.52439 25.8903 9.52439ZM21.122 2.45405C20.7587 2.45405 20.4711 2.74608 20.4711 3.11497V7.95662C20.4711 8.3255 20.7587 8.61754 21.122 8.61754H25.8903C26.2536 8.61754 26.5412 8.3255 26.5412 7.95662V3.11497C26.5412 2.74608 26.2536 2.45405 25.8903 2.45405H21.122Z" fill="#F9B21D"/>
</g>
<path id="Vector_3" d="M8.02586 4.00876L7.39009 5.46894C7.37495 5.48431 7.37495 5.49968 7.35981 5.51505L7.61715 7.08282C7.6777 7.45171 7.4355 7.78986 7.0722 7.83597L2.36446 8.60448C2.19795 8.63522 2.0163 8.58911 1.88007 8.48152C1.74383 8.37393 1.65301 8.22022 1.62273 8.05115L0.86586 3.27099C0.835586 3.10191 0.880998 2.91747 0.98696 2.77914C1.09292 2.6408 1.2443 2.54858 1.41081 2.51784L6.11855 1.74933C6.14882 1.74933 6.19423 1.73396 6.22451 1.73396C6.54239 1.73396 6.81487 1.96451 6.87542 2.28729L7.13275 3.87043L7.7988 2.36414L7.76852 2.14895C7.63229 1.28822 6.84514 0.704145 5.99745 0.842478L1.28971 1.61099C0.880998 1.67247 0.5177 1.90303 0.290638 2.24118C0.0484397 2.57932 -0.0423848 2.99432 0.0181649 3.40932L0.775036 8.18948C0.835586 8.60448 1.06265 8.97337 1.39567 9.21929C1.65301 9.41911 1.97089 9.51133 2.30392 9.51133C2.3796 9.51133 2.47043 9.51133 2.56125 9.49596L7.26899 8.72744C8.11668 8.58911 8.69191 7.78986 8.55567 6.92912L8.02586 4.00876Z" fill="#E42527"/>
<g id="Group_4">
<path id="Vector_4" d="M13.6733 6.2826L14.3696 4.71483L14.1728 3.25465C14.1425 3.08558 14.188 2.90113 14.2939 2.7628C14.3999 2.62447 14.5513 2.53225 14.7329 2.50151L19.4558 1.85595C19.4861 1.85595 19.5163 1.85595 19.5466 1.85595C19.6828 1.85595 19.8191 1.90206 19.9402 1.99429C19.9553 2.00966 19.9856 2.02503 20.0007 2.0404C20.2126 1.80984 20.4851 1.65614 20.7879 1.59466C20.697 1.4717 20.5911 1.3641 20.47 1.27188C20.137 1.01059 19.7283 0.902994 19.3195 0.964476L14.5815 1.61003C14.1728 1.67151 13.8095 1.88669 13.5673 2.20947C13.31 2.54762 13.204 2.96261 13.2646 3.37761L13.6733 6.2826Z" fill="#226DB4"/>
<path id="Vector_5" d="M21.7296 7.09682L21.109 2.45498C20.7608 2.47035 20.4732 2.76239 20.4732 3.11591V4.48386L20.8365 7.21978C20.8668 7.38885 20.8214 7.5733 20.7154 7.71163C20.6095 7.84996 20.4581 7.94218 20.2764 7.97292L15.5536 8.61848C15.387 8.64922 15.2054 8.60311 15.0692 8.49551C14.9329 8.38792 14.8421 8.23422 14.8118 8.04977L14.5999 6.42052L13.9187 7.98829L13.949 8.17274C14.0095 8.58774 14.2215 8.95662 14.5393 9.20255C14.8118 9.41773 15.1297 9.52532 15.4779 9.52532C15.5536 9.52532 15.6141 9.52532 15.6898 9.50995L20.4127 8.8644C20.8214 8.80292 21.1847 8.58774 21.4269 8.26496C21.6691 7.92681 21.775 7.51181 21.7296 7.09682Z" fill="#226DB4"/>
</g>
</g></g><g transform="translate(8.372 10.556)"><g id="Group">
<path id="Vector" d="M0.0151383 1.27574L0.696322 0.261296H0.136238C0.105963 0.261296 0.0756876 0.230556 0.0756876 0.199815V0.0614819C0.0756876 0.0307413 0.105963 4.59084e-07 0.136238 4.59084e-07H1.04448C1.07476 4.59084e-07 1.10503 0.0307413 1.10503 0.0614819V0.107593C1.10503 0.122964 1.10503 0.122963 1.08989 0.138333L0.423849 1.15277H1.01421C1.04448 1.15277 1.07476 1.18351 1.07476 1.21425V1.35259C1.07476 1.38333 1.04448 1.41407 1.01421 1.41407H0.0605504C0.0302756 1.41407 5.0955e-07 1.38333 5.0955e-07 1.35259V1.30648C5.0955e-07 1.29111 0.0151383 1.27574 0.0151383 1.27574Z" fill="black"/>
<path id="Vector_2" d="M2.86328 0.707035C2.86328 0.292037 3.16603 4.59084e-07 3.57474 4.59084e-07C3.99859 4.59084e-07 4.2862 0.292037 4.2862 0.722405C4.2862 1.15277 3.99859 1.44481 3.57474 1.44481C3.13575 1.42944 2.86328 1.1374 2.86328 0.707035ZM3.95317 0.707035C3.95317 0.461111 3.83208 0.245926 3.5596 0.245926C3.28713 0.245926 3.18117 0.476481 3.18117 0.722405C3.18117 0.96833 3.30227 1.18351 3.57474 1.18351C3.84721 1.18351 3.95317 0.93759 3.95317 0.707035Z" fill="black"/>
<path id="Vector_3" d="M6.20542 0.014425H6.40221C6.43249 0.014425 6.46276 0.0451647 6.46276 0.0759053V0.583126H7.03798V0.0759053C7.03798 0.0451647 7.06826 0.014425 7.09853 0.014425H7.29532C7.32559 0.014425 7.35587 0.0451647 7.35587 0.0759053V1.36701C7.35587 1.39775 7.32559 1.42849 7.29532 1.42849H7.09853C7.06826 1.42849 7.03798 1.39775 7.03798 1.36701V0.84442H6.46276V1.36701C6.46276 1.39775 6.43249 1.42849 6.40221 1.42849H6.20542C6.17515 1.42849 6.14487 1.39775 6.14487 1.36701V0.0759053C6.14487 0.0297944 6.17515 0.014425 6.20542 0.014425Z" fill="black"/>
<path id="Vector_4" d="M9.21731 0.707035C9.21731 0.292037 9.52006 4.59084e-07 9.92877 4.59084e-07C10.3526 4.59084e-07 10.6402 0.292037 10.6402 0.722405C10.6402 1.15277 10.3526 1.44481 9.92877 1.44481C9.50492 1.42944 9.21731 1.1374 9.21731 0.707035ZM10.3072 0.707035C10.3072 0.461111 10.1861 0.245926 9.91363 0.245926C9.64116 0.245926 9.5352 0.476481 9.5352 0.722405C9.5352 0.96833 9.6563 1.18351 9.92877 1.18351C10.2012 1.18351 10.3072 0.93759 10.3072 0.707035Z" fill="black"/>
</g></g></svg>