<svg preserveAspectRatio="none" overflow="visible" style="display: block;" width="358.775" height="358.775" viewBox="0 0 358.775 358.775" fill="none" xmlns="http://www.w3.org/2000/svg">
<g id="dots">
<path d="M158.239 179.387C158.239 183.529 154.882 186.887 150.739 186.887C146.597 186.887 143.239 183.529 143.239 179.387C143.239 175.245 146.597 171.887 150.739 171.887C154.882 171.887 158.239 175.245 158.239 179.387Z" fill="#F9F1FE"/>
<path d="M172.563 154.578C172.563 158.72 169.206 162.078 165.063 162.078C160.921 162.078 157.563 158.72 157.563 154.578C157.563 150.435 160.921 147.078 165.063 147.078C169.206 147.078 172.563 150.435 172.563 154.578Z" fill="#F9F1FE"/>
<path d="M201.211 154.578C201.211 158.72 197.853 162.078 193.711 162.078C189.569 162.078 186.211 158.72 186.211 154.578C186.211 150.435 189.569 147.078 193.711 147.078C197.853 147.078 201.211 150.435 201.211 154.578Z" fill="#F9F1FE"/>
<path d="M215.535 179.387C215.535 183.529 212.177 186.887 208.035 186.887C203.893 186.887 200.535 183.529 200.535 179.387C200.535 175.245 203.893 171.887 208.035 171.887C212.177 171.887 215.535 175.245 215.535 179.387Z" fill="#F9F1FE"/>
<path d="M201.211 204.197C201.211 208.339 197.853 211.697 193.711 211.697C189.569 211.697 186.211 208.339 186.211 204.197C186.211 200.055 189.569 196.697 193.711 196.697C197.853 196.697 201.211 200.055 201.211 204.197Z" fill="#F9F1FE"/>
<path d="M172.563 204.197C172.563 208.339 169.206 211.697 165.063 211.697C160.921 211.697 157.563 208.339 157.563 204.197C157.563 200.055 160.921 196.697 165.063 196.697C169.206 196.697 172.563 200.055 172.563 204.197Z" fill="#F9F1FE"/>
<path d="M129.592 179.387C129.592 183.529 126.234 186.887 122.092 186.887C117.949 186.887 114.592 183.529 114.592 179.387C114.592 175.245 117.949 171.887 122.092 171.887C126.234 171.887 129.592 175.245 129.592 179.387Z" fill="#F9F1FE"/>
<path d="M137.268 150.739C137.268 154.882 133.91 158.239 129.768 158.239C125.626 158.239 122.268 154.882 122.268 150.739C122.268 146.597 125.626 143.239 129.768 143.239C133.91 143.239 137.268 146.597 137.268 150.739Z" fill="#F9F1FE"/>
<path d="M158.239 129.768C158.239 133.91 154.882 137.268 150.739 137.268C146.597 137.268 143.239 133.91 143.239 129.768C143.239 125.626 146.597 122.268 150.739 122.268C154.882 122.268 158.239 125.626 158.239 129.768Z" fill="#F9F1FE"/>
<path d="M186.887 122.092C186.887 126.234 183.529 129.592 179.387 129.592C175.245 129.592 171.887 126.234 171.887 122.092C171.887 117.949 175.245 114.592 179.387 114.592C183.529 114.592 186.887 117.949 186.887 122.092Z" fill="#F9F1FE"/>
<path d="M215.535 129.768C215.535 133.91 212.177 137.268 208.035 137.268C203.893 137.268 200.535 133.91 200.535 129.768C200.535 125.626 203.893 122.268 208.035 122.268C212.177 122.268 215.535 125.626 215.535 129.768Z" fill="#F9F1FE"/>
<path d="M236.507 150.739C236.507 154.882 233.149 158.239 229.007 158.239C224.865 158.239 221.507 154.882 221.507 150.739C221.507 146.597 224.865 143.239 229.007 143.239C233.149 143.239 236.507 146.597 236.507 150.739Z" fill="#F9F1FE"/>
<path d="M244.183 179.387C244.183 183.529 240.825 186.887 236.683 186.887C232.541 186.887 229.183 183.529 229.183 179.387C229.183 175.245 232.541 171.887 236.683 171.887C240.825 171.887 244.183 175.245 244.183 179.387Z" fill="#F9F1FE"/>
<path d="M236.507 208.035C236.507 212.177 233.149 215.535 229.007 215.535C224.865 215.535 221.507 212.177 221.507 208.035C221.507 203.893 224.865 200.535 229.007 200.535C233.149 200.535 236.507 203.893 236.507 208.035Z" fill="#F9F1FE"/>
<path d="M215.535 229.007C215.535 233.149 212.177 236.507 208.035 236.507C203.893 236.507 200.535 233.149 200.535 229.007C200.535 224.865 203.893 221.507 208.035 221.507C212.177 221.507 215.535 224.865 215.535 229.007Z" fill="#F9F1FE"/>
<path d="M186.887 236.683C186.887 240.825 183.529 244.183 179.387 244.183C175.245 244.183 171.887 240.825 171.887 236.683C171.887 232.541 175.245 229.183 179.387 229.183C183.529 229.183 186.887 232.541 186.887 236.683Z" fill="#F9F1FE"/>
<path d="M158.239 229.007C158.239 233.149 154.882 236.507 150.739 236.507C146.597 236.507 143.239 233.149 143.239 229.007C143.239 224.865 146.597 221.507 150.739 221.507C154.882 221.507 158.239 224.865 158.239 229.007Z" fill="#F9F1FE"/>
<path d="M137.268 208.035C137.268 212.177 133.91 215.535 129.768 215.535C125.626 215.535 122.268 212.177 122.268 208.035C122.268 203.893 125.626 200.535 129.768 200.535C133.91 200.535 137.268 203.893 137.268 208.035Z" fill="#F9F1FE"/>
<path d="M100.944 179.387C100.944 183.529 97.5858 186.887 93.4437 186.887C89.3015 186.887 85.9437 183.529 85.9437 179.387C85.9437 175.245 89.3015 171.887 93.4437 171.887C97.5858 171.887 100.944 175.245 100.944 179.387Z" fill="#F9F1FE"/>
<path d="M106.127 149.993C106.127 154.135 102.769 157.493 98.6267 157.493C94.4846 157.493 91.1267 154.135 91.1267 149.993C91.1267 145.851 94.4846 142.493 98.6267 142.493C102.769 142.493 106.127 145.851 106.127 149.993Z" fill="#F9F1FE"/>
<path d="M121.051 124.144C121.051 128.286 117.693 131.644 113.551 131.644C109.409 131.644 106.051 128.286 106.051 124.144C106.051 120.002 109.409 116.644 113.551 116.644C117.693 116.644 121.051 120.002 121.051 124.144Z" fill="#F9F1FE"/>
<path d="M143.916 104.958C143.916 109.1 140.558 112.458 136.416 112.458C132.273 112.458 128.916 109.1 128.916 104.958C128.916 100.816 132.273 97.4579 136.416 97.4579C140.558 97.4579 143.916 100.816 143.916 104.958Z" fill="#F9F1FE"/>
<path d="M171.963 94.7494C171.963 98.8915 168.606 102.249 164.463 102.249C160.321 102.249 156.963 98.8915 156.963 94.7494C156.963 90.6072 160.321 87.2494 164.463 87.2494C168.606 87.2494 171.963 90.6072 171.963 94.7494Z" fill="#F9F1FE"/>
<path d="M201.811 94.7494C201.811 98.8915 198.453 102.249 194.311 102.249C190.169 102.249 186.811 98.8915 186.811 94.7494C186.811 90.6072 190.169 87.2494 194.311 87.2494C198.453 87.2494 201.811 90.6072 201.811 94.7494Z" fill="#F9F1FE"/>
<path d="M229.859 104.958C229.859 109.1 226.501 112.458 222.359 112.458C218.217 112.458 214.859 109.1 214.859 104.958C214.859 100.816 218.217 97.4579 222.359 97.4579C226.501 97.4579 229.859 100.816 229.859 104.958Z" fill="#F9F1FE"/>
<path d="M252.724 124.144C252.724 128.286 249.366 131.644 245.224 131.644C241.082 131.644 237.724 128.286 237.724 124.144C237.724 120.002 241.082 116.644 245.224 116.644C249.366 116.644 252.724 120.002 252.724 124.144Z" fill="#F9F1FE"/>
<path d="M267.648 149.993C267.648 154.135 264.29 157.493 260.148 157.493C256.006 157.493 252.648 154.135 252.648 149.993C252.648 145.851 256.006 142.493 260.148 142.493C264.29 142.493 267.648 145.851 267.648 149.993Z" fill="#F9F1FE"/>
<path d="M272.831 179.387C272.831 183.529 269.473 186.887 265.331 186.887C261.189 186.887 257.831 183.529 257.831 179.387C257.831 175.245 261.189 171.887 265.331 171.887C269.473 171.887 272.831 175.245 272.831 179.387Z" fill="#F9F1FE"/>
<path d="M267.648 208.782C267.648 212.924 264.29 216.282 260.148 216.282C256.006 216.282 252.648 212.924 252.648 208.782C252.648 204.64 256.006 201.282 260.148 201.282C264.29 201.282 267.648 204.64 267.648 208.782Z" fill="#F9F1FE"/>
<path d="M252.724 234.631C252.724 238.773 249.366 242.131 245.224 242.131C241.082 242.131 237.724 238.773 237.724 234.631C237.724 230.489 241.082 227.131 245.224 227.131C249.366 227.131 252.724 230.489 252.724 234.631Z" fill="#F9F1FE"/>
<path d="M229.859 253.817C229.859 257.959 226.501 261.317 222.359 261.317C218.217 261.317 214.859 257.959 214.859 253.817C214.859 249.675 218.217 246.317 222.359 246.317C226.501 246.317 229.859 249.675 229.859 253.817Z" fill="#F9F1FE"/>
<path d="M201.811 264.025C201.811 268.167 198.453 271.525 194.311 271.525C190.169 271.525 186.811 268.167 186.811 264.025C186.811 259.883 190.169 256.525 194.311 256.525C198.453 256.525 201.811 259.883 201.811 264.025Z" fill="#F9F1FE"/>
<path d="M171.963 264.025C171.963 268.167 168.606 271.525 164.463 271.525C160.321 271.525 156.963 268.167 156.963 264.025C156.963 259.883 160.321 256.525 164.463 256.525C168.606 256.525 171.963 259.883 171.963 264.025Z" fill="#F9F1FE"/>
<path d="M143.916 253.817C143.916 257.959 140.558 261.317 136.416 261.317C132.273 261.317 128.916 257.959 128.916 253.817C128.916 249.675 132.273 246.317 136.416 246.317C140.558 246.317 143.916 249.675 143.916 253.817Z" fill="#F9F1FE"/>
<path d="M121.051 234.631C121.051 238.773 117.693 242.131 113.551 242.131C109.409 242.131 106.051 238.773 106.051 234.631C106.051 230.489 109.409 227.131 113.551 227.131C117.693 227.131 121.051 230.489 121.051 234.631Z" fill="#F9F1FE"/>
<path d="M106.127 208.782C106.127 212.924 102.769 216.282 98.6267 216.282C94.4846 216.282 91.1267 212.924 91.1267 208.782C91.1267 204.64 94.4846 201.282 98.6267 201.282C102.769 201.282 106.127 204.64 106.127 208.782Z" fill="#F9F1FE"/>
<path d="M72.2958 179.387C72.2958 183.529 68.9379 186.887 64.7958 186.887C60.6536 186.887 57.2958 183.529 57.2958 179.387C57.2958 175.245 60.6536 171.887 64.7958 171.887C68.9379 171.887 72.2958 175.245 72.2958 179.387Z" fill="#F9F1FE"/>
<path d="M76.2004 149.729C76.2004 153.871 72.8425 157.229 68.7004 157.229C64.5583 157.229 61.2004 153.871 61.2004 149.729C61.2004 145.587 64.5583 142.229 68.7004 142.229C72.8425 142.229 76.2004 145.587 76.2004 149.729Z" fill="#F9F1FE"/>
<path d="M87.6481 122.092C87.6481 126.234 84.2903 129.592 80.1481 129.592C76.006 129.592 72.6481 126.234 72.6481 122.092C72.6481 117.949 76.006 114.592 80.1481 114.592C84.2903 114.592 87.6481 117.949 87.6481 122.092Z" fill="#F9F1FE"/>
<path d="M105.859 98.3589C105.859 102.501 102.501 105.859 98.3589 105.859C94.2167 105.859 90.8589 102.501 90.8589 98.3589C90.8589 94.2167 94.2167 90.8589 98.3589 90.8589C102.501 90.8589 105.859 94.2167 105.859 98.3589Z" fill="#F9F1FE"/>
<path d="M129.592 80.1481C129.592 84.2903 126.234 87.6481 122.092 87.6481C117.949 87.6481 114.592 84.2903 114.592 80.1481C114.592 76.006 117.949 72.6481 122.092 72.6481C126.234 72.6481 129.592 76.006 129.592 80.1481Z" fill="#F9F1FE"/>
<path d="M157.229 68.7004C157.229 72.8425 153.871 76.2004 149.729 76.2004C145.587 76.2004 142.229 72.8425 142.229 68.7004C142.229 64.5583 145.587 61.2004 149.729 61.2004C153.871 61.2004 157.229 64.5583 157.229 68.7004Z" fill="#F9F1FE"/>
<path d="M186.887 64.7958C186.887 68.9379 183.529 72.2958 179.387 72.2958C175.245 72.2958 171.887 68.9379 171.887 64.7958C171.887 60.6536 175.245 57.2958 179.387 57.2958C183.529 57.2958 186.887 60.6536 186.887 64.7958Z" fill="#F9F1FE"/>
<path d="M216.546 68.7004C216.546 72.8425 213.188 76.2004 209.046 76.2004C204.904 76.2004 201.546 72.8425 201.546 68.7004C201.546 64.5583 204.904 61.2004 209.046 61.2004C213.188 61.2004 216.546 64.5583 216.546 68.7004Z" fill="#F9F1FE"/>
<path d="M244.183 80.1481C244.183 84.2903 240.825 87.6481 236.683 87.6481C232.541 87.6481 229.183 84.2903 229.183 80.1481C229.183 76.006 232.541 72.6481 236.683 72.6481C240.825 72.6481 244.183 76.006 244.183 80.1481Z" fill="#F9F1FE"/>
<path d="M267.916 98.3589C267.916 102.501 264.558 105.859 260.416 105.859C256.274 105.859 252.916 102.501 252.916 98.3589C252.916 94.2167 256.274 90.8589 260.416 90.8589C264.558 90.8589 267.916 94.2167 267.916 98.3589Z" fill="#F9F1FE"/>
<path d="M286.127 122.092C286.127 126.234 282.769 129.592 278.627 129.592C274.484 129.592 271.127 126.234 271.127 122.092C271.127 117.949 274.484 114.592 278.627 114.592C282.769 114.592 286.127 117.949 286.127 122.092Z" fill="#F9F1FE"/>
<path d="M297.574 149.729C297.574 153.871 294.216 157.229 290.074 157.229C285.932 157.229 282.574 153.871 282.574 149.729C282.574 145.587 285.932 142.229 290.074 142.229C294.216 142.229 297.574 145.587 297.574 149.729Z" fill="#F9F1FE"/>
<path d="M301.479 179.387C301.479 183.529 298.121 186.887 293.979 186.887C289.837 186.887 286.479 183.529 286.479 179.387C286.479 175.245 289.837 171.887 293.979 171.887C298.121 171.887 301.479 175.245 301.479 179.387Z" fill="#F9F1FE"/>
<path d="M297.574 209.046C297.574 213.188 294.216 216.546 290.074 216.546C285.932 216.546 282.574 213.188 282.574 209.046C282.574 204.904 285.932 201.546 290.074 201.546C294.216 201.546 297.574 204.904 297.574 209.046Z" fill="#F9F1FE"/>
<path d="M286.127 236.683C286.127 240.825 282.769 244.183 278.627 244.183C274.484 244.183 271.127 240.825 271.127 236.683C271.127 232.541 274.484 229.183 278.627 229.183C282.769 229.183 286.127 232.541 286.127 236.683Z" fill="#F9F1FE"/>
<path d="M267.916 260.416C267.916 264.558 264.558 267.916 260.416 267.916C256.274 267.916 252.916 264.558 252.916 260.416C252.916 256.274 256.274 252.916 260.416 252.916C264.558 252.916 267.916 256.274 267.916 260.416Z" fill="#F9F1FE"/>
<path d="M244.183 278.627C244.183 282.769 240.825 286.127 236.683 286.127C232.541 286.127 229.183 282.769 229.183 278.627C229.183 274.484 232.541 271.127 236.683 271.127C240.825 271.127 244.183 274.484 244.183 278.627Z" fill="#F9F1FE"/>
<path d="M216.546 290.074C216.546 294.216 213.188 297.574 209.046 297.574C204.904 297.574 201.546 294.216 201.546 290.074C201.546 285.932 204.904 282.574 209.046 282.574C213.188 282.574 216.546 285.932 216.546 290.074Z" fill="#F9F1FE"/>
<path d="M186.887 293.979C186.887 298.121 183.529 301.479 179.387 301.479C175.245 301.479 171.887 298.121 171.887 293.979C171.887 289.837 175.245 286.479 179.387 286.479C183.529 286.479 186.887 289.837 186.887 293.979Z" fill="#F9F1FE"/>
<path d="M157.229 290.074C157.229 294.216 153.871 297.574 149.729 297.574C145.587 297.574 142.229 294.216 142.229 290.074C142.229 285.932 145.587 282.574 149.729 282.574C153.871 282.574 157.229 285.932 157.229 290.074Z" fill="#F9F1FE"/>
<path d="M129.592 278.627C129.592 282.769 126.234 286.127 122.092 286.127C117.949 286.127 114.592 282.769 114.592 278.627C114.592 274.484 117.949 271.127 122.092 271.127C126.234 271.127 129.592 274.484 129.592 278.627Z" fill="#F9F1FE"/>
<path d="M105.859 260.416C105.859 264.558 102.501 267.916 98.3589 267.916C94.2167 267.916 90.8589 264.558 90.8589 260.416C90.8589 256.274 94.2167 252.916 98.3589 252.916C102.501 252.916 105.859 256.274 105.859 260.416Z" fill="#F9F1FE"/>
<path d="M87.6481 236.683C87.6481 240.825 84.2903 244.183 80.1481 244.183C76.006 244.183 72.6481 240.825 72.6481 236.683C72.6481 232.541 76.006 229.183 80.1481 229.183C84.2903 229.183 87.6481 232.541 87.6481 236.683Z" fill="#F9F1FE"/>
<path d="M76.2004 209.046C76.2004 213.188 72.8425 216.546 68.7004 216.546C64.5583 216.546 61.2004 213.188 61.2004 209.046C61.2004 204.904 64.5583 201.546 68.7004 201.546C72.8425 201.546 76.2004 204.904 76.2004 209.046Z" fill="#F9F1FE"/>
<path d="M43.6479 179.387C43.6479 183.529 40.29 186.887 36.1479 186.887C32.0058 186.887 28.6479 183.529 28.6479 179.387C28.6479 175.245 32.0058 171.887 36.1479 171.887C40.29 171.887 43.6479 175.245 43.6479 179.387Z" fill="#F9F1FE"/>
<path d="M46.778 149.606C46.778 153.748 43.4202 157.106 39.278 157.106C35.1359 157.106 31.778 153.748 31.778 149.606C31.778 145.464 35.1359 142.106 39.278 142.106C43.4202 142.106 46.778 145.464 46.778 149.606Z" fill="#F9F1FE"/>
<path d="M56.0316 121.127C56.0316 125.269 52.6737 128.627 48.5316 128.627C44.3895 128.627 41.0316 125.269 41.0316 121.127C41.0316 116.984 44.3895 113.627 48.5316 113.627C52.6737 113.627 56.0316 116.984 56.0316 121.127Z" fill="#F9F1FE"/>
<path d="M71.0042 95.1933C71.0042 99.3354 67.6463 102.693 63.5042 102.693C59.3621 102.693 56.0042 99.3354 56.0042 95.1933C56.0042 91.0512 59.3621 87.6933 63.5042 87.6933C67.6463 87.6933 71.0042 91.0512 71.0042 95.1933Z" fill="#F9F1FE"/>
<path d="M91.0414 72.9397C91.0414 77.0818 87.6836 80.4397 83.5414 80.4397C79.3993 80.4397 76.0414 77.0818 76.0414 72.9397C76.0414 68.7976 79.3993 65.4397 83.5414 65.4397C87.6836 65.4397 91.0414 68.7976 91.0414 72.9397Z" fill="#F9F1FE"/>
<path d="M115.268 55.3383C115.268 59.4805 111.91 62.8383 107.768 62.8383C103.625 62.8383 100.268 59.4805 100.268 55.3383C100.268 51.1962 103.625 47.8383 107.768 47.8383C111.91 47.8383 115.268 51.1962 115.268 55.3383Z" fill="#F9F1FE"/>
<path d="M142.624 43.1585C142.624 47.3007 139.266 50.6585 135.124 50.6585C130.982 50.6585 127.624 47.3007 127.624 43.1585C127.624 39.0164 130.982 35.6585 135.124 35.6585C139.266 35.6585 142.624 39.0164 142.624 43.1585Z" fill="#F9F1FE"/>
<path d="M171.915 36.9326C171.915 41.0747 168.557 44.4326 164.415 44.4326C160.273 44.4326 156.915 41.0747 156.915 36.9326C156.915 32.7904 160.273 29.4326 164.415 29.4326C168.557 29.4326 171.915 32.7904 171.915 36.9326Z" fill="#F9F1FE"/>
<path d="M201.86 36.9326C201.86 41.0747 198.502 44.4326 194.36 44.4326C190.218 44.4326 186.86 41.0747 186.86 36.9326C186.86 32.7904 190.218 29.4326 194.36 29.4326C198.502 29.4326 201.86 32.7904 201.86 36.9326Z" fill="#F9F1FE"/>
<path d="M231.151 43.1585C231.151 47.3007 227.793 50.6585 223.651 50.6585C219.509 50.6585 216.151 47.3007 216.151 43.1585C216.151 39.0164 219.509 35.6585 223.651 35.6585C227.793 35.6585 231.151 39.0164 231.151 43.1585Z" fill="#F9F1FE"/>
<path d="M258.507 55.3383C258.507 59.4805 255.149 62.8383 251.007 62.8383C246.865 62.8383 243.507 59.4805 243.507 55.3383C243.507 51.1962 246.865 47.8383 251.007 47.8383C255.149 47.8383 258.507 51.1962 258.507 55.3383Z" fill="#F9F1FE"/>
<path d="M282.733 72.9397C282.733 77.0818 279.375 80.4397 275.233 80.4397C271.091 80.4397 267.733 77.0818 267.733 72.9397C267.733 68.7976 271.091 65.4397 275.233 65.4397C279.375 65.4397 282.733 68.7976 282.733 72.9397Z" fill="#F9F1FE"/>
<path d="M302.771 95.1933C302.771 99.3354 299.413 102.693 295.271 102.693C291.128 102.693 287.771 99.3354 287.771 95.1933C287.771 91.0512 291.128 87.6933 295.271 87.6933C299.413 87.6933 302.771 91.0512 302.771 95.1933Z" fill="#F9F1FE"/>
<path d="M317.743 121.127C317.743 125.269 314.385 128.627 310.243 128.627C306.101 128.627 302.743 125.269 302.743 121.127C302.743 116.984 306.101 113.627 310.243 113.627C314.385 113.627 317.743 116.984 317.743 121.127Z" fill="#F9F1FE"/>
<path d="M326.997 149.606C326.997 153.748 323.639 157.106 319.497 157.106C315.355 157.106 311.997 153.748 311.997 149.606C311.997 145.464 315.355 142.106 319.497 142.106C323.639 142.106 326.997 145.464 326.997 149.606Z" fill="#F9F1FE"/>
<path d="M330.127 179.387C330.127 183.529 326.769 186.887 322.627 186.887C318.485 186.887 315.127 183.529 315.127 179.387C315.127 175.245 318.485 171.887 322.627 171.887C326.769 171.887 330.127 175.245 330.127 179.387Z" fill="#F9F1FE"/>
<path d="M326.997 209.169C326.997 213.311 323.639 216.669 319.497 216.669C315.355 216.669 311.997 213.311 311.997 209.169C311.997 205.026 315.355 201.669 319.497 201.669C323.639 201.669 326.997 205.026 326.997 209.169Z" fill="#F9F1FE"/>
<path d="M317.743 237.648C317.743 241.79 314.385 245.148 310.243 245.148C306.101 245.148 302.743 241.79 302.743 237.648C302.743 233.506 306.101 230.148 310.243 230.148C314.385 230.148 317.743 233.506 317.743 237.648Z" fill="#F9F1FE"/>
<path d="M302.771 263.581C302.771 267.724 299.413 271.081 295.271 271.081C291.128 271.081 287.771 267.724 287.771 263.581C287.771 259.439 291.128 256.081 295.271 256.081C299.413 256.081 302.771 259.439 302.771 263.581Z" fill="#F9F1FE"/>
<path d="M282.733 285.835C282.733 289.977 279.375 293.335 275.233 293.335C271.091 293.335 267.733 289.977 267.733 285.835C267.733 281.693 271.091 278.335 275.233 278.335C279.375 278.335 282.733 281.693 282.733 285.835Z" fill="#F9F1FE"/>
<path d="M258.507 303.436C258.507 307.578 255.149 310.936 251.007 310.936C246.865 310.936 243.507 307.578 243.507 303.436C243.507 299.294 246.865 295.936 251.007 295.936C255.149 295.936 258.507 299.294 258.507 303.436Z" fill="#F9F1FE"/>
<path d="M231.151 315.616C231.151 319.758 227.793 323.116 223.651 323.116C219.509 323.116 216.151 319.758 216.151 315.616C216.151 311.474 219.509 308.116 223.651 308.116C227.793 308.116 231.151 311.474 231.151 315.616Z" fill="#F9F1FE"/>
<path d="M201.86 321.842C201.86 325.984 198.502 329.342 194.36 329.342C190.218 329.342 186.86 325.984 186.86 321.842C186.86 317.7 190.218 314.342 194.36 314.342C198.502 314.342 201.86 317.7 201.86 321.842Z" fill="#F9F1FE"/>
<path d="M171.915 321.842C171.915 325.984 168.557 329.342 164.415 329.342C160.273 329.342 156.915 325.984 156.915 321.842C156.915 317.7 160.273 314.342 164.415 314.342C168.557 314.342 171.915 317.7 171.915 321.842Z" fill="#F9F1FE"/>
<path d="M142.624 315.616C142.624 319.758 139.266 323.116 135.124 323.116C130.982 323.116 127.624 319.758 127.624 315.616C127.624 311.474 130.982 308.116 135.124 308.116C139.266 308.116 142.624 311.474 142.624 315.616Z" fill="#F9F1FE"/>
<path d="M115.268 303.436C115.268 307.578 111.91 310.936 107.768 310.936C103.625 310.936 100.268 307.578 100.268 303.436C100.268 299.294 103.625 295.936 107.768 295.936C111.91 295.936 115.268 299.294 115.268 303.436Z" fill="#F9F1FE"/>
<path d="M91.0414 285.835C91.0414 289.977 87.6836 293.335 83.5414 293.335C79.3993 293.335 76.0414 289.977 76.0414 285.835C76.0414 281.693 79.3993 278.335 83.5414 278.335C87.6836 278.335 91.0414 281.693 91.0414 285.835Z" fill="#F9F1FE"/>
<path d="M71.0042 263.581C71.0042 267.724 67.6463 271.081 63.5042 271.081C59.3621 271.081 56.0042 267.724 56.0042 263.581C56.0042 259.439 59.3621 256.081 63.5042 256.081C67.6463 256.081 71.0042 259.439 71.0042 263.581Z" fill="#F9F1FE"/>
<path d="M56.0316 237.648C56.0316 241.79 52.6737 245.148 48.5316 245.148C44.3895 245.148 41.0316 241.79 41.0316 237.648C41.0316 233.506 44.3895 230.148 48.5316 230.148C52.6737 230.148 56.0316 233.506 56.0316 237.648Z" fill="#F9F1FE"/>
<path d="M46.778 209.169C46.778 213.311 43.4202 216.669 39.278 216.669C35.1359 216.669 31.778 213.311 31.778 209.169C31.778 205.026 35.1359 201.669 39.278 201.669C43.4202 201.669 46.778 205.026 46.778 209.169Z" fill="#F9F1FE"/>
<path d="M15 179.387C15 183.529 11.6421 186.887 7.5 186.887C3.35786 186.887 0 183.529 0 179.387C0 175.245 3.35786 171.887 7.5 171.887C11.6421 171.887 15 175.245 15 179.387Z" fill="#F9F1FE"/>
<path d="M17.6114 149.539C17.6114 153.682 14.2535 157.039 10.1114 157.039C5.96922 157.039 2.61136 153.682 2.61136 149.539C2.61136 145.397 5.96922 142.039 10.1114 142.039C14.2535 142.039 17.6114 145.397 17.6114 149.539Z" fill="#F9F1FE"/>
<path d="M25.3661 120.598C25.3661 124.741 22.0082 128.098 17.8661 128.098C13.7239 128.098 10.3661 124.741 10.3661 120.598C10.3661 116.456 13.7239 113.098 17.8661 113.098C22.0082 113.098 25.3661 116.456 25.3661 120.598Z" fill="#F9F1FE"/>
<path d="M38.0285 93.4437C38.0285 97.5858 34.6707 100.944 30.5285 100.944C26.3864 100.944 23.0285 97.5858 23.0285 93.4437C23.0285 89.3015 26.3864 85.9437 30.5285 85.9437C34.6707 85.9437 38.0285 89.3015 38.0285 93.4437Z" fill="#F9F1FE"/>
<path d="M55.214 68.9003C55.214 73.0424 51.8561 76.4003 47.714 76.4003C43.5719 76.4003 40.214 73.0424 40.214 68.9003C40.214 64.7582 43.5719 61.4003 47.714 61.4003C51.8561 61.4003 55.214 64.7582 55.214 68.9003Z" fill="#F9F1FE"/>
<path d="M76.4003 47.714C76.4003 51.8561 73.0424 55.214 68.9003 55.214C64.7582 55.214 61.4003 51.8561 61.4003 47.714C61.4003 43.5719 64.7582 40.214 68.9003 40.214C73.0424 40.214 76.4003 43.5719 76.4003 47.714Z" fill="#F9F1FE"/>
<path d="M100.944 30.5285C100.944 34.6707 97.5858 38.0285 93.4437 38.0285C89.3015 38.0285 85.9437 34.6707 85.9437 30.5285C85.9437 26.3864 89.3015 23.0285 93.4437 23.0285C97.5858 23.0285 100.944 26.3864 100.944 30.5285Z" fill="#F9F1FE"/>
<path d="M128.098 17.8661C128.098 22.0082 124.741 25.3661 120.598 25.3661C116.456 25.3661 113.098 22.0082 113.098 17.8661C113.098 13.7239 116.456 10.3661 120.598 10.3661C124.741 10.3661 128.098 13.7239 128.098 17.8661Z" fill="#F9F1FE"/>
<path d="M157.039 10.1114C157.039 14.2535 153.682 17.6114 149.539 17.6114C145.397 17.6114 142.039 14.2535 142.039 10.1114C142.039 5.96922 145.397 2.61136 149.539 2.61136C153.682 2.61136 157.039 5.96922 157.039 10.1114Z" fill="#F9F1FE"/>
<path d="M186.887 7.5C186.887 11.6421 183.529 15 179.387 15C175.245 15 171.887 11.6421 171.887 7.5C171.887 3.35786 175.245 0 179.387 0C183.529 0 186.887 3.35786 186.887 7.5Z" fill="#F9F1FE"/>
<path d="M216.735 10.1114C216.735 14.2535 213.377 17.6114 209.235 17.6114C205.093 17.6114 201.735 14.2535 201.735 10.1114C201.735 5.96922 205.093 2.61136 209.235 2.61136C213.377 2.61136 216.735 5.96922 216.735 10.1114Z" fill="#F9F1FE"/>
<path d="M245.676 17.8661C245.676 22.0082 242.318 25.3661 238.176 25.3661C234.034 25.3661 230.676 22.0082 230.676 17.8661C230.676 13.7239 234.034 10.3661 238.176 10.3661C242.318 10.3661 245.676 13.7239 245.676 17.8661Z" fill="#F9F1FE"/>
<path d="M272.831 30.5285C272.831 34.6707 269.473 38.0285 265.331 38.0285C261.189 38.0285 257.831 34.6707 257.831 30.5285C257.831 26.3864 261.189 23.0285 265.331 23.0285C269.473 23.0285 272.831 26.3864 272.831 30.5285Z" fill="#F9F1FE"/>
<path d="M297.374 47.714C297.374 51.8561 294.017 55.214 289.874 55.214C285.732 55.214 282.374 51.8561 282.374 47.714C282.374 43.5719 285.732 40.214 289.874 40.214C294.017 40.214 297.374 43.5719 297.374 47.714Z" fill="#F9F1FE"/>
<path d="M318.561 68.9003C318.561 73.0424 315.203 76.4003 311.061 76.4003C306.919 76.4003 303.561 73.0424 303.561 68.9003C303.561 64.7582 306.919 61.4003 311.061 61.4003C315.203 61.4003 318.561 64.7582 318.561 68.9003Z" fill="#F9F1FE"/>
<path d="M335.746 93.4437C335.746 97.5858 332.388 100.944 328.246 100.944C324.104 100.944 320.746 97.5858 320.746 93.4437C320.746 89.3015 324.104 85.9437 328.246 85.9437C332.388 85.9437 335.746 89.3015 335.746 93.4437Z" fill="#F9F1FE"/>
<path d="M348.409 120.598C348.409 124.741 345.051 128.098 340.909 128.098C336.766 128.098 333.409 124.741 333.409 120.598C333.409 116.456 336.766 113.098 340.909 113.098C345.051 113.098 348.409 116.456 348.409 120.598Z" fill="#F9F1FE"/>
<path d="M356.163 149.539C356.163 153.682 352.805 157.039 348.663 157.039C344.521 157.039 341.163 153.682 341.163 149.539C341.163 145.397 344.521 142.039 348.663 142.039C352.805 142.039 356.163 145.397 356.163 149.539Z" fill="#F9F1FE"/>
<path d="M358.775 179.387C358.775 183.529 355.417 186.887 351.275 186.887C347.133 186.887 343.775 183.529 343.775 179.387C343.775 175.245 347.133 171.887 351.275 171.887C355.417 171.887 358.775 175.245 358.775 179.387Z" fill="#F9F1FE"/>
<path d="M356.163 209.235C356.163 213.377 352.805 216.735 348.663 216.735C344.521 216.735 341.163 213.377 341.163 209.235C341.163 205.093 344.521 201.735 348.663 201.735C352.805 201.735 356.163 205.093 356.163 209.235Z" fill="#F9F1FE"/>
<path d="M348.409 238.176C348.409 242.318 345.051 245.676 340.909 245.676C336.766 245.676 333.409 242.318 333.409 238.176C333.409 234.034 336.766 230.676 340.909 230.676C345.051 230.676 348.409 234.034 348.409 238.176Z" fill="#F9F1FE"/>
<path d="M335.746 265.331C335.746 269.473 332.388 272.831 328.246 272.831C324.104 272.831 320.746 269.473 320.746 265.331C320.746 261.189 324.104 257.831 328.246 257.831C332.388 257.831 335.746 261.189 335.746 265.331Z" fill="#F9F1FE"/>
<path d="M318.561 289.874C318.561 294.017 315.203 297.374 311.061 297.374C306.919 297.374 303.561 294.017 303.561 289.874C303.561 285.732 306.919 282.374 311.061 282.374C315.203 282.374 318.561 285.732 318.561 289.874Z" fill="#F9F1FE"/>
<path d="M297.374 311.061C297.374 315.203 294.017 318.561 289.874 318.561C285.732 318.561 282.374 315.203 282.374 311.061C282.374 306.919 285.732 303.561 289.874 303.561C294.017 303.561 297.374 306.919 297.374 311.061Z" fill="#F9F1FE"/>
<path d="M272.831 328.246C272.831 332.388 269.473 335.746 265.331 335.746C261.189 335.746 257.831 332.388 257.831 328.246C257.831 324.104 261.189 320.746 265.331 320.746C269.473 320.746 272.831 324.104 272.831 328.246Z" fill="#F9F1FE"/>
<path d="M245.676 340.909C245.676 345.051 242.318 348.409 238.176 348.409C234.034 348.409 230.676 345.051 230.676 340.909C230.676 336.766 234.034 333.409 238.176 333.409C242.318 333.409 245.676 336.766 245.676 340.909Z" fill="#F9F1FE"/>
<path d="M216.735 348.663C216.735 352.805 213.377 356.163 209.235 356.163C205.093 356.163 201.735 352.805 201.735 348.663C201.735 344.521 205.093 341.163 209.235 341.163C213.377 341.163 216.735 344.521 216.735 348.663Z" fill="#F9F1FE"/>
<path d="M186.887 351.275C186.887 355.417 183.529 358.775 179.387 358.775C175.245 358.775 171.887 355.417 171.887 351.275C171.887 347.133 175.245 343.775 179.387 343.775C183.529 343.775 186.887 347.133 186.887 351.275Z" fill="#F9F1FE"/>
<path d="M157.039 348.663C157.039 352.805 153.682 356.163 149.539 356.163C145.397 356.163 142.039 352.805 142.039 348.663C142.039 344.521 145.397 341.163 149.539 341.163C153.682 341.163 157.039 344.521 157.039 348.663Z" fill="#F9F1FE"/>
<path d="M128.098 340.909C128.098 345.051 124.741 348.409 120.598 348.409C116.456 348.409 113.098 345.051 113.098 340.909C113.098 336.766 116.456 333.409 120.598 333.409C124.741 333.409 128.098 336.766 128.098 340.909Z" fill="#F9F1FE"/>
<path d="M100.944 328.246C100.944 332.388 97.5858 335.746 93.4437 335.746C89.3015 335.746 85.9437 332.388 85.9437 328.246C85.9437 324.104 89.3015 320.746 93.4437 320.746C97.5858 320.746 100.944 324.104 100.944 328.246Z" fill="#F9F1FE"/>
<path d="M76.4003 311.061C76.4003 315.203 73.0424 318.561 68.9003 318.561C64.7582 318.561 61.4003 315.203 61.4003 311.061C61.4003 306.919 64.7582 303.561 68.9003 303.561C73.0424 303.561 76.4003 306.919 76.4003 311.061Z" fill="#F9F1FE"/>
<path d="M55.214 289.874C55.214 294.017 51.8561 297.374 47.714 297.374C43.5719 297.374 40.214 294.017 40.214 289.874C40.214 285.732 43.5719 282.374 47.714 282.374C51.8561 282.374 55.214 285.732 55.214 289.874Z" fill="#F9F1FE"/>
<path d="M38.0285 265.331C38.0285 269.473 34.6707 272.831 30.5285 272.831C26.3864 272.831 23.0285 269.473 23.0285 265.331C23.0285 261.189 26.3864 257.831 30.5285 257.831C34.6707 257.831 38.0285 261.189 38.0285 265.331Z" fill="#F9F1FE"/>
<path d="M25.3661 238.176C25.3661 242.318 22.0082 245.676 17.8661 245.676C13.7239 245.676 10.3661 242.318 10.3661 238.176C10.3661 234.034 13.7239 230.676 17.8661 230.676C22.0082 230.676 25.3661 234.034 25.3661 238.176Z" fill="#F9F1FE"/>
<path d="M17.6114 209.235C17.6114 213.377 14.2535 216.735 10.1114 216.735C5.96922 216.735 2.61136 213.377 2.61136 209.235C2.61136 205.093 5.96922 201.735 10.1114 201.735C14.2535 201.735 17.6114 205.093 17.6114 209.235Z" fill="#F9F1FE"/>
<path d="M186.887 179.387C186.887 183.529 183.529 186.887 179.387 186.887C175.245 186.887 171.887 183.529 171.887 179.387C171.887 175.245 175.245 171.887 179.387 171.887C183.529 171.887 186.887 175.245 186.887 179.387Z" fill="#F9F1FE"/>
</g>
</svg>
